<?xml version="1.0" encoding="utf-8" standalone="no"?>
<!DOCTYPE svg PUBLIC "-//W3C//DTD SVG 1.1//EN"
  "http://www.w3.org/Graphics/SVG/1.1/DTD/svg11.dtd">
<svg xmlns:xlink="http://www.w3.org/1999/xlink" width="452.499399pt" height="337.620848pt" viewBox="0 0 452.499399 337.620848" xmlns="http://www.w3.org/2000/svg" version="1.1">
 <metadata>
  <rdf:RDF xmlns:dc="http://purl.org/dc/elements/1.1/" xmlns:cc="http://creativecommons.org/ns#" xmlns:rdf="http://www.w3.org/1999/02/22-rdf-syntax-ns#">
   <cc:Work>
    <dc:type rdf:resource="http://purl.org/dc/dcmitype/StillImage"/>
    <dc:date>2026-05-16T12:30:12.541334</dc:date>
    <dc:format>image/svg+xml</dc:format>
    <dc:creator>
     <cc:Agent>
      <dc:title>Matplotlib v3.8.2, https://matplotlib.org/</dc:title>
     </cc:Agent>
    </dc:creator>
   </cc:Work>
  </rdf:RDF>
 </metadata>
 <defs>
  <style type="text/css">*{stroke-linejoin: round; stroke-linecap: butt}</style>
 </defs>
 <g id="figure_1">
  <g id="patch_1">
   <path d="M 0 337.620848 
L 452.499399 337.620848 
L 452.499399 0 
L 0 0 
z
" style="fill: #fbfcfe"/>
  </g>
  <g id="axes_1">
   <g id="patch_2">
    <path d="M 55.587942 304.532411 
L 360.277683 304.532411 
L 360.277683 22.318125 
L 55.587942 22.318125 
z
" style="fill: #fbfcfe"/>
   </g>
   <g id="matplotlib.axis_1">
    <g id="xtick_1">
     <g id="line2d_1"/>
     <g id="text_1">
      <!-- 0.726 -->
      <g style="fill: #475569" transform="translate(52.042771 314.871004) scale(0.09 -0.09)">
       <defs>
        <path id="DejaVuSans-30" d="M 2034 4250 
Q 1547 4250 1301 3770 
Q 1056 3291 1056 2328 
Q 1056 1369 1301 889 
Q 1547 409 2034 409 
Q 2525 409 2770 889 
Q 3016 1369 3016 2328 
Q 3016 3291 2770 3770 
Q 2525 4250 2034 4250 
z
M 2034 4750 
Q 2819 4750 3233 4129 
Q 3647 3509 3647 2328 
Q 3647 1150 3233 529 
Q 2819 -91 2034 -91 
Q 1250 -91 836 529 
Q 422 1150 422 2328 
Q 422 3509 836 4129 
Q 1250 4750 2034 4750 
z
" transform="scale(0.015625)"/>
        <path id="DejaVuSans-2e" d="M 684 794 
L 1344 794 
L 1344 0 
L 684 0 
L 684 794 
z
" transform="scale(0.015625)"/>
        <path id="DejaVuSans-37" d="M 525 4666 
L 3525 4666 
L 3525 4397 
L 1831 0 
L 1172 0 
L 2766 4134 
L 525 4134 
L 525 4666 
z
" transform="scale(0.015625)"/>
        <path id="DejaVuSans-32" d="M 1228 531 
L 3431 531 
L 3431 0 
L 469 0 
L 469 531 
Q 828 903 1448 1529 
Q 2069 2156 2228 2338 
Q 2531 2678 2651 2914 
Q 2772 3150 2772 3378 
Q 2772 3750 2511 3984 
Q 2250 4219 1831 4219 
Q 1534 4219 1204 4116 
Q 875 4013 500 3803 
L 500 4441 
Q 881 4594 1212 4672 
Q 1544 4750 1819 4750 
Q 2544 4750 2975 4387 
Q 3406 4025 3406 3419 
Q 3406 3131 3298 2873 
Q 3191 2616 2906 2266 
Q 2828 2175 2409 1742 
Q 1991 1309 1228 531 
z
" transform="scale(0.015625)"/>
        <path id="DejaVuSans-36" d="M 2113 2584 
Q 1688 2584 1439 2293 
Q 1191 2003 1191 1497 
Q 1191 994 1439 701 
Q 1688 409 2113 409 
Q 2538 409 2786 701 
Q 3034 994 3034 1497 
Q 3034 2003 2786 2293 
Q 2538 2584 2113 2584 
z
M 3366 4563 
L 3366 3988 
Q 3128 4100 2886 4159 
Q 2644 4219 2406 4219 
Q 1781 4219 1451 3797 
Q 1122 3375 1075 2522 
Q 1259 2794 1537 2939 
Q 1816 3084 2150 3084 
Q 2853 3084 3261 2657 
Q 3669 2231 3669 1497 
Q 3669 778 3244 343 
Q 2819 -91 2113 -91 
Q 1303 -91 875 529 
Q 447 1150 447 2328 
Q 447 3434 972 4092 
Q 1497 4750 2381 4750 
Q 2619 4750 2861 4703 
Q 3103 4656 3366 4563 
z
" transform="scale(0.015625)"/>
       </defs>
       <use xlink:href="#DejaVuSans-30"/>
       <use xlink:href="#DejaVuSans-2e" x="63.623047"/>
       <use xlink:href="#DejaVuSans-37" x="95.410156"/>
       <use xlink:href="#DejaVuSans-32" x="159.033203"/>
       <use xlink:href="#DejaVuSans-36" x="222.65625"/>
      </g>
     </g>
    </g>
    <g id="xtick_2">
     <g id="line2d_2"/>
     <g id="text_2">
      <!-- 0.728 -->
      <g style="fill: #475569" transform="translate(86.541374 314.871004) scale(0.09 -0.09)">
       <defs>
        <path id="DejaVuSans-38" d="M 2034 2216 
Q 1584 2216 1326 1975 
Q 1069 1734 1069 1313 
Q 1069 891 1326 650 
Q 1584 409 2034 409 
Q 2484 409 2743 651 
Q 3003 894 3003 1313 
Q 3003 1734 2745 1975 
Q 2488 2216 2034 2216 
z
M 1403 2484 
Q 997 2584 770 2862 
Q 544 3141 544 3541 
Q 544 4100 942 4425 
Q 1341 4750 2034 4750 
Q 2731 4750 3128 4425 
Q 3525 4100 3525 3541 
Q 3525 3141 3298 2862 
Q 3072 2584 2669 2484 
Q 3125 2378 3379 2068 
Q 3634 1759 3634 1313 
Q 3634 634 3220 271 
Q 2806 -91 2034 -91 
Q 1263 -91 848 271 
Q 434 634 434 1313 
Q 434 1759 690 2068 
Q 947 2378 1403 2484 
z
M 1172 3481 
Q 1172 3119 1398 2916 
Q 1625 2713 2034 2713 
Q 2441 2713 2670 2916 
Q 2900 3119 2900 3481 
Q 2900 3844 2670 4047 
Q 2441 4250 2034 4250 
Q 1625 4250 1398 4047 
Q 1172 3844 1172 3481 
z
" transform="scale(0.015625)"/>
       </defs>
       <use xlink:href="#DejaVuSans-30"/>
       <use xlink:href="#DejaVuSans-2e" x="63.623047"/>
       <use xlink:href="#DejaVuSans-37" x="95.410156"/>
       <use xlink:href="#DejaVuSans-32" x="159.033203"/>
       <use xlink:href="#DejaVuSans-38" x="222.65625"/>
      </g>
     </g>
    </g>
    <g id="xtick_3">
     <g id="line2d_3"/>
     <g id="text_3">
      <!-- 0.730 -->
      <g style="fill: #475569" transform="translate(121.039976 314.871004) scale(0.09 -0.09)">
       <defs>
        <path id="DejaVuSans-33" d="M 2597 2516 
Q 3050 2419 3304 2112 
Q 3559 1806 3559 1356 
Q 3559 666 3084 287 
Q 2609 -91 1734 -91 
Q 1441 -91 1130 -33 
Q 819 25 488 141 
L 488 750 
Q 750 597 1062 519 
Q 1375 441 1716 441 
Q 2309 441 2620 675 
Q 2931 909 2931 1356 
Q 2931 1769 2642 2001 
Q 2353 2234 1838 2234 
L 1294 2234 
L 1294 2753 
L 1863 2753 
Q 2328 2753 2575 2939 
Q 2822 3125 2822 3475 
Q 2822 3834 2567 4026 
Q 2313 4219 1838 4219 
Q 1578 4219 1281 4162 
Q 984 4106 628 3988 
L 628 4550 
Q 988 4650 1302 4700 
Q 1616 4750 1894 4750 
Q 2613 4750 3031 4423 
Q 3450 4097 3450 3541 
Q 3450 3153 3228 2886 
Q 3006 2619 2597 2516 
z
" transform="scale(0.015625)"/>
       </defs>
       <use xlink:href="#DejaVuSans-30"/>
       <use xlink:href="#DejaVuSans-2e" x="63.623047"/>
       <use xlink:href="#DejaVuSans-37" x="95.410156"/>
       <use xlink:href="#DejaVuSans-33" x="159.033203"/>
       <use xlink:href="#DejaVuSans-30" x="222.65625"/>
      </g>
     </g>
    </g>
    <g id="xtick_4">
     <g id="line2d_4"/>
     <g id="text_4">
      <!-- 0.732 -->
      <g style="fill: #475569" transform="translate(155.538578 314.871004) scale(0.09 -0.09)">
       <use xlink:href="#DejaVuSans-30"/>
       <use xlink:href="#DejaVuSans-2e" x="63.623047"/>
       <use xlink:href="#DejaVuSans-37" x="95.410156"/>
       <use xlink:href="#DejaVuSans-33" x="159.033203"/>
       <use xlink:href="#DejaVuSans-32" x="222.65625"/>
      </g>
     </g>
    </g>
    <g id="xtick_5">
     <g id="line2d_5"/>
     <g id="text_5">
      <!-- 0.734 -->
      <g style="fill: #475569" transform="translate(190.03718 314.871004) scale(0.09 -0.09)">
       <defs>
        <path id="DejaVuSans-34" d="M 2419 4116 
L 825 1625 
L 2419 1625 
L 2419 4116 
z
M 2253 4666 
L 3047 4666 
L 3047 1625 
L 3713 1625 
L 3713 1100 
L 3047 1100 
L 3047 0 
L 2419 0 
L 2419 1100 
L 313 1100 
L 313 1709 
L 2253 4666 
z
" transform="scale(0.015625)"/>
       </defs>
       <use xlink:href="#DejaVuSans-30"/>
       <use xlink:href="#DejaVuSans-2e" x="63.623047"/>
       <use xlink:href="#DejaVuSans-37" x="95.410156"/>
       <use xlink:href="#DejaVuSans-33" x="159.033203"/>
       <use xlink:href="#DejaVuSans-34" x="222.65625"/>
      </g>
     </g>
    </g>
    <g id="xtick_6">
     <g id="line2d_6"/>
     <g id="text_6">
      <!-- 0.736 -->
      <g style="fill: #475569" transform="translate(224.535783 314.871004) scale(0.09 -0.09)">
       <use xlink:href="#DejaVuSans-30"/>
       <use xlink:href="#DejaVuSans-2e" x="63.623047"/>
       <use xlink:href="#DejaVuSans-37" x="95.410156"/>
       <use xlink:href="#DejaVuSans-33" x="159.033203"/>
       <use xlink:href="#DejaVuSans-36" x="222.65625"/>
      </g>
     </g>
    </g>
    <g id="xtick_7">
     <g id="line2d_7"/>
     <g id="text_7">
      <!-- 0.738 -->
      <g style="fill: #475569" transform="translate(259.034385 314.871004) scale(0.09 -0.09)">
       <use xlink:href="#DejaVuSans-30"/>
       <use xlink:href="#DejaVuSans-2e" x="63.623047"/>
       <use xlink:href="#DejaVuSans-37" x="95.410156"/>
       <use xlink:href="#DejaVuSans-33" x="159.033203"/>
       <use xlink:href="#DejaVuSans-38" x="222.65625"/>
      </g>
     </g>
    </g>
    <g id="xtick_8">
     <g id="line2d_8"/>
     <g id="text_8">
      <!-- 0.740 -->
      <g style="fill: #475569" transform="translate(293.532987 314.871004) scale(0.09 -0.09)">
       <use xlink:href="#DejaVuSans-30"/>
       <use xlink:href="#DejaVuSans-2e" x="63.623047"/>
       <use xlink:href="#DejaVuSans-37" x="95.410156"/>
       <use xlink:href="#DejaVuSans-34" x="159.033203"/>
       <use xlink:href="#DejaVuSans-30" x="222.65625"/>
      </g>
     </g>
    </g>
    <g id="xtick_9">
     <g id="line2d_9"/>
     <g id="text_9">
      <!-- 0.742 -->
      <g style="fill: #475569" transform="translate(328.031589 314.871004) scale(0.09 -0.09)">
       <use xlink:href="#DejaVuSans-30"/>
       <use xlink:href="#DejaVuSans-2e" x="63.623047"/>
       <use xlink:href="#DejaVuSans-37" x="95.410156"/>
       <use xlink:href="#DejaVuSans-34" x="159.033203"/>
       <use xlink:href="#DejaVuSans-32" x="222.65625"/>
      </g>
     </g>
    </g>
    <g id="text_10">
     <!-- image retrieval hit@1 -->
     <g style="fill: #475569" transform="translate(153.567969 328.341161) scale(0.1 -0.1)">
      <defs>
       <path id="DejaVuSans-69" d="M 603 3500 
L 1178 3500 
L 1178 0 
L 603 0 
L 603 3500 
z
M 603 4863 
L 1178 4863 
L 1178 4134 
L 603 4134 
L 603 4863 
z
" transform="scale(0.015625)"/>
       <path id="DejaVuSans-6d" d="M 3328 2828 
Q 3544 3216 3844 3400 
Q 4144 3584 4550 3584 
Q 5097 3584 5394 3201 
Q 5691 2819 5691 2113 
L 5691 0 
L 5113 0 
L 5113 2094 
Q 5113 2597 4934 2840 
Q 4756 3084 4391 3084 
Q 3944 3084 3684 2787 
Q 3425 2491 3425 1978 
L 3425 0 
L 2847 0 
L 2847 2094 
Q 2847 2600 2669 2842 
Q 2491 3084 2119 3084 
Q 1678 3084 1418 2786 
Q 1159 2488 1159 1978 
L 1159 0 
L 581 0 
L 581 3500 
L 1159 3500 
L 1159 2956 
Q 1356 3278 1631 3431 
Q 1906 3584 2284 3584 
Q 2666 3584 2933 3390 
Q 3200 3197 3328 2828 
z
" transform="scale(0.015625)"/>
       <path id="DejaVuSans-61" d="M 2194 1759 
Q 1497 1759 1228 1600 
Q 959 1441 959 1056 
Q 959 750 1161 570 
Q 1363 391 1709 391 
Q 2188 391 2477 730 
Q 2766 1069 2766 1631 
L 2766 1759 
L 2194 1759 
z
M 3341 1997 
L 3341 0 
L 2766 0 
L 2766 531 
Q 2569 213 2275 61 
Q 1981 -91 1556 -91 
Q 1019 -91 701 211 
Q 384 513 384 1019 
Q 384 1609 779 1909 
Q 1175 2209 1959 2209 
L 2766 2209 
L 2766 2266 
Q 2766 2663 2505 2880 
Q 2244 3097 1772 3097 
Q 1472 3097 1187 3025 
Q 903 2953 641 2809 
L 641 3341 
Q 956 3463 1253 3523 
Q 1550 3584 1831 3584 
Q 2591 3584 2966 3190 
Q 3341 2797 3341 1997 
z
" transform="scale(0.015625)"/>
       <path id="DejaVuSans-67" d="M 2906 1791 
Q 2906 2416 2648 2759 
Q 2391 3103 1925 3103 
Q 1463 3103 1205 2759 
Q 947 2416 947 1791 
Q 947 1169 1205 825 
Q 1463 481 1925 481 
Q 2391 481 2648 825 
Q 2906 1169 2906 1791 
z
M 3481 434 
Q 3481 -459 3084 -895 
Q 2688 -1331 1869 -1331 
Q 1566 -1331 1297 -1286 
Q 1028 -1241 775 -1147 
L 775 -588 
Q 1028 -725 1275 -790 
Q 1522 -856 1778 -856 
Q 2344 -856 2625 -561 
Q 2906 -266 2906 331 
L 2906 616 
Q 2728 306 2450 153 
Q 2172 0 1784 0 
Q 1141 0 747 490 
Q 353 981 353 1791 
Q 353 2603 747 3093 
Q 1141 3584 1784 3584 
Q 2172 3584 2450 3431 
Q 2728 3278 2906 2969 
L 2906 3500 
L 3481 3500 
L 3481 434 
z
" transform="scale(0.015625)"/>
       <path id="DejaVuSans-65" d="M 3597 1894 
L 3597 1613 
L 953 1613 
Q 991 1019 1311 708 
Q 1631 397 2203 397 
Q 2534 397 2845 478 
Q 3156 559 3463 722 
L 3463 178 
Q 3153 47 2828 -22 
Q 2503 -91 2169 -91 
Q 1331 -91 842 396 
Q 353 884 353 1716 
Q 353 2575 817 3079 
Q 1281 3584 2069 3584 
Q 2775 3584 3186 3129 
Q 3597 2675 3597 1894 
z
M 3022 2063 
Q 3016 2534 2758 2815 
Q 2500 3097 2075 3097 
Q 1594 3097 1305 2825 
Q 1016 2553 972 2059 
L 3022 2063 
z
" transform="scale(0.015625)"/>
       <path id="DejaVuSans-20" transform="scale(0.015625)"/>
       <path id="DejaVuSans-72" d="M 2631 2963 
Q 2534 3019 2420 3045 
Q 2306 3072 2169 3072 
Q 1681 3072 1420 2755 
Q 1159 2438 1159 1844 
L 1159 0 
L 581 0 
L 581 3500 
L 1159 3500 
L 1159 2956 
Q 1341 3275 1631 3429 
Q 1922 3584 2338 3584 
Q 2397 3584 2469 3576 
Q 2541 3569 2628 3553 
L 2631 2963 
z
" transform="scale(0.015625)"/>
       <path id="DejaVuSans-74" d="M 1172 4494 
L 1172 3500 
L 2356 3500 
L 2356 3053 
L 1172 3053 
L 1172 1153 
Q 1172 725 1289 603 
Q 1406 481 1766 481 
L 2356 481 
L 2356 0 
L 1766 0 
Q 1100 0 847 248 
Q 594 497 594 1153 
L 594 3053 
L 172 3053 
L 172 3500 
L 594 3500 
L 594 4494 
L 1172 4494 
z
" transform="scale(0.015625)"/>
       <path id="DejaVuSans-76" d="M 191 3500 
L 800 3500 
L 1894 563 
L 2988 3500 
L 3597 3500 
L 2284 0 
L 1503 0 
L 191 3500 
z
" transform="scale(0.015625)"/>
       <path id="DejaVuSans-6c" d="M 603 4863 
L 1178 4863 
L 1178 0 
L 603 0 
L 603 4863 
z
" transform="scale(0.015625)"/>
       <path id="DejaVuSans-68" d="M 3513 2113 
L 3513 0 
L 2938 0 
L 2938 2094 
Q 2938 2591 2744 2837 
Q 2550 3084 2163 3084 
Q 1697 3084 1428 2787 
Q 1159 2491 1159 1978 
L 1159 0 
L 581 0 
L 581 4863 
L 1159 4863 
L 1159 2956 
Q 1366 3272 1645 3428 
Q 1925 3584 2291 3584 
Q 2894 3584 3203 3211 
Q 3513 2838 3513 2113 
z
" transform="scale(0.015625)"/>
       <path id="DejaVuSans-40" d="M 2381 1678 
Q 2381 1231 2603 976 
Q 2825 722 3213 722 
Q 3597 722 3817 978 
Q 4038 1234 4038 1678 
Q 4038 2116 3813 2373 
Q 3588 2631 3206 2631 
Q 2828 2631 2604 2375 
Q 2381 2119 2381 1678 
z
M 4084 744 
Q 3897 503 3655 389 
Q 3413 275 3091 275 
Q 2553 275 2217 664 
Q 1881 1053 1881 1678 
Q 1881 2303 2218 2693 
Q 2556 3084 3091 3084 
Q 3413 3084 3656 2967 
Q 3900 2850 4084 2613 
L 4084 3022 
L 4531 3022 
L 4531 722 
Q 4988 791 5245 1139 
Q 5503 1488 5503 2041 
Q 5503 2375 5404 2669 
Q 5306 2963 5106 3213 
Q 4781 3622 4314 3839 
Q 3847 4056 3297 4056 
Q 2913 4056 2559 3954 
Q 2206 3853 1906 3653 
Q 1416 3334 1139 2817 
Q 863 2300 863 1697 
Q 863 1200 1042 765 
Q 1222 331 1563 0 
Q 1891 -325 2322 -495 
Q 2753 -666 3244 -666 
Q 3647 -666 4036 -530 
Q 4425 -394 4750 -141 
L 5031 -488 
Q 4641 -791 4180 -952 
Q 3719 -1113 3244 -1113 
Q 2666 -1113 2153 -908 
Q 1641 -703 1241 -313 
Q 841 78 631 592 
Q 422 1106 422 1697 
Q 422 2266 634 2781 
Q 847 3297 1241 3688 
Q 1644 4084 2172 4295 
Q 2700 4506 3291 4506 
Q 3953 4506 4520 4234 
Q 5088 3963 5472 3463 
Q 5706 3156 5829 2797 
Q 5953 2438 5953 2053 
Q 5953 1231 5456 756 
Q 4959 281 4084 263 
L 4084 744 
z
" transform="scale(0.015625)"/>
       <path id="DejaVuSans-31" d="M 794 531 
L 1825 531 
L 1825 4091 
L 703 3866 
L 703 4441 
L 1819 4666 
L 2450 4666 
L 2450 531 
L 3481 531 
L 3481 0 
L 794 0 
L 794 531 
z
" transform="scale(0.015625)"/>
      </defs>
      <use xlink:href="#DejaVuSans-69"/>
      <use xlink:href="#DejaVuSans-6d" x="27.783203"/>
      <use xlink:href="#DejaVuSans-61" x="125.195312"/>
      <use xlink:href="#DejaVuSans-67" x="186.474609"/>
      <use xlink:href="#DejaVuSans-65" x="249.951172"/>
      <use xlink:href="#DejaVuSans-20" x="311.474609"/>
      <use xlink:href="#DejaVuSans-72" x="343.261719"/>
      <use xlink:href="#DejaVuSans-65" x="382.125"/>
      <use xlink:href="#DejaVuSans-74" x="443.648438"/>
      <use xlink:href="#DejaVuSans-72" x="482.857422"/>
      <use xlink:href="#DejaVuSans-69" x="523.970703"/>
      <use xlink:href="#DejaVuSans-65" x="551.753906"/>
      <use xlink:href="#DejaVuSans-76" x="613.277344"/>
      <use xlink:href="#DejaVuSans-61" x="672.457031"/>
      <use xlink:href="#DejaVuSans-6c" x="733.736328"/>
      <use xlink:href="#DejaVuSans-20" x="761.519531"/>
      <use xlink:href="#DejaVuSans-68" x="793.306641"/>
      <use xlink:href="#DejaVuSans-69" x="856.685547"/>
      <use xlink:href="#DejaVuSans-74" x="884.46875"/>
      <use xlink:href="#DejaVuSans-40" x="923.677734"/>
      <use xlink:href="#DejaVuSans-31" x="1023.677734"/>
     </g>
    </g>
   </g>
   <g id="matplotlib.axis_2">
    <g id="ytick_1">
     <g id="line2d_10">
      <path d="M 55.587942 283.041505 
L 360.277683 283.041505 
" clip-path="url(#p415eae211c)" style="fill: none; stroke: #cbd5e1; stroke-opacity: 0.35; stroke-width: 0.8; stroke-linecap: square"/>
     </g>
     <g id="line2d_11"/>
     <g id="text_11">
      <!-- 0.39 -->
      <g style="fill: #475569" transform="translate(32.04888 286.460802) scale(0.09 -0.09)">
       <defs>
        <path id="DejaVuSans-39" d="M 703 97 
L 703 672 
Q 941 559 1184 500 
Q 1428 441 1663 441 
Q 2288 441 2617 861 
Q 2947 1281 2994 2138 
Q 2813 1869 2534 1725 
Q 2256 1581 1919 1581 
Q 1219 1581 811 2004 
Q 403 2428 403 3163 
Q 403 3881 828 4315 
Q 1253 4750 1959 4750 
Q 2769 4750 3195 4129 
Q 3622 3509 3622 2328 
Q 3622 1225 3098 567 
Q 2575 -91 1691 -91 
Q 1453 -91 1209 -44 
Q 966 3 703 97 
z
M 1959 2075 
Q 2384 2075 2632 2365 
Q 2881 2656 2881 3163 
Q 2881 3666 2632 3958 
Q 2384 4250 1959 4250 
Q 1534 4250 1286 3958 
Q 1038 3666 1038 3163 
Q 1038 2656 1286 2365 
Q 1534 2075 1959 2075 
z
" transform="scale(0.015625)"/>
       </defs>
       <use xlink:href="#DejaVuSans-30"/>
       <use xlink:href="#DejaVuSans-2e" x="63.623047"/>
       <use xlink:href="#DejaVuSans-33" x="95.410156"/>
       <use xlink:href="#DejaVuSans-39" x="159.033203"/>
      </g>
     </g>
    </g>
    <g id="ytick_2">
     <g id="line2d_12">
      <path d="M 55.587942 240.74266 
L 360.277683 240.74266 
" clip-path="url(#p415eae211c)" style="fill: none; stroke: #cbd5e1; stroke-opacity: 0.35; stroke-width: 0.8; stroke-linecap: square"/>
     </g>
     <g id="line2d_13"/>
     <g id="text_12">
      <!-- 0.40 -->
      <g style="fill: #475569" transform="translate(32.04888 244.161957) scale(0.09 -0.09)">
       <use xlink:href="#DejaVuSans-30"/>
       <use xlink:href="#DejaVuSans-2e" x="63.623047"/>
       <use xlink:href="#DejaVuSans-34" x="95.410156"/>
       <use xlink:href="#DejaVuSans-30" x="159.033203"/>
      </g>
     </g>
    </g>
    <g id="ytick_3">
     <g id="line2d_14">
      <path d="M 55.587942 198.443815 
L 360.277683 198.443815 
" clip-path="url(#p415eae211c)" style="fill: none; stroke: #cbd5e1; stroke-opacity: 0.35; stroke-width: 0.8; stroke-linecap: square"/>
     </g>
     <g id="line2d_15"/>
     <g id="text_13">
      <!-- 0.41 -->
      <g style="fill: #475569" transform="translate(32.04888 201.863112) scale(0.09 -0.09)">
       <use xlink:href="#DejaVuSans-30"/>
       <use xlink:href="#DejaVuSans-2e" x="63.623047"/>
       <use xlink:href="#DejaVuSans-34" x="95.410156"/>
       <use xlink:href="#DejaVuSans-31" x="159.033203"/>
      </g>
     </g>
    </g>
    <g id="ytick_4">
     <g id="line2d_16">
      <path d="M 55.587942 156.14497 
L 360.277683 156.14497 
" clip-path="url(#p415eae211c)" style="fill: none; stroke: #cbd5e1; stroke-opacity: 0.35; stroke-width: 0.8; stroke-linecap: square"/>
     </g>
     <g id="line2d_17"/>
     <g id="text_14">
      <!-- 0.42 -->
      <g style="fill: #475569" transform="translate(32.04888 159.564267) scale(0.09 -0.09)">
       <use xlink:href="#DejaVuSans-30"/>
       <use xlink:href="#DejaVuSans-2e" x="63.623047"/>
       <use xlink:href="#DejaVuSans-34" x="95.410156"/>
       <use xlink:href="#DejaVuSans-32" x="159.033203"/>
      </g>
     </g>
    </g>
    <g id="ytick_5">
     <g id="line2d_18">
      <path d="M 55.587942 113.846125 
L 360.277683 113.846125 
" clip-path="url(#p415eae211c)" style="fill: none; stroke: #cbd5e1; stroke-opacity: 0.35; stroke-width: 0.8; stroke-linecap: square"/>
     </g>
     <g id="line2d_19"/>
     <g id="text_15">
      <!-- 0.43 -->
      <g style="fill: #475569" transform="translate(32.04888 117.265422) scale(0.09 -0.09)">
       <use xlink:href="#DejaVuSans-30"/>
       <use xlink:href="#DejaVuSans-2e" x="63.623047"/>
       <use xlink:href="#DejaVuSans-34" x="95.410156"/>
       <use xlink:href="#DejaVuSans-33" x="159.033203"/>
      </g>
     </g>
    </g>
    <g id="ytick_6">
     <g id="line2d_20">
      <path d="M 55.587942 71.547281 
L 360.277683 71.547281 
" clip-path="url(#p415eae211c)" style="fill: none; stroke: #cbd5e1; stroke-opacity: 0.35; stroke-width: 0.8; stroke-linecap: square"/>
     </g>
     <g id="line2d_21"/>
     <g id="text_16">
      <!-- 0.44 -->
      <g style="fill: #475569" transform="translate(32.04888 74.966577) scale(0.09 -0.09)">
       <use xlink:href="#DejaVuSans-30"/>
       <use xlink:href="#DejaVuSans-2e" x="63.623047"/>
       <use xlink:href="#DejaVuSans-34" x="95.410156"/>
       <use xlink:href="#DejaVuSans-34" x="159.033203"/>
      </g>
     </g>
    </g>
    <g id="ytick_7">
     <g id="line2d_22">
      <path d="M 55.587942 29.248436 
L 360.277683 29.248436 
" clip-path="url(#p415eae211c)" style="fill: none; stroke: #cbd5e1; stroke-opacity: 0.35; stroke-width: 0.8; stroke-linecap: square"/>
     </g>
     <g id="line2d_23"/>
     <g id="text_17">
      <!-- 0.45 -->
      <g style="fill: #475569" transform="translate(32.04888 32.667733) scale(0.09 -0.09)">
       <defs>
        <path id="DejaVuSans-35" d="M 691 4666 
L 3169 4666 
L 3169 4134 
L 1269 4134 
L 1269 2991 
Q 1406 3038 1543 3061 
Q 1681 3084 1819 3084 
Q 2600 3084 3056 2656 
Q 3513 2228 3513 1497 
Q 3513 744 3044 326 
Q 2575 -91 1722 -91 
Q 1428 -91 1123 -41 
Q 819 9 494 109 
L 494 744 
Q 775 591 1075 516 
Q 1375 441 1709 441 
Q 2250 441 2565 725 
Q 2881 1009 2881 1497 
Q 2881 1984 2565 2268 
Q 2250 2553 1709 2553 
Q 1456 2553 1204 2497 
Q 953 2441 691 2322 
L 691 4666 
z
" transform="scale(0.015625)"/>
       </defs>
       <use xlink:href="#DejaVuSans-30"/>
       <use xlink:href="#DejaVuSans-2e" x="63.623047"/>
       <use xlink:href="#DejaVuSans-34" x="95.410156"/>
       <use xlink:href="#DejaVuSans-35" x="159.033203"/>
      </g>
     </g>
    </g>
    <g id="text_18">
     <!-- human-similarity pair Spearman -->
     <g style="fill: #475569" transform="translate(25.969192 244.161205) rotate(-90) scale(0.1 -0.1)">
      <defs>
       <path id="DejaVuSans-75" d="M 544 1381 
L 544 3500 
L 1119 3500 
L 1119 1403 
Q 1119 906 1312 657 
Q 1506 409 1894 409 
Q 2359 409 2629 706 
Q 2900 1003 2900 1516 
L 2900 3500 
L 3475 3500 
L 3475 0 
L 2900 0 
L 2900 538 
Q 2691 219 2414 64 
Q 2138 -91 1772 -91 
Q 1169 -91 856 284 
Q 544 659 544 1381 
z
M 1991 3584 
L 1991 3584 
z
" transform="scale(0.015625)"/>
       <path id="DejaVuSans-6e" d="M 3513 2113 
L 3513 0 
L 2938 0 
L 2938 2094 
Q 2938 2591 2744 2837 
Q 2550 3084 2163 3084 
Q 1697 3084 1428 2787 
Q 1159 2491 1159 1978 
L 1159 0 
L 581 0 
L 581 3500 
L 1159 3500 
L 1159 2956 
Q 1366 3272 1645 3428 
Q 1925 3584 2291 3584 
Q 2894 3584 3203 3211 
Q 3513 2838 3513 2113 
z
" transform="scale(0.015625)"/>
       <path id="DejaVuSans-2d" d="M 313 2009 
L 1997 2009 
L 1997 1497 
L 313 1497 
L 313 2009 
z
" transform="scale(0.015625)"/>
       <path id="DejaVuSans-73" d="M 2834 3397 
L 2834 2853 
Q 2591 2978 2328 3040 
Q 2066 3103 1784 3103 
Q 1356 3103 1142 2972 
Q 928 2841 928 2578 
Q 928 2378 1081 2264 
Q 1234 2150 1697 2047 
L 1894 2003 
Q 2506 1872 2764 1633 
Q 3022 1394 3022 966 
Q 3022 478 2636 193 
Q 2250 -91 1575 -91 
Q 1294 -91 989 -36 
Q 684 19 347 128 
L 347 722 
Q 666 556 975 473 
Q 1284 391 1588 391 
Q 1994 391 2212 530 
Q 2431 669 2431 922 
Q 2431 1156 2273 1281 
Q 2116 1406 1581 1522 
L 1381 1569 
Q 847 1681 609 1914 
Q 372 2147 372 2553 
Q 372 3047 722 3315 
Q 1072 3584 1716 3584 
Q 2034 3584 2315 3537 
Q 2597 3491 2834 3397 
z
" transform="scale(0.015625)"/>
       <path id="DejaVuSans-79" d="M 2059 -325 
Q 1816 -950 1584 -1140 
Q 1353 -1331 966 -1331 
L 506 -1331 
L 506 -850 
L 844 -850 
Q 1081 -850 1212 -737 
Q 1344 -625 1503 -206 
L 1606 56 
L 191 3500 
L 800 3500 
L 1894 763 
L 2988 3500 
L 3597 3500 
L 2059 -325 
z
" transform="scale(0.015625)"/>
       <path id="DejaVuSans-70" d="M 1159 525 
L 1159 -1331 
L 581 -1331 
L 581 3500 
L 1159 3500 
L 1159 2969 
Q 1341 3281 1617 3432 
Q 1894 3584 2278 3584 
Q 2916 3584 3314 3078 
Q 3713 2572 3713 1747 
Q 3713 922 3314 415 
Q 2916 -91 2278 -91 
Q 1894 -91 1617 61 
Q 1341 213 1159 525 
z
M 3116 1747 
Q 3116 2381 2855 2742 
Q 2594 3103 2138 3103 
Q 1681 3103 1420 2742 
Q 1159 2381 1159 1747 
Q 1159 1113 1420 752 
Q 1681 391 2138 391 
Q 2594 391 2855 752 
Q 3116 1113 3116 1747 
z
" transform="scale(0.015625)"/>
       <path id="DejaVuSans-53" d="M 3425 4513 
L 3425 3897 
Q 3066 4069 2747 4153 
Q 2428 4238 2131 4238 
Q 1616 4238 1336 4038 
Q 1056 3838 1056 3469 
Q 1056 3159 1242 3001 
Q 1428 2844 1947 2747 
L 2328 2669 
Q 3034 2534 3370 2195 
Q 3706 1856 3706 1288 
Q 3706 609 3251 259 
Q 2797 -91 1919 -91 
Q 1588 -91 1214 -16 
Q 841 59 441 206 
L 441 856 
Q 825 641 1194 531 
Q 1563 422 1919 422 
Q 2459 422 2753 634 
Q 3047 847 3047 1241 
Q 3047 1584 2836 1778 
Q 2625 1972 2144 2069 
L 1759 2144 
Q 1053 2284 737 2584 
Q 422 2884 422 3419 
Q 422 4038 858 4394 
Q 1294 4750 2059 4750 
Q 2388 4750 2728 4690 
Q 3069 4631 3425 4513 
z
" transform="scale(0.015625)"/>
      </defs>
      <use xlink:href="#DejaVuSans-68"/>
      <use xlink:href="#DejaVuSans-75" x="63.378906"/>
      <use xlink:href="#DejaVuSans-6d" x="126.757812"/>
      <use xlink:href="#DejaVuSans-61" x="224.169922"/>
      <use xlink:href="#DejaVuSans-6e" x="285.449219"/>
      <use xlink:href="#DejaVuSans-2d" x="348.828125"/>
      <use xlink:href="#DejaVuSans-73" x="384.912109"/>
      <use xlink:href="#DejaVuSans-69" x="437.011719"/>
      <use xlink:href="#DejaVuSans-6d" x="464.794922"/>
      <use xlink:href="#DejaVuSans-69" x="562.207031"/>
      <use xlink:href="#DejaVuSans-6c" x="589.990234"/>
      <use xlink:href="#DejaVuSans-61" x="617.773438"/>
      <use xlink:href="#DejaVuSans-72" x="679.052734"/>
      <use xlink:href="#DejaVuSans-69" x="720.166016"/>
      <use xlink:href="#DejaVuSans-74" x="747.949219"/>
      <use xlink:href="#DejaVuSans-79" x="787.158203"/>
      <use xlink:href="#DejaVuSans-20" x="846.337891"/>
      <use xlink:href="#DejaVuSans-70" x="878.125"/>
      <use xlink:href="#DejaVuSans-61" x="941.601562"/>
      <use xlink:href="#DejaVuSans-69" x="1002.880859"/>
      <use xlink:href="#DejaVuSans-72" x="1030.664062"/>
      <use xlink:href="#DejaVuSans-20" x="1071.777344"/>
      <use xlink:href="#DejaVuSans-53" x="1103.564453"/>
      <use xlink:href="#DejaVuSans-70" x="1167.041016"/>
      <use xlink:href="#DejaVuSans-65" x="1230.517578"/>
      <use xlink:href="#DejaVuSans-61" x="1292.041016"/>
      <use xlink:href="#DejaVuSans-72" x="1353.320312"/>
      <use xlink:href="#DejaVuSans-6d" x="1392.683594"/>
      <use xlink:href="#DejaVuSans-61" x="1490.095703"/>
      <use xlink:href="#DejaVuSans-6e" x="1551.375"/>
     </g>
    </g>
   </g>
   <g id="PathCollection_1">
    <defs>
     <path id="mc88ac2b32e" d="M 0 4.795832 
C 1.271869 4.795832 2.491818 4.290512 3.391165 3.391165 
C 4.290512 2.491818 4.795832 1.271869 4.795832 0 
C 4.795832 -1.271869 4.290512 -2.491818 3.391165 -3.391165 
C 2.491818 -4.290512 1.271869 -4.795832 0 -4.795832 
C -1.271869 -4.795832 -2.491818 -4.290512 -3.391165 -3.391165 
C -4.290512 -2.491818 -4.795832 -1.271869 -4.795832 0 
C -4.795832 1.271869 -4.290512 2.491818 -3.391165 3.391165 
C -2.491818 4.290512 -1.271869 4.795832 0 4.795832 
z
" style="stroke: #ffffff; stroke-opacity: 0.96; stroke-width: 0.8"/>
    </defs>
    <g clip-path="url(#p415eae211c)">
     <use xlink:href="#mc88ac2b32e" x="75.606533" y="167.552066" style="fill: #4b5563; fill-opacity: 0.96; stroke: #ffffff; stroke-opacity: 0.96; stroke-width: 0.8"/>
    </g>
   </g>
   <g id="text_19">
    <!-- Image-only classifier -->
    <g style="fill: #111827" transform="translate(81.606533 163.552066) scale(0.08 -0.08)">
     <defs>
      <path id="DejaVuSans-49" d="M 628 4666 
L 1259 4666 
L 1259 0 
L 628 0 
L 628 4666 
z
" transform="scale(0.015625)"/>
      <path id="DejaVuSans-6f" d="M 1959 3097 
Q 1497 3097 1228 2736 
Q 959 2375 959 1747 
Q 959 1119 1226 758 
Q 1494 397 1959 397 
Q 2419 397 2687 759 
Q 2956 1122 2956 1747 
Q 2956 2369 2687 2733 
Q 2419 3097 1959 3097 
z
M 1959 3584 
Q 2709 3584 3137 3096 
Q 3566 2609 3566 1747 
Q 3566 888 3137 398 
Q 2709 -91 1959 -91 
Q 1206 -91 779 398 
Q 353 888 353 1747 
Q 353 2609 779 3096 
Q 1206 3584 1959 3584 
z
" transform="scale(0.015625)"/>
      <path id="DejaVuSans-63" d="M 3122 3366 
L 3122 2828 
Q 2878 2963 2633 3030 
Q 2388 3097 2138 3097 
Q 1578 3097 1268 2742 
Q 959 2388 959 1747 
Q 959 1106 1268 751 
Q 1578 397 2138 397 
Q 2388 397 2633 464 
Q 2878 531 3122 666 
L 3122 134 
Q 2881 22 2623 -34 
Q 2366 -91 2075 -91 
Q 1284 -91 818 406 
Q 353 903 353 1747 
Q 353 2603 823 3093 
Q 1294 3584 2113 3584 
Q 2378 3584 2631 3529 
Q 2884 3475 3122 3366 
z
" transform="scale(0.015625)"/>
      <path id="DejaVuSans-66" d="M 2375 4863 
L 2375 4384 
L 1825 4384 
Q 1516 4384 1395 4259 
Q 1275 4134 1275 3809 
L 1275 3500 
L 2222 3500 
L 2222 3053 
L 1275 3053 
L 1275 0 
L 697 0 
L 697 3053 
L 147 3053 
L 147 3500 
L 697 3500 
L 697 3744 
Q 697 4328 969 4595 
Q 1241 4863 1831 4863 
L 2375 4863 
z
" transform="scale(0.015625)"/>
     </defs>
     <use xlink:href="#DejaVuSans-49"/>
     <use xlink:href="#DejaVuSans-6d" x="29.492188"/>
     <use xlink:href="#DejaVuSans-61" x="126.904297"/>
     <use xlink:href="#DejaVuSans-67" x="188.183594"/>
     <use xlink:href="#DejaVuSans-65" x="251.660156"/>
     <use xlink:href="#DejaVuSans-2d" x="313.183594"/>
     <use xlink:href="#DejaVuSans-6f" x="351.142578"/>
     <use xlink:href="#DejaVuSans-6e" x="412.324219"/>
     <use xlink:href="#DejaVuSans-6c" x="475.703125"/>
     <use xlink:href="#DejaVuSans-79" x="503.486328"/>
     <use xlink:href="#DejaVuSans-20" x="562.666016"/>
     <use xlink:href="#DejaVuSans-63" x="594.453125"/>
     <use xlink:href="#DejaVuSans-6c" x="649.433594"/>
     <use xlink:href="#DejaVuSans-61" x="677.216797"/>
     <use xlink:href="#DejaVuSans-73" x="738.496094"/>
     <use xlink:href="#DejaVuSans-73" x="790.595703"/>
     <use xlink:href="#DejaVuSans-69" x="842.695312"/>
     <use xlink:href="#DejaVuSans-66" x="870.478516"/>
     <use xlink:href="#DejaVuSans-69" x="905.683594"/>
     <use xlink:href="#DejaVuSans-65" x="933.466797"/>
     <use xlink:href="#DejaVuSans-72" x="994.990234"/>
    </g>
   </g>
   <g id="PathCollection_2">
    <defs>
     <path id="mf48b029420" d="M 0 4.795832 
C 1.271869 4.795832 2.491818 4.290512 3.391165 3.391165 
C 4.290512 2.491818 4.795832 1.271869 4.795832 0 
C 4.795832 -1.271869 4.290512 -2.491818 3.391165 -3.391165 
C 2.491818 -4.290512 1.271869 -4.795832 0 -4.795832 
C -1.271869 -4.795832 -2.491818 -4.290512 -3.391165 -3.391165 
C -4.290512 -2.491818 -4.795832 -1.271869 -4.795832 0 
C -4.795832 1.271869 -4.290512 2.491818 -3.391165 3.391165 
C -2.491818 4.290512 -1.271869 4.795832 0 4.795832 
z
" style="stroke: #ffffff; stroke-opacity: 0.96; stroke-width: 0.8"/>
    </defs>
    <g clip-path="url(#p415eae211c)">
     <use xlink:href="#mf48b029420" x="344.577432" y="284.10354" style="fill: #2563eb; fill-opacity: 0.96; stroke: #ffffff; stroke-opacity: 0.96; stroke-width: 0.8"/>
    </g>
   </g>
   <g id="text_20">
    <!-- Fixed-prototype triplets -->
    <g style="fill: #111827" transform="translate(350.577432 280.10354) scale(0.08 -0.08)">
     <defs>
      <path id="DejaVuSans-46" d="M 628 4666 
L 3309 4666 
L 3309 4134 
L 1259 4134 
L 1259 2759 
L 3109 2759 
L 3109 2228 
L 1259 2228 
L 1259 0 
L 628 0 
L 628 4666 
z
" transform="scale(0.015625)"/>
      <path id="DejaVuSans-78" d="M 3513 3500 
L 2247 1797 
L 3578 0 
L 2900 0 
L 1881 1375 
L 863 0 
L 184 0 
L 1544 1831 
L 300 3500 
L 978 3500 
L 1906 2253 
L 2834 3500 
L 3513 3500 
z
" transform="scale(0.015625)"/>
      <path id="DejaVuSans-64" d="M 2906 2969 
L 2906 4863 
L 3481 4863 
L 3481 0 
L 2906 0 
L 2906 525 
Q 2725 213 2448 61 
Q 2172 -91 1784 -91 
Q 1150 -91 751 415 
Q 353 922 353 1747 
Q 353 2572 751 3078 
Q 1150 3584 1784 3584 
Q 2172 3584 2448 3432 
Q 2725 3281 2906 2969 
z
M 947 1747 
Q 947 1113 1208 752 
Q 1469 391 1925 391 
Q 2381 391 2643 752 
Q 2906 1113 2906 1747 
Q 2906 2381 2643 2742 
Q 2381 3103 1925 3103 
Q 1469 3103 1208 2742 
Q 947 2381 947 1747 
z
" transform="scale(0.015625)"/>
     </defs>
     <use xlink:href="#DejaVuSans-46"/>
     <use xlink:href="#DejaVuSans-69" x="50.269531"/>
     <use xlink:href="#DejaVuSans-78" x="78.052734"/>
     <use xlink:href="#DejaVuSans-65" x="134.107422"/>
     <use xlink:href="#DejaVuSans-64" x="195.630859"/>
     <use xlink:href="#DejaVuSans-2d" x="259.107422"/>
     <use xlink:href="#DejaVuSans-70" x="295.191406"/>
     <use xlink:href="#DejaVuSans-72" x="358.667969"/>
     <use xlink:href="#DejaVuSans-6f" x="397.53125"/>
     <use xlink:href="#DejaVuSans-74" x="458.712891"/>
     <use xlink:href="#DejaVuSans-6f" x="497.921875"/>
     <use xlink:href="#DejaVuSans-74" x="559.103516"/>
     <use xlink:href="#DejaVuSans-79" x="598.3125"/>
     <use xlink:href="#DejaVuSans-70" x="657.492188"/>
     <use xlink:href="#DejaVuSans-65" x="720.96875"/>
     <use xlink:href="#DejaVuSans-20" x="782.492188"/>
     <use xlink:href="#DejaVuSans-74" x="814.279297"/>
     <use xlink:href="#DejaVuSans-72" x="853.488281"/>
     <use xlink:href="#DejaVuSans-69" x="894.601562"/>
     <use xlink:href="#DejaVuSans-70" x="922.384766"/>
     <use xlink:href="#DejaVuSans-6c" x="985.861328"/>
     <use xlink:href="#DejaVuSans-65" x="1013.644531"/>
     <use xlink:href="#DejaVuSans-74" x="1075.167969"/>
     <use xlink:href="#DejaVuSans-73" x="1114.376953"/>
    </g>
   </g>
   <g id="PathCollection_3">
    <defs>
     <path id="m51e656f632" d="M 0 3.807887 
C 1.009863 3.807887 1.978501 3.406664 2.692582 2.692582 
C 3.406664 1.978501 3.807887 1.009863 3.807887 0 
C 3.807887 -1.009863 3.406664 -1.978501 2.692582 -2.692582 
C 1.978501 -3.406664 1.009863 -3.807887 0 -3.807887 
C -1.009863 -3.807887 -1.978501 -3.406664 -2.692582 -2.692582 
C -3.406664 -1.978501 -3.807887 -1.009863 -3.807887 0 
C -3.807887 1.009863 -3.406664 1.978501 -2.692582 2.692582 
C -1.978501 3.406664 -1.009863 3.807887 0 3.807887 
z
" style="stroke: #ffffff; stroke-opacity: 0.42; stroke-width: 0.8"/>
    </defs>
    <g clip-path="url(#p415eae211c)">
     <use xlink:href="#m51e656f632" x="346.428149" y="291.704489" style="fill: #b8c0cc; fill-opacity: 0.42; stroke: #ffffff; stroke-opacity: 0.42; stroke-width: 0.8"/>
    </g>
   </g>
   <g id="text_21">
    <!-- Fixed-prototype control -->
    <g style="fill: #111827" transform="translate(352.428149 287.704489) scale(0.08 -0.08)">
     <use xlink:href="#DejaVuSans-46"/>
     <use xlink:href="#DejaVuSans-69" x="50.269531"/>
     <use xlink:href="#DejaVuSans-78" x="78.052734"/>
     <use xlink:href="#DejaVuSans-65" x="134.107422"/>
     <use xlink:href="#DejaVuSans-64" x="195.630859"/>
     <use xlink:href="#DejaVuSans-2d" x="259.107422"/>
     <use xlink:href="#DejaVuSans-70" x="295.191406"/>
     <use xlink:href="#DejaVuSans-72" x="358.667969"/>
     <use xlink:href="#DejaVuSans-6f" x="397.53125"/>
     <use xlink:href="#DejaVuSans-74" x="458.712891"/>
     <use xlink:href="#DejaVuSans-6f" x="497.921875"/>
     <use xlink:href="#DejaVuSans-74" x="559.103516"/>
     <use xlink:href="#DejaVuSans-79" x="598.3125"/>
     <use xlink:href="#DejaVuSans-70" x="657.492188"/>
     <use xlink:href="#DejaVuSans-65" x="720.96875"/>
     <use xlink:href="#DejaVuSans-20" x="782.492188"/>
     <use xlink:href="#DejaVuSans-63" x="814.279297"/>
     <use xlink:href="#DejaVuSans-6f" x="869.259766"/>
     <use xlink:href="#DejaVuSans-6e" x="930.441406"/>
     <use xlink:href="#DejaVuSans-74" x="993.820312"/>
     <use xlink:href="#DejaVuSans-72" x="1033.029297"/>
     <use xlink:href="#DejaVuSans-6f" x="1071.892578"/>
     <use xlink:href="#DejaVuSans-6c" x="1133.074219"/>
    </g>
   </g>
   <g id="PathCollection_4">
    <defs>
     <path id="m3ddf49b060" d="M 0 4.795832 
C 1.271869 4.795832 2.491818 4.290512 3.391165 3.391165 
C 4.290512 2.491818 4.795832 1.271869 4.795832 0 
C 4.795832 -1.271869 4.290512 -2.491818 3.391165 -3.391165 
C 2.491818 -4.290512 1.271869 -4.795832 0 -4.795832 
C -1.271869 -4.795832 -2.491818 -4.290512 -3.391165 -3.391165 
C -4.290512 -2.491818 -4.795832 -1.271869 -4.795832 0 
C -4.795832 1.271869 -4.290512 2.491818 -3.391165 3.391165 
C -2.491818 4.290512 -1.271869 4.795832 0 4.795832 
z
" style="stroke: #ffffff; stroke-opacity: 0.96; stroke-width: 0.8"/>
    </defs>
    <g clip-path="url(#p415eae211c)">
     <use xlink:href="#m3ddf49b060" x="192.201716" y="240.514464" style="fill: #059669; fill-opacity: 0.96; stroke: #ffffff; stroke-opacity: 0.96; stroke-width: 0.8"/>
    </g>
   </g>
   <g id="text_22">
    <!-- Batch-prototype triplets -->
    <g style="fill: #111827" transform="translate(198.201716 236.514464) scale(0.08 -0.08)">
     <defs>
      <path id="DejaVuSans-42" d="M 1259 2228 
L 1259 519 
L 2272 519 
Q 2781 519 3026 730 
Q 3272 941 3272 1375 
Q 3272 1813 3026 2020 
Q 2781 2228 2272 2228 
L 1259 2228 
z
M 1259 4147 
L 1259 2741 
L 2194 2741 
Q 2656 2741 2882 2914 
Q 3109 3088 3109 3444 
Q 3109 3797 2882 3972 
Q 2656 4147 2194 4147 
L 1259 4147 
z
M 628 4666 
L 2241 4666 
Q 2963 4666 3353 4366 
Q 3744 4066 3744 3513 
Q 3744 3084 3544 2831 
Q 3344 2578 2956 2516 
Q 3422 2416 3680 2098 
Q 3938 1781 3938 1306 
Q 3938 681 3513 340 
Q 3088 0 2303 0 
L 628 0 
L 628 4666 
z
" transform="scale(0.015625)"/>
     </defs>
     <use xlink:href="#DejaVuSans-42"/>
     <use xlink:href="#DejaVuSans-61" x="68.603516"/>
     <use xlink:href="#DejaVuSans-74" x="129.882812"/>
     <use xlink:href="#DejaVuSans-63" x="169.091797"/>
     <use xlink:href="#DejaVuSans-68" x="224.072266"/>
     <use xlink:href="#DejaVuSans-2d" x="287.451172"/>
     <use xlink:href="#DejaVuSans-70" x="323.535156"/>
     <use xlink:href="#DejaVuSans-72" x="387.011719"/>
     <use xlink:href="#DejaVuSans-6f" x="425.875"/>
     <use xlink:href="#DejaVuSans-74" x="487.056641"/>
     <use xlink:href="#DejaVuSans-6f" x="526.265625"/>
     <use xlink:href="#DejaVuSans-74" x="587.447266"/>
     <use xlink:href="#DejaVuSans-79" x="626.65625"/>
     <use xlink:href="#DejaVuSans-70" x="685.835938"/>
     <use xlink:href="#DejaVuSans-65" x="749.3125"/>
     <use xlink:href="#DejaVuSans-20" x="810.835938"/>
     <use xlink:href="#DejaVuSans-74" x="842.623047"/>
     <use xlink:href="#DejaVuSans-72" x="881.832031"/>
     <use xlink:href="#DejaVuSans-69" x="922.945312"/>
     <use xlink:href="#DejaVuSans-70" x="950.728516"/>
     <use xlink:href="#DejaVuSans-6c" x="1014.205078"/>
     <use xlink:href="#DejaVuSans-65" x="1041.988281"/>
     <use xlink:href="#DejaVuSans-74" x="1103.511719"/>
     <use xlink:href="#DejaVuSans-73" x="1142.720703"/>
    </g>
   </g>
   <g id="PathCollection_5">
    <defs>
     <path id="m638713c6a0" d="M 0 4.795832 
C 1.271869 4.795832 2.491818 4.290512 3.391165 3.391165 
C 4.290512 2.491818 4.795832 1.271869 4.795832 0 
C 4.795832 -1.271869 4.290512 -2.491818 3.391165 -3.391165 
C 2.491818 -4.290512 1.271869 -4.795832 0 -4.795832 
C -1.271869 -4.795832 -2.491818 -4.290512 -3.391165 -3.391165 
C -4.290512 -2.491818 -4.795832 -1.271869 -4.795832 0 
C -4.795832 1.271869 -4.290512 2.491818 -3.391165 3.391165 
C -2.491818 4.290512 -1.271869 4.795832 0 4.795832 
z
" style="stroke: #ffffff; stroke-opacity: 0.96; stroke-width: 0.8"/>
    </defs>
    <g clip-path="url(#p415eae211c)">
     <use xlink:href="#m638713c6a0" x="73.755816" y="38.350178" style="fill: #dc2626; fill-opacity: 0.96; stroke: #ffffff; stroke-opacity: 0.96; stroke-width: 0.8"/>
    </g>
   </g>
   <g id="text_23">
    <!-- High-pressure triplets -->
    <g style="fill: #111827" transform="translate(79.755816 34.350178) scale(0.08 -0.08)">
     <defs>
      <path id="DejaVuSans-48" d="M 628 4666 
L 1259 4666 
L 1259 2753 
L 3553 2753 
L 3553 4666 
L 4184 4666 
L 4184 0 
L 3553 0 
L 3553 2222 
L 1259 2222 
L 1259 0 
L 628 0 
L 628 4666 
z
" transform="scale(0.015625)"/>
     </defs>
     <use xlink:href="#DejaVuSans-48"/>
     <use xlink:href="#DejaVuSans-69" x="75.195312"/>
     <use xlink:href="#DejaVuSans-67" x="102.978516"/>
     <use xlink:href="#DejaVuSans-68" x="166.455078"/>
     <use xlink:href="#DejaVuSans-2d" x="229.833984"/>
     <use xlink:href="#DejaVuSans-70" x="265.917969"/>
     <use xlink:href="#DejaVuSans-72" x="329.394531"/>
     <use xlink:href="#DejaVuSans-65" x="368.257812"/>
     <use xlink:href="#DejaVuSans-73" x="429.78125"/>
     <use xlink:href="#DejaVuSans-73" x="481.880859"/>
     <use xlink:href="#DejaVuSans-75" x="533.980469"/>
     <use xlink:href="#DejaVuSans-72" x="597.359375"/>
     <use xlink:href="#DejaVuSans-65" x="636.222656"/>
     <use xlink:href="#DejaVuSans-20" x="697.746094"/>
     <use xlink:href="#DejaVuSans-74" x="729.533203"/>
     <use xlink:href="#DejaVuSans-72" x="768.742188"/>
     <use xlink:href="#DejaVuSans-69" x="809.855469"/>
     <use xlink:href="#DejaVuSans-70" x="837.638672"/>
     <use xlink:href="#DejaVuSans-6c" x="901.115234"/>
     <use xlink:href="#DejaVuSans-65" x="928.898438"/>
     <use xlink:href="#DejaVuSans-74" x="990.421875"/>
     <use xlink:href="#DejaVuSans-73" x="1029.630859"/>
    </g>
   </g>
   <g id="PathCollection_6">
    <defs>
     <path id="m56679e0596" d="M 0 4.795832 
C 1.271869 4.795832 2.491818 4.290512 3.391165 3.391165 
C 4.290512 2.491818 4.795832 1.271869 4.795832 0 
C 4.795832 -1.271869 4.290512 -2.491818 3.391165 -3.391165 
C 2.491818 -4.290512 1.271869 -4.795832 0 -4.795832 
C -1.271869 -4.795832 -2.491818 -4.290512 -3.391165 -3.391165 
C -4.290512 -2.491818 -4.795832 -1.271869 -4.795832 0 
C -4.795832 1.271869 -4.290512 2.491818 -3.391165 3.391165 
C -2.491818 4.290512 -1.271869 4.795832 0 4.795832 
z
" style="stroke: #ffffff; stroke-opacity: 0.96; stroke-width: 0.8"/>
    </defs>
    <g clip-path="url(#p415eae211c)">
     <use xlink:href="#m56679e0596" x="182.94813" y="35.146047" style="fill: #0f766e; fill-opacity: 0.96; stroke: #ffffff; stroke-opacity: 0.96; stroke-width: 0.8"/>
    </g>
   </g>
   <g id="text_24">
    <!-- Joint matrix alignment -->
    <g style="fill: #111827" transform="translate(188.94813 31.146047) scale(0.08 -0.08)">
     <defs>
      <path id="DejaVuSans-4a" d="M 628 4666 
L 1259 4666 
L 1259 325 
Q 1259 -519 939 -900 
Q 619 -1281 -91 -1281 
L -331 -1281 
L -331 -750 
L -134 -750 
Q 284 -750 456 -515 
Q 628 -281 628 325 
L 628 4666 
z
" transform="scale(0.015625)"/>
     </defs>
     <use xlink:href="#DejaVuSans-4a"/>
     <use xlink:href="#DejaVuSans-6f" x="29.492188"/>
     <use xlink:href="#DejaVuSans-69" x="90.673828"/>
     <use xlink:href="#DejaVuSans-6e" x="118.457031"/>
     <use xlink:href="#DejaVuSans-74" x="181.835938"/>
     <use xlink:href="#DejaVuSans-20" x="221.044922"/>
     <use xlink:href="#DejaVuSans-6d" x="252.832031"/>
     <use xlink:href="#DejaVuSans-61" x="350.244141"/>
     <use xlink:href="#DejaVuSans-74" x="411.523438"/>
     <use xlink:href="#DejaVuSans-72" x="450.732422"/>
     <use xlink:href="#DejaVuSans-69" x="491.845703"/>
     <use xlink:href="#DejaVuSans-78" x="519.628906"/>
     <use xlink:href="#DejaVuSans-20" x="578.808594"/>
     <use xlink:href="#DejaVuSans-61" x="610.595703"/>
     <use xlink:href="#DejaVuSans-6c" x="671.875"/>
     <use xlink:href="#DejaVuSans-69" x="699.658203"/>
     <use xlink:href="#DejaVuSans-67" x="727.441406"/>
     <use xlink:href="#DejaVuSans-6e" x="790.917969"/>
     <use xlink:href="#DejaVuSans-6d" x="854.296875"/>
     <use xlink:href="#DejaVuSans-65" x="951.708984"/>
     <use xlink:href="#DejaVuSans-6e" x="1013.232422"/>
     <use xlink:href="#DejaVuSans-74" x="1076.611328"/>
    </g>
   </g>
   <g id="PathCollection_7">
    <g clip-path="url(#p415eae211c)">
     <use xlink:href="#m51e656f632" x="69.437476" y="168.899925" style="fill: #b8c0cc; fill-opacity: 0.42; stroke: #ffffff; stroke-opacity: 0.42; stroke-width: 0.8"/>
    </g>
   </g>
   <g id="text_25">
    <!-- Matrix control -->
    <g style="fill: #111827" transform="translate(75.437476 164.899925) scale(0.08 -0.08)">
     <defs>
      <path id="DejaVuSans-4d" d="M 628 4666 
L 1569 4666 
L 2759 1491 
L 3956 4666 
L 4897 4666 
L 4897 0 
L 4281 0 
L 4281 4097 
L 3078 897 
L 2444 897 
L 1241 4097 
L 1241 0 
L 628 0 
L 628 4666 
z
" transform="scale(0.015625)"/>
     </defs>
     <use xlink:href="#DejaVuSans-4d"/>
     <use xlink:href="#DejaVuSans-61" x="86.279297"/>
     <use xlink:href="#DejaVuSans-74" x="147.558594"/>
     <use xlink:href="#DejaVuSans-72" x="186.767578"/>
     <use xlink:href="#DejaVuSans-69" x="227.880859"/>
     <use xlink:href="#DejaVuSans-78" x="255.664062"/>
     <use xlink:href="#DejaVuSans-20" x="314.84375"/>
     <use xlink:href="#DejaVuSans-63" x="346.630859"/>
     <use xlink:href="#DejaVuSans-6f" x="401.611328"/>
     <use xlink:href="#DejaVuSans-6e" x="462.792969"/>
     <use xlink:href="#DejaVuSans-74" x="526.171875"/>
     <use xlink:href="#DejaVuSans-72" x="565.380859"/>
     <use xlink:href="#DejaVuSans-6f" x="604.244141"/>
     <use xlink:href="#DejaVuSans-6c" x="665.425781"/>
    </g>
   </g>
   <g id="text_26">
    <!-- Tradeoff Between Practical Retrieval and Human-Source Alignment -->
    <g style="fill: #111827" transform="translate(7.2 16.318125) scale(0.12 -0.12)">
     <defs>
      <path id="DejaVuSans-54" d="M -19 4666 
L 3928 4666 
L 3928 4134 
L 2272 4134 
L 2272 0 
L 1638 0 
L 1638 4134 
L -19 4134 
L -19 4666 
z
" transform="scale(0.015625)"/>
      <path id="DejaVuSans-77" d="M 269 3500 
L 844 3500 
L 1563 769 
L 2278 3500 
L 2956 3500 
L 3675 769 
L 4391 3500 
L 4966 3500 
L 4050 0 
L 3372 0 
L 2619 2869 
L 1863 0 
L 1184 0 
L 269 3500 
z
" transform="scale(0.015625)"/>
      <path id="DejaVuSans-50" d="M 1259 4147 
L 1259 2394 
L 2053 2394 
Q 2494 2394 2734 2622 
Q 2975 2850 2975 3272 
Q 2975 3691 2734 3919 
Q 2494 4147 2053 4147 
L 1259 4147 
z
M 628 4666 
L 2053 4666 
Q 2838 4666 3239 4311 
Q 3641 3956 3641 3272 
Q 3641 2581 3239 2228 
Q 2838 1875 2053 1875 
L 1259 1875 
L 1259 0 
L 628 0 
L 628 4666 
z
" transform="scale(0.015625)"/>
      <path id="DejaVuSans-52" d="M 2841 2188 
Q 3044 2119 3236 1894 
Q 3428 1669 3622 1275 
L 4263 0 
L 3584 0 
L 2988 1197 
Q 2756 1666 2539 1819 
Q 2322 1972 1947 1972 
L 1259 1972 
L 1259 0 
L 628 0 
L 628 4666 
L 2053 4666 
Q 2853 4666 3247 4331 
Q 3641 3997 3641 3322 
Q 3641 2881 3436 2590 
Q 3231 2300 2841 2188 
z
M 1259 4147 
L 1259 2491 
L 2053 2491 
Q 2509 2491 2742 2702 
Q 2975 2913 2975 3322 
Q 2975 3731 2742 3939 
Q 2509 4147 2053 4147 
L 1259 4147 
z
" transform="scale(0.015625)"/>
      <path id="DejaVuSans-41" d="M 2188 4044 
L 1331 1722 
L 3047 1722 
L 2188 4044 
z
M 1831 4666 
L 2547 4666 
L 4325 0 
L 3669 0 
L 3244 1197 
L 1141 1197 
L 716 0 
L 50 0 
L 1831 4666 
z
" transform="scale(0.015625)"/>
     </defs>
     <use xlink:href="#DejaVuSans-54"/>
     <use xlink:href="#DejaVuSans-72" x="46.333984"/>
     <use xlink:href="#DejaVuSans-61" x="87.447266"/>
     <use xlink:href="#DejaVuSans-64" x="148.726562"/>
     <use xlink:href="#DejaVuSans-65" x="212.203125"/>
     <use xlink:href="#DejaVuSans-6f" x="273.726562"/>
     <use xlink:href="#DejaVuSans-66" x="334.908203"/>
     <use xlink:href="#DejaVuSans-66" x="370.113281"/>
     <use xlink:href="#DejaVuSans-20" x="405.318359"/>
     <use xlink:href="#DejaVuSans-42" x="437.105469"/>
     <use xlink:href="#DejaVuSans-65" x="505.708984"/>
     <use xlink:href="#DejaVuSans-74" x="567.232422"/>
     <use xlink:href="#DejaVuSans-77" x="606.441406"/>
     <use xlink:href="#DejaVuSans-65" x="688.228516"/>
     <use xlink:href="#DejaVuSans-65" x="749.751953"/>
     <use xlink:href="#DejaVuSans-6e" x="811.275391"/>
     <use xlink:href="#DejaVuSans-20" x="874.654297"/>
     <use xlink:href="#DejaVuSans-50" x="906.441406"/>
     <use xlink:href="#DejaVuSans-72" x="964.994141"/>
     <use xlink:href="#DejaVuSans-61" x="1006.107422"/>
     <use xlink:href="#DejaVuSans-63" x="1067.386719"/>
     <use xlink:href="#DejaVuSans-74" x="1122.367188"/>
     <use xlink:href="#DejaVuSans-69" x="1161.576172"/>
     <use xlink:href="#DejaVuSans-63" x="1189.359375"/>
     <use xlink:href="#DejaVuSans-61" x="1244.339844"/>
     <use xlink:href="#DejaVuSans-6c" x="1305.619141"/>
     <use xlink:href="#DejaVuSans-20" x="1333.402344"/>
     <use xlink:href="#DejaVuSans-52" x="1365.189453"/>
     <use xlink:href="#DejaVuSans-65" x="1430.171875"/>
     <use xlink:href="#DejaVuSans-74" x="1491.695312"/>
     <use xlink:href="#DejaVuSans-72" x="1530.904297"/>
     <use xlink:href="#DejaVuSans-69" x="1572.017578"/>
     <use xlink:href="#DejaVuSans-65" x="1599.800781"/>
     <use xlink:href="#DejaVuSans-76" x="1661.324219"/>
     <use xlink:href="#DejaVuSans-61" x="1720.503906"/>
     <use xlink:href="#DejaVuSans-6c" x="1781.783203"/>
     <use xlink:href="#DejaVuSans-20" x="1809.566406"/>
     <use xlink:href="#DejaVuSans-61" x="1841.353516"/>
     <use xlink:href="#DejaVuSans-6e" x="1902.632812"/>
     <use xlink:href="#DejaVuSans-64" x="1966.011719"/>
     <use xlink:href="#DejaVuSans-20" x="2029.488281"/>
     <use xlink:href="#DejaVuSans-48" x="2061.275391"/>
     <use xlink:href="#DejaVuSans-75" x="2136.470703"/>
     <use xlink:href="#DejaVuSans-6d" x="2199.849609"/>
     <use xlink:href="#DejaVuSans-61" x="2297.261719"/>
     <use xlink:href="#DejaVuSans-6e" x="2358.541016"/>
     <use xlink:href="#DejaVuSans-2d" x="2421.919922"/>
     <use xlink:href="#DejaVuSans-53" x="2458.003906"/>
     <use xlink:href="#DejaVuSans-6f" x="2521.480469"/>
     <use xlink:href="#DejaVuSans-75" x="2582.662109"/>
     <use xlink:href="#DejaVuSans-72" x="2646.041016"/>
     <use xlink:href="#DejaVuSans-63" x="2684.904297"/>
     <use xlink:href="#DejaVuSans-65" x="2739.884766"/>
     <use xlink:href="#DejaVuSans-20" x="2801.408203"/>
     <use xlink:href="#DejaVuSans-41" x="2833.195312"/>
     <use xlink:href="#DejaVuSans-6c" x="2901.603516"/>
     <use xlink:href="#DejaVuSans-69" x="2929.386719"/>
     <use xlink:href="#DejaVuSans-67" x="2957.169922"/>
     <use xlink:href="#DejaVuSans-6e" x="3020.646484"/>
     <use xlink:href="#DejaVuSans-6d" x="3084.025391"/>
     <use xlink:href="#DejaVuSans-65" x="3181.4375"/>
     <use xlink:href="#DejaVuSans-6e" x="3242.960938"/>
     <use xlink:href="#DejaVuSans-74" x="3306.339844"/>
    </g>
   </g>
  </g>
 </g>
 <defs>
  <clipPath id="p415eae211c">
   <rect x="55.587942" y="22.318125" width="304.68974" height="282.214286"/>
  </clipPath>
 </defs>
</svg>
