<?xml version="1.0" encoding="utf-8" standalone="no"?>
<!DOCTYPE svg PUBLIC "-//W3C//DTD SVG 1.1//EN"
  "http://www.w3.org/Graphics/SVG/1.1/DTD/svg11.dtd">
<svg xmlns:xlink="http://www.w3.org/1999/xlink" width="441.551371pt" height="337.620848pt" viewBox="0 0 441.551371 337.620848" xmlns="http://www.w3.org/2000/svg" version="1.1">
 <metadata>
  <rdf:RDF xmlns:dc="http://purl.org/dc/elements/1.1/" xmlns:cc="http://creativecommons.org/ns#" xmlns:rdf="http://www.w3.org/1999/02/22-rdf-syntax-ns#">
   <cc:Work>
    <dc:type rdf:resource="http://purl.org/dc/dcmitype/StillImage"/>
    <dc:date>2026-05-16T12:30:09.137160</dc:date>
    <dc:format>image/svg+xml</dc:format>
    <dc:creator>
     <cc:Agent>
      <dc:title>Matplotlib v3.8.2, https://matplotlib.org/</dc:title>
     </cc:Agent>
    </dc:creator>
   </cc:Work>
  </rdf:RDF>
 </metadata>
 <defs>
  <style type="text/css">*{stroke-linejoin: round; stroke-linecap: butt}</style>
 </defs>
 <g id="figure_1">
  <g id="patch_1">
   <path d="M 0 337.620848 
L 441.551371 337.620848 
L 441.551371 0 
L 0 0 
z
" style="fill: #fbfcfe"/>
  </g>
  <g id="axes_1">
   <g id="patch_2">
    <path d="M 50.143438 304.532411 
L 348.597463 304.532411 
L 348.597463 22.318125 
L 50.143438 22.318125 
z
" style="fill: #fbfcfe"/>
   </g>
   <g id="matplotlib.axis_1">
    <g id="xtick_1">
     <g id="line2d_1"/>
     <g id="text_1">
      <!-- 0.728 -->
      <g style="fill: #475569" transform="translate(60.458799 314.871004) scale(0.09 -0.09)">
       <defs>
        <path id="DejaVuSans-30" d="M 2034 4250 
Q 1547 4250 1301 3770 
Q 1056 3291 1056 2328 
Q 1056 1369 1301 889 
Q 1547 409 2034 409 
Q 2525 409 2770 889 
Q 3016 1369 3016 2328 
Q 3016 3291 2770 3770 
Q 2525 4250 2034 4250 
z
M 2034 4750 
Q 2819 4750 3233 4129 
Q 3647 3509 3647 2328 
Q 3647 1150 3233 529 
Q 2819 -91 2034 -91 
Q 1250 -91 836 529 
Q 422 1150 422 2328 
Q 422 3509 836 4129 
Q 1250 4750 2034 4750 
z
" transform="scale(0.015625)"/>
        <path id="DejaVuSans-2e" d="M 684 794 
L 1344 794 
L 1344 0 
L 684 0 
L 684 794 
z
" transform="scale(0.015625)"/>
        <path id="DejaVuSans-37" d="M 525 4666 
L 3525 4666 
L 3525 4397 
L 1831 0 
L 1172 0 
L 2766 4134 
L 525 4134 
L 525 4666 
z
" transform="scale(0.015625)"/>
        <path id="DejaVuSans-32" d="M 1228 531 
L 3431 531 
L 3431 0 
L 469 0 
L 469 531 
Q 828 903 1448 1529 
Q 2069 2156 2228 2338 
Q 2531 2678 2651 2914 
Q 2772 3150 2772 3378 
Q 2772 3750 2511 3984 
Q 2250 4219 1831 4219 
Q 1534 4219 1204 4116 
Q 875 4013 500 3803 
L 500 4441 
Q 881 4594 1212 4672 
Q 1544 4750 1819 4750 
Q 2544 4750 2975 4387 
Q 3406 4025 3406 3419 
Q 3406 3131 3298 2873 
Q 3191 2616 2906 2266 
Q 2828 2175 2409 1742 
Q 1991 1309 1228 531 
z
" transform="scale(0.015625)"/>
        <path id="DejaVuSans-38" d="M 2034 2216 
Q 1584 2216 1326 1975 
Q 1069 1734 1069 1313 
Q 1069 891 1326 650 
Q 1584 409 2034 409 
Q 2484 409 2743 651 
Q 3003 894 3003 1313 
Q 3003 1734 2745 1975 
Q 2488 2216 2034 2216 
z
M 1403 2484 
Q 997 2584 770 2862 
Q 544 3141 544 3541 
Q 544 4100 942 4425 
Q 1341 4750 2034 4750 
Q 2731 4750 3128 4425 
Q 3525 4100 3525 3541 
Q 3525 3141 3298 2862 
Q 3072 2584 2669 2484 
Q 3125 2378 3379 2068 
Q 3634 1759 3634 1313 
Q 3634 634 3220 271 
Q 2806 -91 2034 -91 
Q 1263 -91 848 271 
Q 434 634 434 1313 
Q 434 1759 690 2068 
Q 947 2378 1403 2484 
z
M 1172 3481 
Q 1172 3119 1398 2916 
Q 1625 2713 2034 2713 
Q 2441 2713 2670 2916 
Q 2900 3119 2900 3481 
Q 2900 3844 2670 4047 
Q 2441 4250 2034 4250 
Q 1625 4250 1398 4047 
Q 1172 3844 1172 3481 
z
" transform="scale(0.015625)"/>
       </defs>
       <use xlink:href="#DejaVuSans-30"/>
       <use xlink:href="#DejaVuSans-2e" x="63.623047"/>
       <use xlink:href="#DejaVuSans-37" x="95.410156"/>
       <use xlink:href="#DejaVuSans-32" x="159.033203"/>
       <use xlink:href="#DejaVuSans-38" x="222.65625"/>
      </g>
     </g>
    </g>
    <g id="xtick_2">
     <g id="line2d_2"/>
     <g id="text_2">
      <!-- 0.730 -->
      <g style="fill: #475569" transform="translate(95.425401 314.871004) scale(0.09 -0.09)">
       <defs>
        <path id="DejaVuSans-33" d="M 2597 2516 
Q 3050 2419 3304 2112 
Q 3559 1806 3559 1356 
Q 3559 666 3084 287 
Q 2609 -91 1734 -91 
Q 1441 -91 1130 -33 
Q 819 25 488 141 
L 488 750 
Q 750 597 1062 519 
Q 1375 441 1716 441 
Q 2309 441 2620 675 
Q 2931 909 2931 1356 
Q 2931 1769 2642 2001 
Q 2353 2234 1838 2234 
L 1294 2234 
L 1294 2753 
L 1863 2753 
Q 2328 2753 2575 2939 
Q 2822 3125 2822 3475 
Q 2822 3834 2567 4026 
Q 2313 4219 1838 4219 
Q 1578 4219 1281 4162 
Q 984 4106 628 3988 
L 628 4550 
Q 988 4650 1302 4700 
Q 1616 4750 1894 4750 
Q 2613 4750 3031 4423 
Q 3450 4097 3450 3541 
Q 3450 3153 3228 2886 
Q 3006 2619 2597 2516 
z
" transform="scale(0.015625)"/>
       </defs>
       <use xlink:href="#DejaVuSans-30"/>
       <use xlink:href="#DejaVuSans-2e" x="63.623047"/>
       <use xlink:href="#DejaVuSans-37" x="95.410156"/>
       <use xlink:href="#DejaVuSans-33" x="159.033203"/>
       <use xlink:href="#DejaVuSans-30" x="222.65625"/>
      </g>
     </g>
    </g>
    <g id="xtick_3">
     <g id="line2d_3"/>
     <g id="text_3">
      <!-- 0.732 -->
      <g style="fill: #475569" transform="translate(130.392003 314.871004) scale(0.09 -0.09)">
       <use xlink:href="#DejaVuSans-30"/>
       <use xlink:href="#DejaVuSans-2e" x="63.623047"/>
       <use xlink:href="#DejaVuSans-37" x="95.410156"/>
       <use xlink:href="#DejaVuSans-33" x="159.033203"/>
       <use xlink:href="#DejaVuSans-32" x="222.65625"/>
      </g>
     </g>
    </g>
    <g id="xtick_4">
     <g id="line2d_4"/>
     <g id="text_4">
      <!-- 0.734 -->
      <g style="fill: #475569" transform="translate(165.358606 314.871004) scale(0.09 -0.09)">
       <defs>
        <path id="DejaVuSans-34" d="M 2419 4116 
L 825 1625 
L 2419 1625 
L 2419 4116 
z
M 2253 4666 
L 3047 4666 
L 3047 1625 
L 3713 1625 
L 3713 1100 
L 3047 1100 
L 3047 0 
L 2419 0 
L 2419 1100 
L 313 1100 
L 313 1709 
L 2253 4666 
z
" transform="scale(0.015625)"/>
       </defs>
       <use xlink:href="#DejaVuSans-30"/>
       <use xlink:href="#DejaVuSans-2e" x="63.623047"/>
       <use xlink:href="#DejaVuSans-37" x="95.410156"/>
       <use xlink:href="#DejaVuSans-33" x="159.033203"/>
       <use xlink:href="#DejaVuSans-34" x="222.65625"/>
      </g>
     </g>
    </g>
    <g id="xtick_5">
     <g id="line2d_5"/>
     <g id="text_5">
      <!-- 0.736 -->
      <g style="fill: #475569" transform="translate(200.325208 314.871004) scale(0.09 -0.09)">
       <defs>
        <path id="DejaVuSans-36" d="M 2113 2584 
Q 1688 2584 1439 2293 
Q 1191 2003 1191 1497 
Q 1191 994 1439 701 
Q 1688 409 2113 409 
Q 2538 409 2786 701 
Q 3034 994 3034 1497 
Q 3034 2003 2786 2293 
Q 2538 2584 2113 2584 
z
M 3366 4563 
L 3366 3988 
Q 3128 4100 2886 4159 
Q 2644 4219 2406 4219 
Q 1781 4219 1451 3797 
Q 1122 3375 1075 2522 
Q 1259 2794 1537 2939 
Q 1816 3084 2150 3084 
Q 2853 3084 3261 2657 
Q 3669 2231 3669 1497 
Q 3669 778 3244 343 
Q 2819 -91 2113 -91 
Q 1303 -91 875 529 
Q 447 1150 447 2328 
Q 447 3434 972 4092 
Q 1497 4750 2381 4750 
Q 2619 4750 2861 4703 
Q 3103 4656 3366 4563 
z
" transform="scale(0.015625)"/>
       </defs>
       <use xlink:href="#DejaVuSans-30"/>
       <use xlink:href="#DejaVuSans-2e" x="63.623047"/>
       <use xlink:href="#DejaVuSans-37" x="95.410156"/>
       <use xlink:href="#DejaVuSans-33" x="159.033203"/>
       <use xlink:href="#DejaVuSans-36" x="222.65625"/>
      </g>
     </g>
    </g>
    <g id="xtick_6">
     <g id="line2d_6"/>
     <g id="text_6">
      <!-- 0.738 -->
      <g style="fill: #475569" transform="translate(235.291811 314.871004) scale(0.09 -0.09)">
       <use xlink:href="#DejaVuSans-30"/>
       <use xlink:href="#DejaVuSans-2e" x="63.623047"/>
       <use xlink:href="#DejaVuSans-37" x="95.410156"/>
       <use xlink:href="#DejaVuSans-33" x="159.033203"/>
       <use xlink:href="#DejaVuSans-38" x="222.65625"/>
      </g>
     </g>
    </g>
    <g id="xtick_7">
     <g id="line2d_7"/>
     <g id="text_7">
      <!-- 0.740 -->
      <g style="fill: #475569" transform="translate(270.258413 314.871004) scale(0.09 -0.09)">
       <use xlink:href="#DejaVuSans-30"/>
       <use xlink:href="#DejaVuSans-2e" x="63.623047"/>
       <use xlink:href="#DejaVuSans-37" x="95.410156"/>
       <use xlink:href="#DejaVuSans-34" x="159.033203"/>
       <use xlink:href="#DejaVuSans-30" x="222.65625"/>
      </g>
     </g>
    </g>
    <g id="xtick_8">
     <g id="line2d_8"/>
     <g id="text_8">
      <!-- 0.742 -->
      <g style="fill: #475569" transform="translate(305.225015 314.871004) scale(0.09 -0.09)">
       <use xlink:href="#DejaVuSans-30"/>
       <use xlink:href="#DejaVuSans-2e" x="63.623047"/>
       <use xlink:href="#DejaVuSans-37" x="95.410156"/>
       <use xlink:href="#DejaVuSans-34" x="159.033203"/>
       <use xlink:href="#DejaVuSans-32" x="222.65625"/>
      </g>
     </g>
    </g>
    <g id="text_9">
     <!-- test top-1 accuracy -->
     <g style="fill: #475569" transform="translate(150.852482 328.341161) scale(0.1 -0.1)">
      <defs>
       <path id="DejaVuSans-74" d="M 1172 4494 
L 1172 3500 
L 2356 3500 
L 2356 3053 
L 1172 3053 
L 1172 1153 
Q 1172 725 1289 603 
Q 1406 481 1766 481 
L 2356 481 
L 2356 0 
L 1766 0 
Q 1100 0 847 248 
Q 594 497 594 1153 
L 594 3053 
L 172 3053 
L 172 3500 
L 594 3500 
L 594 4494 
L 1172 4494 
z
" transform="scale(0.015625)"/>
       <path id="DejaVuSans-65" d="M 3597 1894 
L 3597 1613 
L 953 1613 
Q 991 1019 1311 708 
Q 1631 397 2203 397 
Q 2534 397 2845 478 
Q 3156 559 3463 722 
L 3463 178 
Q 3153 47 2828 -22 
Q 2503 -91 2169 -91 
Q 1331 -91 842 396 
Q 353 884 353 1716 
Q 353 2575 817 3079 
Q 1281 3584 2069 3584 
Q 2775 3584 3186 3129 
Q 3597 2675 3597 1894 
z
M 3022 2063 
Q 3016 2534 2758 2815 
Q 2500 3097 2075 3097 
Q 1594 3097 1305 2825 
Q 1016 2553 972 2059 
L 3022 2063 
z
" transform="scale(0.015625)"/>
       <path id="DejaVuSans-73" d="M 2834 3397 
L 2834 2853 
Q 2591 2978 2328 3040 
Q 2066 3103 1784 3103 
Q 1356 3103 1142 2972 
Q 928 2841 928 2578 
Q 928 2378 1081 2264 
Q 1234 2150 1697 2047 
L 1894 2003 
Q 2506 1872 2764 1633 
Q 3022 1394 3022 966 
Q 3022 478 2636 193 
Q 2250 -91 1575 -91 
Q 1294 -91 989 -36 
Q 684 19 347 128 
L 347 722 
Q 666 556 975 473 
Q 1284 391 1588 391 
Q 1994 391 2212 530 
Q 2431 669 2431 922 
Q 2431 1156 2273 1281 
Q 2116 1406 1581 1522 
L 1381 1569 
Q 847 1681 609 1914 
Q 372 2147 372 2553 
Q 372 3047 722 3315 
Q 1072 3584 1716 3584 
Q 2034 3584 2315 3537 
Q 2597 3491 2834 3397 
z
" transform="scale(0.015625)"/>
       <path id="DejaVuSans-20" transform="scale(0.015625)"/>
       <path id="DejaVuSans-6f" d="M 1959 3097 
Q 1497 3097 1228 2736 
Q 959 2375 959 1747 
Q 959 1119 1226 758 
Q 1494 397 1959 397 
Q 2419 397 2687 759 
Q 2956 1122 2956 1747 
Q 2956 2369 2687 2733 
Q 2419 3097 1959 3097 
z
M 1959 3584 
Q 2709 3584 3137 3096 
Q 3566 2609 3566 1747 
Q 3566 888 3137 398 
Q 2709 -91 1959 -91 
Q 1206 -91 779 398 
Q 353 888 353 1747 
Q 353 2609 779 3096 
Q 1206 3584 1959 3584 
z
" transform="scale(0.015625)"/>
       <path id="DejaVuSans-70" d="M 1159 525 
L 1159 -1331 
L 581 -1331 
L 581 3500 
L 1159 3500 
L 1159 2969 
Q 1341 3281 1617 3432 
Q 1894 3584 2278 3584 
Q 2916 3584 3314 3078 
Q 3713 2572 3713 1747 
Q 3713 922 3314 415 
Q 2916 -91 2278 -91 
Q 1894 -91 1617 61 
Q 1341 213 1159 525 
z
M 3116 1747 
Q 3116 2381 2855 2742 
Q 2594 3103 2138 3103 
Q 1681 3103 1420 2742 
Q 1159 2381 1159 1747 
Q 1159 1113 1420 752 
Q 1681 391 2138 391 
Q 2594 391 2855 752 
Q 3116 1113 3116 1747 
z
" transform="scale(0.015625)"/>
       <path id="DejaVuSans-2d" d="M 313 2009 
L 1997 2009 
L 1997 1497 
L 313 1497 
L 313 2009 
z
" transform="scale(0.015625)"/>
       <path id="DejaVuSans-31" d="M 794 531 
L 1825 531 
L 1825 4091 
L 703 3866 
L 703 4441 
L 1819 4666 
L 2450 4666 
L 2450 531 
L 3481 531 
L 3481 0 
L 794 0 
L 794 531 
z
" transform="scale(0.015625)"/>
       <path id="DejaVuSans-61" d="M 2194 1759 
Q 1497 1759 1228 1600 
Q 959 1441 959 1056 
Q 959 750 1161 570 
Q 1363 391 1709 391 
Q 2188 391 2477 730 
Q 2766 1069 2766 1631 
L 2766 1759 
L 2194 1759 
z
M 3341 1997 
L 3341 0 
L 2766 0 
L 2766 531 
Q 2569 213 2275 61 
Q 1981 -91 1556 -91 
Q 1019 -91 701 211 
Q 384 513 384 1019 
Q 384 1609 779 1909 
Q 1175 2209 1959 2209 
L 2766 2209 
L 2766 2266 
Q 2766 2663 2505 2880 
Q 2244 3097 1772 3097 
Q 1472 3097 1187 3025 
Q 903 2953 641 2809 
L 641 3341 
Q 956 3463 1253 3523 
Q 1550 3584 1831 3584 
Q 2591 3584 2966 3190 
Q 3341 2797 3341 1997 
z
" transform="scale(0.015625)"/>
       <path id="DejaVuSans-63" d="M 3122 3366 
L 3122 2828 
Q 2878 2963 2633 3030 
Q 2388 3097 2138 3097 
Q 1578 3097 1268 2742 
Q 959 2388 959 1747 
Q 959 1106 1268 751 
Q 1578 397 2138 397 
Q 2388 397 2633 464 
Q 2878 531 3122 666 
L 3122 134 
Q 2881 22 2623 -34 
Q 2366 -91 2075 -91 
Q 1284 -91 818 406 
Q 353 903 353 1747 
Q 353 2603 823 3093 
Q 1294 3584 2113 3584 
Q 2378 3584 2631 3529 
Q 2884 3475 3122 3366 
z
" transform="scale(0.015625)"/>
       <path id="DejaVuSans-75" d="M 544 1381 
L 544 3500 
L 1119 3500 
L 1119 1403 
Q 1119 906 1312 657 
Q 1506 409 1894 409 
Q 2359 409 2629 706 
Q 2900 1003 2900 1516 
L 2900 3500 
L 3475 3500 
L 3475 0 
L 2900 0 
L 2900 538 
Q 2691 219 2414 64 
Q 2138 -91 1772 -91 
Q 1169 -91 856 284 
Q 544 659 544 1381 
z
M 1991 3584 
L 1991 3584 
z
" transform="scale(0.015625)"/>
       <path id="DejaVuSans-72" d="M 2631 2963 
Q 2534 3019 2420 3045 
Q 2306 3072 2169 3072 
Q 1681 3072 1420 2755 
Q 1159 2438 1159 1844 
L 1159 0 
L 581 0 
L 581 3500 
L 1159 3500 
L 1159 2956 
Q 1341 3275 1631 3429 
Q 1922 3584 2338 3584 
Q 2397 3584 2469 3576 
Q 2541 3569 2628 3553 
L 2631 2963 
z
" transform="scale(0.015625)"/>
       <path id="DejaVuSans-79" d="M 2059 -325 
Q 1816 -950 1584 -1140 
Q 1353 -1331 966 -1331 
L 506 -1331 
L 506 -850 
L 844 -850 
Q 1081 -850 1212 -737 
Q 1344 -625 1503 -206 
L 1606 56 
L 191 3500 
L 800 3500 
L 1894 763 
L 2988 3500 
L 3597 3500 
L 2059 -325 
z
" transform="scale(0.015625)"/>
      </defs>
      <use xlink:href="#DejaVuSans-74"/>
      <use xlink:href="#DejaVuSans-65" x="39.208984"/>
      <use xlink:href="#DejaVuSans-73" x="100.732422"/>
      <use xlink:href="#DejaVuSans-74" x="152.832031"/>
      <use xlink:href="#DejaVuSans-20" x="192.041016"/>
      <use xlink:href="#DejaVuSans-74" x="223.828125"/>
      <use xlink:href="#DejaVuSans-6f" x="263.037109"/>
      <use xlink:href="#DejaVuSans-70" x="324.21875"/>
      <use xlink:href="#DejaVuSans-2d" x="387.695312"/>
      <use xlink:href="#DejaVuSans-31" x="423.779297"/>
      <use xlink:href="#DejaVuSans-20" x="487.402344"/>
      <use xlink:href="#DejaVuSans-61" x="519.189453"/>
      <use xlink:href="#DejaVuSans-63" x="580.46875"/>
      <use xlink:href="#DejaVuSans-63" x="635.449219"/>
      <use xlink:href="#DejaVuSans-75" x="690.429688"/>
      <use xlink:href="#DejaVuSans-72" x="753.808594"/>
      <use xlink:href="#DejaVuSans-61" x="794.921875"/>
      <use xlink:href="#DejaVuSans-63" x="856.201172"/>
      <use xlink:href="#DejaVuSans-79" x="911.181641"/>
     </g>
    </g>
   </g>
   <g id="matplotlib.axis_2">
    <g id="ytick_1">
     <g id="line2d_9">
      <path d="M 50.143438 295.883706 
L 348.597463 295.883706 
" clip-path="url(#p17e8e4c7be)" style="fill: none; stroke: #cbd5e1; stroke-opacity: 0.35; stroke-width: 0.8; stroke-linecap: square"/>
     </g>
     <g id="line2d_10"/>
     <g id="text_10">
      <!-- 0.726 -->
      <g style="fill: #475569" transform="translate(20.878125 299.303003) scale(0.09 -0.09)">
       <use xlink:href="#DejaVuSans-30"/>
       <use xlink:href="#DejaVuSans-2e" x="63.623047"/>
       <use xlink:href="#DejaVuSans-37" x="95.410156"/>
       <use xlink:href="#DejaVuSans-32" x="159.033203"/>
       <use xlink:href="#DejaVuSans-36" x="222.65625"/>
      </g>
     </g>
    </g>
    <g id="ytick_2">
     <g id="line2d_11">
      <path d="M 50.143438 263.929895 
L 348.597463 263.929895 
" clip-path="url(#p17e8e4c7be)" style="fill: none; stroke: #cbd5e1; stroke-opacity: 0.35; stroke-width: 0.8; stroke-linecap: square"/>
     </g>
     <g id="line2d_12"/>
     <g id="text_11">
      <!-- 0.728 -->
      <g style="fill: #475569" transform="translate(20.878125 267.349191) scale(0.09 -0.09)">
       <use xlink:href="#DejaVuSans-30"/>
       <use xlink:href="#DejaVuSans-2e" x="63.623047"/>
       <use xlink:href="#DejaVuSans-37" x="95.410156"/>
       <use xlink:href="#DejaVuSans-32" x="159.033203"/>
       <use xlink:href="#DejaVuSans-38" x="222.65625"/>
      </g>
     </g>
    </g>
    <g id="ytick_3">
     <g id="line2d_13">
      <path d="M 50.143438 231.976084 
L 348.597463 231.976084 
" clip-path="url(#p17e8e4c7be)" style="fill: none; stroke: #cbd5e1; stroke-opacity: 0.35; stroke-width: 0.8; stroke-linecap: square"/>
     </g>
     <g id="line2d_14"/>
     <g id="text_12">
      <!-- 0.730 -->
      <g style="fill: #475569" transform="translate(20.878125 235.39538) scale(0.09 -0.09)">
       <use xlink:href="#DejaVuSans-30"/>
       <use xlink:href="#DejaVuSans-2e" x="63.623047"/>
       <use xlink:href="#DejaVuSans-37" x="95.410156"/>
       <use xlink:href="#DejaVuSans-33" x="159.033203"/>
       <use xlink:href="#DejaVuSans-30" x="222.65625"/>
      </g>
     </g>
    </g>
    <g id="ytick_4">
     <g id="line2d_15">
      <path d="M 50.143438 200.022272 
L 348.597463 200.022272 
" clip-path="url(#p17e8e4c7be)" style="fill: none; stroke: #cbd5e1; stroke-opacity: 0.35; stroke-width: 0.8; stroke-linecap: square"/>
     </g>
     <g id="line2d_16"/>
     <g id="text_13">
      <!-- 0.732 -->
      <g style="fill: #475569" transform="translate(20.878125 203.441569) scale(0.09 -0.09)">
       <use xlink:href="#DejaVuSans-30"/>
       <use xlink:href="#DejaVuSans-2e" x="63.623047"/>
       <use xlink:href="#DejaVuSans-37" x="95.410156"/>
       <use xlink:href="#DejaVuSans-33" x="159.033203"/>
       <use xlink:href="#DejaVuSans-32" x="222.65625"/>
      </g>
     </g>
    </g>
    <g id="ytick_5">
     <g id="line2d_17">
      <path d="M 50.143438 168.068461 
L 348.597463 168.068461 
" clip-path="url(#p17e8e4c7be)" style="fill: none; stroke: #cbd5e1; stroke-opacity: 0.35; stroke-width: 0.8; stroke-linecap: square"/>
     </g>
     <g id="line2d_18"/>
     <g id="text_14">
      <!-- 0.734 -->
      <g style="fill: #475569" transform="translate(20.878125 171.487758) scale(0.09 -0.09)">
       <use xlink:href="#DejaVuSans-30"/>
       <use xlink:href="#DejaVuSans-2e" x="63.623047"/>
       <use xlink:href="#DejaVuSans-37" x="95.410156"/>
       <use xlink:href="#DejaVuSans-33" x="159.033203"/>
       <use xlink:href="#DejaVuSans-34" x="222.65625"/>
      </g>
     </g>
    </g>
    <g id="ytick_6">
     <g id="line2d_19">
      <path d="M 50.143438 136.11465 
L 348.597463 136.11465 
" clip-path="url(#p17e8e4c7be)" style="fill: none; stroke: #cbd5e1; stroke-opacity: 0.35; stroke-width: 0.8; stroke-linecap: square"/>
     </g>
     <g id="line2d_20"/>
     <g id="text_15">
      <!-- 0.736 -->
      <g style="fill: #475569" transform="translate(20.878125 139.533947) scale(0.09 -0.09)">
       <use xlink:href="#DejaVuSans-30"/>
       <use xlink:href="#DejaVuSans-2e" x="63.623047"/>
       <use xlink:href="#DejaVuSans-37" x="95.410156"/>
       <use xlink:href="#DejaVuSans-33" x="159.033203"/>
       <use xlink:href="#DejaVuSans-36" x="222.65625"/>
      </g>
     </g>
    </g>
    <g id="ytick_7">
     <g id="line2d_21">
      <path d="M 50.143438 104.160839 
L 348.597463 104.160839 
" clip-path="url(#p17e8e4c7be)" style="fill: none; stroke: #cbd5e1; stroke-opacity: 0.35; stroke-width: 0.8; stroke-linecap: square"/>
     </g>
     <g id="line2d_22"/>
     <g id="text_16">
      <!-- 0.738 -->
      <g style="fill: #475569" transform="translate(20.878125 107.580136) scale(0.09 -0.09)">
       <use xlink:href="#DejaVuSans-30"/>
       <use xlink:href="#DejaVuSans-2e" x="63.623047"/>
       <use xlink:href="#DejaVuSans-37" x="95.410156"/>
       <use xlink:href="#DejaVuSans-33" x="159.033203"/>
       <use xlink:href="#DejaVuSans-38" x="222.65625"/>
      </g>
     </g>
    </g>
    <g id="ytick_8">
     <g id="line2d_23">
      <path d="M 50.143438 72.207028 
L 348.597463 72.207028 
" clip-path="url(#p17e8e4c7be)" style="fill: none; stroke: #cbd5e1; stroke-opacity: 0.35; stroke-width: 0.8; stroke-linecap: square"/>
     </g>
     <g id="line2d_24"/>
     <g id="text_17">
      <!-- 0.740 -->
      <g style="fill: #475569" transform="translate(20.878125 75.626325) scale(0.09 -0.09)">
       <use xlink:href="#DejaVuSans-30"/>
       <use xlink:href="#DejaVuSans-2e" x="63.623047"/>
       <use xlink:href="#DejaVuSans-37" x="95.410156"/>
       <use xlink:href="#DejaVuSans-34" x="159.033203"/>
       <use xlink:href="#DejaVuSans-30" x="222.65625"/>
      </g>
     </g>
    </g>
    <g id="ytick_9">
     <g id="line2d_25">
      <path d="M 50.143438 40.253217 
L 348.597463 40.253217 
" clip-path="url(#p17e8e4c7be)" style="fill: none; stroke: #cbd5e1; stroke-opacity: 0.35; stroke-width: 0.8; stroke-linecap: square"/>
     </g>
     <g id="line2d_26"/>
     <g id="text_18">
      <!-- 0.742 -->
      <g style="fill: #475569" transform="translate(20.878125 43.672514) scale(0.09 -0.09)">
       <use xlink:href="#DejaVuSans-30"/>
       <use xlink:href="#DejaVuSans-2e" x="63.623047"/>
       <use xlink:href="#DejaVuSans-37" x="95.410156"/>
       <use xlink:href="#DejaVuSans-34" x="159.033203"/>
       <use xlink:href="#DejaVuSans-32" x="222.65625"/>
      </g>
     </g>
    </g>
    <g id="text_19">
     <!-- image retrieval hit@1 -->
     <g style="fill: #475569" transform="translate(14.798438 217.790112) rotate(-90) scale(0.1 -0.1)">
      <defs>
       <path id="DejaVuSans-69" d="M 603 3500 
L 1178 3500 
L 1178 0 
L 603 0 
L 603 3500 
z
M 603 4863 
L 1178 4863 
L 1178 4134 
L 603 4134 
L 603 4863 
z
" transform="scale(0.015625)"/>
       <path id="DejaVuSans-6d" d="M 3328 2828 
Q 3544 3216 3844 3400 
Q 4144 3584 4550 3584 
Q 5097 3584 5394 3201 
Q 5691 2819 5691 2113 
L 5691 0 
L 5113 0 
L 5113 2094 
Q 5113 2597 4934 2840 
Q 4756 3084 4391 3084 
Q 3944 3084 3684 2787 
Q 3425 2491 3425 1978 
L 3425 0 
L 2847 0 
L 2847 2094 
Q 2847 2600 2669 2842 
Q 2491 3084 2119 3084 
Q 1678 3084 1418 2786 
Q 1159 2488 1159 1978 
L 1159 0 
L 581 0 
L 581 3500 
L 1159 3500 
L 1159 2956 
Q 1356 3278 1631 3431 
Q 1906 3584 2284 3584 
Q 2666 3584 2933 3390 
Q 3200 3197 3328 2828 
z
" transform="scale(0.015625)"/>
       <path id="DejaVuSans-67" d="M 2906 1791 
Q 2906 2416 2648 2759 
Q 2391 3103 1925 3103 
Q 1463 3103 1205 2759 
Q 947 2416 947 1791 
Q 947 1169 1205 825 
Q 1463 481 1925 481 
Q 2391 481 2648 825 
Q 2906 1169 2906 1791 
z
M 3481 434 
Q 3481 -459 3084 -895 
Q 2688 -1331 1869 -1331 
Q 1566 -1331 1297 -1286 
Q 1028 -1241 775 -1147 
L 775 -588 
Q 1028 -725 1275 -790 
Q 1522 -856 1778 -856 
Q 2344 -856 2625 -561 
Q 2906 -266 2906 331 
L 2906 616 
Q 2728 306 2450 153 
Q 2172 0 1784 0 
Q 1141 0 747 490 
Q 353 981 353 1791 
Q 353 2603 747 3093 
Q 1141 3584 1784 3584 
Q 2172 3584 2450 3431 
Q 2728 3278 2906 2969 
L 2906 3500 
L 3481 3500 
L 3481 434 
z
" transform="scale(0.015625)"/>
       <path id="DejaVuSans-76" d="M 191 3500 
L 800 3500 
L 1894 563 
L 2988 3500 
L 3597 3500 
L 2284 0 
L 1503 0 
L 191 3500 
z
" transform="scale(0.015625)"/>
       <path id="DejaVuSans-6c" d="M 603 4863 
L 1178 4863 
L 1178 0 
L 603 0 
L 603 4863 
z
" transform="scale(0.015625)"/>
       <path id="DejaVuSans-68" d="M 3513 2113 
L 3513 0 
L 2938 0 
L 2938 2094 
Q 2938 2591 2744 2837 
Q 2550 3084 2163 3084 
Q 1697 3084 1428 2787 
Q 1159 2491 1159 1978 
L 1159 0 
L 581 0 
L 581 4863 
L 1159 4863 
L 1159 2956 
Q 1366 3272 1645 3428 
Q 1925 3584 2291 3584 
Q 2894 3584 3203 3211 
Q 3513 2838 3513 2113 
z
" transform="scale(0.015625)"/>
       <path id="DejaVuSans-40" d="M 2381 1678 
Q 2381 1231 2603 976 
Q 2825 722 3213 722 
Q 3597 722 3817 978 
Q 4038 1234 4038 1678 
Q 4038 2116 3813 2373 
Q 3588 2631 3206 2631 
Q 2828 2631 2604 2375 
Q 2381 2119 2381 1678 
z
M 4084 744 
Q 3897 503 3655 389 
Q 3413 275 3091 275 
Q 2553 275 2217 664 
Q 1881 1053 1881 1678 
Q 1881 2303 2218 2693 
Q 2556 3084 3091 3084 
Q 3413 3084 3656 2967 
Q 3900 2850 4084 2613 
L 4084 3022 
L 4531 3022 
L 4531 722 
Q 4988 791 5245 1139 
Q 5503 1488 5503 2041 
Q 5503 2375 5404 2669 
Q 5306 2963 5106 3213 
Q 4781 3622 4314 3839 
Q 3847 4056 3297 4056 
Q 2913 4056 2559 3954 
Q 2206 3853 1906 3653 
Q 1416 3334 1139 2817 
Q 863 2300 863 1697 
Q 863 1200 1042 765 
Q 1222 331 1563 0 
Q 1891 -325 2322 -495 
Q 2753 -666 3244 -666 
Q 3647 -666 4036 -530 
Q 4425 -394 4750 -141 
L 5031 -488 
Q 4641 -791 4180 -952 
Q 3719 -1113 3244 -1113 
Q 2666 -1113 2153 -908 
Q 1641 -703 1241 -313 
Q 841 78 631 592 
Q 422 1106 422 1697 
Q 422 2266 634 2781 
Q 847 3297 1241 3688 
Q 1644 4084 2172 4295 
Q 2700 4506 3291 4506 
Q 3953 4506 4520 4234 
Q 5088 3963 5472 3463 
Q 5706 3156 5829 2797 
Q 5953 2438 5953 2053 
Q 5953 1231 5456 756 
Q 4959 281 4084 263 
L 4084 744 
z
" transform="scale(0.015625)"/>
      </defs>
      <use xlink:href="#DejaVuSans-69"/>
      <use xlink:href="#DejaVuSans-6d" x="27.783203"/>
      <use xlink:href="#DejaVuSans-61" x="125.195312"/>
      <use xlink:href="#DejaVuSans-67" x="186.474609"/>
      <use xlink:href="#DejaVuSans-65" x="249.951172"/>
      <use xlink:href="#DejaVuSans-20" x="311.474609"/>
      <use xlink:href="#DejaVuSans-72" x="343.261719"/>
      <use xlink:href="#DejaVuSans-65" x="382.125"/>
      <use xlink:href="#DejaVuSans-74" x="443.648438"/>
      <use xlink:href="#DejaVuSans-72" x="482.857422"/>
      <use xlink:href="#DejaVuSans-69" x="523.970703"/>
      <use xlink:href="#DejaVuSans-65" x="551.753906"/>
      <use xlink:href="#DejaVuSans-76" x="613.277344"/>
      <use xlink:href="#DejaVuSans-61" x="672.457031"/>
      <use xlink:href="#DejaVuSans-6c" x="733.736328"/>
      <use xlink:href="#DejaVuSans-20" x="761.519531"/>
      <use xlink:href="#DejaVuSans-68" x="793.306641"/>
      <use xlink:href="#DejaVuSans-69" x="856.685547"/>
      <use xlink:href="#DejaVuSans-74" x="884.46875"/>
      <use xlink:href="#DejaVuSans-40" x="923.677734"/>
      <use xlink:href="#DejaVuSans-31" x="1023.677734"/>
     </g>
    </g>
   </g>
   <g id="PathCollection_1">
    <path d="M 63.70953 290.786324 
C 64.981399 290.786324 66.201347 290.281005 67.100695 289.381657 
C 68.000042 288.48231 68.505361 287.262362 68.505361 285.990492 
C 68.505361 284.718623 68.000042 283.498675 67.100695 282.599327 
C 66.201347 281.69998 64.981399 281.194661 63.70953 281.194661 
C 62.43766 281.194661 61.217712 281.69998 60.318365 282.599327 
C 59.419017 283.498675 58.913698 284.718623 58.913698 285.990492 
C 58.913698 287.262362 59.419017 288.48231 60.318365 289.381657 
C 61.217712 290.281005 62.43766 290.786324 63.70953 290.786324 
z
" clip-path="url(#p17e8e4c7be)" style="fill: #4b5563; fill-opacity: 0.96"/>
   </g>
   <g id="text_20">
    <!-- Image-only classifier -->
    <g style="fill: #475569" transform="translate(69.70953 281.990492) scale(0.08 -0.08)">
     <defs>
      <path id="DejaVuSans-49" d="M 628 4666 
L 1259 4666 
L 1259 0 
L 628 0 
L 628 4666 
z
" transform="scale(0.015625)"/>
      <path id="DejaVuSans-6e" d="M 3513 2113 
L 3513 0 
L 2938 0 
L 2938 2094 
Q 2938 2591 2744 2837 
Q 2550 3084 2163 3084 
Q 1697 3084 1428 2787 
Q 1159 2491 1159 1978 
L 1159 0 
L 581 0 
L 581 3500 
L 1159 3500 
L 1159 2956 
Q 1366 3272 1645 3428 
Q 1925 3584 2291 3584 
Q 2894 3584 3203 3211 
Q 3513 2838 3513 2113 
z
" transform="scale(0.015625)"/>
      <path id="DejaVuSans-66" d="M 2375 4863 
L 2375 4384 
L 1825 4384 
Q 1516 4384 1395 4259 
Q 1275 4134 1275 3809 
L 1275 3500 
L 2222 3500 
L 2222 3053 
L 1275 3053 
L 1275 0 
L 697 0 
L 697 3053 
L 147 3053 
L 147 3500 
L 697 3500 
L 697 3744 
Q 697 4328 969 4595 
Q 1241 4863 1831 4863 
L 2375 4863 
z
" transform="scale(0.015625)"/>
     </defs>
     <use xlink:href="#DejaVuSans-49"/>
     <use xlink:href="#DejaVuSans-6d" x="29.492188"/>
     <use xlink:href="#DejaVuSans-61" x="126.904297"/>
     <use xlink:href="#DejaVuSans-67" x="188.183594"/>
     <use xlink:href="#DejaVuSans-65" x="251.660156"/>
     <use xlink:href="#DejaVuSans-2d" x="313.183594"/>
     <use xlink:href="#DejaVuSans-6f" x="351.142578"/>
     <use xlink:href="#DejaVuSans-6e" x="412.324219"/>
     <use xlink:href="#DejaVuSans-6c" x="475.703125"/>
     <use xlink:href="#DejaVuSans-79" x="503.486328"/>
     <use xlink:href="#DejaVuSans-20" x="562.666016"/>
     <use xlink:href="#DejaVuSans-63" x="594.453125"/>
     <use xlink:href="#DejaVuSans-6c" x="649.433594"/>
     <use xlink:href="#DejaVuSans-61" x="677.216797"/>
     <use xlink:href="#DejaVuSans-73" x="738.496094"/>
     <use xlink:href="#DejaVuSans-73" x="790.595703"/>
     <use xlink:href="#DejaVuSans-69" x="842.695312"/>
     <use xlink:href="#DejaVuSans-66" x="870.478516"/>
     <use xlink:href="#DejaVuSans-69" x="905.683594"/>
     <use xlink:href="#DejaVuSans-65" x="933.466797"/>
     <use xlink:href="#DejaVuSans-72" x="994.990234"/>
    </g>
   </g>
   <g id="PathCollection_2">
    <path d="M 335.031371 41.656078 
C 336.303241 41.656078 337.523189 41.150758 338.422536 40.251411 
C 339.321884 39.352064 339.827203 38.132115 339.827203 36.860246 
C 339.827203 35.588377 339.321884 34.368428 338.422536 33.469081 
C 337.523189 32.569734 336.303241 32.064414 335.031371 32.064414 
C 333.759502 32.064414 332.539554 32.569734 331.640206 33.469081 
C 330.740859 34.368428 330.23554 35.588377 330.23554 36.860246 
C 330.23554 38.132115 330.740859 39.352064 331.640206 40.251411 
C 332.539554 41.150758 333.759502 41.656078 335.031371 41.656078 
z
" clip-path="url(#p17e8e4c7be)" style="fill: #2563eb; fill-opacity: 0.96"/>
   </g>
   <g id="text_21">
    <!-- Fixed-prototype triplets -->
    <g style="fill: #475569" transform="translate(341.031371 32.860246) scale(0.08 -0.08)">
     <defs>
      <path id="DejaVuSans-46" d="M 628 4666 
L 3309 4666 
L 3309 4134 
L 1259 4134 
L 1259 2759 
L 3109 2759 
L 3109 2228 
L 1259 2228 
L 1259 0 
L 628 0 
L 628 4666 
z
" transform="scale(0.015625)"/>
      <path id="DejaVuSans-78" d="M 3513 3500 
L 2247 1797 
L 3578 0 
L 2900 0 
L 1881 1375 
L 863 0 
L 184 0 
L 1544 1831 
L 300 3500 
L 978 3500 
L 1906 2253 
L 2834 3500 
L 3513 3500 
z
" transform="scale(0.015625)"/>
      <path id="DejaVuSans-64" d="M 2906 2969 
L 2906 4863 
L 3481 4863 
L 3481 0 
L 2906 0 
L 2906 525 
Q 2725 213 2448 61 
Q 2172 -91 1784 -91 
Q 1150 -91 751 415 
Q 353 922 353 1747 
Q 353 2572 751 3078 
Q 1150 3584 1784 3584 
Q 2172 3584 2448 3432 
Q 2725 3281 2906 2969 
z
M 947 1747 
Q 947 1113 1208 752 
Q 1469 391 1925 391 
Q 2381 391 2643 752 
Q 2906 1113 2906 1747 
Q 2906 2381 2643 2742 
Q 2381 3103 1925 3103 
Q 1469 3103 1208 2742 
Q 947 2381 947 1747 
z
" transform="scale(0.015625)"/>
     </defs>
     <use xlink:href="#DejaVuSans-46"/>
     <use xlink:href="#DejaVuSans-69" x="50.269531"/>
     <use xlink:href="#DejaVuSans-78" x="78.052734"/>
     <use xlink:href="#DejaVuSans-65" x="134.107422"/>
     <use xlink:href="#DejaVuSans-64" x="195.630859"/>
     <use xlink:href="#DejaVuSans-2d" x="259.107422"/>
     <use xlink:href="#DejaVuSans-70" x="295.191406"/>
     <use xlink:href="#DejaVuSans-72" x="358.667969"/>
     <use xlink:href="#DejaVuSans-6f" x="397.53125"/>
     <use xlink:href="#DejaVuSans-74" x="458.712891"/>
     <use xlink:href="#DejaVuSans-6f" x="497.921875"/>
     <use xlink:href="#DejaVuSans-74" x="559.103516"/>
     <use xlink:href="#DejaVuSans-79" x="598.3125"/>
     <use xlink:href="#DejaVuSans-70" x="657.492188"/>
     <use xlink:href="#DejaVuSans-65" x="720.96875"/>
     <use xlink:href="#DejaVuSans-20" x="782.492188"/>
     <use xlink:href="#DejaVuSans-74" x="814.279297"/>
     <use xlink:href="#DejaVuSans-72" x="853.488281"/>
     <use xlink:href="#DejaVuSans-69" x="894.601562"/>
     <use xlink:href="#DejaVuSans-70" x="922.384766"/>
     <use xlink:href="#DejaVuSans-6c" x="985.861328"/>
     <use xlink:href="#DejaVuSans-65" x="1013.644531"/>
     <use xlink:href="#DejaVuSans-74" x="1075.167969"/>
     <use xlink:href="#DejaVuSans-73" x="1114.376953"/>
    </g>
   </g>
   <g id="PathCollection_3">
    <path d="M 335.031371 38.953934 
C 336.041235 38.953934 337.009873 38.552711 337.723954 37.838629 
C 338.438035 37.124548 338.839258 36.15591 338.839258 35.146047 
C 338.839258 34.136184 338.438035 33.167546 337.723954 32.453465 
C 337.009873 31.739383 336.041235 31.338161 335.031371 31.338161 
C 334.021508 31.338161 333.05287 31.739383 332.338789 32.453465 
C 331.624708 33.167546 331.223485 34.136184 331.223485 35.146047 
C 331.223485 36.15591 331.624708 37.124548 332.338789 37.838629 
C 333.05287 38.552711 334.021508 38.953934 335.031371 38.953934 
z
" clip-path="url(#p17e8e4c7be)" style="fill: #b8c0cc; fill-opacity: 0.42"/>
   </g>
   <g id="text_22">
    <!-- Fixed-prototype control -->
    <g style="fill: #475569" transform="translate(341.031371 31.146047) scale(0.08 -0.08)">
     <use xlink:href="#DejaVuSans-46"/>
     <use xlink:href="#DejaVuSans-69" x="50.269531"/>
     <use xlink:href="#DejaVuSans-78" x="78.052734"/>
     <use xlink:href="#DejaVuSans-65" x="134.107422"/>
     <use xlink:href="#DejaVuSans-64" x="195.630859"/>
     <use xlink:href="#DejaVuSans-2d" x="259.107422"/>
     <use xlink:href="#DejaVuSans-70" x="295.191406"/>
     <use xlink:href="#DejaVuSans-72" x="358.667969"/>
     <use xlink:href="#DejaVuSans-6f" x="397.53125"/>
     <use xlink:href="#DejaVuSans-74" x="458.712891"/>
     <use xlink:href="#DejaVuSans-6f" x="497.921875"/>
     <use xlink:href="#DejaVuSans-74" x="559.103516"/>
     <use xlink:href="#DejaVuSans-79" x="598.3125"/>
     <use xlink:href="#DejaVuSans-70" x="657.492188"/>
     <use xlink:href="#DejaVuSans-65" x="720.96875"/>
     <use xlink:href="#DejaVuSans-20" x="782.492188"/>
     <use xlink:href="#DejaVuSans-63" x="814.279297"/>
     <use xlink:href="#DejaVuSans-6f" x="869.259766"/>
     <use xlink:href="#DejaVuSans-6e" x="930.441406"/>
     <use xlink:href="#DejaVuSans-74" x="993.820312"/>
     <use xlink:href="#DejaVuSans-72" x="1033.029297"/>
     <use xlink:href="#DejaVuSans-6f" x="1071.892578"/>
     <use xlink:href="#DejaVuSans-6c" x="1133.074219"/>
    </g>
   </g>
   <g id="PathCollection_4">
    <path d="M 156.976413 182.79179 
C 158.248282 182.79179 159.46823 182.286471 160.367578 181.387124 
C 161.266925 180.487776 161.772244 179.267828 161.772244 177.995959 
C 161.772244 176.724089 161.266925 175.504141 160.367578 174.604794 
C 159.46823 173.705446 158.248282 173.200127 156.976413 173.200127 
C 155.704543 173.200127 154.484595 173.705446 153.585248 174.604794 
C 152.6859 175.504141 152.180581 176.724089 152.180581 177.995959 
C 152.180581 179.267828 152.6859 180.487776 153.585248 181.387124 
C 154.484595 182.286471 155.704543 182.79179 156.976413 182.79179 
z
" clip-path="url(#p17e8e4c7be)" style="fill: #059669; fill-opacity: 0.96"/>
   </g>
   <g id="text_23">
    <!-- Batch-prototype triplets -->
    <g style="fill: #475569" transform="translate(162.976413 173.995959) scale(0.08 -0.08)">
     <defs>
      <path id="DejaVuSans-42" d="M 1259 2228 
L 1259 519 
L 2272 519 
Q 2781 519 3026 730 
Q 3272 941 3272 1375 
Q 3272 1813 3026 2020 
Q 2781 2228 2272 2228 
L 1259 2228 
z
M 1259 4147 
L 1259 2741 
L 2194 2741 
Q 2656 2741 2882 2914 
Q 3109 3088 3109 3444 
Q 3109 3797 2882 3972 
Q 2656 4147 2194 4147 
L 1259 4147 
z
M 628 4666 
L 2241 4666 
Q 2963 4666 3353 4366 
Q 3744 4066 3744 3513 
Q 3744 3084 3544 2831 
Q 3344 2578 2956 2516 
Q 3422 2416 3680 2098 
Q 3938 1781 3938 1306 
Q 3938 681 3513 340 
Q 3088 0 2303 0 
L 628 0 
L 628 4666 
z
" transform="scale(0.015625)"/>
     </defs>
     <use xlink:href="#DejaVuSans-42"/>
     <use xlink:href="#DejaVuSans-61" x="68.603516"/>
     <use xlink:href="#DejaVuSans-74" x="129.882812"/>
     <use xlink:href="#DejaVuSans-63" x="169.091797"/>
     <use xlink:href="#DejaVuSans-68" x="224.072266"/>
     <use xlink:href="#DejaVuSans-2d" x="287.451172"/>
     <use xlink:href="#DejaVuSans-70" x="323.535156"/>
     <use xlink:href="#DejaVuSans-72" x="387.011719"/>
     <use xlink:href="#DejaVuSans-6f" x="425.875"/>
     <use xlink:href="#DejaVuSans-74" x="487.056641"/>
     <use xlink:href="#DejaVuSans-6f" x="526.265625"/>
     <use xlink:href="#DejaVuSans-74" x="587.447266"/>
     <use xlink:href="#DejaVuSans-79" x="626.65625"/>
     <use xlink:href="#DejaVuSans-70" x="685.835938"/>
     <use xlink:href="#DejaVuSans-65" x="749.3125"/>
     <use xlink:href="#DejaVuSans-20" x="810.835938"/>
     <use xlink:href="#DejaVuSans-74" x="842.623047"/>
     <use xlink:href="#DejaVuSans-72" x="881.832031"/>
     <use xlink:href="#DejaVuSans-69" x="922.945312"/>
     <use xlink:href="#DejaVuSans-70" x="950.728516"/>
     <use xlink:href="#DejaVuSans-6c" x="1014.205078"/>
     <use xlink:href="#DejaVuSans-65" x="1041.988281"/>
     <use xlink:href="#DejaVuSans-74" x="1103.511719"/>
     <use xlink:href="#DejaVuSans-73" x="1142.720703"/>
    </g>
   </g>
   <g id="PathCollection_5">
    <path d="M 161.215816 292.500523 
C 162.487686 292.500523 163.707634 291.995204 164.606981 291.095856 
C 165.506329 290.196509 166.011648 288.97656 166.011648 287.704691 
C 166.011648 286.432822 165.506329 285.212874 164.606981 284.313526 
C 163.707634 283.414179 162.487686 282.90886 161.215816 282.90886 
C 159.943947 282.90886 158.723999 283.414179 157.824651 284.313526 
C 156.925304 285.212874 156.419985 286.432822 156.419985 287.704691 
C 156.419985 288.97656 156.925304 290.196509 157.824651 291.095856 
C 158.723999 291.995204 159.943947 292.500523 161.215816 292.500523 
z
" clip-path="url(#p17e8e4c7be)" style="fill: #dc2626; fill-opacity: 0.96"/>
   </g>
   <g id="text_24">
    <!-- High-pressure triplets -->
    <g style="fill: #475569" transform="translate(167.215816 283.704691) scale(0.08 -0.08)">
     <defs>
      <path id="DejaVuSans-48" d="M 628 4666 
L 1259 4666 
L 1259 2753 
L 3553 2753 
L 3553 4666 
L 4184 4666 
L 4184 0 
L 3553 0 
L 3553 2222 
L 1259 2222 
L 1259 0 
L 628 0 
L 628 4666 
z
" transform="scale(0.015625)"/>
     </defs>
     <use xlink:href="#DejaVuSans-48"/>
     <use xlink:href="#DejaVuSans-69" x="75.195312"/>
     <use xlink:href="#DejaVuSans-67" x="102.978516"/>
     <use xlink:href="#DejaVuSans-68" x="166.455078"/>
     <use xlink:href="#DejaVuSans-2d" x="229.833984"/>
     <use xlink:href="#DejaVuSans-70" x="265.917969"/>
     <use xlink:href="#DejaVuSans-72" x="329.394531"/>
     <use xlink:href="#DejaVuSans-65" x="368.257812"/>
     <use xlink:href="#DejaVuSans-73" x="429.78125"/>
     <use xlink:href="#DejaVuSans-73" x="481.880859"/>
     <use xlink:href="#DejaVuSans-75" x="533.980469"/>
     <use xlink:href="#DejaVuSans-72" x="597.359375"/>
     <use xlink:href="#DejaVuSans-65" x="636.222656"/>
     <use xlink:href="#DejaVuSans-20" x="697.746094"/>
     <use xlink:href="#DejaVuSans-74" x="729.533203"/>
     <use xlink:href="#DejaVuSans-72" x="768.742188"/>
     <use xlink:href="#DejaVuSans-69" x="809.855469"/>
     <use xlink:href="#DejaVuSans-70" x="837.638672"/>
     <use xlink:href="#DejaVuSans-6c" x="901.115234"/>
     <use xlink:href="#DejaVuSans-65" x="928.898438"/>
     <use xlink:href="#DejaVuSans-74" x="990.421875"/>
     <use xlink:href="#DejaVuSans-73" x="1029.630859"/>
    </g>
   </g>
   <g id="PathCollection_6">
    <path d="M 220.567469 191.362785 
C 221.839339 191.362785 223.059287 190.857466 223.958634 189.958119 
C 224.857982 189.058771 225.363301 187.838823 225.363301 186.566954 
C 225.363301 185.295084 224.857982 184.075136 223.958634 183.175789 
C 223.059287 182.276441 221.839339 181.771122 220.567469 181.771122 
C 219.2956 181.771122 218.075652 182.276441 217.176304 183.175789 
C 216.276957 184.075136 215.771638 185.295084 215.771638 186.566954 
C 215.771638 187.838823 216.276957 189.058771 217.176304 189.958119 
C 218.075652 190.857466 219.2956 191.362785 220.567469 191.362785 
z
" clip-path="url(#p17e8e4c7be)" style="fill: #0f766e; fill-opacity: 0.96"/>
   </g>
   <g id="text_25">
    <!-- Joint matrix alignment -->
    <g style="fill: #475569" transform="translate(226.567469 182.566954) scale(0.08 -0.08)">
     <defs>
      <path id="DejaVuSans-4a" d="M 628 4666 
L 1259 4666 
L 1259 325 
Q 1259 -519 939 -900 
Q 619 -1281 -91 -1281 
L -331 -1281 
L -331 -750 
L -134 -750 
Q 284 -750 456 -515 
Q 628 -281 628 325 
L 628 4666 
z
" transform="scale(0.015625)"/>
     </defs>
     <use xlink:href="#DejaVuSans-4a"/>
     <use xlink:href="#DejaVuSans-6f" x="29.492188"/>
     <use xlink:href="#DejaVuSans-69" x="90.673828"/>
     <use xlink:href="#DejaVuSans-6e" x="118.457031"/>
     <use xlink:href="#DejaVuSans-74" x="181.835938"/>
     <use xlink:href="#DejaVuSans-20" x="221.044922"/>
     <use xlink:href="#DejaVuSans-6d" x="252.832031"/>
     <use xlink:href="#DejaVuSans-61" x="350.244141"/>
     <use xlink:href="#DejaVuSans-74" x="411.523438"/>
     <use xlink:href="#DejaVuSans-72" x="450.732422"/>
     <use xlink:href="#DejaVuSans-69" x="491.845703"/>
     <use xlink:href="#DejaVuSans-78" x="519.628906"/>
     <use xlink:href="#DejaVuSans-20" x="578.808594"/>
     <use xlink:href="#DejaVuSans-61" x="610.595703"/>
     <use xlink:href="#DejaVuSans-6c" x="671.875"/>
     <use xlink:href="#DejaVuSans-69" x="699.658203"/>
     <use xlink:href="#DejaVuSans-67" x="727.441406"/>
     <use xlink:href="#DejaVuSans-6e" x="790.917969"/>
     <use xlink:href="#DejaVuSans-6d" x="854.296875"/>
     <use xlink:href="#DejaVuSans-65" x="951.708984"/>
     <use xlink:href="#DejaVuSans-6e" x="1013.232422"/>
     <use xlink:href="#DejaVuSans-74" x="1076.611328"/>
    </g>
   </g>
   <g id="PathCollection_7">
    <path d="M 67.948933 295.512375 
C 68.958797 295.512375 69.927435 295.111152 70.641516 294.397071 
C 71.355597 293.68299 71.75682 292.714352 71.75682 291.704489 
C 71.75682 290.694625 71.355597 289.725987 70.641516 289.011906 
C 69.927435 288.297825 68.958797 287.896602 67.948933 287.896602 
C 66.93907 287.896602 65.970432 288.297825 65.256351 289.011906 
C 64.54227 289.725987 64.141047 290.694625 64.141047 291.704489 
C 64.141047 292.714352 64.54227 293.68299 65.256351 294.397071 
C 65.970432 295.111152 66.93907 295.512375 67.948933 295.512375 
z
" clip-path="url(#p17e8e4c7be)" style="fill: #b8c0cc; fill-opacity: 0.42"/>
   </g>
   <g id="text_26">
    <!-- Matrix control -->
    <g style="fill: #475569" transform="translate(73.948933 287.704489) scale(0.08 -0.08)">
     <defs>
      <path id="DejaVuSans-4d" d="M 628 4666 
L 1569 4666 
L 2759 1491 
L 3956 4666 
L 4897 4666 
L 4897 0 
L 4281 0 
L 4281 4097 
L 3078 897 
L 2444 897 
L 1241 4097 
L 1241 0 
L 628 0 
L 628 4666 
z
" transform="scale(0.015625)"/>
     </defs>
     <use xlink:href="#DejaVuSans-4d"/>
     <use xlink:href="#DejaVuSans-61" x="86.279297"/>
     <use xlink:href="#DejaVuSans-74" x="147.558594"/>
     <use xlink:href="#DejaVuSans-72" x="186.767578"/>
     <use xlink:href="#DejaVuSans-69" x="227.880859"/>
     <use xlink:href="#DejaVuSans-78" x="255.664062"/>
     <use xlink:href="#DejaVuSans-20" x="314.84375"/>
     <use xlink:href="#DejaVuSans-63" x="346.630859"/>
     <use xlink:href="#DejaVuSans-6f" x="401.611328"/>
     <use xlink:href="#DejaVuSans-6e" x="462.792969"/>
     <use xlink:href="#DejaVuSans-74" x="526.171875"/>
     <use xlink:href="#DejaVuSans-72" x="565.380859"/>
     <use xlink:href="#DejaVuSans-6f" x="604.244141"/>
     <use xlink:href="#DejaVuSans-6c" x="665.425781"/>
    </g>
   </g>
   <g id="text_27">
    <!-- Classification and Retrieval Move Together -->
    <g style="fill: #111827" transform="translate(71.87045 16.318125) scale(0.12 -0.12)">
     <defs>
      <path id="DejaVuSans-43" d="M 4122 4306 
L 4122 3641 
Q 3803 3938 3442 4084 
Q 3081 4231 2675 4231 
Q 1875 4231 1450 3742 
Q 1025 3253 1025 2328 
Q 1025 1406 1450 917 
Q 1875 428 2675 428 
Q 3081 428 3442 575 
Q 3803 722 4122 1019 
L 4122 359 
Q 3791 134 3420 21 
Q 3050 -91 2638 -91 
Q 1578 -91 968 557 
Q 359 1206 359 2328 
Q 359 3453 968 4101 
Q 1578 4750 2638 4750 
Q 3056 4750 3426 4639 
Q 3797 4528 4122 4306 
z
" transform="scale(0.015625)"/>
      <path id="DejaVuSans-52" d="M 2841 2188 
Q 3044 2119 3236 1894 
Q 3428 1669 3622 1275 
L 4263 0 
L 3584 0 
L 2988 1197 
Q 2756 1666 2539 1819 
Q 2322 1972 1947 1972 
L 1259 1972 
L 1259 0 
L 628 0 
L 628 4666 
L 2053 4666 
Q 2853 4666 3247 4331 
Q 3641 3997 3641 3322 
Q 3641 2881 3436 2590 
Q 3231 2300 2841 2188 
z
M 1259 4147 
L 1259 2491 
L 2053 2491 
Q 2509 2491 2742 2702 
Q 2975 2913 2975 3322 
Q 2975 3731 2742 3939 
Q 2509 4147 2053 4147 
L 1259 4147 
z
" transform="scale(0.015625)"/>
      <path id="DejaVuSans-54" d="M -19 4666 
L 3928 4666 
L 3928 4134 
L 2272 4134 
L 2272 0 
L 1638 0 
L 1638 4134 
L -19 4134 
L -19 4666 
z
" transform="scale(0.015625)"/>
     </defs>
     <use xlink:href="#DejaVuSans-43"/>
     <use xlink:href="#DejaVuSans-6c" x="69.824219"/>
     <use xlink:href="#DejaVuSans-61" x="97.607422"/>
     <use xlink:href="#DejaVuSans-73" x="158.886719"/>
     <use xlink:href="#DejaVuSans-73" x="210.986328"/>
     <use xlink:href="#DejaVuSans-69" x="263.085938"/>
     <use xlink:href="#DejaVuSans-66" x="290.869141"/>
     <use xlink:href="#DejaVuSans-69" x="326.074219"/>
     <use xlink:href="#DejaVuSans-63" x="353.857422"/>
     <use xlink:href="#DejaVuSans-61" x="408.837891"/>
     <use xlink:href="#DejaVuSans-74" x="470.117188"/>
     <use xlink:href="#DejaVuSans-69" x="509.326172"/>
     <use xlink:href="#DejaVuSans-6f" x="537.109375"/>
     <use xlink:href="#DejaVuSans-6e" x="598.291016"/>
     <use xlink:href="#DejaVuSans-20" x="661.669922"/>
     <use xlink:href="#DejaVuSans-61" x="693.457031"/>
     <use xlink:href="#DejaVuSans-6e" x="754.736328"/>
     <use xlink:href="#DejaVuSans-64" x="818.115234"/>
     <use xlink:href="#DejaVuSans-20" x="881.591797"/>
     <use xlink:href="#DejaVuSans-52" x="913.378906"/>
     <use xlink:href="#DejaVuSans-65" x="978.361328"/>
     <use xlink:href="#DejaVuSans-74" x="1039.884766"/>
     <use xlink:href="#DejaVuSans-72" x="1079.09375"/>
     <use xlink:href="#DejaVuSans-69" x="1120.207031"/>
     <use xlink:href="#DejaVuSans-65" x="1147.990234"/>
     <use xlink:href="#DejaVuSans-76" x="1209.513672"/>
     <use xlink:href="#DejaVuSans-61" x="1268.693359"/>
     <use xlink:href="#DejaVuSans-6c" x="1329.972656"/>
     <use xlink:href="#DejaVuSans-20" x="1357.755859"/>
     <use xlink:href="#DejaVuSans-4d" x="1389.542969"/>
     <use xlink:href="#DejaVuSans-6f" x="1475.822266"/>
     <use xlink:href="#DejaVuSans-76" x="1537.003906"/>
     <use xlink:href="#DejaVuSans-65" x="1596.183594"/>
     <use xlink:href="#DejaVuSans-20" x="1657.707031"/>
     <use xlink:href="#DejaVuSans-54" x="1689.494141"/>
     <use xlink:href="#DejaVuSans-6f" x="1733.578125"/>
     <use xlink:href="#DejaVuSans-67" x="1794.759766"/>
     <use xlink:href="#DejaVuSans-65" x="1858.236328"/>
     <use xlink:href="#DejaVuSans-74" x="1919.759766"/>
     <use xlink:href="#DejaVuSans-68" x="1958.96875"/>
     <use xlink:href="#DejaVuSans-65" x="2022.347656"/>
     <use xlink:href="#DejaVuSans-72" x="2083.871094"/>
    </g>
   </g>
  </g>
 </g>
 <defs>
  <clipPath id="p17e8e4c7be">
   <rect x="50.143438" y="22.318125" width="298.454026" height="282.214286"/>
  </clipPath>
 </defs>
</svg>
