<?xml version="1.0" encoding="utf-8" standalone="no"?>
<!DOCTYPE svg PUBLIC "-//W3C//DTD SVG 1.1//EN"
  "http://www.w3.org/Graphics/SVG/1.1/DTD/svg11.dtd">
<svg xmlns:xlink="http://www.w3.org/1999/xlink" width="539.40596pt" height="338.215128pt" viewBox="0 0 539.40596 338.215128" xmlns="http://www.w3.org/2000/svg" version="1.1">
 <metadata>
  <rdf:RDF xmlns:dc="http://purl.org/dc/elements/1.1/" xmlns:cc="http://creativecommons.org/ns#" xmlns:rdf="http://www.w3.org/1999/02/22-rdf-syntax-ns#">
   <cc:Work>
    <dc:type rdf:resource="http://purl.org/dc/dcmitype/StillImage"/>
    <dc:date>2026-05-16T12:30:16.602699</dc:date>
    <dc:format>image/svg+xml</dc:format>
    <dc:creator>
     <cc:Agent>
      <dc:title>Matplotlib v3.8.2, https://matplotlib.org/</dc:title>
     </cc:Agent>
    </dc:creator>
   </cc:Work>
  </rdf:RDF>
 </metadata>
 <defs>
  <style type="text/css">*{stroke-linejoin: round; stroke-linecap: butt}</style>
 </defs>
 <g id="figure_1">
  <g id="patch_1">
   <path d="M 0 338.215128 
L 539.40596 338.215128 
L 539.40596 0 
L 0 0 
z
" style="fill: #fbfcfe"/>
  </g>
  <g id="axes_1">
   <g id="patch_2">
    <path d="M 118.234531 305.12669 
L 532.20596 305.12669 
L 532.20596 32.303947 
L 118.234531 32.303947 
z
" style="fill: #fbfcfe"/>
   </g>
   <g id="matplotlib.axis_1">
    <g id="xtick_1">
     <g id="line2d_1"/>
     <g id="text_1">
      <!-- 0.0 -->
      <g style="fill: #475569" transform="translate(184.227066 315.465284) scale(0.09 -0.09)">
       <defs>
        <path id="DejaVuSans-30" d="M 2034 4250 
Q 1547 4250 1301 3770 
Q 1056 3291 1056 2328 
Q 1056 1369 1301 889 
Q 1547 409 2034 409 
Q 2525 409 2770 889 
Q 3016 1369 3016 2328 
Q 3016 3291 2770 3770 
Q 2525 4250 2034 4250 
z
M 2034 4750 
Q 2819 4750 3233 4129 
Q 3647 3509 3647 2328 
Q 3647 1150 3233 529 
Q 2819 -91 2034 -91 
Q 1250 -91 836 529 
Q 422 1150 422 2328 
Q 422 3509 836 4129 
Q 1250 4750 2034 4750 
z
" transform="scale(0.015625)"/>
        <path id="DejaVuSans-2e" d="M 684 794 
L 1344 794 
L 1344 0 
L 684 0 
L 684 794 
z
" transform="scale(0.015625)"/>
       </defs>
       <use xlink:href="#DejaVuSans-30"/>
       <use xlink:href="#DejaVuSans-2e" x="63.623047"/>
       <use xlink:href="#DejaVuSans-30" x="95.410156"/>
      </g>
     </g>
    </g>
    <g id="xtick_2">
     <g id="line2d_2"/>
     <g id="text_2">
      <!-- 0.1 -->
      <g style="fill: #475569" transform="translate(260.159354 315.465284) scale(0.09 -0.09)">
       <defs>
        <path id="DejaVuSans-31" d="M 794 531 
L 1825 531 
L 1825 4091 
L 703 3866 
L 703 4441 
L 1819 4666 
L 2450 4666 
L 2450 531 
L 3481 531 
L 3481 0 
L 794 0 
L 794 531 
z
" transform="scale(0.015625)"/>
       </defs>
       <use xlink:href="#DejaVuSans-30"/>
       <use xlink:href="#DejaVuSans-2e" x="63.623047"/>
       <use xlink:href="#DejaVuSans-31" x="95.410156"/>
      </g>
     </g>
    </g>
    <g id="xtick_3">
     <g id="line2d_3"/>
     <g id="text_3">
      <!-- 0.2 -->
      <g style="fill: #475569" transform="translate(336.091642 315.465284) scale(0.09 -0.09)">
       <defs>
        <path id="DejaVuSans-32" d="M 1228 531 
L 3431 531 
L 3431 0 
L 469 0 
L 469 531 
Q 828 903 1448 1529 
Q 2069 2156 2228 2338 
Q 2531 2678 2651 2914 
Q 2772 3150 2772 3378 
Q 2772 3750 2511 3984 
Q 2250 4219 1831 4219 
Q 1534 4219 1204 4116 
Q 875 4013 500 3803 
L 500 4441 
Q 881 4594 1212 4672 
Q 1544 4750 1819 4750 
Q 2544 4750 2975 4387 
Q 3406 4025 3406 3419 
Q 3406 3131 3298 2873 
Q 3191 2616 2906 2266 
Q 2828 2175 2409 1742 
Q 1991 1309 1228 531 
z
" transform="scale(0.015625)"/>
       </defs>
       <use xlink:href="#DejaVuSans-30"/>
       <use xlink:href="#DejaVuSans-2e" x="63.623047"/>
       <use xlink:href="#DejaVuSans-32" x="95.410156"/>
      </g>
     </g>
    </g>
    <g id="xtick_4">
     <g id="line2d_4"/>
     <g id="text_4">
      <!-- 0.3 -->
      <g style="fill: #475569" transform="translate(412.023929 315.465284) scale(0.09 -0.09)">
       <defs>
        <path id="DejaVuSans-33" d="M 2597 2516 
Q 3050 2419 3304 2112 
Q 3559 1806 3559 1356 
Q 3559 666 3084 287 
Q 2609 -91 1734 -91 
Q 1441 -91 1130 -33 
Q 819 25 488 141 
L 488 750 
Q 750 597 1062 519 
Q 1375 441 1716 441 
Q 2309 441 2620 675 
Q 2931 909 2931 1356 
Q 2931 1769 2642 2001 
Q 2353 2234 1838 2234 
L 1294 2234 
L 1294 2753 
L 1863 2753 
Q 2328 2753 2575 2939 
Q 2822 3125 2822 3475 
Q 2822 3834 2567 4026 
Q 2313 4219 1838 4219 
Q 1578 4219 1281 4162 
Q 984 4106 628 3988 
L 628 4550 
Q 988 4650 1302 4700 
Q 1616 4750 1894 4750 
Q 2613 4750 3031 4423 
Q 3450 4097 3450 3541 
Q 3450 3153 3228 2886 
Q 3006 2619 2597 2516 
z
" transform="scale(0.015625)"/>
       </defs>
       <use xlink:href="#DejaVuSans-30"/>
       <use xlink:href="#DejaVuSans-2e" x="63.623047"/>
       <use xlink:href="#DejaVuSans-33" x="95.410156"/>
      </g>
     </g>
    </g>
    <g id="xtick_5">
     <g id="line2d_5"/>
     <g id="text_5">
      <!-- 0.4 -->
      <g style="fill: #475569" transform="translate(487.956217 315.465284) scale(0.09 -0.09)">
       <defs>
        <path id="DejaVuSans-34" d="M 2419 4116 
L 825 1625 
L 2419 1625 
L 2419 4116 
z
M 2253 4666 
L 3047 4666 
L 3047 1625 
L 3713 1625 
L 3713 1100 
L 3047 1100 
L 3047 0 
L 2419 0 
L 2419 1100 
L 313 1100 
L 313 1709 
L 2253 4666 
z
" transform="scale(0.015625)"/>
       </defs>
       <use xlink:href="#DejaVuSans-30"/>
       <use xlink:href="#DejaVuSans-2e" x="63.623047"/>
       <use xlink:href="#DejaVuSans-34" x="95.410156"/>
      </g>
     </g>
    </g>
    <g id="text_6">
     <!-- model cosine margin: sim(anchor,pos) - sim(anchor,neg) -->
     <g style="fill: #475569" transform="translate(183.036652 328.93544) scale(0.1 -0.1)">
      <defs>
       <path id="DejaVuSans-6d" d="M 3328 2828 
Q 3544 3216 3844 3400 
Q 4144 3584 4550 3584 
Q 5097 3584 5394 3201 
Q 5691 2819 5691 2113 
L 5691 0 
L 5113 0 
L 5113 2094 
Q 5113 2597 4934 2840 
Q 4756 3084 4391 3084 
Q 3944 3084 3684 2787 
Q 3425 2491 3425 1978 
L 3425 0 
L 2847 0 
L 2847 2094 
Q 2847 2600 2669 2842 
Q 2491 3084 2119 3084 
Q 1678 3084 1418 2786 
Q 1159 2488 1159 1978 
L 1159 0 
L 581 0 
L 581 3500 
L 1159 3500 
L 1159 2956 
Q 1356 3278 1631 3431 
Q 1906 3584 2284 3584 
Q 2666 3584 2933 3390 
Q 3200 3197 3328 2828 
z
" transform="scale(0.015625)"/>
       <path id="DejaVuSans-6f" d="M 1959 3097 
Q 1497 3097 1228 2736 
Q 959 2375 959 1747 
Q 959 1119 1226 758 
Q 1494 397 1959 397 
Q 2419 397 2687 759 
Q 2956 1122 2956 1747 
Q 2956 2369 2687 2733 
Q 2419 3097 1959 3097 
z
M 1959 3584 
Q 2709 3584 3137 3096 
Q 3566 2609 3566 1747 
Q 3566 888 3137 398 
Q 2709 -91 1959 -91 
Q 1206 -91 779 398 
Q 353 888 353 1747 
Q 353 2609 779 3096 
Q 1206 3584 1959 3584 
z
" transform="scale(0.015625)"/>
       <path id="DejaVuSans-64" d="M 2906 2969 
L 2906 4863 
L 3481 4863 
L 3481 0 
L 2906 0 
L 2906 525 
Q 2725 213 2448 61 
Q 2172 -91 1784 -91 
Q 1150 -91 751 415 
Q 353 922 353 1747 
Q 353 2572 751 3078 
Q 1150 3584 1784 3584 
Q 2172 3584 2448 3432 
Q 2725 3281 2906 2969 
z
M 947 1747 
Q 947 1113 1208 752 
Q 1469 391 1925 391 
Q 2381 391 2643 752 
Q 2906 1113 2906 1747 
Q 2906 2381 2643 2742 
Q 2381 3103 1925 3103 
Q 1469 3103 1208 2742 
Q 947 2381 947 1747 
z
" transform="scale(0.015625)"/>
       <path id="DejaVuSans-65" d="M 3597 1894 
L 3597 1613 
L 953 1613 
Q 991 1019 1311 708 
Q 1631 397 2203 397 
Q 2534 397 2845 478 
Q 3156 559 3463 722 
L 3463 178 
Q 3153 47 2828 -22 
Q 2503 -91 2169 -91 
Q 1331 -91 842 396 
Q 353 884 353 1716 
Q 353 2575 817 3079 
Q 1281 3584 2069 3584 
Q 2775 3584 3186 3129 
Q 3597 2675 3597 1894 
z
M 3022 2063 
Q 3016 2534 2758 2815 
Q 2500 3097 2075 3097 
Q 1594 3097 1305 2825 
Q 1016 2553 972 2059 
L 3022 2063 
z
" transform="scale(0.015625)"/>
       <path id="DejaVuSans-6c" d="M 603 4863 
L 1178 4863 
L 1178 0 
L 603 0 
L 603 4863 
z
" transform="scale(0.015625)"/>
       <path id="DejaVuSans-20" transform="scale(0.015625)"/>
       <path id="DejaVuSans-63" d="M 3122 3366 
L 3122 2828 
Q 2878 2963 2633 3030 
Q 2388 3097 2138 3097 
Q 1578 3097 1268 2742 
Q 959 2388 959 1747 
Q 959 1106 1268 751 
Q 1578 397 2138 397 
Q 2388 397 2633 464 
Q 2878 531 3122 666 
L 3122 134 
Q 2881 22 2623 -34 
Q 2366 -91 2075 -91 
Q 1284 -91 818 406 
Q 353 903 353 1747 
Q 353 2603 823 3093 
Q 1294 3584 2113 3584 
Q 2378 3584 2631 3529 
Q 2884 3475 3122 3366 
z
" transform="scale(0.015625)"/>
       <path id="DejaVuSans-73" d="M 2834 3397 
L 2834 2853 
Q 2591 2978 2328 3040 
Q 2066 3103 1784 3103 
Q 1356 3103 1142 2972 
Q 928 2841 928 2578 
Q 928 2378 1081 2264 
Q 1234 2150 1697 2047 
L 1894 2003 
Q 2506 1872 2764 1633 
Q 3022 1394 3022 966 
Q 3022 478 2636 193 
Q 2250 -91 1575 -91 
Q 1294 -91 989 -36 
Q 684 19 347 128 
L 347 722 
Q 666 556 975 473 
Q 1284 391 1588 391 
Q 1994 391 2212 530 
Q 2431 669 2431 922 
Q 2431 1156 2273 1281 
Q 2116 1406 1581 1522 
L 1381 1569 
Q 847 1681 609 1914 
Q 372 2147 372 2553 
Q 372 3047 722 3315 
Q 1072 3584 1716 3584 
Q 2034 3584 2315 3537 
Q 2597 3491 2834 3397 
z
" transform="scale(0.015625)"/>
       <path id="DejaVuSans-69" d="M 603 3500 
L 1178 3500 
L 1178 0 
L 603 0 
L 603 3500 
z
M 603 4863 
L 1178 4863 
L 1178 4134 
L 603 4134 
L 603 4863 
z
" transform="scale(0.015625)"/>
       <path id="DejaVuSans-6e" d="M 3513 2113 
L 3513 0 
L 2938 0 
L 2938 2094 
Q 2938 2591 2744 2837 
Q 2550 3084 2163 3084 
Q 1697 3084 1428 2787 
Q 1159 2491 1159 1978 
L 1159 0 
L 581 0 
L 581 3500 
L 1159 3500 
L 1159 2956 
Q 1366 3272 1645 3428 
Q 1925 3584 2291 3584 
Q 2894 3584 3203 3211 
Q 3513 2838 3513 2113 
z
" transform="scale(0.015625)"/>
       <path id="DejaVuSans-61" d="M 2194 1759 
Q 1497 1759 1228 1600 
Q 959 1441 959 1056 
Q 959 750 1161 570 
Q 1363 391 1709 391 
Q 2188 391 2477 730 
Q 2766 1069 2766 1631 
L 2766 1759 
L 2194 1759 
z
M 3341 1997 
L 3341 0 
L 2766 0 
L 2766 531 
Q 2569 213 2275 61 
Q 1981 -91 1556 -91 
Q 1019 -91 701 211 
Q 384 513 384 1019 
Q 384 1609 779 1909 
Q 1175 2209 1959 2209 
L 2766 2209 
L 2766 2266 
Q 2766 2663 2505 2880 
Q 2244 3097 1772 3097 
Q 1472 3097 1187 3025 
Q 903 2953 641 2809 
L 641 3341 
Q 956 3463 1253 3523 
Q 1550 3584 1831 3584 
Q 2591 3584 2966 3190 
Q 3341 2797 3341 1997 
z
" transform="scale(0.015625)"/>
       <path id="DejaVuSans-72" d="M 2631 2963 
Q 2534 3019 2420 3045 
Q 2306 3072 2169 3072 
Q 1681 3072 1420 2755 
Q 1159 2438 1159 1844 
L 1159 0 
L 581 0 
L 581 3500 
L 1159 3500 
L 1159 2956 
Q 1341 3275 1631 3429 
Q 1922 3584 2338 3584 
Q 2397 3584 2469 3576 
Q 2541 3569 2628 3553 
L 2631 2963 
z
" transform="scale(0.015625)"/>
       <path id="DejaVuSans-67" d="M 2906 1791 
Q 2906 2416 2648 2759 
Q 2391 3103 1925 3103 
Q 1463 3103 1205 2759 
Q 947 2416 947 1791 
Q 947 1169 1205 825 
Q 1463 481 1925 481 
Q 2391 481 2648 825 
Q 2906 1169 2906 1791 
z
M 3481 434 
Q 3481 -459 3084 -895 
Q 2688 -1331 1869 -1331 
Q 1566 -1331 1297 -1286 
Q 1028 -1241 775 -1147 
L 775 -588 
Q 1028 -725 1275 -790 
Q 1522 -856 1778 -856 
Q 2344 -856 2625 -561 
Q 2906 -266 2906 331 
L 2906 616 
Q 2728 306 2450 153 
Q 2172 0 1784 0 
Q 1141 0 747 490 
Q 353 981 353 1791 
Q 353 2603 747 3093 
Q 1141 3584 1784 3584 
Q 2172 3584 2450 3431 
Q 2728 3278 2906 2969 
L 2906 3500 
L 3481 3500 
L 3481 434 
z
" transform="scale(0.015625)"/>
       <path id="DejaVuSans-3a" d="M 750 794 
L 1409 794 
L 1409 0 
L 750 0 
L 750 794 
z
M 750 3309 
L 1409 3309 
L 1409 2516 
L 750 2516 
L 750 3309 
z
" transform="scale(0.015625)"/>
       <path id="DejaVuSans-28" d="M 1984 4856 
Q 1566 4138 1362 3434 
Q 1159 2731 1159 2009 
Q 1159 1288 1364 580 
Q 1569 -128 1984 -844 
L 1484 -844 
Q 1016 -109 783 600 
Q 550 1309 550 2009 
Q 550 2706 781 3412 
Q 1013 4119 1484 4856 
L 1984 4856 
z
" transform="scale(0.015625)"/>
       <path id="DejaVuSans-68" d="M 3513 2113 
L 3513 0 
L 2938 0 
L 2938 2094 
Q 2938 2591 2744 2837 
Q 2550 3084 2163 3084 
Q 1697 3084 1428 2787 
Q 1159 2491 1159 1978 
L 1159 0 
L 581 0 
L 581 4863 
L 1159 4863 
L 1159 2956 
Q 1366 3272 1645 3428 
Q 1925 3584 2291 3584 
Q 2894 3584 3203 3211 
Q 3513 2838 3513 2113 
z
" transform="scale(0.015625)"/>
       <path id="DejaVuSans-2c" d="M 750 794 
L 1409 794 
L 1409 256 
L 897 -744 
L 494 -744 
L 750 256 
L 750 794 
z
" transform="scale(0.015625)"/>
       <path id="DejaVuSans-70" d="M 1159 525 
L 1159 -1331 
L 581 -1331 
L 581 3500 
L 1159 3500 
L 1159 2969 
Q 1341 3281 1617 3432 
Q 1894 3584 2278 3584 
Q 2916 3584 3314 3078 
Q 3713 2572 3713 1747 
Q 3713 922 3314 415 
Q 2916 -91 2278 -91 
Q 1894 -91 1617 61 
Q 1341 213 1159 525 
z
M 3116 1747 
Q 3116 2381 2855 2742 
Q 2594 3103 2138 3103 
Q 1681 3103 1420 2742 
Q 1159 2381 1159 1747 
Q 1159 1113 1420 752 
Q 1681 391 2138 391 
Q 2594 391 2855 752 
Q 3116 1113 3116 1747 
z
" transform="scale(0.015625)"/>
       <path id="DejaVuSans-29" d="M 513 4856 
L 1013 4856 
Q 1481 4119 1714 3412 
Q 1947 2706 1947 2009 
Q 1947 1309 1714 600 
Q 1481 -109 1013 -844 
L 513 -844 
Q 928 -128 1133 580 
Q 1338 1288 1338 2009 
Q 1338 2731 1133 3434 
Q 928 4138 513 4856 
z
" transform="scale(0.015625)"/>
       <path id="DejaVuSans-2d" d="M 313 2009 
L 1997 2009 
L 1997 1497 
L 313 1497 
L 313 2009 
z
" transform="scale(0.015625)"/>
      </defs>
      <use xlink:href="#DejaVuSans-6d"/>
      <use xlink:href="#DejaVuSans-6f" x="97.412109"/>
      <use xlink:href="#DejaVuSans-64" x="158.59375"/>
      <use xlink:href="#DejaVuSans-65" x="222.070312"/>
      <use xlink:href="#DejaVuSans-6c" x="283.59375"/>
      <use xlink:href="#DejaVuSans-20" x="311.376953"/>
      <use xlink:href="#DejaVuSans-63" x="343.164062"/>
      <use xlink:href="#DejaVuSans-6f" x="398.144531"/>
      <use xlink:href="#DejaVuSans-73" x="459.326172"/>
      <use xlink:href="#DejaVuSans-69" x="511.425781"/>
      <use xlink:href="#DejaVuSans-6e" x="539.208984"/>
      <use xlink:href="#DejaVuSans-65" x="602.587891"/>
      <use xlink:href="#DejaVuSans-20" x="664.111328"/>
      <use xlink:href="#DejaVuSans-6d" x="695.898438"/>
      <use xlink:href="#DejaVuSans-61" x="793.310547"/>
      <use xlink:href="#DejaVuSans-72" x="854.589844"/>
      <use xlink:href="#DejaVuSans-67" x="893.953125"/>
      <use xlink:href="#DejaVuSans-69" x="957.429688"/>
      <use xlink:href="#DejaVuSans-6e" x="985.212891"/>
      <use xlink:href="#DejaVuSans-3a" x="1048.591797"/>
      <use xlink:href="#DejaVuSans-20" x="1082.283203"/>
      <use xlink:href="#DejaVuSans-73" x="1114.070312"/>
      <use xlink:href="#DejaVuSans-69" x="1166.169922"/>
      <use xlink:href="#DejaVuSans-6d" x="1193.953125"/>
      <use xlink:href="#DejaVuSans-28" x="1291.365234"/>
      <use xlink:href="#DejaVuSans-61" x="1330.378906"/>
      <use xlink:href="#DejaVuSans-6e" x="1391.658203"/>
      <use xlink:href="#DejaVuSans-63" x="1455.037109"/>
      <use xlink:href="#DejaVuSans-68" x="1510.017578"/>
      <use xlink:href="#DejaVuSans-6f" x="1573.396484"/>
      <use xlink:href="#DejaVuSans-72" x="1634.578125"/>
      <use xlink:href="#DejaVuSans-2c" x="1675.691406"/>
      <use xlink:href="#DejaVuSans-70" x="1707.478516"/>
      <use xlink:href="#DejaVuSans-6f" x="1770.955078"/>
      <use xlink:href="#DejaVuSans-73" x="1832.136719"/>
      <use xlink:href="#DejaVuSans-29" x="1884.236328"/>
      <use xlink:href="#DejaVuSans-20" x="1923.25"/>
      <use xlink:href="#DejaVuSans-2d" x="1955.037109"/>
      <use xlink:href="#DejaVuSans-20" x="1991.121094"/>
      <use xlink:href="#DejaVuSans-73" x="2022.908203"/>
      <use xlink:href="#DejaVuSans-69" x="2075.007812"/>
      <use xlink:href="#DejaVuSans-6d" x="2102.791016"/>
      <use xlink:href="#DejaVuSans-28" x="2200.203125"/>
      <use xlink:href="#DejaVuSans-61" x="2239.216797"/>
      <use xlink:href="#DejaVuSans-6e" x="2300.496094"/>
      <use xlink:href="#DejaVuSans-63" x="2363.875"/>
      <use xlink:href="#DejaVuSans-68" x="2418.855469"/>
      <use xlink:href="#DejaVuSans-6f" x="2482.234375"/>
      <use xlink:href="#DejaVuSans-72" x="2543.416016"/>
      <use xlink:href="#DejaVuSans-2c" x="2584.529297"/>
      <use xlink:href="#DejaVuSans-6e" x="2616.316406"/>
      <use xlink:href="#DejaVuSans-65" x="2679.695312"/>
      <use xlink:href="#DejaVuSans-67" x="2741.21875"/>
      <use xlink:href="#DejaVuSans-29" x="2804.695312"/>
     </g>
    </g>
   </g>
   <g id="matplotlib.axis_2">
    <g id="ytick_1">
     <g id="line2d_6">
      <path d="M 118.234531 44.704981 
L 532.20596 44.704981 
" clip-path="url(#pbfd9e49fd7)" style="fill: none; stroke: #cbd5e1; stroke-opacity: 0.35; stroke-width: 0.8; stroke-linecap: square"/>
     </g>
     <g id="line2d_7"/>
     <g id="text_7">
      <!-- Image-only classifier -->
      <g style="fill: #475569" transform="translate(21.484688 48.124278) scale(0.09 -0.09)">
       <defs>
        <path id="DejaVuSans-49" d="M 628 4666 
L 1259 4666 
L 1259 0 
L 628 0 
L 628 4666 
z
" transform="scale(0.015625)"/>
        <path id="DejaVuSans-79" d="M 2059 -325 
Q 1816 -950 1584 -1140 
Q 1353 -1331 966 -1331 
L 506 -1331 
L 506 -850 
L 844 -850 
Q 1081 -850 1212 -737 
Q 1344 -625 1503 -206 
L 1606 56 
L 191 3500 
L 800 3500 
L 1894 763 
L 2988 3500 
L 3597 3500 
L 2059 -325 
z
" transform="scale(0.015625)"/>
        <path id="DejaVuSans-66" d="M 2375 4863 
L 2375 4384 
L 1825 4384 
Q 1516 4384 1395 4259 
Q 1275 4134 1275 3809 
L 1275 3500 
L 2222 3500 
L 2222 3053 
L 1275 3053 
L 1275 0 
L 697 0 
L 697 3053 
L 147 3053 
L 147 3500 
L 697 3500 
L 697 3744 
Q 697 4328 969 4595 
Q 1241 4863 1831 4863 
L 2375 4863 
z
" transform="scale(0.015625)"/>
       </defs>
       <use xlink:href="#DejaVuSans-49"/>
       <use xlink:href="#DejaVuSans-6d" x="29.492188"/>
       <use xlink:href="#DejaVuSans-61" x="126.904297"/>
       <use xlink:href="#DejaVuSans-67" x="188.183594"/>
       <use xlink:href="#DejaVuSans-65" x="251.660156"/>
       <use xlink:href="#DejaVuSans-2d" x="313.183594"/>
       <use xlink:href="#DejaVuSans-6f" x="351.142578"/>
       <use xlink:href="#DejaVuSans-6e" x="412.324219"/>
       <use xlink:href="#DejaVuSans-6c" x="475.703125"/>
       <use xlink:href="#DejaVuSans-79" x="503.486328"/>
       <use xlink:href="#DejaVuSans-20" x="562.666016"/>
       <use xlink:href="#DejaVuSans-63" x="594.453125"/>
       <use xlink:href="#DejaVuSans-6c" x="649.433594"/>
       <use xlink:href="#DejaVuSans-61" x="677.216797"/>
       <use xlink:href="#DejaVuSans-73" x="738.496094"/>
       <use xlink:href="#DejaVuSans-73" x="790.595703"/>
       <use xlink:href="#DejaVuSans-69" x="842.695312"/>
       <use xlink:href="#DejaVuSans-66" x="870.478516"/>
       <use xlink:href="#DejaVuSans-69" x="905.683594"/>
       <use xlink:href="#DejaVuSans-65" x="933.466797"/>
       <use xlink:href="#DejaVuSans-72" x="994.990234"/>
      </g>
     </g>
    </g>
    <g id="ytick_2">
     <g id="line2d_8">
      <path d="M 118.234531 106.71015 
L 532.20596 106.71015 
" clip-path="url(#pbfd9e49fd7)" style="fill: none; stroke: #cbd5e1; stroke-opacity: 0.35; stroke-width: 0.8; stroke-linecap: square"/>
     </g>
     <g id="line2d_9"/>
     <g id="text_8">
      <!-- Fixed-prototype triplets -->
      <g style="fill: #475569" transform="translate(9.749531 110.129447) scale(0.09 -0.09)">
       <defs>
        <path id="DejaVuSans-46" d="M 628 4666 
L 3309 4666 
L 3309 4134 
L 1259 4134 
L 1259 2759 
L 3109 2759 
L 3109 2228 
L 1259 2228 
L 1259 0 
L 628 0 
L 628 4666 
z
" transform="scale(0.015625)"/>
        <path id="DejaVuSans-78" d="M 3513 3500 
L 2247 1797 
L 3578 0 
L 2900 0 
L 1881 1375 
L 863 0 
L 184 0 
L 1544 1831 
L 300 3500 
L 978 3500 
L 1906 2253 
L 2834 3500 
L 3513 3500 
z
" transform="scale(0.015625)"/>
        <path id="DejaVuSans-74" d="M 1172 4494 
L 1172 3500 
L 2356 3500 
L 2356 3053 
L 1172 3053 
L 1172 1153 
Q 1172 725 1289 603 
Q 1406 481 1766 481 
L 2356 481 
L 2356 0 
L 1766 0 
Q 1100 0 847 248 
Q 594 497 594 1153 
L 594 3053 
L 172 3053 
L 172 3500 
L 594 3500 
L 594 4494 
L 1172 4494 
z
" transform="scale(0.015625)"/>
       </defs>
       <use xlink:href="#DejaVuSans-46"/>
       <use xlink:href="#DejaVuSans-69" x="50.269531"/>
       <use xlink:href="#DejaVuSans-78" x="78.052734"/>
       <use xlink:href="#DejaVuSans-65" x="134.107422"/>
       <use xlink:href="#DejaVuSans-64" x="195.630859"/>
       <use xlink:href="#DejaVuSans-2d" x="259.107422"/>
       <use xlink:href="#DejaVuSans-70" x="295.191406"/>
       <use xlink:href="#DejaVuSans-72" x="358.667969"/>
       <use xlink:href="#DejaVuSans-6f" x="397.53125"/>
       <use xlink:href="#DejaVuSans-74" x="458.712891"/>
       <use xlink:href="#DejaVuSans-6f" x="497.921875"/>
       <use xlink:href="#DejaVuSans-74" x="559.103516"/>
       <use xlink:href="#DejaVuSans-79" x="598.3125"/>
       <use xlink:href="#DejaVuSans-70" x="657.492188"/>
       <use xlink:href="#DejaVuSans-65" x="720.96875"/>
       <use xlink:href="#DejaVuSans-20" x="782.492188"/>
       <use xlink:href="#DejaVuSans-74" x="814.279297"/>
       <use xlink:href="#DejaVuSans-72" x="853.488281"/>
       <use xlink:href="#DejaVuSans-69" x="894.601562"/>
       <use xlink:href="#DejaVuSans-70" x="922.384766"/>
       <use xlink:href="#DejaVuSans-6c" x="985.861328"/>
       <use xlink:href="#DejaVuSans-65" x="1013.644531"/>
       <use xlink:href="#DejaVuSans-74" x="1075.167969"/>
       <use xlink:href="#DejaVuSans-73" x="1114.376953"/>
      </g>
     </g>
    </g>
    <g id="ytick_3">
     <g id="line2d_10">
      <path d="M 118.234531 168.715319 
L 532.20596 168.715319 
" clip-path="url(#pbfd9e49fd7)" style="fill: none; stroke: #cbd5e1; stroke-opacity: 0.35; stroke-width: 0.8; stroke-linecap: square"/>
     </g>
     <g id="line2d_11"/>
     <g id="text_9">
      <!-- Fixed-prototype control -->
      <g style="fill: #475569" transform="translate(10.254375 172.134616) scale(0.09 -0.09)">
       <use xlink:href="#DejaVuSans-46"/>
       <use xlink:href="#DejaVuSans-69" x="50.269531"/>
       <use xlink:href="#DejaVuSans-78" x="78.052734"/>
       <use xlink:href="#DejaVuSans-65" x="134.107422"/>
       <use xlink:href="#DejaVuSans-64" x="195.630859"/>
       <use xlink:href="#DejaVuSans-2d" x="259.107422"/>
       <use xlink:href="#DejaVuSans-70" x="295.191406"/>
       <use xlink:href="#DejaVuSans-72" x="358.667969"/>
       <use xlink:href="#DejaVuSans-6f" x="397.53125"/>
       <use xlink:href="#DejaVuSans-74" x="458.712891"/>
       <use xlink:href="#DejaVuSans-6f" x="497.921875"/>
       <use xlink:href="#DejaVuSans-74" x="559.103516"/>
       <use xlink:href="#DejaVuSans-79" x="598.3125"/>
       <use xlink:href="#DejaVuSans-70" x="657.492188"/>
       <use xlink:href="#DejaVuSans-65" x="720.96875"/>
       <use xlink:href="#DejaVuSans-20" x="782.492188"/>
       <use xlink:href="#DejaVuSans-63" x="814.279297"/>
       <use xlink:href="#DejaVuSans-6f" x="869.259766"/>
       <use xlink:href="#DejaVuSans-6e" x="930.441406"/>
       <use xlink:href="#DejaVuSans-74" x="993.820312"/>
       <use xlink:href="#DejaVuSans-72" x="1033.029297"/>
       <use xlink:href="#DejaVuSans-6f" x="1071.892578"/>
       <use xlink:href="#DejaVuSans-6c" x="1133.074219"/>
      </g>
     </g>
    </g>
    <g id="ytick_4">
     <g id="line2d_12">
      <path d="M 118.234531 230.720488 
L 532.20596 230.720488 
" clip-path="url(#pbfd9e49fd7)" style="fill: none; stroke: #cbd5e1; stroke-opacity: 0.35; stroke-width: 0.8; stroke-linecap: square"/>
     </g>
     <g id="line2d_13"/>
     <g id="text_10">
      <!-- Batch-prototype triplets -->
      <g style="fill: #475569" transform="translate(7.2 234.139784) scale(0.09 -0.09)">
       <defs>
        <path id="DejaVuSans-42" d="M 1259 2228 
L 1259 519 
L 2272 519 
Q 2781 519 3026 730 
Q 3272 941 3272 1375 
Q 3272 1813 3026 2020 
Q 2781 2228 2272 2228 
L 1259 2228 
z
M 1259 4147 
L 1259 2741 
L 2194 2741 
Q 2656 2741 2882 2914 
Q 3109 3088 3109 3444 
Q 3109 3797 2882 3972 
Q 2656 4147 2194 4147 
L 1259 4147 
z
M 628 4666 
L 2241 4666 
Q 2963 4666 3353 4366 
Q 3744 4066 3744 3513 
Q 3744 3084 3544 2831 
Q 3344 2578 2956 2516 
Q 3422 2416 3680 2098 
Q 3938 1781 3938 1306 
Q 3938 681 3513 340 
Q 3088 0 2303 0 
L 628 0 
L 628 4666 
z
" transform="scale(0.015625)"/>
       </defs>
       <use xlink:href="#DejaVuSans-42"/>
       <use xlink:href="#DejaVuSans-61" x="68.603516"/>
       <use xlink:href="#DejaVuSans-74" x="129.882812"/>
       <use xlink:href="#DejaVuSans-63" x="169.091797"/>
       <use xlink:href="#DejaVuSans-68" x="224.072266"/>
       <use xlink:href="#DejaVuSans-2d" x="287.451172"/>
       <use xlink:href="#DejaVuSans-70" x="323.535156"/>
       <use xlink:href="#DejaVuSans-72" x="387.011719"/>
       <use xlink:href="#DejaVuSans-6f" x="425.875"/>
       <use xlink:href="#DejaVuSans-74" x="487.056641"/>
       <use xlink:href="#DejaVuSans-6f" x="526.265625"/>
       <use xlink:href="#DejaVuSans-74" x="587.447266"/>
       <use xlink:href="#DejaVuSans-79" x="626.65625"/>
       <use xlink:href="#DejaVuSans-70" x="685.835938"/>
       <use xlink:href="#DejaVuSans-65" x="749.3125"/>
       <use xlink:href="#DejaVuSans-20" x="810.835938"/>
       <use xlink:href="#DejaVuSans-74" x="842.623047"/>
       <use xlink:href="#DejaVuSans-72" x="881.832031"/>
       <use xlink:href="#DejaVuSans-69" x="922.945312"/>
       <use xlink:href="#DejaVuSans-70" x="950.728516"/>
       <use xlink:href="#DejaVuSans-6c" x="1014.205078"/>
       <use xlink:href="#DejaVuSans-65" x="1041.988281"/>
       <use xlink:href="#DejaVuSans-74" x="1103.511719"/>
       <use xlink:href="#DejaVuSans-73" x="1142.720703"/>
      </g>
     </g>
    </g>
    <g id="ytick_5">
     <g id="line2d_14">
      <path d="M 118.234531 292.725656 
L 532.20596 292.725656 
" clip-path="url(#pbfd9e49fd7)" style="fill: none; stroke: #cbd5e1; stroke-opacity: 0.35; stroke-width: 0.8; stroke-linecap: square"/>
     </g>
     <g id="line2d_15"/>
     <g id="text_11">
      <!-- High-pressure triplets -->
      <g style="fill: #475569" transform="translate(17.379844 296.144953) scale(0.09 -0.09)">
       <defs>
        <path id="DejaVuSans-48" d="M 628 4666 
L 1259 4666 
L 1259 2753 
L 3553 2753 
L 3553 4666 
L 4184 4666 
L 4184 0 
L 3553 0 
L 3553 2222 
L 1259 2222 
L 1259 0 
L 628 0 
L 628 4666 
z
" transform="scale(0.015625)"/>
        <path id="DejaVuSans-75" d="M 544 1381 
L 544 3500 
L 1119 3500 
L 1119 1403 
Q 1119 906 1312 657 
Q 1506 409 1894 409 
Q 2359 409 2629 706 
Q 2900 1003 2900 1516 
L 2900 3500 
L 3475 3500 
L 3475 0 
L 2900 0 
L 2900 538 
Q 2691 219 2414 64 
Q 2138 -91 1772 -91 
Q 1169 -91 856 284 
Q 544 659 544 1381 
z
M 1991 3584 
L 1991 3584 
z
" transform="scale(0.015625)"/>
       </defs>
       <use xlink:href="#DejaVuSans-48"/>
       <use xlink:href="#DejaVuSans-69" x="75.195312"/>
       <use xlink:href="#DejaVuSans-67" x="102.978516"/>
       <use xlink:href="#DejaVuSans-68" x="166.455078"/>
       <use xlink:href="#DejaVuSans-2d" x="229.833984"/>
       <use xlink:href="#DejaVuSans-70" x="265.917969"/>
       <use xlink:href="#DejaVuSans-72" x="329.394531"/>
       <use xlink:href="#DejaVuSans-65" x="368.257812"/>
       <use xlink:href="#DejaVuSans-73" x="429.78125"/>
       <use xlink:href="#DejaVuSans-73" x="481.880859"/>
       <use xlink:href="#DejaVuSans-75" x="533.980469"/>
       <use xlink:href="#DejaVuSans-72" x="597.359375"/>
       <use xlink:href="#DejaVuSans-65" x="636.222656"/>
       <use xlink:href="#DejaVuSans-20" x="697.746094"/>
       <use xlink:href="#DejaVuSans-74" x="729.533203"/>
       <use xlink:href="#DejaVuSans-72" x="768.742188"/>
       <use xlink:href="#DejaVuSans-69" x="809.855469"/>
       <use xlink:href="#DejaVuSans-70" x="837.638672"/>
       <use xlink:href="#DejaVuSans-6c" x="901.115234"/>
       <use xlink:href="#DejaVuSans-65" x="928.898438"/>
       <use xlink:href="#DejaVuSans-74" x="990.421875"/>
       <use xlink:href="#DejaVuSans-73" x="1029.630859"/>
      </g>
     </g>
    </g>
   </g>
   <g id="line2d_16">
    <path d="M 143.269052 44.704981 
L 507.107565 44.704981 
" clip-path="url(#pbfd9e49fd7)" style="fill: none; stroke: #4b5563; stroke-opacity: 0.28; stroke-width: 5; stroke-linecap: round"/>
   </g>
   <g id="line2d_17">
    <path d="M 137.338211 106.71015 
L 489.178363 106.71015 
" clip-path="url(#pbfd9e49fd7)" style="fill: none; stroke: #2563eb; stroke-opacity: 0.28; stroke-width: 5; stroke-linecap: round"/>
   </g>
   <g id="line2d_18">
    <path d="M 137.051414 168.715319 
L 488.492255 168.715319 
" clip-path="url(#pbfd9e49fd7)" style="fill: none; stroke: #b8c0cc; stroke-opacity: 0.18; stroke-width: 4; stroke-linecap: round"/>
   </g>
   <g id="line2d_19">
    <path d="M 138.70213 230.720488 
L 498.089525 230.720488 
" clip-path="url(#pbfd9e49fd7)" style="fill: none; stroke: #059669; stroke-opacity: 0.28; stroke-width: 5; stroke-linecap: round"/>
   </g>
   <g id="line2d_20">
    <path d="M 146.291189 292.725656 
L 513.389077 292.725656 
" clip-path="url(#pbfd9e49fd7)" style="fill: none; stroke: #dc2626; stroke-opacity: 0.28; stroke-width: 5; stroke-linecap: round"/>
   </g>
   <g id="line2d_21">
    <path d="M 191.383472 305.12669 
L 191.383472 32.303947 
" clip-path="url(#pbfd9e49fd7)" style="fill: none; stroke: #111827; stroke-opacity: 0.7; stroke-linecap: square"/>
   </g>
   <g id="line2d_22">
    <path d="M 343.248048 305.12669 
L 343.248048 32.303947 
" clip-path="url(#pbfd9e49fd7)" style="fill: none; stroke-dasharray: 3.7,1.6; stroke-dashoffset: 0; stroke: #111827; stroke-opacity: 0.45"/>
   </g>
   <g id="PathCollection_1">
    <defs>
     <path id="mbc60f0b9cf" d="M 0 4.609772 
C 1.222526 4.609772 2.395145 4.124058 3.259601 3.259601 
C 4.124058 2.395145 4.609772 1.222526 4.609772 0 
C 4.609772 -1.222526 4.124058 -2.395145 3.259601 -3.259601 
C 2.395145 -4.124058 1.222526 -4.609772 0 -4.609772 
C -1.222526 -4.609772 -2.395145 -4.124058 -3.259601 -3.259601 
C -4.124058 -2.395145 -4.609772 -1.222526 -4.609772 0 
C -4.609772 1.222526 -4.124058 2.395145 -3.259601 3.259601 
C -2.395145 4.124058 -1.222526 4.609772 0 4.609772 
z
" style="stroke: #4b5563; stroke-opacity: 0.96"/>
    </defs>
    <g clip-path="url(#pbfd9e49fd7)">
     <use xlink:href="#mbc60f0b9cf" x="280.178264" y="44.704981" style="fill: #4b5563; fill-opacity: 0.96; stroke: #4b5563; stroke-opacity: 0.96"/>
    </g>
   </g>
   <g id="PathCollection_2">
    <defs>
     <path id="m2de09b3854" d="M 0 4.609772 
C 1.222526 4.609772 2.395145 4.124058 3.259601 3.259601 
C 4.124058 2.395145 4.609772 1.222526 4.609772 0 
C 4.609772 -1.222526 4.124058 -2.395145 3.259601 -3.259601 
C 2.395145 -4.124058 1.222526 -4.609772 0 -4.609772 
C -1.222526 -4.609772 -2.395145 -4.124058 -3.259601 -3.259601 
C -4.124058 -2.395145 -4.609772 -1.222526 -4.609772 0 
C -4.609772 1.222526 -4.124058 2.395145 -3.259601 3.259601 
C -2.395145 4.124058 -1.222526 4.609772 0 4.609772 
z
" style="stroke: #2563eb; stroke-opacity: 0.96"/>
    </defs>
    <g clip-path="url(#pbfd9e49fd7)">
     <use xlink:href="#m2de09b3854" x="274.568407" y="106.71015" style="fill: #2563eb; fill-opacity: 0.96; stroke: #2563eb; stroke-opacity: 0.96"/>
    </g>
   </g>
   <g id="PathCollection_3">
    <defs>
     <path id="m3c8b9423c3" d="M 0 3.807887 
C 1.009863 3.807887 1.978501 3.406664 2.692582 2.692582 
C 3.406664 1.978501 3.807887 1.009863 3.807887 0 
C 3.807887 -1.009863 3.406664 -1.978501 2.692582 -2.692582 
C 1.978501 -3.406664 1.009863 -3.807887 0 -3.807887 
C -1.009863 -3.807887 -1.978501 -3.406664 -2.692582 -2.692582 
C -3.406664 -1.978501 -3.807887 -1.009863 -3.807887 0 
C -3.807887 1.009863 -3.406664 1.978501 -2.692582 2.692582 
C -1.978501 3.406664 -1.009863 3.807887 0 3.807887 
z
" style="stroke: #b8c0cc; stroke-opacity: 0.42"/>
    </defs>
    <g clip-path="url(#pbfd9e49fd7)">
     <use xlink:href="#m3c8b9423c3" x="274.090482" y="168.715319" style="fill: #b8c0cc; fill-opacity: 0.42; stroke: #b8c0cc; stroke-opacity: 0.42"/>
    </g>
   </g>
   <g id="PathCollection_4">
    <defs>
     <path id="m0a7ebbc6cf" d="M 0 4.609772 
C 1.222526 4.609772 2.395145 4.124058 3.259601 3.259601 
C 4.124058 2.395145 4.609772 1.222526 4.609772 0 
C 4.609772 -1.222526 4.124058 -2.395145 3.259601 -3.259601 
C 2.395145 -4.124058 1.222526 -4.609772 0 -4.609772 
C -1.222526 -4.609772 -2.395145 -4.124058 -3.259601 -3.259601 
C -4.124058 -2.395145 -4.609772 -1.222526 -4.609772 0 
C -4.609772 1.222526 -4.124058 2.395145 -3.259601 3.259601 
C -2.395145 4.124058 -1.222526 4.609772 0 4.609772 
z
" style="stroke: #059669; stroke-opacity: 0.96"/>
    </defs>
    <g clip-path="url(#pbfd9e49fd7)">
     <use xlink:href="#m0a7ebbc6cf" x="277.332142" y="230.720488" style="fill: #059669; fill-opacity: 0.96; stroke: #059669; stroke-opacity: 0.96"/>
    </g>
   </g>
   <g id="PathCollection_5">
    <defs>
     <path id="m08d0c2bb30" d="M 0 4.609772 
C 1.222526 4.609772 2.395145 4.124058 3.259601 3.259601 
C 4.124058 2.395145 4.609772 1.222526 4.609772 0 
C 4.609772 -1.222526 4.124058 -2.395145 3.259601 -3.259601 
C 2.395145 -4.124058 1.222526 -4.609772 0 -4.609772 
C -1.222526 -4.609772 -2.395145 -4.124058 -3.259601 -3.259601 
C -4.124058 -2.395145 -4.609772 -1.222526 -4.609772 0 
C -4.609772 1.222526 -4.124058 2.395145 -3.259601 3.259601 
C -2.395145 4.124058 -1.222526 4.609772 0 4.609772 
z
" style="stroke: #dc2626; stroke-opacity: 0.96"/>
    </defs>
    <g clip-path="url(#pbfd9e49fd7)">
     <use xlink:href="#m08d0c2bb30" x="290.073922" y="292.725656" style="fill: #dc2626; fill-opacity: 0.96; stroke: #dc2626; stroke-opacity: 0.96"/>
    </g>
   </g>
   <g id="text_12">
    <!-- margin 0.2 -->
    <g style="fill: #374151" transform="translate(344.766694 13.27875) scale(0.08 -0.08)">
     <use xlink:href="#DejaVuSans-6d"/>
     <use xlink:href="#DejaVuSans-61" x="97.412109"/>
     <use xlink:href="#DejaVuSans-72" x="158.691406"/>
     <use xlink:href="#DejaVuSans-67" x="198.054688"/>
     <use xlink:href="#DejaVuSans-69" x="261.53125"/>
     <use xlink:href="#DejaVuSans-6e" x="289.314453"/>
     <use xlink:href="#DejaVuSans-20" x="352.693359"/>
     <use xlink:href="#DejaVuSans-30" x="384.480469"/>
     <use xlink:href="#DejaVuSans-2e" x="448.103516"/>
     <use xlink:href="#DejaVuSans-32" x="479.890625"/>
    </g>
   </g>
   <g id="text_13">
    <!-- Distribution of Human-Triplet Margins in Embedding Space -->
    <g style="fill: #111827" transform="translate(149.896496 26.303947) scale(0.12 -0.12)">
     <defs>
      <path id="DejaVuSans-44" d="M 1259 4147 
L 1259 519 
L 2022 519 
Q 2988 519 3436 956 
Q 3884 1394 3884 2338 
Q 3884 3275 3436 3711 
Q 2988 4147 2022 4147 
L 1259 4147 
z
M 628 4666 
L 1925 4666 
Q 3281 4666 3915 4102 
Q 4550 3538 4550 2338 
Q 4550 1131 3912 565 
Q 3275 0 1925 0 
L 628 0 
L 628 4666 
z
" transform="scale(0.015625)"/>
      <path id="DejaVuSans-62" d="M 3116 1747 
Q 3116 2381 2855 2742 
Q 2594 3103 2138 3103 
Q 1681 3103 1420 2742 
Q 1159 2381 1159 1747 
Q 1159 1113 1420 752 
Q 1681 391 2138 391 
Q 2594 391 2855 752 
Q 3116 1113 3116 1747 
z
M 1159 2969 
Q 1341 3281 1617 3432 
Q 1894 3584 2278 3584 
Q 2916 3584 3314 3078 
Q 3713 2572 3713 1747 
Q 3713 922 3314 415 
Q 2916 -91 2278 -91 
Q 1894 -91 1617 61 
Q 1341 213 1159 525 
L 1159 0 
L 581 0 
L 581 4863 
L 1159 4863 
L 1159 2969 
z
" transform="scale(0.015625)"/>
      <path id="DejaVuSans-54" d="M -19 4666 
L 3928 4666 
L 3928 4134 
L 2272 4134 
L 2272 0 
L 1638 0 
L 1638 4134 
L -19 4134 
L -19 4666 
z
" transform="scale(0.015625)"/>
      <path id="DejaVuSans-4d" d="M 628 4666 
L 1569 4666 
L 2759 1491 
L 3956 4666 
L 4897 4666 
L 4897 0 
L 4281 0 
L 4281 4097 
L 3078 897 
L 2444 897 
L 1241 4097 
L 1241 0 
L 628 0 
L 628 4666 
z
" transform="scale(0.015625)"/>
      <path id="DejaVuSans-45" d="M 628 4666 
L 3578 4666 
L 3578 4134 
L 1259 4134 
L 1259 2753 
L 3481 2753 
L 3481 2222 
L 1259 2222 
L 1259 531 
L 3634 531 
L 3634 0 
L 628 0 
L 628 4666 
z
" transform="scale(0.015625)"/>
      <path id="DejaVuSans-53" d="M 3425 4513 
L 3425 3897 
Q 3066 4069 2747 4153 
Q 2428 4238 2131 4238 
Q 1616 4238 1336 4038 
Q 1056 3838 1056 3469 
Q 1056 3159 1242 3001 
Q 1428 2844 1947 2747 
L 2328 2669 
Q 3034 2534 3370 2195 
Q 3706 1856 3706 1288 
Q 3706 609 3251 259 
Q 2797 -91 1919 -91 
Q 1588 -91 1214 -16 
Q 841 59 441 206 
L 441 856 
Q 825 641 1194 531 
Q 1563 422 1919 422 
Q 2459 422 2753 634 
Q 3047 847 3047 1241 
Q 3047 1584 2836 1778 
Q 2625 1972 2144 2069 
L 1759 2144 
Q 1053 2284 737 2584 
Q 422 2884 422 3419 
Q 422 4038 858 4394 
Q 1294 4750 2059 4750 
Q 2388 4750 2728 4690 
Q 3069 4631 3425 4513 
z
" transform="scale(0.015625)"/>
     </defs>
     <use xlink:href="#DejaVuSans-44"/>
     <use xlink:href="#DejaVuSans-69" x="77.001953"/>
     <use xlink:href="#DejaVuSans-73" x="104.785156"/>
     <use xlink:href="#DejaVuSans-74" x="156.884766"/>
     <use xlink:href="#DejaVuSans-72" x="196.09375"/>
     <use xlink:href="#DejaVuSans-69" x="237.207031"/>
     <use xlink:href="#DejaVuSans-62" x="264.990234"/>
     <use xlink:href="#DejaVuSans-75" x="328.466797"/>
     <use xlink:href="#DejaVuSans-74" x="391.845703"/>
     <use xlink:href="#DejaVuSans-69" x="431.054688"/>
     <use xlink:href="#DejaVuSans-6f" x="458.837891"/>
     <use xlink:href="#DejaVuSans-6e" x="520.019531"/>
     <use xlink:href="#DejaVuSans-20" x="583.398438"/>
     <use xlink:href="#DejaVuSans-6f" x="615.185547"/>
     <use xlink:href="#DejaVuSans-66" x="676.367188"/>
     <use xlink:href="#DejaVuSans-20" x="711.572266"/>
     <use xlink:href="#DejaVuSans-48" x="743.359375"/>
     <use xlink:href="#DejaVuSans-75" x="818.554688"/>
     <use xlink:href="#DejaVuSans-6d" x="881.933594"/>
     <use xlink:href="#DejaVuSans-61" x="979.345703"/>
     <use xlink:href="#DejaVuSans-6e" x="1040.625"/>
     <use xlink:href="#DejaVuSans-2d" x="1104.003906"/>
     <use xlink:href="#DejaVuSans-54" x="1130.962891"/>
     <use xlink:href="#DejaVuSans-72" x="1177.296875"/>
     <use xlink:href="#DejaVuSans-69" x="1218.410156"/>
     <use xlink:href="#DejaVuSans-70" x="1246.193359"/>
     <use xlink:href="#DejaVuSans-6c" x="1309.669922"/>
     <use xlink:href="#DejaVuSans-65" x="1337.453125"/>
     <use xlink:href="#DejaVuSans-74" x="1398.976562"/>
     <use xlink:href="#DejaVuSans-20" x="1438.185547"/>
     <use xlink:href="#DejaVuSans-4d" x="1469.972656"/>
     <use xlink:href="#DejaVuSans-61" x="1556.251953"/>
     <use xlink:href="#DejaVuSans-72" x="1617.53125"/>
     <use xlink:href="#DejaVuSans-67" x="1656.894531"/>
     <use xlink:href="#DejaVuSans-69" x="1720.371094"/>
     <use xlink:href="#DejaVuSans-6e" x="1748.154297"/>
     <use xlink:href="#DejaVuSans-73" x="1811.533203"/>
     <use xlink:href="#DejaVuSans-20" x="1863.632812"/>
     <use xlink:href="#DejaVuSans-69" x="1895.419922"/>
     <use xlink:href="#DejaVuSans-6e" x="1923.203125"/>
     <use xlink:href="#DejaVuSans-20" x="1986.582031"/>
     <use xlink:href="#DejaVuSans-45" x="2018.369141"/>
     <use xlink:href="#DejaVuSans-6d" x="2081.552734"/>
     <use xlink:href="#DejaVuSans-62" x="2178.964844"/>
     <use xlink:href="#DejaVuSans-65" x="2242.441406"/>
     <use xlink:href="#DejaVuSans-64" x="2303.964844"/>
     <use xlink:href="#DejaVuSans-64" x="2367.441406"/>
     <use xlink:href="#DejaVuSans-69" x="2430.917969"/>
     <use xlink:href="#DejaVuSans-6e" x="2458.701172"/>
     <use xlink:href="#DejaVuSans-67" x="2522.080078"/>
     <use xlink:href="#DejaVuSans-20" x="2585.556641"/>
     <use xlink:href="#DejaVuSans-53" x="2617.34375"/>
     <use xlink:href="#DejaVuSans-70" x="2680.820312"/>
     <use xlink:href="#DejaVuSans-61" x="2744.296875"/>
     <use xlink:href="#DejaVuSans-63" x="2805.576172"/>
     <use xlink:href="#DejaVuSans-65" x="2860.556641"/>
    </g>
   </g>
  </g>
 </g>
 <defs>
  <clipPath id="pbfd9e49fd7">
   <rect x="118.234531" y="32.303947" width="413.971429" height="272.822743"/>
  </clipPath>
 </defs>
</svg>
