<?xml version="1.0" encoding="utf-8" standalone="no"?>
<!DOCTYPE svg PUBLIC "-//W3C//DTD SVG 1.1//EN"
  "http://www.w3.org/Graphics/SVG/1.1/DTD/svg11.dtd">
<svg xmlns:xlink="http://www.w3.org/1999/xlink" width="539.592388pt" height="338.215128pt" viewBox="0 0 539.592388 338.215128" xmlns="http://www.w3.org/2000/svg" version="1.1">
 <metadata>
  <rdf:RDF xmlns:dc="http://purl.org/dc/elements/1.1/" xmlns:cc="http://creativecommons.org/ns#" xmlns:rdf="http://www.w3.org/1999/02/22-rdf-syntax-ns#">
   <cc:Work>
    <dc:type rdf:resource="http://purl.org/dc/dcmitype/StillImage"/>
    <dc:date>2026-05-15T10:53:03.234451</dc:date>
    <dc:format>image/svg+xml</dc:format>
    <dc:creator>
     <cc:Agent>
      <dc:title>Matplotlib v3.10.9, https://matplotlib.org/</dc:title>
     </cc:Agent>
    </dc:creator>
   </cc:Work>
  </rdf:RDF>
 </metadata>
 <defs>
  <style type="text/css">*{stroke-linejoin: round; stroke-linecap: butt}</style>
 </defs>
 <g id="figure_1">
  <g id="patch_1">
   <path d="M 0 338.215128 
L 539.592388 338.215128 
L 539.592388 0 
L 0 0 
z
" style="fill: #fbfcfe"/>
  </g>
  <g id="axes_1">
   <g id="patch_2">
    <path d="M 101.899531 305.12669 
L 532.392388 305.12669 
L 532.392388 32.303947 
L 101.899531 32.303947 
z
" style="fill: #fbfcfe"/>
   </g>
   <g id="matplotlib.axis_1">
    <g id="xtick_1">
     <g id="line2d_1"/>
     <g id="text_1">
      <!-- 0.0 -->
      <g style="fill: #475569" transform="translate(170.81141 315.465284) scale(0.09 -0.09)">
       <defs>
        <path id="DejaVuSans-30" d="M 2034 4250 
Q 1547 4250 1301 3770 
Q 1056 3291 1056 2328 
Q 1056 1369 1301 889 
Q 1547 409 2034 409 
Q 2525 409 2770 889 
Q 3016 1369 3016 2328 
Q 3016 3291 2770 3770 
Q 2525 4250 2034 4250 
z
M 2034 4750 
Q 2819 4750 3233 4129 
Q 3647 3509 3647 2328 
Q 3647 1150 3233 529 
Q 2819 -91 2034 -91 
Q 1250 -91 836 529 
Q 422 1150 422 2328 
Q 422 3509 836 4129 
Q 1250 4750 2034 4750 
z
" transform="scale(0.015625)"/>
        <path id="DejaVuSans-2e" d="M 684 794 
L 1344 794 
L 1344 0 
L 684 0 
L 684 794 
z
" transform="scale(0.015625)"/>
       </defs>
       <use xlink:href="#DejaVuSans-30"/>
       <use xlink:href="#DejaVuSans-2e" transform="translate(63.623047 0)"/>
       <use xlink:href="#DejaVuSans-30" transform="translate(95.410156 0)"/>
      </g>
     </g>
    </g>
    <g id="xtick_2">
     <g id="line2d_2"/>
     <g id="text_2">
      <!-- 0.1 -->
      <g style="fill: #475569" transform="translate(249.774124 315.465284) scale(0.09 -0.09)">
       <defs>
        <path id="DejaVuSans-31" d="M 794 531 
L 1825 531 
L 1825 4091 
L 703 3866 
L 703 4441 
L 1819 4666 
L 2450 4666 
L 2450 531 
L 3481 531 
L 3481 0 
L 794 0 
L 794 531 
z
" transform="scale(0.015625)"/>
       </defs>
       <use xlink:href="#DejaVuSans-30"/>
       <use xlink:href="#DejaVuSans-2e" transform="translate(63.623047 0)"/>
       <use xlink:href="#DejaVuSans-31" transform="translate(95.410156 0)"/>
      </g>
     </g>
    </g>
    <g id="xtick_3">
     <g id="line2d_3"/>
     <g id="text_3">
      <!-- 0.2 -->
      <g style="fill: #475569" transform="translate(328.736838 315.465284) scale(0.09 -0.09)">
       <defs>
        <path id="DejaVuSans-32" d="M 1228 531 
L 3431 531 
L 3431 0 
L 469 0 
L 469 531 
Q 828 903 1448 1529 
Q 2069 2156 2228 2338 
Q 2531 2678 2651 2914 
Q 2772 3150 2772 3378 
Q 2772 3750 2511 3984 
Q 2250 4219 1831 4219 
Q 1534 4219 1204 4116 
Q 875 4013 500 3803 
L 500 4441 
Q 881 4594 1212 4672 
Q 1544 4750 1819 4750 
Q 2544 4750 2975 4387 
Q 3406 4025 3406 3419 
Q 3406 3131 3298 2873 
Q 3191 2616 2906 2266 
Q 2828 2175 2409 1742 
Q 1991 1309 1228 531 
z
" transform="scale(0.015625)"/>
       </defs>
       <use xlink:href="#DejaVuSans-30"/>
       <use xlink:href="#DejaVuSans-2e" transform="translate(63.623047 0)"/>
       <use xlink:href="#DejaVuSans-32" transform="translate(95.410156 0)"/>
      </g>
     </g>
    </g>
    <g id="xtick_4">
     <g id="line2d_4"/>
     <g id="text_4">
      <!-- 0.3 -->
      <g style="fill: #475569" transform="translate(407.699552 315.465284) scale(0.09 -0.09)">
       <defs>
        <path id="DejaVuSans-33" d="M 2597 2516 
Q 3050 2419 3304 2112 
Q 3559 1806 3559 1356 
Q 3559 666 3084 287 
Q 2609 -91 1734 -91 
Q 1441 -91 1130 -33 
Q 819 25 488 141 
L 488 750 
Q 750 597 1062 519 
Q 1375 441 1716 441 
Q 2309 441 2620 675 
Q 2931 909 2931 1356 
Q 2931 1769 2642 2001 
Q 2353 2234 1838 2234 
L 1294 2234 
L 1294 2753 
L 1863 2753 
Q 2328 2753 2575 2939 
Q 2822 3125 2822 3475 
Q 2822 3834 2567 4026 
Q 2313 4219 1838 4219 
Q 1578 4219 1281 4162 
Q 984 4106 628 3988 
L 628 4550 
Q 988 4650 1302 4700 
Q 1616 4750 1894 4750 
Q 2613 4750 3031 4423 
Q 3450 4097 3450 3541 
Q 3450 3153 3228 2886 
Q 3006 2619 2597 2516 
z
" transform="scale(0.015625)"/>
       </defs>
       <use xlink:href="#DejaVuSans-30"/>
       <use xlink:href="#DejaVuSans-2e" transform="translate(63.623047 0)"/>
       <use xlink:href="#DejaVuSans-33" transform="translate(95.410156 0)"/>
      </g>
     </g>
    </g>
    <g id="xtick_5">
     <g id="line2d_5"/>
     <g id="text_5">
      <!-- 0.4 -->
      <g style="fill: #475569" transform="translate(486.662266 315.465284) scale(0.09 -0.09)">
       <defs>
        <path id="DejaVuSans-34" d="M 2419 4116 
L 825 1625 
L 2419 1625 
L 2419 4116 
z
M 2253 4666 
L 3047 4666 
L 3047 1625 
L 3713 1625 
L 3713 1100 
L 3047 1100 
L 3047 0 
L 2419 0 
L 2419 1100 
L 313 1100 
L 313 1709 
L 2253 4666 
z
" transform="scale(0.015625)"/>
       </defs>
       <use xlink:href="#DejaVuSans-30"/>
       <use xlink:href="#DejaVuSans-2e" transform="translate(63.623047 0)"/>
       <use xlink:href="#DejaVuSans-34" transform="translate(95.410156 0)"/>
      </g>
     </g>
    </g>
    <g id="text_6">
     <!-- model cosine margin: sim(anchor,pos) - sim(anchor,neg) -->
     <g style="fill: #475569" transform="translate(174.962366 328.93544) scale(0.1 -0.1)">
      <defs>
       <path id="DejaVuSans-6d" d="M 3328 2828 
Q 3544 3216 3844 3400 
Q 4144 3584 4550 3584 
Q 5097 3584 5394 3201 
Q 5691 2819 5691 2113 
L 5691 0 
L 5113 0 
L 5113 2094 
Q 5113 2597 4934 2840 
Q 4756 3084 4391 3084 
Q 3944 3084 3684 2787 
Q 3425 2491 3425 1978 
L 3425 0 
L 2847 0 
L 2847 2094 
Q 2847 2600 2669 2842 
Q 2491 3084 2119 3084 
Q 1678 3084 1418 2786 
Q 1159 2488 1159 1978 
L 1159 0 
L 581 0 
L 581 3500 
L 1159 3500 
L 1159 2956 
Q 1356 3278 1631 3431 
Q 1906 3584 2284 3584 
Q 2666 3584 2933 3390 
Q 3200 3197 3328 2828 
z
" transform="scale(0.015625)"/>
       <path id="DejaVuSans-6f" d="M 1959 3097 
Q 1497 3097 1228 2736 
Q 959 2375 959 1747 
Q 959 1119 1226 758 
Q 1494 397 1959 397 
Q 2419 397 2687 759 
Q 2956 1122 2956 1747 
Q 2956 2369 2687 2733 
Q 2419 3097 1959 3097 
z
M 1959 3584 
Q 2709 3584 3137 3096 
Q 3566 2609 3566 1747 
Q 3566 888 3137 398 
Q 2709 -91 1959 -91 
Q 1206 -91 779 398 
Q 353 888 353 1747 
Q 353 2609 779 3096 
Q 1206 3584 1959 3584 
z
" transform="scale(0.015625)"/>
       <path id="DejaVuSans-64" d="M 2906 2969 
L 2906 4863 
L 3481 4863 
L 3481 0 
L 2906 0 
L 2906 525 
Q 2725 213 2448 61 
Q 2172 -91 1784 -91 
Q 1150 -91 751 415 
Q 353 922 353 1747 
Q 353 2572 751 3078 
Q 1150 3584 1784 3584 
Q 2172 3584 2448 3432 
Q 2725 3281 2906 2969 
z
M 947 1747 
Q 947 1113 1208 752 
Q 1469 391 1925 391 
Q 2381 391 2643 752 
Q 2906 1113 2906 1747 
Q 2906 2381 2643 2742 
Q 2381 3103 1925 3103 
Q 1469 3103 1208 2742 
Q 947 2381 947 1747 
z
" transform="scale(0.015625)"/>
       <path id="DejaVuSans-65" d="M 3597 1894 
L 3597 1613 
L 953 1613 
Q 991 1019 1311 708 
Q 1631 397 2203 397 
Q 2534 397 2845 478 
Q 3156 559 3463 722 
L 3463 178 
Q 3153 47 2828 -22 
Q 2503 -91 2169 -91 
Q 1331 -91 842 396 
Q 353 884 353 1716 
Q 353 2575 817 3079 
Q 1281 3584 2069 3584 
Q 2775 3584 3186 3129 
Q 3597 2675 3597 1894 
z
M 3022 2063 
Q 3016 2534 2758 2815 
Q 2500 3097 2075 3097 
Q 1594 3097 1305 2825 
Q 1016 2553 972 2059 
L 3022 2063 
z
" transform="scale(0.015625)"/>
       <path id="DejaVuSans-6c" d="M 603 4863 
L 1178 4863 
L 1178 0 
L 603 0 
L 603 4863 
z
" transform="scale(0.015625)"/>
       <path id="DejaVuSans-20" transform="scale(0.015625)"/>
       <path id="DejaVuSans-63" d="M 3122 3366 
L 3122 2828 
Q 2878 2963 2633 3030 
Q 2388 3097 2138 3097 
Q 1578 3097 1268 2742 
Q 959 2388 959 1747 
Q 959 1106 1268 751 
Q 1578 397 2138 397 
Q 2388 397 2633 464 
Q 2878 531 3122 666 
L 3122 134 
Q 2881 22 2623 -34 
Q 2366 -91 2075 -91 
Q 1284 -91 818 406 
Q 353 903 353 1747 
Q 353 2603 823 3093 
Q 1294 3584 2113 3584 
Q 2378 3584 2631 3529 
Q 2884 3475 3122 3366 
z
" transform="scale(0.015625)"/>
       <path id="DejaVuSans-73" d="M 2834 3397 
L 2834 2853 
Q 2591 2978 2328 3040 
Q 2066 3103 1784 3103 
Q 1356 3103 1142 2972 
Q 928 2841 928 2578 
Q 928 2378 1081 2264 
Q 1234 2150 1697 2047 
L 1894 2003 
Q 2506 1872 2764 1633 
Q 3022 1394 3022 966 
Q 3022 478 2636 193 
Q 2250 -91 1575 -91 
Q 1294 -91 989 -36 
Q 684 19 347 128 
L 347 722 
Q 666 556 975 473 
Q 1284 391 1588 391 
Q 1994 391 2212 530 
Q 2431 669 2431 922 
Q 2431 1156 2273 1281 
Q 2116 1406 1581 1522 
L 1381 1569 
Q 847 1681 609 1914 
Q 372 2147 372 2553 
Q 372 3047 722 3315 
Q 1072 3584 1716 3584 
Q 2034 3584 2315 3537 
Q 2597 3491 2834 3397 
z
" transform="scale(0.015625)"/>
       <path id="DejaVuSans-69" d="M 603 3500 
L 1178 3500 
L 1178 0 
L 603 0 
L 603 3500 
z
M 603 4863 
L 1178 4863 
L 1178 4134 
L 603 4134 
L 603 4863 
z
" transform="scale(0.015625)"/>
       <path id="DejaVuSans-6e" d="M 3513 2113 
L 3513 0 
L 2938 0 
L 2938 2094 
Q 2938 2591 2744 2837 
Q 2550 3084 2163 3084 
Q 1697 3084 1428 2787 
Q 1159 2491 1159 1978 
L 1159 0 
L 581 0 
L 581 3500 
L 1159 3500 
L 1159 2956 
Q 1366 3272 1645 3428 
Q 1925 3584 2291 3584 
Q 2894 3584 3203 3211 
Q 3513 2838 3513 2113 
z
" transform="scale(0.015625)"/>
       <path id="DejaVuSans-61" d="M 2194 1759 
Q 1497 1759 1228 1600 
Q 959 1441 959 1056 
Q 959 750 1161 570 
Q 1363 391 1709 391 
Q 2188 391 2477 730 
Q 2766 1069 2766 1631 
L 2766 1759 
L 2194 1759 
z
M 3341 1997 
L 3341 0 
L 2766 0 
L 2766 531 
Q 2569 213 2275 61 
Q 1981 -91 1556 -91 
Q 1019 -91 701 211 
Q 384 513 384 1019 
Q 384 1609 779 1909 
Q 1175 2209 1959 2209 
L 2766 2209 
L 2766 2266 
Q 2766 2663 2505 2880 
Q 2244 3097 1772 3097 
Q 1472 3097 1187 3025 
Q 903 2953 641 2809 
L 641 3341 
Q 956 3463 1253 3523 
Q 1550 3584 1831 3584 
Q 2591 3584 2966 3190 
Q 3341 2797 3341 1997 
z
" transform="scale(0.015625)"/>
       <path id="DejaVuSans-72" d="M 2631 2963 
Q 2534 3019 2420 3045 
Q 2306 3072 2169 3072 
Q 1681 3072 1420 2755 
Q 1159 2438 1159 1844 
L 1159 0 
L 581 0 
L 581 3500 
L 1159 3500 
L 1159 2956 
Q 1341 3275 1631 3429 
Q 1922 3584 2338 3584 
Q 2397 3584 2469 3576 
Q 2541 3569 2628 3553 
L 2631 2963 
z
" transform="scale(0.015625)"/>
       <path id="DejaVuSans-67" d="M 2906 1791 
Q 2906 2416 2648 2759 
Q 2391 3103 1925 3103 
Q 1463 3103 1205 2759 
Q 947 2416 947 1791 
Q 947 1169 1205 825 
Q 1463 481 1925 481 
Q 2391 481 2648 825 
Q 2906 1169 2906 1791 
z
M 3481 434 
Q 3481 -459 3084 -895 
Q 2688 -1331 1869 -1331 
Q 1566 -1331 1297 -1286 
Q 1028 -1241 775 -1147 
L 775 -588 
Q 1028 -725 1275 -790 
Q 1522 -856 1778 -856 
Q 2344 -856 2625 -561 
Q 2906 -266 2906 331 
L 2906 616 
Q 2728 306 2450 153 
Q 2172 0 1784 0 
Q 1141 0 747 490 
Q 353 981 353 1791 
Q 353 2603 747 3093 
Q 1141 3584 1784 3584 
Q 2172 3584 2450 3431 
Q 2728 3278 2906 2969 
L 2906 3500 
L 3481 3500 
L 3481 434 
z
" transform="scale(0.015625)"/>
       <path id="DejaVuSans-3a" d="M 750 794 
L 1409 794 
L 1409 0 
L 750 0 
L 750 794 
z
M 750 3309 
L 1409 3309 
L 1409 2516 
L 750 2516 
L 750 3309 
z
" transform="scale(0.015625)"/>
       <path id="DejaVuSans-28" d="M 1984 4856 
Q 1566 4138 1362 3434 
Q 1159 2731 1159 2009 
Q 1159 1288 1364 580 
Q 1569 -128 1984 -844 
L 1484 -844 
Q 1016 -109 783 600 
Q 550 1309 550 2009 
Q 550 2706 781 3412 
Q 1013 4119 1484 4856 
L 1984 4856 
z
" transform="scale(0.015625)"/>
       <path id="DejaVuSans-68" d="M 3513 2113 
L 3513 0 
L 2938 0 
L 2938 2094 
Q 2938 2591 2744 2837 
Q 2550 3084 2163 3084 
Q 1697 3084 1428 2787 
Q 1159 2491 1159 1978 
L 1159 0 
L 581 0 
L 581 4863 
L 1159 4863 
L 1159 2956 
Q 1366 3272 1645 3428 
Q 1925 3584 2291 3584 
Q 2894 3584 3203 3211 
Q 3513 2838 3513 2113 
z
" transform="scale(0.015625)"/>
       <path id="DejaVuSans-2c" d="M 750 794 
L 1409 794 
L 1409 256 
L 897 -744 
L 494 -744 
L 750 256 
L 750 794 
z
" transform="scale(0.015625)"/>
       <path id="DejaVuSans-70" d="M 1159 525 
L 1159 -1331 
L 581 -1331 
L 581 3500 
L 1159 3500 
L 1159 2969 
Q 1341 3281 1617 3432 
Q 1894 3584 2278 3584 
Q 2916 3584 3314 3078 
Q 3713 2572 3713 1747 
Q 3713 922 3314 415 
Q 2916 -91 2278 -91 
Q 1894 -91 1617 61 
Q 1341 213 1159 525 
z
M 3116 1747 
Q 3116 2381 2855 2742 
Q 2594 3103 2138 3103 
Q 1681 3103 1420 2742 
Q 1159 2381 1159 1747 
Q 1159 1113 1420 752 
Q 1681 391 2138 391 
Q 2594 391 2855 752 
Q 3116 1113 3116 1747 
z
" transform="scale(0.015625)"/>
       <path id="DejaVuSans-29" d="M 513 4856 
L 1013 4856 
Q 1481 4119 1714 3412 
Q 1947 2706 1947 2009 
Q 1947 1309 1714 600 
Q 1481 -109 1013 -844 
L 513 -844 
Q 928 -128 1133 580 
Q 1338 1288 1338 2009 
Q 1338 2731 1133 3434 
Q 928 4138 513 4856 
z
" transform="scale(0.015625)"/>
       <path id="DejaVuSans-2d" d="M 313 2009 
L 1997 2009 
L 1997 1497 
L 313 1497 
L 313 2009 
z
" transform="scale(0.015625)"/>
      </defs>
      <use xlink:href="#DejaVuSans-6d"/>
      <use xlink:href="#DejaVuSans-6f" transform="translate(97.412109 0)"/>
      <use xlink:href="#DejaVuSans-64" transform="translate(158.59375 0)"/>
      <use xlink:href="#DejaVuSans-65" transform="translate(222.070312 0)"/>
      <use xlink:href="#DejaVuSans-6c" transform="translate(283.59375 0)"/>
      <use xlink:href="#DejaVuSans-20" transform="translate(311.376953 0)"/>
      <use xlink:href="#DejaVuSans-63" transform="translate(343.164062 0)"/>
      <use xlink:href="#DejaVuSans-6f" transform="translate(398.144531 0)"/>
      <use xlink:href="#DejaVuSans-73" transform="translate(459.326172 0)"/>
      <use xlink:href="#DejaVuSans-69" transform="translate(511.425781 0)"/>
      <use xlink:href="#DejaVuSans-6e" transform="translate(539.208984 0)"/>
      <use xlink:href="#DejaVuSans-65" transform="translate(602.587891 0)"/>
      <use xlink:href="#DejaVuSans-20" transform="translate(664.111328 0)"/>
      <use xlink:href="#DejaVuSans-6d" transform="translate(695.898438 0)"/>
      <use xlink:href="#DejaVuSans-61" transform="translate(793.310547 0)"/>
      <use xlink:href="#DejaVuSans-72" transform="translate(854.589844 0)"/>
      <use xlink:href="#DejaVuSans-67" transform="translate(893.953125 0)"/>
      <use xlink:href="#DejaVuSans-69" transform="translate(957.429688 0)"/>
      <use xlink:href="#DejaVuSans-6e" transform="translate(985.212891 0)"/>
      <use xlink:href="#DejaVuSans-3a" transform="translate(1048.591797 0)"/>
      <use xlink:href="#DejaVuSans-20" transform="translate(1082.283203 0)"/>
      <use xlink:href="#DejaVuSans-73" transform="translate(1114.070312 0)"/>
      <use xlink:href="#DejaVuSans-69" transform="translate(1166.169922 0)"/>
      <use xlink:href="#DejaVuSans-6d" transform="translate(1193.953125 0)"/>
      <use xlink:href="#DejaVuSans-28" transform="translate(1291.365234 0)"/>
      <use xlink:href="#DejaVuSans-61" transform="translate(1330.378906 0)"/>
      <use xlink:href="#DejaVuSans-6e" transform="translate(1391.658203 0)"/>
      <use xlink:href="#DejaVuSans-63" transform="translate(1455.037109 0)"/>
      <use xlink:href="#DejaVuSans-68" transform="translate(1510.017578 0)"/>
      <use xlink:href="#DejaVuSans-6f" transform="translate(1573.396484 0)"/>
      <use xlink:href="#DejaVuSans-72" transform="translate(1634.578125 0)"/>
      <use xlink:href="#DejaVuSans-2c" transform="translate(1675.691406 0)"/>
      <use xlink:href="#DejaVuSans-70" transform="translate(1707.478516 0)"/>
      <use xlink:href="#DejaVuSans-6f" transform="translate(1770.955078 0)"/>
      <use xlink:href="#DejaVuSans-73" transform="translate(1832.136719 0)"/>
      <use xlink:href="#DejaVuSans-29" transform="translate(1884.236328 0)"/>
      <use xlink:href="#DejaVuSans-20" transform="translate(1923.25 0)"/>
      <use xlink:href="#DejaVuSans-2d" transform="translate(1955.037109 0)"/>
      <use xlink:href="#DejaVuSans-20" transform="translate(1991.121094 0)"/>
      <use xlink:href="#DejaVuSans-73" transform="translate(2022.908203 0)"/>
      <use xlink:href="#DejaVuSans-69" transform="translate(2075.007812 0)"/>
      <use xlink:href="#DejaVuSans-6d" transform="translate(2102.791016 0)"/>
      <use xlink:href="#DejaVuSans-28" transform="translate(2200.203125 0)"/>
      <use xlink:href="#DejaVuSans-61" transform="translate(2239.216797 0)"/>
      <use xlink:href="#DejaVuSans-6e" transform="translate(2300.496094 0)"/>
      <use xlink:href="#DejaVuSans-63" transform="translate(2363.875 0)"/>
      <use xlink:href="#DejaVuSans-68" transform="translate(2418.855469 0)"/>
      <use xlink:href="#DejaVuSans-6f" transform="translate(2482.234375 0)"/>
      <use xlink:href="#DejaVuSans-72" transform="translate(2543.416016 0)"/>
      <use xlink:href="#DejaVuSans-2c" transform="translate(2584.529297 0)"/>
      <use xlink:href="#DejaVuSans-6e" transform="translate(2616.316406 0)"/>
      <use xlink:href="#DejaVuSans-65" transform="translate(2679.695312 0)"/>
      <use xlink:href="#DejaVuSans-67" transform="translate(2741.21875 0)"/>
      <use xlink:href="#DejaVuSans-29" transform="translate(2804.695312 0)"/>
     </g>
    </g>
   </g>
   <g id="matplotlib.axis_2">
    <g id="ytick_1">
     <g id="line2d_6">
      <path d="M 101.899531 44.704981 
L 532.392388 44.704981 
" clip-path="url(#p5ebe588da0)" style="fill: none; stroke: #cbd5e1; stroke-opacity: 0.35; stroke-width: 0.8; stroke-linecap: square"/>
     </g>
     <g id="line2d_7"/>
     <g id="text_7">
      <!-- Image-only baseline -->
      <g style="fill: #475569" transform="translate(7.2 48.124278) scale(0.09 -0.09)">
       <defs>
        <path id="DejaVuSans-49" d="M 628 4666 
L 1259 4666 
L 1259 0 
L 628 0 
L 628 4666 
z
" transform="scale(0.015625)"/>
        <path id="DejaVuSans-79" d="M 2059 -325 
Q 1816 -950 1584 -1140 
Q 1353 -1331 966 -1331 
L 506 -1331 
L 506 -850 
L 844 -850 
Q 1081 -850 1212 -737 
Q 1344 -625 1503 -206 
L 1606 56 
L 191 3500 
L 800 3500 
L 1894 763 
L 2988 3500 
L 3597 3500 
L 2059 -325 
z
" transform="scale(0.015625)"/>
        <path id="DejaVuSans-62" d="M 3116 1747 
Q 3116 2381 2855 2742 
Q 2594 3103 2138 3103 
Q 1681 3103 1420 2742 
Q 1159 2381 1159 1747 
Q 1159 1113 1420 752 
Q 1681 391 2138 391 
Q 2594 391 2855 752 
Q 3116 1113 3116 1747 
z
M 1159 2969 
Q 1341 3281 1617 3432 
Q 1894 3584 2278 3584 
Q 2916 3584 3314 3078 
Q 3713 2572 3713 1747 
Q 3713 922 3314 415 
Q 2916 -91 2278 -91 
Q 1894 -91 1617 61 
Q 1341 213 1159 525 
L 1159 0 
L 581 0 
L 581 4863 
L 1159 4863 
L 1159 2969 
z
" transform="scale(0.015625)"/>
       </defs>
       <use xlink:href="#DejaVuSans-49"/>
       <use xlink:href="#DejaVuSans-6d" transform="translate(29.492188 0)"/>
       <use xlink:href="#DejaVuSans-61" transform="translate(126.904297 0)"/>
       <use xlink:href="#DejaVuSans-67" transform="translate(188.183594 0)"/>
       <use xlink:href="#DejaVuSans-65" transform="translate(251.660156 0)"/>
       <use xlink:href="#DejaVuSans-2d" transform="translate(313.183594 0)"/>
       <use xlink:href="#DejaVuSans-6f" transform="translate(351.142578 0)"/>
       <use xlink:href="#DejaVuSans-6e" transform="translate(412.324219 0)"/>
       <use xlink:href="#DejaVuSans-6c" transform="translate(475.703125 0)"/>
       <use xlink:href="#DejaVuSans-79" transform="translate(503.486328 0)"/>
       <use xlink:href="#DejaVuSans-20" transform="translate(562.666016 0)"/>
       <use xlink:href="#DejaVuSans-62" transform="translate(594.453125 0)"/>
       <use xlink:href="#DejaVuSans-61" transform="translate(657.929688 0)"/>
       <use xlink:href="#DejaVuSans-73" transform="translate(719.208984 0)"/>
       <use xlink:href="#DejaVuSans-65" transform="translate(771.308594 0)"/>
       <use xlink:href="#DejaVuSans-6c" transform="translate(832.832031 0)"/>
       <use xlink:href="#DejaVuSans-69" transform="translate(860.615234 0)"/>
       <use xlink:href="#DejaVuSans-6e" transform="translate(888.398438 0)"/>
       <use xlink:href="#DejaVuSans-65" transform="translate(951.777344 0)"/>
      </g>
     </g>
    </g>
    <g id="ytick_2">
     <g id="line2d_8">
      <path d="M 101.899531 106.71015 
L 532.392388 106.71015 
" clip-path="url(#p5ebe588da0)" style="fill: none; stroke: #cbd5e1; stroke-opacity: 0.35; stroke-width: 0.8; stroke-linecap: square"/>
     </g>
     <g id="line2d_9"/>
     <g id="text_8">
      <!-- v1 human -->
      <g style="fill: #475569" transform="translate(53.092969 110.129447) scale(0.09 -0.09)">
       <defs>
        <path id="DejaVuSans-76" d="M 191 3500 
L 800 3500 
L 1894 563 
L 2988 3500 
L 3597 3500 
L 2284 0 
L 1503 0 
L 191 3500 
z
" transform="scale(0.015625)"/>
        <path id="DejaVuSans-75" d="M 544 1381 
L 544 3500 
L 1119 3500 
L 1119 1403 
Q 1119 906 1312 657 
Q 1506 409 1894 409 
Q 2359 409 2629 706 
Q 2900 1003 2900 1516 
L 2900 3500 
L 3475 3500 
L 3475 0 
L 2900 0 
L 2900 538 
Q 2691 219 2414 64 
Q 2138 -91 1772 -91 
Q 1169 -91 856 284 
Q 544 659 544 1381 
z
M 1991 3584 
L 1991 3584 
z
" transform="scale(0.015625)"/>
       </defs>
       <use xlink:href="#DejaVuSans-76"/>
       <use xlink:href="#DejaVuSans-31" transform="translate(59.179688 0)"/>
       <use xlink:href="#DejaVuSans-20" transform="translate(122.802734 0)"/>
       <use xlink:href="#DejaVuSans-68" transform="translate(154.589844 0)"/>
       <use xlink:href="#DejaVuSans-75" transform="translate(217.96875 0)"/>
       <use xlink:href="#DejaVuSans-6d" transform="translate(281.347656 0)"/>
       <use xlink:href="#DejaVuSans-61" transform="translate(378.759766 0)"/>
       <use xlink:href="#DejaVuSans-6e" transform="translate(440.039062 0)"/>
      </g>
     </g>
    </g>
    <g id="ytick_3">
     <g id="line2d_10">
      <path d="M 101.899531 168.715319 
L 532.392388 168.715319 
" clip-path="url(#p5ebe588da0)" style="fill: none; stroke: #cbd5e1; stroke-opacity: 0.35; stroke-width: 0.8; stroke-linecap: square"/>
     </g>
     <g id="line2d_11"/>
     <g id="text_9">
      <!-- v1 shuffled -->
      <g style="fill: #475569" transform="translate(48.301875 172.134616) scale(0.09 -0.09)">
       <defs>
        <path id="DejaVuSans-66" d="M 2375 4863 
L 2375 4384 
L 1825 4384 
Q 1516 4384 1395 4259 
Q 1275 4134 1275 3809 
L 1275 3500 
L 2222 3500 
L 2222 3053 
L 1275 3053 
L 1275 0 
L 697 0 
L 697 3053 
L 147 3053 
L 147 3500 
L 697 3500 
L 697 3744 
Q 697 4328 969 4595 
Q 1241 4863 1831 4863 
L 2375 4863 
z
" transform="scale(0.015625)"/>
       </defs>
       <use xlink:href="#DejaVuSans-76"/>
       <use xlink:href="#DejaVuSans-31" transform="translate(59.179688 0)"/>
       <use xlink:href="#DejaVuSans-20" transform="translate(122.802734 0)"/>
       <use xlink:href="#DejaVuSans-73" transform="translate(154.589844 0)"/>
       <use xlink:href="#DejaVuSans-68" transform="translate(206.689453 0)"/>
       <use xlink:href="#DejaVuSans-75" transform="translate(270.068359 0)"/>
       <use xlink:href="#DejaVuSans-66" transform="translate(333.447266 0)"/>
       <use xlink:href="#DejaVuSans-66" transform="translate(368.652344 0)"/>
       <use xlink:href="#DejaVuSans-6c" transform="translate(403.857422 0)"/>
       <use xlink:href="#DejaVuSans-65" transform="translate(431.640625 0)"/>
       <use xlink:href="#DejaVuSans-64" transform="translate(493.164062 0)"/>
      </g>
     </g>
    </g>
    <g id="ytick_4">
     <g id="line2d_12">
      <path d="M 101.899531 230.720488 
L 532.392388 230.720488 
" clip-path="url(#p5ebe588da0)" style="fill: none; stroke: #cbd5e1; stroke-opacity: 0.35; stroke-width: 0.8; stroke-linecap: square"/>
     </g>
     <g id="line2d_13"/>
     <g id="text_10">
      <!-- v2 current batch -->
      <g style="fill: #475569" transform="translate(23.754375 234.139784) scale(0.09 -0.09)">
       <defs>
        <path id="DejaVuSans-74" d="M 1172 4494 
L 1172 3500 
L 2356 3500 
L 2356 3053 
L 1172 3053 
L 1172 1153 
Q 1172 725 1289 603 
Q 1406 481 1766 481 
L 2356 481 
L 2356 0 
L 1766 0 
Q 1100 0 847 248 
Q 594 497 594 1153 
L 594 3053 
L 172 3053 
L 172 3500 
L 594 3500 
L 594 4494 
L 1172 4494 
z
" transform="scale(0.015625)"/>
       </defs>
       <use xlink:href="#DejaVuSans-76"/>
       <use xlink:href="#DejaVuSans-32" transform="translate(59.179688 0)"/>
       <use xlink:href="#DejaVuSans-20" transform="translate(122.802734 0)"/>
       <use xlink:href="#DejaVuSans-63" transform="translate(154.589844 0)"/>
       <use xlink:href="#DejaVuSans-75" transform="translate(209.570312 0)"/>
       <use xlink:href="#DejaVuSans-72" transform="translate(272.949219 0)"/>
       <use xlink:href="#DejaVuSans-72" transform="translate(312.3125 0)"/>
       <use xlink:href="#DejaVuSans-65" transform="translate(351.175781 0)"/>
       <use xlink:href="#DejaVuSans-6e" transform="translate(412.699219 0)"/>
       <use xlink:href="#DejaVuSans-74" transform="translate(476.078125 0)"/>
       <use xlink:href="#DejaVuSans-20" transform="translate(515.287109 0)"/>
       <use xlink:href="#DejaVuSans-62" transform="translate(547.074219 0)"/>
       <use xlink:href="#DejaVuSans-61" transform="translate(610.550781 0)"/>
       <use xlink:href="#DejaVuSans-74" transform="translate(671.830078 0)"/>
       <use xlink:href="#DejaVuSans-63" transform="translate(711.039062 0)"/>
       <use xlink:href="#DejaVuSans-68" transform="translate(766.019531 0)"/>
      </g>
     </g>
    </g>
    <g id="ytick_5">
     <g id="line2d_14">
      <path d="M 101.899531 292.725656 
L 532.392388 292.725656 
" clip-path="url(#p5ebe588da0)" style="fill: none; stroke: #cbd5e1; stroke-opacity: 0.35; stroke-width: 0.8; stroke-linecap: square"/>
     </g>
     <g id="line2d_15"/>
     <g id="text_11">
      <!-- v3 strong human -->
      <g style="fill: #475569" transform="translate(21.594375 296.144953) scale(0.09 -0.09)">
       <use xlink:href="#DejaVuSans-76"/>
       <use xlink:href="#DejaVuSans-33" transform="translate(59.179688 0)"/>
       <use xlink:href="#DejaVuSans-20" transform="translate(122.802734 0)"/>
       <use xlink:href="#DejaVuSans-73" transform="translate(154.589844 0)"/>
       <use xlink:href="#DejaVuSans-74" transform="translate(206.689453 0)"/>
       <use xlink:href="#DejaVuSans-72" transform="translate(245.898438 0)"/>
       <use xlink:href="#DejaVuSans-6f" transform="translate(284.761719 0)"/>
       <use xlink:href="#DejaVuSans-6e" transform="translate(345.943359 0)"/>
       <use xlink:href="#DejaVuSans-67" transform="translate(409.322266 0)"/>
       <use xlink:href="#DejaVuSans-20" transform="translate(472.798828 0)"/>
       <use xlink:href="#DejaVuSans-68" transform="translate(504.585938 0)"/>
       <use xlink:href="#DejaVuSans-75" transform="translate(567.964844 0)"/>
       <use xlink:href="#DejaVuSans-6d" transform="translate(631.34375 0)"/>
       <use xlink:href="#DejaVuSans-61" transform="translate(728.755859 0)"/>
       <use xlink:href="#DejaVuSans-6e" transform="translate(790.035156 0)"/>
      </g>
     </g>
    </g>
   </g>
   <g id="line2d_16">
    <path d="M 127.93317 44.704981 
L 506.292328 44.704981 
" clip-path="url(#p5ebe588da0)" style="fill: none; stroke: #4b5563; stroke-opacity: 0.26; stroke-width: 5; stroke-linecap: round"/>
   </g>
   <g id="line2d_17">
    <path d="M 121.765631 106.71015 
L 487.647578 106.71015 
" clip-path="url(#p5ebe588da0)" style="fill: none; stroke: #2563eb; stroke-opacity: 0.26; stroke-width: 5; stroke-linecap: round"/>
   </g>
   <g id="line2d_18">
    <path d="M 121.467388 168.715319 
L 486.934087 168.715319 
" clip-path="url(#p5ebe588da0)" style="fill: none; stroke: #93c5fd; stroke-opacity: 0.26; stroke-width: 5; stroke-linecap: round"/>
   </g>
   <g id="line2d_19">
    <path d="M 123.183983 230.720488 
L 496.914381 230.720488 
" clip-path="url(#p5ebe588da0)" style="fill: none; stroke: #059669; stroke-opacity: 0.26; stroke-width: 5; stroke-linecap: round"/>
   </g>
   <g id="line2d_20">
    <path d="M 131.075918 292.725656 
L 512.824531 292.725656 
" clip-path="url(#p5ebe588da0)" style="fill: none; stroke: #dc2626; stroke-opacity: 0.26; stroke-width: 5; stroke-linecap: round"/>
   </g>
   <g id="line2d_21">
    <path d="M 177.967816 305.12669 
L 177.967816 32.303947 
" clip-path="url(#p5ebe588da0)" style="fill: none; stroke: #111827; stroke-opacity: 0.7; stroke-linecap: square"/>
   </g>
   <g id="line2d_22">
    <path d="M 335.893244 305.12669 
L 335.893244 32.303947 
" clip-path="url(#p5ebe588da0)" style="fill: none; stroke-dasharray: 3.7,1.6; stroke-dashoffset: 0; stroke: #111827; stroke-opacity: 0.45"/>
   </g>
   <g id="PathCollection_1">
    <defs>
     <path id="m806ab22cee" d="M 0 4.609772 
C 1.222526 4.609772 2.395145 4.124058 3.259601 3.259601 
C 4.124058 2.395145 4.609772 1.222526 4.609772 0 
C 4.609772 -1.222526 4.124058 -2.395145 3.259601 -3.259601 
C 2.395145 -4.124058 1.222526 -4.609772 0 -4.609772 
C -1.222526 -4.609772 -2.395145 -4.124058 -3.259601 -3.259601 
C -4.124058 -2.395145 -4.609772 -1.222526 -4.609772 0 
C -4.609772 1.222526 -4.124058 2.395145 -3.259601 3.259601 
C -2.395145 4.124058 -1.222526 4.609772 0 4.609772 
z
" style="stroke: #4b5563"/>
    </defs>
    <g clip-path="url(#p5ebe588da0)">
     <use xlink:href="#m806ab22cee" x="270.306372" y="44.704981" style="fill: #4b5563; stroke: #4b5563"/>
    </g>
   </g>
   <g id="PathCollection_2">
    <defs>
     <path id="mc97127d823" d="M 0 4.609772 
C 1.222526 4.609772 2.395145 4.124058 3.259601 3.259601 
C 4.124058 2.395145 4.609772 1.222526 4.609772 0 
C 4.609772 -1.222526 4.124058 -2.395145 3.259601 -3.259601 
C 2.395145 -4.124058 1.222526 -4.609772 0 -4.609772 
C -1.222526 -4.609772 -2.395145 -4.124058 -3.259601 -3.259601 
C -4.124058 -2.395145 -4.609772 -1.222526 -4.609772 0 
C -4.609772 1.222526 -4.124058 2.395145 -3.259601 3.259601 
C -2.395145 4.124058 -1.222526 4.609772 0 4.609772 
z
" style="stroke: #2563eb"/>
    </defs>
    <g clip-path="url(#p5ebe588da0)">
     <use xlink:href="#mc97127d823" x="264.472628" y="106.71015" style="fill: #2563eb; stroke: #2563eb"/>
    </g>
   </g>
   <g id="PathCollection_3">
    <defs>
     <path id="m229083b962" d="M 0 4.609772 
C 1.222526 4.609772 2.395145 4.124058 3.259601 3.259601 
C 4.124058 2.395145 4.609772 1.222526 4.609772 0 
C 4.609772 -1.222526 4.124058 -2.395145 3.259601 -3.259601 
C 2.395145 -4.124058 1.222526 -4.609772 0 -4.609772 
C -1.222526 -4.609772 -2.395145 -4.124058 -3.259601 -3.259601 
C -4.124058 -2.395145 -4.609772 -1.222526 -4.609772 0 
C -4.609772 1.222526 -4.124058 2.395145 -3.259601 3.259601 
C -2.395145 4.124058 -1.222526 4.609772 0 4.609772 
z
" style="stroke: #93c5fd"/>
    </defs>
    <g clip-path="url(#p5ebe588da0)">
     <use xlink:href="#m229083b962" x="263.975628" y="168.715319" style="fill: #93c5fd; stroke: #93c5fd"/>
    </g>
   </g>
   <g id="PathCollection_4">
    <defs>
     <path id="m20a568d578" d="M 0 4.609772 
C 1.222526 4.609772 2.395145 4.124058 3.259601 3.259601 
C 4.124058 2.395145 4.609772 1.222526 4.609772 0 
C 4.609772 -1.222526 4.124058 -2.395145 3.259601 -3.259601 
C 2.395145 -4.124058 1.222526 -4.609772 0 -4.609772 
C -1.222526 -4.609772 -2.395145 -4.124058 -3.259601 -3.259601 
C -4.124058 -2.395145 -4.609772 -1.222526 -4.609772 0 
C -4.609772 1.222526 -4.124058 2.395145 -3.259601 3.259601 
C -2.395145 4.124058 -1.222526 4.609772 0 4.609772 
z
" style="stroke: #059669"/>
    </defs>
    <g clip-path="url(#p5ebe588da0)">
     <use xlink:href="#m20a568d578" x="267.346661" y="230.720488" style="fill: #059669; stroke: #059669"/>
    </g>
   </g>
   <g id="PathCollection_5">
    <defs>
     <path id="m58ac2dedd9" d="M 0 4.609772 
C 1.222526 4.609772 2.395145 4.124058 3.259601 3.259601 
C 4.124058 2.395145 4.609772 1.222526 4.609772 0 
C 4.609772 -1.222526 4.124058 -2.395145 3.259601 -3.259601 
C 2.395145 -4.124058 1.222526 -4.609772 0 -4.609772 
C -1.222526 -4.609772 -2.395145 -4.124058 -3.259601 -3.259601 
C -4.124058 -2.395145 -4.609772 -1.222526 -4.609772 0 
C -4.609772 1.222526 -4.124058 2.395145 -3.259601 3.259601 
C -2.395145 4.124058 -1.222526 4.609772 0 4.609772 
z
" style="stroke: #dc2626"/>
    </defs>
    <g clip-path="url(#p5ebe588da0)">
     <use xlink:href="#m58ac2dedd9" x="280.596961" y="292.725656" style="fill: #dc2626; stroke: #dc2626"/>
    </g>
   </g>
   <g id="text_12">
    <!-- margin 0.2 -->
    <g style="fill: #374151" transform="translate(337.472498 13.27875) scale(0.08 -0.08)">
     <use xlink:href="#DejaVuSans-6d"/>
     <use xlink:href="#DejaVuSans-61" transform="translate(97.412109 0)"/>
     <use xlink:href="#DejaVuSans-72" transform="translate(158.691406 0)"/>
     <use xlink:href="#DejaVuSans-67" transform="translate(198.054688 0)"/>
     <use xlink:href="#DejaVuSans-69" transform="translate(261.53125 0)"/>
     <use xlink:href="#DejaVuSans-6e" transform="translate(289.314453 0)"/>
     <use xlink:href="#DejaVuSans-20" transform="translate(352.693359 0)"/>
     <use xlink:href="#DejaVuSans-30" transform="translate(384.480469 0)"/>
     <use xlink:href="#DejaVuSans-2e" transform="translate(448.103516 0)"/>
     <use xlink:href="#DejaVuSans-32" transform="translate(479.890625 0)"/>
    </g>
   </g>
   <g id="text_13">
    <!-- Distribution of Human-Triplet Margins in Embedding Space -->
    <g style="fill: #111827" transform="translate(141.82221 26.303947) scale(0.12 -0.12)">
     <defs>
      <path id="DejaVuSans-44" d="M 1259 4147 
L 1259 519 
L 2022 519 
Q 2988 519 3436 956 
Q 3884 1394 3884 2338 
Q 3884 3275 3436 3711 
Q 2988 4147 2022 4147 
L 1259 4147 
z
M 628 4666 
L 1925 4666 
Q 3281 4666 3915 4102 
Q 4550 3538 4550 2338 
Q 4550 1131 3912 565 
Q 3275 0 1925 0 
L 628 0 
L 628 4666 
z
" transform="scale(0.015625)"/>
      <path id="DejaVuSans-48" d="M 628 4666 
L 1259 4666 
L 1259 2753 
L 3553 2753 
L 3553 4666 
L 4184 4666 
L 4184 0 
L 3553 0 
L 3553 2222 
L 1259 2222 
L 1259 0 
L 628 0 
L 628 4666 
z
" transform="scale(0.015625)"/>
      <path id="DejaVuSans-54" d="M -19 4666 
L 3928 4666 
L 3928 4134 
L 2272 4134 
L 2272 0 
L 1638 0 
L 1638 4134 
L -19 4134 
L -19 4666 
z
" transform="scale(0.015625)"/>
      <path id="DejaVuSans-4d" d="M 628 4666 
L 1569 4666 
L 2759 1491 
L 3956 4666 
L 4897 4666 
L 4897 0 
L 4281 0 
L 4281 4097 
L 3078 897 
L 2444 897 
L 1241 4097 
L 1241 0 
L 628 0 
L 628 4666 
z
" transform="scale(0.015625)"/>
      <path id="DejaVuSans-45" d="M 628 4666 
L 3578 4666 
L 3578 4134 
L 1259 4134 
L 1259 2753 
L 3481 2753 
L 3481 2222 
L 1259 2222 
L 1259 531 
L 3634 531 
L 3634 0 
L 628 0 
L 628 4666 
z
" transform="scale(0.015625)"/>
      <path id="DejaVuSans-53" d="M 3425 4513 
L 3425 3897 
Q 3066 4069 2747 4153 
Q 2428 4238 2131 4238 
Q 1616 4238 1336 4038 
Q 1056 3838 1056 3469 
Q 1056 3159 1242 3001 
Q 1428 2844 1947 2747 
L 2328 2669 
Q 3034 2534 3370 2195 
Q 3706 1856 3706 1288 
Q 3706 609 3251 259 
Q 2797 -91 1919 -91 
Q 1588 -91 1214 -16 
Q 841 59 441 206 
L 441 856 
Q 825 641 1194 531 
Q 1563 422 1919 422 
Q 2459 422 2753 634 
Q 3047 847 3047 1241 
Q 3047 1584 2836 1778 
Q 2625 1972 2144 2069 
L 1759 2144 
Q 1053 2284 737 2584 
Q 422 2884 422 3419 
Q 422 4038 858 4394 
Q 1294 4750 2059 4750 
Q 2388 4750 2728 4690 
Q 3069 4631 3425 4513 
z
" transform="scale(0.015625)"/>
     </defs>
     <use xlink:href="#DejaVuSans-44"/>
     <use xlink:href="#DejaVuSans-69" transform="translate(77.001953 0)"/>
     <use xlink:href="#DejaVuSans-73" transform="translate(104.785156 0)"/>
     <use xlink:href="#DejaVuSans-74" transform="translate(156.884766 0)"/>
     <use xlink:href="#DejaVuSans-72" transform="translate(196.09375 0)"/>
     <use xlink:href="#DejaVuSans-69" transform="translate(237.207031 0)"/>
     <use xlink:href="#DejaVuSans-62" transform="translate(264.990234 0)"/>
     <use xlink:href="#DejaVuSans-75" transform="translate(328.466797 0)"/>
     <use xlink:href="#DejaVuSans-74" transform="translate(391.845703 0)"/>
     <use xlink:href="#DejaVuSans-69" transform="translate(431.054688 0)"/>
     <use xlink:href="#DejaVuSans-6f" transform="translate(458.837891 0)"/>
     <use xlink:href="#DejaVuSans-6e" transform="translate(520.019531 0)"/>
     <use xlink:href="#DejaVuSans-20" transform="translate(583.398438 0)"/>
     <use xlink:href="#DejaVuSans-6f" transform="translate(615.185547 0)"/>
     <use xlink:href="#DejaVuSans-66" transform="translate(676.367188 0)"/>
     <use xlink:href="#DejaVuSans-20" transform="translate(711.572266 0)"/>
     <use xlink:href="#DejaVuSans-48" transform="translate(743.359375 0)"/>
     <use xlink:href="#DejaVuSans-75" transform="translate(818.554688 0)"/>
     <use xlink:href="#DejaVuSans-6d" transform="translate(881.933594 0)"/>
     <use xlink:href="#DejaVuSans-61" transform="translate(979.345703 0)"/>
     <use xlink:href="#DejaVuSans-6e" transform="translate(1040.625 0)"/>
     <use xlink:href="#DejaVuSans-2d" transform="translate(1104.003906 0)"/>
     <use xlink:href="#DejaVuSans-54" transform="translate(1130.962891 0)"/>
     <use xlink:href="#DejaVuSans-72" transform="translate(1177.296875 0)"/>
     <use xlink:href="#DejaVuSans-69" transform="translate(1218.410156 0)"/>
     <use xlink:href="#DejaVuSans-70" transform="translate(1246.193359 0)"/>
     <use xlink:href="#DejaVuSans-6c" transform="translate(1309.669922 0)"/>
     <use xlink:href="#DejaVuSans-65" transform="translate(1337.453125 0)"/>
     <use xlink:href="#DejaVuSans-74" transform="translate(1398.976562 0)"/>
     <use xlink:href="#DejaVuSans-20" transform="translate(1438.185547 0)"/>
     <use xlink:href="#DejaVuSans-4d" transform="translate(1469.972656 0)"/>
     <use xlink:href="#DejaVuSans-61" transform="translate(1556.251953 0)"/>
     <use xlink:href="#DejaVuSans-72" transform="translate(1617.53125 0)"/>
     <use xlink:href="#DejaVuSans-67" transform="translate(1656.894531 0)"/>
     <use xlink:href="#DejaVuSans-69" transform="translate(1720.371094 0)"/>
     <use xlink:href="#DejaVuSans-6e" transform="translate(1748.154297 0)"/>
     <use xlink:href="#DejaVuSans-73" transform="translate(1811.533203 0)"/>
     <use xlink:href="#DejaVuSans-20" transform="translate(1863.632812 0)"/>
     <use xlink:href="#DejaVuSans-69" transform="translate(1895.419922 0)"/>
     <use xlink:href="#DejaVuSans-6e" transform="translate(1923.203125 0)"/>
     <use xlink:href="#DejaVuSans-20" transform="translate(1986.582031 0)"/>
     <use xlink:href="#DejaVuSans-45" transform="translate(2018.369141 0)"/>
     <use xlink:href="#DejaVuSans-6d" transform="translate(2081.552734 0)"/>
     <use xlink:href="#DejaVuSans-62" transform="translate(2178.964844 0)"/>
     <use xlink:href="#DejaVuSans-65" transform="translate(2242.441406 0)"/>
     <use xlink:href="#DejaVuSans-64" transform="translate(2303.964844 0)"/>
     <use xlink:href="#DejaVuSans-64" transform="translate(2367.441406 0)"/>
     <use xlink:href="#DejaVuSans-69" transform="translate(2430.917969 0)"/>
     <use xlink:href="#DejaVuSans-6e" transform="translate(2458.701172 0)"/>
     <use xlink:href="#DejaVuSans-67" transform="translate(2522.080078 0)"/>
     <use xlink:href="#DejaVuSans-20" transform="translate(2585.556641 0)"/>
     <use xlink:href="#DejaVuSans-53" transform="translate(2617.34375 0)"/>
     <use xlink:href="#DejaVuSans-70" transform="translate(2680.820312 0)"/>
     <use xlink:href="#DejaVuSans-61" transform="translate(2744.296875 0)"/>
     <use xlink:href="#DejaVuSans-63" transform="translate(2805.576172 0)"/>
     <use xlink:href="#DejaVuSans-65" transform="translate(2860.556641 0)"/>
    </g>
   </g>
  </g>
 </g>
 <defs>
  <clipPath id="p5ebe588da0">
   <rect x="101.899531" y="32.303947" width="430.492857" height="272.822743"/>
  </clipPath>
 </defs>
</svg>
