<?xml version="1.0" encoding="utf-8" standalone="no"?>
<!DOCTYPE svg PUBLIC "-//W3C//DTD SVG 1.1//EN"
  "http://www.w3.org/Graphics/SVG/1.1/DTD/svg11.dtd">
<svg xmlns:xlink="http://www.w3.org/1999/xlink" width="583.14808pt" height="316.763241pt" viewBox="0 0 583.14808 316.763241" xmlns="http://www.w3.org/2000/svg" version="1.1">
 <metadata>
  <rdf:RDF xmlns:dc="http://purl.org/dc/elements/1.1/" xmlns:cc="http://creativecommons.org/ns#" xmlns:rdf="http://www.w3.org/1999/02/22-rdf-syntax-ns#">
   <cc:Work>
    <dc:type rdf:resource="http://purl.org/dc/dcmitype/StillImage"/>
    <dc:date>2026-05-16T12:30:16.034606</dc:date>
    <dc:format>image/svg+xml</dc:format>
    <dc:creator>
     <cc:Agent>
      <dc:title>Matplotlib v3.8.2, https://matplotlib.org/</dc:title>
     </cc:Agent>
    </dc:creator>
   </cc:Work>
  </rdf:RDF>
 </metadata>
 <defs>
  <style type="text/css">*{stroke-linejoin: round; stroke-linecap: butt}</style>
 </defs>
 <g id="figure_1">
  <g id="patch_1">
   <path d="M 0 316.763241 
L 583.14808 316.763241 
L 583.14808 0 
L 0 0 
z
" style="fill: #fbfcfe"/>
  </g>
  <g id="axes_1">
   <g id="patch_2">
    <path d="M 38.690938 228.643336 
L 575.94808 228.643336 
L 575.94808 22.318125 
L 38.690938 22.318125 
z
" style="fill: #fbfcfe"/>
   </g>
   <g id="matplotlib.axis_1">
    <g id="xtick_1">
     <g id="line2d_1"/>
     <g id="text_1">
      <!-- Image-only -->
      <g style="fill: #475569" transform="translate(77.640586 238.98193) scale(0.09 -0.09)">
       <defs>
        <path id="DejaVuSans-49" d="M 628 4666 
L 1259 4666 
L 1259 0 
L 628 0 
L 628 4666 
z
" transform="scale(0.015625)"/>
        <path id="DejaVuSans-6d" d="M 3328 2828 
Q 3544 3216 3844 3400 
Q 4144 3584 4550 3584 
Q 5097 3584 5394 3201 
Q 5691 2819 5691 2113 
L 5691 0 
L 5113 0 
L 5113 2094 
Q 5113 2597 4934 2840 
Q 4756 3084 4391 3084 
Q 3944 3084 3684 2787 
Q 3425 2491 3425 1978 
L 3425 0 
L 2847 0 
L 2847 2094 
Q 2847 2600 2669 2842 
Q 2491 3084 2119 3084 
Q 1678 3084 1418 2786 
Q 1159 2488 1159 1978 
L 1159 0 
L 581 0 
L 581 3500 
L 1159 3500 
L 1159 2956 
Q 1356 3278 1631 3431 
Q 1906 3584 2284 3584 
Q 2666 3584 2933 3390 
Q 3200 3197 3328 2828 
z
" transform="scale(0.015625)"/>
        <path id="DejaVuSans-61" d="M 2194 1759 
Q 1497 1759 1228 1600 
Q 959 1441 959 1056 
Q 959 750 1161 570 
Q 1363 391 1709 391 
Q 2188 391 2477 730 
Q 2766 1069 2766 1631 
L 2766 1759 
L 2194 1759 
z
M 3341 1997 
L 3341 0 
L 2766 0 
L 2766 531 
Q 2569 213 2275 61 
Q 1981 -91 1556 -91 
Q 1019 -91 701 211 
Q 384 513 384 1019 
Q 384 1609 779 1909 
Q 1175 2209 1959 2209 
L 2766 2209 
L 2766 2266 
Q 2766 2663 2505 2880 
Q 2244 3097 1772 3097 
Q 1472 3097 1187 3025 
Q 903 2953 641 2809 
L 641 3341 
Q 956 3463 1253 3523 
Q 1550 3584 1831 3584 
Q 2591 3584 2966 3190 
Q 3341 2797 3341 1997 
z
" transform="scale(0.015625)"/>
        <path id="DejaVuSans-67" d="M 2906 1791 
Q 2906 2416 2648 2759 
Q 2391 3103 1925 3103 
Q 1463 3103 1205 2759 
Q 947 2416 947 1791 
Q 947 1169 1205 825 
Q 1463 481 1925 481 
Q 2391 481 2648 825 
Q 2906 1169 2906 1791 
z
M 3481 434 
Q 3481 -459 3084 -895 
Q 2688 -1331 1869 -1331 
Q 1566 -1331 1297 -1286 
Q 1028 -1241 775 -1147 
L 775 -588 
Q 1028 -725 1275 -790 
Q 1522 -856 1778 -856 
Q 2344 -856 2625 -561 
Q 2906 -266 2906 331 
L 2906 616 
Q 2728 306 2450 153 
Q 2172 0 1784 0 
Q 1141 0 747 490 
Q 353 981 353 1791 
Q 353 2603 747 3093 
Q 1141 3584 1784 3584 
Q 2172 3584 2450 3431 
Q 2728 3278 2906 2969 
L 2906 3500 
L 3481 3500 
L 3481 434 
z
" transform="scale(0.015625)"/>
        <path id="DejaVuSans-65" d="M 3597 1894 
L 3597 1613 
L 953 1613 
Q 991 1019 1311 708 
Q 1631 397 2203 397 
Q 2534 397 2845 478 
Q 3156 559 3463 722 
L 3463 178 
Q 3153 47 2828 -22 
Q 2503 -91 2169 -91 
Q 1331 -91 842 396 
Q 353 884 353 1716 
Q 353 2575 817 3079 
Q 1281 3584 2069 3584 
Q 2775 3584 3186 3129 
Q 3597 2675 3597 1894 
z
M 3022 2063 
Q 3016 2534 2758 2815 
Q 2500 3097 2075 3097 
Q 1594 3097 1305 2825 
Q 1016 2553 972 2059 
L 3022 2063 
z
" transform="scale(0.015625)"/>
        <path id="DejaVuSans-2d" d="M 313 2009 
L 1997 2009 
L 1997 1497 
L 313 1497 
L 313 2009 
z
" transform="scale(0.015625)"/>
        <path id="DejaVuSans-6f" d="M 1959 3097 
Q 1497 3097 1228 2736 
Q 959 2375 959 1747 
Q 959 1119 1226 758 
Q 1494 397 1959 397 
Q 2419 397 2687 759 
Q 2956 1122 2956 1747 
Q 2956 2369 2687 2733 
Q 2419 3097 1959 3097 
z
M 1959 3584 
Q 2709 3584 3137 3096 
Q 3566 2609 3566 1747 
Q 3566 888 3137 398 
Q 2709 -91 1959 -91 
Q 1206 -91 779 398 
Q 353 888 353 1747 
Q 353 2609 779 3096 
Q 1206 3584 1959 3584 
z
" transform="scale(0.015625)"/>
        <path id="DejaVuSans-6e" d="M 3513 2113 
L 3513 0 
L 2938 0 
L 2938 2094 
Q 2938 2591 2744 2837 
Q 2550 3084 2163 3084 
Q 1697 3084 1428 2787 
Q 1159 2491 1159 1978 
L 1159 0 
L 581 0 
L 581 3500 
L 1159 3500 
L 1159 2956 
Q 1366 3272 1645 3428 
Q 1925 3584 2291 3584 
Q 2894 3584 3203 3211 
Q 3513 2838 3513 2113 
z
" transform="scale(0.015625)"/>
        <path id="DejaVuSans-6c" d="M 603 4863 
L 1178 4863 
L 1178 0 
L 603 0 
L 603 4863 
z
" transform="scale(0.015625)"/>
        <path id="DejaVuSans-79" d="M 2059 -325 
Q 1816 -950 1584 -1140 
Q 1353 -1331 966 -1331 
L 506 -1331 
L 506 -850 
L 844 -850 
Q 1081 -850 1212 -737 
Q 1344 -625 1503 -206 
L 1606 56 
L 191 3500 
L 800 3500 
L 1894 763 
L 2988 3500 
L 3597 3500 
L 2059 -325 
z
" transform="scale(0.015625)"/>
       </defs>
       <use xlink:href="#DejaVuSans-49"/>
       <use xlink:href="#DejaVuSans-6d" x="29.492188"/>
       <use xlink:href="#DejaVuSans-61" x="126.904297"/>
       <use xlink:href="#DejaVuSans-67" x="188.183594"/>
       <use xlink:href="#DejaVuSans-65" x="251.660156"/>
       <use xlink:href="#DejaVuSans-2d" x="313.183594"/>
       <use xlink:href="#DejaVuSans-6f" x="351.142578"/>
       <use xlink:href="#DejaVuSans-6e" x="412.324219"/>
       <use xlink:href="#DejaVuSans-6c" x="475.703125"/>
       <use xlink:href="#DejaVuSans-79" x="503.486328"/>
      </g>
      <!-- classifier -->
      <g style="fill: #475569" transform="translate(83.087696 249.059961) scale(0.09 -0.09)">
       <defs>
        <path id="DejaVuSans-63" d="M 3122 3366 
L 3122 2828 
Q 2878 2963 2633 3030 
Q 2388 3097 2138 3097 
Q 1578 3097 1268 2742 
Q 959 2388 959 1747 
Q 959 1106 1268 751 
Q 1578 397 2138 397 
Q 2388 397 2633 464 
Q 2878 531 3122 666 
L 3122 134 
Q 2881 22 2623 -34 
Q 2366 -91 2075 -91 
Q 1284 -91 818 406 
Q 353 903 353 1747 
Q 353 2603 823 3093 
Q 1294 3584 2113 3584 
Q 2378 3584 2631 3529 
Q 2884 3475 3122 3366 
z
" transform="scale(0.015625)"/>
        <path id="DejaVuSans-73" d="M 2834 3397 
L 2834 2853 
Q 2591 2978 2328 3040 
Q 2066 3103 1784 3103 
Q 1356 3103 1142 2972 
Q 928 2841 928 2578 
Q 928 2378 1081 2264 
Q 1234 2150 1697 2047 
L 1894 2003 
Q 2506 1872 2764 1633 
Q 3022 1394 3022 966 
Q 3022 478 2636 193 
Q 2250 -91 1575 -91 
Q 1294 -91 989 -36 
Q 684 19 347 128 
L 347 722 
Q 666 556 975 473 
Q 1284 391 1588 391 
Q 1994 391 2212 530 
Q 2431 669 2431 922 
Q 2431 1156 2273 1281 
Q 2116 1406 1581 1522 
L 1381 1569 
Q 847 1681 609 1914 
Q 372 2147 372 2553 
Q 372 3047 722 3315 
Q 1072 3584 1716 3584 
Q 2034 3584 2315 3537 
Q 2597 3491 2834 3397 
z
" transform="scale(0.015625)"/>
        <path id="DejaVuSans-69" d="M 603 3500 
L 1178 3500 
L 1178 0 
L 603 0 
L 603 3500 
z
M 603 4863 
L 1178 4863 
L 1178 4134 
L 603 4134 
L 603 4863 
z
" transform="scale(0.015625)"/>
        <path id="DejaVuSans-66" d="M 2375 4863 
L 2375 4384 
L 1825 4384 
Q 1516 4384 1395 4259 
Q 1275 4134 1275 3809 
L 1275 3500 
L 2222 3500 
L 2222 3053 
L 1275 3053 
L 1275 0 
L 697 0 
L 697 3053 
L 147 3053 
L 147 3500 
L 697 3500 
L 697 3744 
Q 697 4328 969 4595 
Q 1241 4863 1831 4863 
L 2375 4863 
z
" transform="scale(0.015625)"/>
        <path id="DejaVuSans-72" d="M 2631 2963 
Q 2534 3019 2420 3045 
Q 2306 3072 2169 3072 
Q 1681 3072 1420 2755 
Q 1159 2438 1159 1844 
L 1159 0 
L 581 0 
L 581 3500 
L 1159 3500 
L 1159 2956 
Q 1341 3275 1631 3429 
Q 1922 3584 2338 3584 
Q 2397 3584 2469 3576 
Q 2541 3569 2628 3553 
L 2631 2963 
z
" transform="scale(0.015625)"/>
       </defs>
       <use xlink:href="#DejaVuSans-63"/>
       <use xlink:href="#DejaVuSans-6c" x="54.980469"/>
       <use xlink:href="#DejaVuSans-61" x="82.763672"/>
       <use xlink:href="#DejaVuSans-73" x="144.042969"/>
       <use xlink:href="#DejaVuSans-73" x="196.142578"/>
       <use xlink:href="#DejaVuSans-69" x="248.242188"/>
       <use xlink:href="#DejaVuSans-66" x="276.025391"/>
       <use xlink:href="#DejaVuSans-69" x="311.230469"/>
       <use xlink:href="#DejaVuSans-65" x="339.013672"/>
       <use xlink:href="#DejaVuSans-72" x="400.537109"/>
      </g>
     </g>
    </g>
    <g id="xtick_2">
     <g id="line2d_2"/>
     <g id="text_2">
      <!-- Fixed-prototype -->
      <g style="fill: #475569" transform="translate(169.92661 238.98193) scale(0.09 -0.09)">
       <defs>
        <path id="DejaVuSans-46" d="M 628 4666 
L 3309 4666 
L 3309 4134 
L 1259 4134 
L 1259 2759 
L 3109 2759 
L 3109 2228 
L 1259 2228 
L 1259 0 
L 628 0 
L 628 4666 
z
" transform="scale(0.015625)"/>
        <path id="DejaVuSans-78" d="M 3513 3500 
L 2247 1797 
L 3578 0 
L 2900 0 
L 1881 1375 
L 863 0 
L 184 0 
L 1544 1831 
L 300 3500 
L 978 3500 
L 1906 2253 
L 2834 3500 
L 3513 3500 
z
" transform="scale(0.015625)"/>
        <path id="DejaVuSans-64" d="M 2906 2969 
L 2906 4863 
L 3481 4863 
L 3481 0 
L 2906 0 
L 2906 525 
Q 2725 213 2448 61 
Q 2172 -91 1784 -91 
Q 1150 -91 751 415 
Q 353 922 353 1747 
Q 353 2572 751 3078 
Q 1150 3584 1784 3584 
Q 2172 3584 2448 3432 
Q 2725 3281 2906 2969 
z
M 947 1747 
Q 947 1113 1208 752 
Q 1469 391 1925 391 
Q 2381 391 2643 752 
Q 2906 1113 2906 1747 
Q 2906 2381 2643 2742 
Q 2381 3103 1925 3103 
Q 1469 3103 1208 2742 
Q 947 2381 947 1747 
z
" transform="scale(0.015625)"/>
        <path id="DejaVuSans-70" d="M 1159 525 
L 1159 -1331 
L 581 -1331 
L 581 3500 
L 1159 3500 
L 1159 2969 
Q 1341 3281 1617 3432 
Q 1894 3584 2278 3584 
Q 2916 3584 3314 3078 
Q 3713 2572 3713 1747 
Q 3713 922 3314 415 
Q 2916 -91 2278 -91 
Q 1894 -91 1617 61 
Q 1341 213 1159 525 
z
M 3116 1747 
Q 3116 2381 2855 2742 
Q 2594 3103 2138 3103 
Q 1681 3103 1420 2742 
Q 1159 2381 1159 1747 
Q 1159 1113 1420 752 
Q 1681 391 2138 391 
Q 2594 391 2855 752 
Q 3116 1113 3116 1747 
z
" transform="scale(0.015625)"/>
        <path id="DejaVuSans-74" d="M 1172 4494 
L 1172 3500 
L 2356 3500 
L 2356 3053 
L 1172 3053 
L 1172 1153 
Q 1172 725 1289 603 
Q 1406 481 1766 481 
L 2356 481 
L 2356 0 
L 1766 0 
Q 1100 0 847 248 
Q 594 497 594 1153 
L 594 3053 
L 172 3053 
L 172 3500 
L 594 3500 
L 594 4494 
L 1172 4494 
z
" transform="scale(0.015625)"/>
       </defs>
       <use xlink:href="#DejaVuSans-46"/>
       <use xlink:href="#DejaVuSans-69" x="50.269531"/>
       <use xlink:href="#DejaVuSans-78" x="78.052734"/>
       <use xlink:href="#DejaVuSans-65" x="134.107422"/>
       <use xlink:href="#DejaVuSans-64" x="195.630859"/>
       <use xlink:href="#DejaVuSans-2d" x="259.107422"/>
       <use xlink:href="#DejaVuSans-70" x="295.191406"/>
       <use xlink:href="#DejaVuSans-72" x="358.667969"/>
       <use xlink:href="#DejaVuSans-6f" x="397.53125"/>
       <use xlink:href="#DejaVuSans-74" x="458.712891"/>
       <use xlink:href="#DejaVuSans-6f" x="497.921875"/>
       <use xlink:href="#DejaVuSans-74" x="559.103516"/>
       <use xlink:href="#DejaVuSans-79" x="598.3125"/>
       <use xlink:href="#DejaVuSans-70" x="657.492188"/>
       <use xlink:href="#DejaVuSans-65" x="720.96875"/>
      </g>
      <!-- triplets -->
      <g style="fill: #475569" transform="translate(189.292079 249.059961) scale(0.09 -0.09)">
       <use xlink:href="#DejaVuSans-74"/>
       <use xlink:href="#DejaVuSans-72" x="39.208984"/>
       <use xlink:href="#DejaVuSans-69" x="80.322266"/>
       <use xlink:href="#DejaVuSans-70" x="108.105469"/>
       <use xlink:href="#DejaVuSans-6c" x="171.582031"/>
       <use xlink:href="#DejaVuSans-65" x="199.365234"/>
       <use xlink:href="#DejaVuSans-74" x="260.888672"/>
       <use xlink:href="#DejaVuSans-73" x="300.097656"/>
      </g>
     </g>
    </g>
    <g id="xtick_3">
     <g id="line2d_3"/>
     <g id="text_3">
      <!-- Fixed-prototype -->
      <g style="fill: #475569" transform="translate(272.105603 238.98193) scale(0.09 -0.09)">
       <use xlink:href="#DejaVuSans-46"/>
       <use xlink:href="#DejaVuSans-69" x="50.269531"/>
       <use xlink:href="#DejaVuSans-78" x="78.052734"/>
       <use xlink:href="#DejaVuSans-65" x="134.107422"/>
       <use xlink:href="#DejaVuSans-64" x="195.630859"/>
       <use xlink:href="#DejaVuSans-2d" x="259.107422"/>
       <use xlink:href="#DejaVuSans-70" x="295.191406"/>
       <use xlink:href="#DejaVuSans-72" x="358.667969"/>
       <use xlink:href="#DejaVuSans-6f" x="397.53125"/>
       <use xlink:href="#DejaVuSans-74" x="458.712891"/>
       <use xlink:href="#DejaVuSans-6f" x="497.921875"/>
       <use xlink:href="#DejaVuSans-74" x="559.103516"/>
       <use xlink:href="#DejaVuSans-79" x="598.3125"/>
       <use xlink:href="#DejaVuSans-70" x="657.492188"/>
       <use xlink:href="#DejaVuSans-65" x="720.96875"/>
      </g>
      <!-- control -->
      <g style="fill: #475569" transform="translate(291.723493 249.059961) scale(0.09 -0.09)">
       <use xlink:href="#DejaVuSans-63"/>
       <use xlink:href="#DejaVuSans-6f" x="54.980469"/>
       <use xlink:href="#DejaVuSans-6e" x="116.162109"/>
       <use xlink:href="#DejaVuSans-74" x="179.541016"/>
       <use xlink:href="#DejaVuSans-72" x="218.75"/>
       <use xlink:href="#DejaVuSans-6f" x="257.613281"/>
       <use xlink:href="#DejaVuSans-6c" x="318.794922"/>
      </g>
     </g>
    </g>
    <g id="xtick_4">
     <g id="line2d_4"/>
     <g id="text_4">
      <!-- Batch-prototype -->
      <g style="fill: #475569" transform="translate(373.00983 238.98193) scale(0.09 -0.09)">
       <defs>
        <path id="DejaVuSans-42" d="M 1259 2228 
L 1259 519 
L 2272 519 
Q 2781 519 3026 730 
Q 3272 941 3272 1375 
Q 3272 1813 3026 2020 
Q 2781 2228 2272 2228 
L 1259 2228 
z
M 1259 4147 
L 1259 2741 
L 2194 2741 
Q 2656 2741 2882 2914 
Q 3109 3088 3109 3444 
Q 3109 3797 2882 3972 
Q 2656 4147 2194 4147 
L 1259 4147 
z
M 628 4666 
L 2241 4666 
Q 2963 4666 3353 4366 
Q 3744 4066 3744 3513 
Q 3744 3084 3544 2831 
Q 3344 2578 2956 2516 
Q 3422 2416 3680 2098 
Q 3938 1781 3938 1306 
Q 3938 681 3513 340 
Q 3088 0 2303 0 
L 628 0 
L 628 4666 
z
" transform="scale(0.015625)"/>
        <path id="DejaVuSans-68" d="M 3513 2113 
L 3513 0 
L 2938 0 
L 2938 2094 
Q 2938 2591 2744 2837 
Q 2550 3084 2163 3084 
Q 1697 3084 1428 2787 
Q 1159 2491 1159 1978 
L 1159 0 
L 581 0 
L 581 4863 
L 1159 4863 
L 1159 2956 
Q 1366 3272 1645 3428 
Q 1925 3584 2291 3584 
Q 2894 3584 3203 3211 
Q 3513 2838 3513 2113 
z
" transform="scale(0.015625)"/>
       </defs>
       <use xlink:href="#DejaVuSans-42"/>
       <use xlink:href="#DejaVuSans-61" x="68.603516"/>
       <use xlink:href="#DejaVuSans-74" x="129.882812"/>
       <use xlink:href="#DejaVuSans-63" x="169.091797"/>
       <use xlink:href="#DejaVuSans-68" x="224.072266"/>
       <use xlink:href="#DejaVuSans-2d" x="287.451172"/>
       <use xlink:href="#DejaVuSans-70" x="323.535156"/>
       <use xlink:href="#DejaVuSans-72" x="387.011719"/>
       <use xlink:href="#DejaVuSans-6f" x="425.875"/>
       <use xlink:href="#DejaVuSans-74" x="487.056641"/>
       <use xlink:href="#DejaVuSans-6f" x="526.265625"/>
       <use xlink:href="#DejaVuSans-74" x="587.447266"/>
       <use xlink:href="#DejaVuSans-79" x="626.65625"/>
       <use xlink:href="#DejaVuSans-70" x="685.835938"/>
       <use xlink:href="#DejaVuSans-65" x="749.3125"/>
      </g>
      <!-- triplets -->
      <g style="fill: #475569" transform="translate(393.650064 249.059961) scale(0.09 -0.09)">
       <use xlink:href="#DejaVuSans-74"/>
       <use xlink:href="#DejaVuSans-72" x="39.208984"/>
       <use xlink:href="#DejaVuSans-69" x="80.322266"/>
       <use xlink:href="#DejaVuSans-70" x="108.105469"/>
       <use xlink:href="#DejaVuSans-6c" x="171.582031"/>
       <use xlink:href="#DejaVuSans-65" x="199.365234"/>
       <use xlink:href="#DejaVuSans-74" x="260.888672"/>
       <use xlink:href="#DejaVuSans-73" x="300.097656"/>
      </g>
     </g>
    </g>
    <g id="xtick_5">
     <g id="line2d_5"/>
     <g id="text_5">
      <!-- High-pressure -->
      <g style="fill: #475569" transform="translate(480.278744 238.98193) scale(0.09 -0.09)">
       <defs>
        <path id="DejaVuSans-48" d="M 628 4666 
L 1259 4666 
L 1259 2753 
L 3553 2753 
L 3553 4666 
L 4184 4666 
L 4184 0 
L 3553 0 
L 3553 2222 
L 1259 2222 
L 1259 0 
L 628 0 
L 628 4666 
z
" transform="scale(0.015625)"/>
        <path id="DejaVuSans-75" d="M 544 1381 
L 544 3500 
L 1119 3500 
L 1119 1403 
Q 1119 906 1312 657 
Q 1506 409 1894 409 
Q 2359 409 2629 706 
Q 2900 1003 2900 1516 
L 2900 3500 
L 3475 3500 
L 3475 0 
L 2900 0 
L 2900 538 
Q 2691 219 2414 64 
Q 2138 -91 1772 -91 
Q 1169 -91 856 284 
Q 544 659 544 1381 
z
M 1991 3584 
L 1991 3584 
z
" transform="scale(0.015625)"/>
       </defs>
       <use xlink:href="#DejaVuSans-48"/>
       <use xlink:href="#DejaVuSans-69" x="75.195312"/>
       <use xlink:href="#DejaVuSans-67" x="102.978516"/>
       <use xlink:href="#DejaVuSans-68" x="166.455078"/>
       <use xlink:href="#DejaVuSans-2d" x="229.833984"/>
       <use xlink:href="#DejaVuSans-70" x="265.917969"/>
       <use xlink:href="#DejaVuSans-72" x="329.394531"/>
       <use xlink:href="#DejaVuSans-65" x="368.257812"/>
       <use xlink:href="#DejaVuSans-73" x="429.78125"/>
       <use xlink:href="#DejaVuSans-73" x="481.880859"/>
       <use xlink:href="#DejaVuSans-75" x="533.980469"/>
       <use xlink:href="#DejaVuSans-72" x="597.359375"/>
       <use xlink:href="#DejaVuSans-65" x="636.222656"/>
      </g>
      <!-- triplets -->
      <g style="fill: #475569" transform="translate(495.829057 249.059961) scale(0.09 -0.09)">
       <use xlink:href="#DejaVuSans-74"/>
       <use xlink:href="#DejaVuSans-72" x="39.208984"/>
       <use xlink:href="#DejaVuSans-69" x="80.322266"/>
       <use xlink:href="#DejaVuSans-70" x="108.105469"/>
       <use xlink:href="#DejaVuSans-6c" x="171.582031"/>
       <use xlink:href="#DejaVuSans-65" x="199.365234"/>
       <use xlink:href="#DejaVuSans-74" x="260.888672"/>
       <use xlink:href="#DejaVuSans-73" x="300.097656"/>
      </g>
     </g>
    </g>
   </g>
   <g id="matplotlib.axis_2">
    <g id="ytick_1">
     <g id="line2d_6">
      <path d="M 38.690938 228.643336 
L 575.94808 228.643336 
" clip-path="url(#p9073139d96)" style="fill: none; stroke: #cbd5e1; stroke-opacity: 0.35; stroke-width: 0.8; stroke-linecap: square"/>
     </g>
     <g id="line2d_7"/>
     <g id="text_6">
      <!-- 0.0 -->
      <g style="fill: #475569" transform="translate(20.878125 232.062633) scale(0.09 -0.09)">
       <defs>
        <path id="DejaVuSans-30" d="M 2034 4250 
Q 1547 4250 1301 3770 
Q 1056 3291 1056 2328 
Q 1056 1369 1301 889 
Q 1547 409 2034 409 
Q 2525 409 2770 889 
Q 3016 1369 3016 2328 
Q 3016 3291 2770 3770 
Q 2525 4250 2034 4250 
z
M 2034 4750 
Q 2819 4750 3233 4129 
Q 3647 3509 3647 2328 
Q 3647 1150 3233 529 
Q 2819 -91 2034 -91 
Q 1250 -91 836 529 
Q 422 1150 422 2328 
Q 422 3509 836 4129 
Q 1250 4750 2034 4750 
z
" transform="scale(0.015625)"/>
        <path id="DejaVuSans-2e" d="M 684 794 
L 1344 794 
L 1344 0 
L 684 0 
L 684 794 
z
" transform="scale(0.015625)"/>
       </defs>
       <use xlink:href="#DejaVuSans-30"/>
       <use xlink:href="#DejaVuSans-2e" x="63.623047"/>
       <use xlink:href="#DejaVuSans-30" x="95.410156"/>
      </g>
     </g>
    </g>
    <g id="ytick_2">
     <g id="line2d_8">
      <path d="M 38.690938 187.378294 
L 575.94808 187.378294 
" clip-path="url(#p9073139d96)" style="fill: none; stroke: #cbd5e1; stroke-opacity: 0.35; stroke-width: 0.8; stroke-linecap: square"/>
     </g>
     <g id="line2d_9"/>
     <g id="text_7">
      <!-- 0.2 -->
      <g style="fill: #475569" transform="translate(20.878125 190.797591) scale(0.09 -0.09)">
       <defs>
        <path id="DejaVuSans-32" d="M 1228 531 
L 3431 531 
L 3431 0 
L 469 0 
L 469 531 
Q 828 903 1448 1529 
Q 2069 2156 2228 2338 
Q 2531 2678 2651 2914 
Q 2772 3150 2772 3378 
Q 2772 3750 2511 3984 
Q 2250 4219 1831 4219 
Q 1534 4219 1204 4116 
Q 875 4013 500 3803 
L 500 4441 
Q 881 4594 1212 4672 
Q 1544 4750 1819 4750 
Q 2544 4750 2975 4387 
Q 3406 4025 3406 3419 
Q 3406 3131 3298 2873 
Q 3191 2616 2906 2266 
Q 2828 2175 2409 1742 
Q 1991 1309 1228 531 
z
" transform="scale(0.015625)"/>
       </defs>
       <use xlink:href="#DejaVuSans-30"/>
       <use xlink:href="#DejaVuSans-2e" x="63.623047"/>
       <use xlink:href="#DejaVuSans-32" x="95.410156"/>
      </g>
     </g>
    </g>
    <g id="ytick_3">
     <g id="line2d_10">
      <path d="M 38.690938 146.113252 
L 575.94808 146.113252 
" clip-path="url(#p9073139d96)" style="fill: none; stroke: #cbd5e1; stroke-opacity: 0.35; stroke-width: 0.8; stroke-linecap: square"/>
     </g>
     <g id="line2d_11"/>
     <g id="text_8">
      <!-- 0.4 -->
      <g style="fill: #475569" transform="translate(20.878125 149.532549) scale(0.09 -0.09)">
       <defs>
        <path id="DejaVuSans-34" d="M 2419 4116 
L 825 1625 
L 2419 1625 
L 2419 4116 
z
M 2253 4666 
L 3047 4666 
L 3047 1625 
L 3713 1625 
L 3713 1100 
L 3047 1100 
L 3047 0 
L 2419 0 
L 2419 1100 
L 313 1100 
L 313 1709 
L 2253 4666 
z
" transform="scale(0.015625)"/>
       </defs>
       <use xlink:href="#DejaVuSans-30"/>
       <use xlink:href="#DejaVuSans-2e" x="63.623047"/>
       <use xlink:href="#DejaVuSans-34" x="95.410156"/>
      </g>
     </g>
    </g>
    <g id="ytick_4">
     <g id="line2d_12">
      <path d="M 38.690938 104.84821 
L 575.94808 104.84821 
" clip-path="url(#p9073139d96)" style="fill: none; stroke: #cbd5e1; stroke-opacity: 0.35; stroke-width: 0.8; stroke-linecap: square"/>
     </g>
     <g id="line2d_13"/>
     <g id="text_9">
      <!-- 0.6 -->
      <g style="fill: #475569" transform="translate(20.878125 108.267506) scale(0.09 -0.09)">
       <defs>
        <path id="DejaVuSans-36" d="M 2113 2584 
Q 1688 2584 1439 2293 
Q 1191 2003 1191 1497 
Q 1191 994 1439 701 
Q 1688 409 2113 409 
Q 2538 409 2786 701 
Q 3034 994 3034 1497 
Q 3034 2003 2786 2293 
Q 2538 2584 2113 2584 
z
M 3366 4563 
L 3366 3988 
Q 3128 4100 2886 4159 
Q 2644 4219 2406 4219 
Q 1781 4219 1451 3797 
Q 1122 3375 1075 2522 
Q 1259 2794 1537 2939 
Q 1816 3084 2150 3084 
Q 2853 3084 3261 2657 
Q 3669 2231 3669 1497 
Q 3669 778 3244 343 
Q 2819 -91 2113 -91 
Q 1303 -91 875 529 
Q 447 1150 447 2328 
Q 447 3434 972 4092 
Q 1497 4750 2381 4750 
Q 2619 4750 2861 4703 
Q 3103 4656 3366 4563 
z
" transform="scale(0.015625)"/>
       </defs>
       <use xlink:href="#DejaVuSans-30"/>
       <use xlink:href="#DejaVuSans-2e" x="63.623047"/>
       <use xlink:href="#DejaVuSans-36" x="95.410156"/>
      </g>
     </g>
    </g>
    <g id="ytick_5">
     <g id="line2d_14">
      <path d="M 38.690938 63.583167 
L 575.94808 63.583167 
" clip-path="url(#p9073139d96)" style="fill: none; stroke: #cbd5e1; stroke-opacity: 0.35; stroke-width: 0.8; stroke-linecap: square"/>
     </g>
     <g id="line2d_15"/>
     <g id="text_10">
      <!-- 0.8 -->
      <g style="fill: #475569" transform="translate(20.878125 67.002464) scale(0.09 -0.09)">
       <defs>
        <path id="DejaVuSans-38" d="M 2034 2216 
Q 1584 2216 1326 1975 
Q 1069 1734 1069 1313 
Q 1069 891 1326 650 
Q 1584 409 2034 409 
Q 2484 409 2743 651 
Q 3003 894 3003 1313 
Q 3003 1734 2745 1975 
Q 2488 2216 2034 2216 
z
M 1403 2484 
Q 997 2584 770 2862 
Q 544 3141 544 3541 
Q 544 4100 942 4425 
Q 1341 4750 2034 4750 
Q 2731 4750 3128 4425 
Q 3525 4100 3525 3541 
Q 3525 3141 3298 2862 
Q 3072 2584 2669 2484 
Q 3125 2378 3379 2068 
Q 3634 1759 3634 1313 
Q 3634 634 3220 271 
Q 2806 -91 2034 -91 
Q 1263 -91 848 271 
Q 434 634 434 1313 
Q 434 1759 690 2068 
Q 947 2378 1403 2484 
z
M 1172 3481 
Q 1172 3119 1398 2916 
Q 1625 2713 2034 2713 
Q 2441 2713 2670 2916 
Q 2900 3119 2900 3481 
Q 2900 3844 2670 4047 
Q 2441 4250 2034 4250 
Q 1625 4250 1398 4047 
Q 1172 3844 1172 3481 
z
" transform="scale(0.015625)"/>
       </defs>
       <use xlink:href="#DejaVuSans-30"/>
       <use xlink:href="#DejaVuSans-2e" x="63.623047"/>
       <use xlink:href="#DejaVuSans-38" x="95.410156"/>
      </g>
     </g>
    </g>
    <g id="ytick_6">
     <g id="line2d_16">
      <path d="M 38.690938 22.318125 
L 575.94808 22.318125 
" clip-path="url(#p9073139d96)" style="fill: none; stroke: #cbd5e1; stroke-opacity: 0.35; stroke-width: 0.8; stroke-linecap: square"/>
     </g>
     <g id="line2d_17"/>
     <g id="text_11">
      <!-- 1.0 -->
      <g style="fill: #475569" transform="translate(20.878125 25.737422) scale(0.09 -0.09)">
       <defs>
        <path id="DejaVuSans-31" d="M 794 531 
L 1825 531 
L 1825 4091 
L 703 3866 
L 703 4441 
L 1819 4666 
L 2450 4666 
L 2450 531 
L 3481 531 
L 3481 0 
L 794 0 
L 794 531 
z
" transform="scale(0.015625)"/>
       </defs>
       <use xlink:href="#DejaVuSans-31"/>
       <use xlink:href="#DejaVuSans-2e" x="63.623047"/>
       <use xlink:href="#DejaVuSans-30" x="95.410156"/>
      </g>
     </g>
    </g>
    <g id="text_12">
     <!-- triplet satisfaction rate -->
     <g style="fill: #475569" transform="translate(14.798438 182.593231) rotate(-90) scale(0.1 -0.1)">
      <defs>
       <path id="DejaVuSans-20" transform="scale(0.015625)"/>
      </defs>
      <use xlink:href="#DejaVuSans-74"/>
      <use xlink:href="#DejaVuSans-72" x="39.208984"/>
      <use xlink:href="#DejaVuSans-69" x="80.322266"/>
      <use xlink:href="#DejaVuSans-70" x="108.105469"/>
      <use xlink:href="#DejaVuSans-6c" x="171.582031"/>
      <use xlink:href="#DejaVuSans-65" x="199.365234"/>
      <use xlink:href="#DejaVuSans-74" x="260.888672"/>
      <use xlink:href="#DejaVuSans-20" x="300.097656"/>
      <use xlink:href="#DejaVuSans-73" x="331.884766"/>
      <use xlink:href="#DejaVuSans-61" x="383.984375"/>
      <use xlink:href="#DejaVuSans-74" x="445.263672"/>
      <use xlink:href="#DejaVuSans-69" x="484.472656"/>
      <use xlink:href="#DejaVuSans-73" x="512.255859"/>
      <use xlink:href="#DejaVuSans-66" x="564.355469"/>
      <use xlink:href="#DejaVuSans-61" x="599.560547"/>
      <use xlink:href="#DejaVuSans-63" x="660.839844"/>
      <use xlink:href="#DejaVuSans-74" x="715.820312"/>
      <use xlink:href="#DejaVuSans-69" x="755.029297"/>
      <use xlink:href="#DejaVuSans-6f" x="782.8125"/>
      <use xlink:href="#DejaVuSans-6e" x="843.994141"/>
      <use xlink:href="#DejaVuSans-20" x="907.373047"/>
      <use xlink:href="#DejaVuSans-72" x="939.160156"/>
      <use xlink:href="#DejaVuSans-61" x="980.273438"/>
      <use xlink:href="#DejaVuSans-74" x="1041.552734"/>
      <use xlink:href="#DejaVuSans-65" x="1080.761719"/>
     </g>
    </g>
   </g>
   <g id="patch_3">
    <path d="M 63.111717 228.643336 
L 89.678255 228.643336 
L 89.678255 52.931934 
L 63.111717 52.931934 
z
" clip-path="url(#p9073139d96)" style="fill: #4b5563; opacity: 0.92"/>
   </g>
   <g id="patch_4">
    <path d="M 165.290709 228.643336 
L 191.857247 228.643336 
L 191.857247 56.53873 
L 165.290709 56.53873 
z
" clip-path="url(#p9073139d96)" style="fill: #2563eb; opacity: 0.92"/>
   </g>
   <g id="patch_5">
    <path d="M 267.469702 228.643336 
L 294.03624 228.643336 
L 294.03624 56.805262 
L 267.469702 56.805262 
z
" clip-path="url(#p9073139d96)" style="fill: #b8c0cc; opacity: 0.92"/>
   </g>
   <g id="patch_6">
    <path d="M 369.648694 228.643336 
L 396.215232 228.643336 
L 396.215232 55.339062 
L 369.648694 55.339062 
z
" clip-path="url(#p9073139d96)" style="fill: #059669; opacity: 0.92"/>
   </g>
   <g id="patch_7">
    <path d="M 471.827687 228.643336 
L 498.394225 228.643336 
L 498.394225 49.919408 
L 471.827687 49.919408 
z
" clip-path="url(#p9073139d96)" style="fill: #dc2626; opacity: 0.92"/>
   </g>
   <g id="patch_8">
    <path d="M 89.678255 228.643336 
L 116.244793 228.643336 
L 116.244793 167.632727 
L 89.678255 167.632727 
z
" clip-path="url(#p9073139d96)" style="fill: #111827; opacity: 0.72"/>
   </g>
   <g id="patch_9">
    <path d="M 191.857247 228.643336 
L 218.423785 228.643336 
L 218.423785 172.243884 
L 191.857247 172.243884 
z
" clip-path="url(#p9073139d96)" style="fill: #111827; opacity: 0.72"/>
   </g>
   <g id="patch_10">
    <path d="M 294.03624 228.643336 
L 320.602778 228.643336 
L 320.602778 172.538793 
L 294.03624 172.538793 
z
" clip-path="url(#p9073139d96)" style="fill: #111827; opacity: 0.72"/>
   </g>
   <g id="patch_11">
    <path d="M 396.215232 228.643336 
L 422.781771 228.643336 
L 422.781771 169.664818 
L 396.215232 169.664818 
z
" clip-path="url(#p9073139d96)" style="fill: #111827; opacity: 0.72"/>
   </g>
   <g id="patch_12">
    <path d="M 498.394225 228.643336 
L 524.960763 228.643336 
L 524.960763 161.991613 
L 498.394225 161.991613 
z
" clip-path="url(#p9073139d96)" style="fill: #111827; opacity: 0.72"/>
   </g>
   <g id="patch_13">
    <path d="M 116.244793 228.643336 
L 142.811331 228.643336 
L 142.811331 118.776274 
L 116.244793 118.776274 
z
" clip-path="url(#p9073139d96)" style="fill: #d1d5db; opacity: 0.95; stroke: #9ca3af; stroke-linejoin: miter"/>
   </g>
   <g id="patch_14">
    <path d="M 218.423785 228.643336 
L 244.990323 228.643336 
L 244.990323 118.645513 
L 218.423785 118.645513 
z
" clip-path="url(#p9073139d96)" style="fill: #d1d5db; opacity: 0.95; stroke: #9ca3af; stroke-linejoin: miter"/>
   </g>
   <g id="patch_15">
    <path d="M 320.602778 228.643336 
L 347.169316 228.643336 
L 347.169316 118.651633 
L 320.602778 118.651633 
z
" clip-path="url(#p9073139d96)" style="fill: #d1d5db; opacity: 0.95; stroke: #9ca3af; stroke-linejoin: miter"/>
   </g>
   <g id="patch_16">
    <path d="M 422.781771 228.643336 
L 449.348309 228.643336 
L 449.348309 118.567612 
L 422.781771 118.567612 
z
" clip-path="url(#p9073139d96)" style="fill: #d1d5db; opacity: 0.95; stroke: #9ca3af; stroke-linejoin: miter"/>
   </g>
   <g id="patch_17">
    <path d="M 524.960763 228.643336 
L 551.527301 228.643336 
L 551.527301 118.617134 
L 524.960763 118.617134 
z
" clip-path="url(#p9073139d96)" style="fill: #d1d5db; opacity: 0.95; stroke: #9ca3af; stroke-linejoin: miter"/>
   </g>
   <g id="text_13">
    <!-- Human Triplet Satisfaction in Concept Embedding Space -->
    <g style="fill: #111827" transform="translate(137.991071 16.318125) scale(0.12 -0.12)">
     <defs>
      <path id="DejaVuSans-54" d="M -19 4666 
L 3928 4666 
L 3928 4134 
L 2272 4134 
L 2272 0 
L 1638 0 
L 1638 4134 
L -19 4134 
L -19 4666 
z
" transform="scale(0.015625)"/>
      <path id="DejaVuSans-53" d="M 3425 4513 
L 3425 3897 
Q 3066 4069 2747 4153 
Q 2428 4238 2131 4238 
Q 1616 4238 1336 4038 
Q 1056 3838 1056 3469 
Q 1056 3159 1242 3001 
Q 1428 2844 1947 2747 
L 2328 2669 
Q 3034 2534 3370 2195 
Q 3706 1856 3706 1288 
Q 3706 609 3251 259 
Q 2797 -91 1919 -91 
Q 1588 -91 1214 -16 
Q 841 59 441 206 
L 441 856 
Q 825 641 1194 531 
Q 1563 422 1919 422 
Q 2459 422 2753 634 
Q 3047 847 3047 1241 
Q 3047 1584 2836 1778 
Q 2625 1972 2144 2069 
L 1759 2144 
Q 1053 2284 737 2584 
Q 422 2884 422 3419 
Q 422 4038 858 4394 
Q 1294 4750 2059 4750 
Q 2388 4750 2728 4690 
Q 3069 4631 3425 4513 
z
" transform="scale(0.015625)"/>
      <path id="DejaVuSans-43" d="M 4122 4306 
L 4122 3641 
Q 3803 3938 3442 4084 
Q 3081 4231 2675 4231 
Q 1875 4231 1450 3742 
Q 1025 3253 1025 2328 
Q 1025 1406 1450 917 
Q 1875 428 2675 428 
Q 3081 428 3442 575 
Q 3803 722 4122 1019 
L 4122 359 
Q 3791 134 3420 21 
Q 3050 -91 2638 -91 
Q 1578 -91 968 557 
Q 359 1206 359 2328 
Q 359 3453 968 4101 
Q 1578 4750 2638 4750 
Q 3056 4750 3426 4639 
Q 3797 4528 4122 4306 
z
" transform="scale(0.015625)"/>
      <path id="DejaVuSans-45" d="M 628 4666 
L 3578 4666 
L 3578 4134 
L 1259 4134 
L 1259 2753 
L 3481 2753 
L 3481 2222 
L 1259 2222 
L 1259 531 
L 3634 531 
L 3634 0 
L 628 0 
L 628 4666 
z
" transform="scale(0.015625)"/>
      <path id="DejaVuSans-62" d="M 3116 1747 
Q 3116 2381 2855 2742 
Q 2594 3103 2138 3103 
Q 1681 3103 1420 2742 
Q 1159 2381 1159 1747 
Q 1159 1113 1420 752 
Q 1681 391 2138 391 
Q 2594 391 2855 752 
Q 3116 1113 3116 1747 
z
M 1159 2969 
Q 1341 3281 1617 3432 
Q 1894 3584 2278 3584 
Q 2916 3584 3314 3078 
Q 3713 2572 3713 1747 
Q 3713 922 3314 415 
Q 2916 -91 2278 -91 
Q 1894 -91 1617 61 
Q 1341 213 1159 525 
L 1159 0 
L 581 0 
L 581 4863 
L 1159 4863 
L 1159 2969 
z
" transform="scale(0.015625)"/>
     </defs>
     <use xlink:href="#DejaVuSans-48"/>
     <use xlink:href="#DejaVuSans-75" x="75.195312"/>
     <use xlink:href="#DejaVuSans-6d" x="138.574219"/>
     <use xlink:href="#DejaVuSans-61" x="235.986328"/>
     <use xlink:href="#DejaVuSans-6e" x="297.265625"/>
     <use xlink:href="#DejaVuSans-20" x="360.644531"/>
     <use xlink:href="#DejaVuSans-54" x="392.431641"/>
     <use xlink:href="#DejaVuSans-72" x="438.765625"/>
     <use xlink:href="#DejaVuSans-69" x="479.878906"/>
     <use xlink:href="#DejaVuSans-70" x="507.662109"/>
     <use xlink:href="#DejaVuSans-6c" x="571.138672"/>
     <use xlink:href="#DejaVuSans-65" x="598.921875"/>
     <use xlink:href="#DejaVuSans-74" x="660.445312"/>
     <use xlink:href="#DejaVuSans-20" x="699.654297"/>
     <use xlink:href="#DejaVuSans-53" x="731.441406"/>
     <use xlink:href="#DejaVuSans-61" x="794.917969"/>
     <use xlink:href="#DejaVuSans-74" x="856.197266"/>
     <use xlink:href="#DejaVuSans-69" x="895.40625"/>
     <use xlink:href="#DejaVuSans-73" x="923.189453"/>
     <use xlink:href="#DejaVuSans-66" x="975.289062"/>
     <use xlink:href="#DejaVuSans-61" x="1010.494141"/>
     <use xlink:href="#DejaVuSans-63" x="1071.773438"/>
     <use xlink:href="#DejaVuSans-74" x="1126.753906"/>
     <use xlink:href="#DejaVuSans-69" x="1165.962891"/>
     <use xlink:href="#DejaVuSans-6f" x="1193.746094"/>
     <use xlink:href="#DejaVuSans-6e" x="1254.927734"/>
     <use xlink:href="#DejaVuSans-20" x="1318.306641"/>
     <use xlink:href="#DejaVuSans-69" x="1350.09375"/>
     <use xlink:href="#DejaVuSans-6e" x="1377.876953"/>
     <use xlink:href="#DejaVuSans-20" x="1441.255859"/>
     <use xlink:href="#DejaVuSans-43" x="1473.042969"/>
     <use xlink:href="#DejaVuSans-6f" x="1542.867188"/>
     <use xlink:href="#DejaVuSans-6e" x="1604.048828"/>
     <use xlink:href="#DejaVuSans-63" x="1667.427734"/>
     <use xlink:href="#DejaVuSans-65" x="1722.408203"/>
     <use xlink:href="#DejaVuSans-70" x="1783.931641"/>
     <use xlink:href="#DejaVuSans-74" x="1847.408203"/>
     <use xlink:href="#DejaVuSans-20" x="1886.617188"/>
     <use xlink:href="#DejaVuSans-45" x="1918.404297"/>
     <use xlink:href="#DejaVuSans-6d" x="1981.587891"/>
     <use xlink:href="#DejaVuSans-62" x="2079"/>
     <use xlink:href="#DejaVuSans-65" x="2142.476562"/>
     <use xlink:href="#DejaVuSans-64" x="2204"/>
     <use xlink:href="#DejaVuSans-64" x="2267.476562"/>
     <use xlink:href="#DejaVuSans-69" x="2330.953125"/>
     <use xlink:href="#DejaVuSans-6e" x="2358.736328"/>
     <use xlink:href="#DejaVuSans-67" x="2422.115234"/>
     <use xlink:href="#DejaVuSans-20" x="2485.591797"/>
     <use xlink:href="#DejaVuSans-53" x="2517.378906"/>
     <use xlink:href="#DejaVuSans-70" x="2580.855469"/>
     <use xlink:href="#DejaVuSans-61" x="2644.332031"/>
     <use xlink:href="#DejaVuSans-63" x="2705.611328"/>
     <use xlink:href="#DejaVuSans-65" x="2760.591797"/>
    </g>
   </g>
   <g id="legend_1">
    <g id="patch_18">
     <path d="M 210.217946 274.127304 
L 230.217946 274.127304 
L 230.217946 267.127304 
L 210.217946 267.127304 
z
" style="fill: #4b5563; opacity: 0.92"/>
    </g>
    <g id="text_14">
     <!-- real triplets: sim(pos) &gt; sim(neg) -->
     <g style="fill: #111827" transform="translate(238.217946 274.127304) scale(0.1 -0.1)">
      <defs>
       <path id="DejaVuSans-3a" d="M 750 794 
L 1409 794 
L 1409 0 
L 750 0 
L 750 794 
z
M 750 3309 
L 1409 3309 
L 1409 2516 
L 750 2516 
L 750 3309 
z
" transform="scale(0.015625)"/>
       <path id="DejaVuSans-28" d="M 1984 4856 
Q 1566 4138 1362 3434 
Q 1159 2731 1159 2009 
Q 1159 1288 1364 580 
Q 1569 -128 1984 -844 
L 1484 -844 
Q 1016 -109 783 600 
Q 550 1309 550 2009 
Q 550 2706 781 3412 
Q 1013 4119 1484 4856 
L 1984 4856 
z
" transform="scale(0.015625)"/>
       <path id="DejaVuSans-29" d="M 513 4856 
L 1013 4856 
Q 1481 4119 1714 3412 
Q 1947 2706 1947 2009 
Q 1947 1309 1714 600 
Q 1481 -109 1013 -844 
L 513 -844 
Q 928 -128 1133 580 
Q 1338 1288 1338 2009 
Q 1338 2731 1133 3434 
Q 928 4138 513 4856 
z
" transform="scale(0.015625)"/>
       <path id="DejaVuSans-3e" d="M 678 3150 
L 678 3719 
L 4684 2266 
L 4684 1747 
L 678 294 
L 678 863 
L 3897 2003 
L 678 3150 
z
" transform="scale(0.015625)"/>
      </defs>
      <use xlink:href="#DejaVuSans-72"/>
      <use xlink:href="#DejaVuSans-65" x="38.863281"/>
      <use xlink:href="#DejaVuSans-61" x="100.386719"/>
      <use xlink:href="#DejaVuSans-6c" x="161.666016"/>
      <use xlink:href="#DejaVuSans-20" x="189.449219"/>
      <use xlink:href="#DejaVuSans-74" x="221.236328"/>
      <use xlink:href="#DejaVuSans-72" x="260.445312"/>
      <use xlink:href="#DejaVuSans-69" x="301.558594"/>
      <use xlink:href="#DejaVuSans-70" x="329.341797"/>
      <use xlink:href="#DejaVuSans-6c" x="392.818359"/>
      <use xlink:href="#DejaVuSans-65" x="420.601562"/>
      <use xlink:href="#DejaVuSans-74" x="482.125"/>
      <use xlink:href="#DejaVuSans-73" x="521.333984"/>
      <use xlink:href="#DejaVuSans-3a" x="573.433594"/>
      <use xlink:href="#DejaVuSans-20" x="607.125"/>
      <use xlink:href="#DejaVuSans-73" x="638.912109"/>
      <use xlink:href="#DejaVuSans-69" x="691.011719"/>
      <use xlink:href="#DejaVuSans-6d" x="718.794922"/>
      <use xlink:href="#DejaVuSans-28" x="816.207031"/>
      <use xlink:href="#DejaVuSans-70" x="855.220703"/>
      <use xlink:href="#DejaVuSans-6f" x="918.697266"/>
      <use xlink:href="#DejaVuSans-73" x="979.878906"/>
      <use xlink:href="#DejaVuSans-29" x="1031.978516"/>
      <use xlink:href="#DejaVuSans-20" x="1070.992188"/>
      <use xlink:href="#DejaVuSans-3e" x="1102.779297"/>
      <use xlink:href="#DejaVuSans-20" x="1186.568359"/>
      <use xlink:href="#DejaVuSans-73" x="1218.355469"/>
      <use xlink:href="#DejaVuSans-69" x="1270.455078"/>
      <use xlink:href="#DejaVuSans-6d" x="1298.238281"/>
      <use xlink:href="#DejaVuSans-28" x="1395.650391"/>
      <use xlink:href="#DejaVuSans-6e" x="1434.664062"/>
      <use xlink:href="#DejaVuSans-65" x="1498.042969"/>
      <use xlink:href="#DejaVuSans-67" x="1559.566406"/>
      <use xlink:href="#DejaVuSans-29" x="1623.042969"/>
     </g>
    </g>
    <g id="patch_19">
     <path d="M 210.217946 288.805429 
L 230.217946 288.805429 
L 230.217946 281.805429 
L 210.217946 281.805429 
z
" style="fill: #111827; opacity: 0.72"/>
    </g>
    <g id="text_15">
     <!-- real triplets: margin &gt;= 0.2 -->
     <g style="fill: #111827" transform="translate(238.217946 288.805429) scale(0.1 -0.1)">
      <defs>
       <path id="DejaVuSans-3d" d="M 678 2906 
L 4684 2906 
L 4684 2381 
L 678 2381 
L 678 2906 
z
M 678 1631 
L 4684 1631 
L 4684 1100 
L 678 1100 
L 678 1631 
z
" transform="scale(0.015625)"/>
      </defs>
      <use xlink:href="#DejaVuSans-72"/>
      <use xlink:href="#DejaVuSans-65" x="38.863281"/>
      <use xlink:href="#DejaVuSans-61" x="100.386719"/>
      <use xlink:href="#DejaVuSans-6c" x="161.666016"/>
      <use xlink:href="#DejaVuSans-20" x="189.449219"/>
      <use xlink:href="#DejaVuSans-74" x="221.236328"/>
      <use xlink:href="#DejaVuSans-72" x="260.445312"/>
      <use xlink:href="#DejaVuSans-69" x="301.558594"/>
      <use xlink:href="#DejaVuSans-70" x="329.341797"/>
      <use xlink:href="#DejaVuSans-6c" x="392.818359"/>
      <use xlink:href="#DejaVuSans-65" x="420.601562"/>
      <use xlink:href="#DejaVuSans-74" x="482.125"/>
      <use xlink:href="#DejaVuSans-73" x="521.333984"/>
      <use xlink:href="#DejaVuSans-3a" x="573.433594"/>
      <use xlink:href="#DejaVuSans-20" x="607.125"/>
      <use xlink:href="#DejaVuSans-6d" x="638.912109"/>
      <use xlink:href="#DejaVuSans-61" x="736.324219"/>
      <use xlink:href="#DejaVuSans-72" x="797.603516"/>
      <use xlink:href="#DejaVuSans-67" x="836.966797"/>
      <use xlink:href="#DejaVuSans-69" x="900.443359"/>
      <use xlink:href="#DejaVuSans-6e" x="928.226562"/>
      <use xlink:href="#DejaVuSans-20" x="991.605469"/>
      <use xlink:href="#DejaVuSans-3e" x="1023.392578"/>
      <use xlink:href="#DejaVuSans-3d" x="1107.181641"/>
      <use xlink:href="#DejaVuSans-20" x="1190.970703"/>
      <use xlink:href="#DejaVuSans-30" x="1222.757812"/>
      <use xlink:href="#DejaVuSans-2e" x="1286.380859"/>
      <use xlink:href="#DejaVuSans-32" x="1318.167969"/>
     </g>
    </g>
    <g id="patch_20">
     <path d="M 210.217946 303.483554 
L 230.217946 303.483554 
L 230.217946 296.483554 
L 210.217946 296.483554 
z
" style="fill: #d1d5db; opacity: 0.95; stroke: #9ca3af; stroke-linejoin: miter"/>
    </g>
    <g id="text_16">
     <!-- shuffled triplets -->
     <g style="fill: #111827" transform="translate(238.217946 303.483554) scale(0.1 -0.1)">
      <use xlink:href="#DejaVuSans-73"/>
      <use xlink:href="#DejaVuSans-68" x="52.099609"/>
      <use xlink:href="#DejaVuSans-75" x="115.478516"/>
      <use xlink:href="#DejaVuSans-66" x="178.857422"/>
      <use xlink:href="#DejaVuSans-66" x="214.0625"/>
      <use xlink:href="#DejaVuSans-6c" x="249.267578"/>
      <use xlink:href="#DejaVuSans-65" x="277.050781"/>
      <use xlink:href="#DejaVuSans-64" x="338.574219"/>
      <use xlink:href="#DejaVuSans-20" x="402.050781"/>
      <use xlink:href="#DejaVuSans-74" x="433.837891"/>
      <use xlink:href="#DejaVuSans-72" x="473.046875"/>
      <use xlink:href="#DejaVuSans-69" x="514.160156"/>
      <use xlink:href="#DejaVuSans-70" x="541.943359"/>
      <use xlink:href="#DejaVuSans-6c" x="605.419922"/>
      <use xlink:href="#DejaVuSans-65" x="633.203125"/>
      <use xlink:href="#DejaVuSans-74" x="694.726562"/>
      <use xlink:href="#DejaVuSans-73" x="733.935547"/>
     </g>
    </g>
   </g>
  </g>
 </g>
 <defs>
  <clipPath id="p9073139d96">
   <rect x="38.690938" y="22.318125" width="537.257143" height="206.325211"/>
  </clipPath>
 </defs>
</svg>
