<?xml version="1.0" encoding="utf-8" standalone="no"?>
<!DOCTYPE svg PUBLIC "-//W3C//DTD SVG 1.1//EN"
  "http://www.w3.org/Graphics/SVG/1.1/DTD/svg11.dtd">
<svg xmlns:xlink="http://www.w3.org/1999/xlink" width="583.111518pt" height="332.182319pt" viewBox="0 0 583.111518 332.182319" xmlns="http://www.w3.org/2000/svg" version="1.1">
 <metadata>
  <rdf:RDF xmlns:dc="http://purl.org/dc/elements/1.1/" xmlns:cc="http://creativecommons.org/ns#" xmlns:rdf="http://www.w3.org/1999/02/22-rdf-syntax-ns#">
   <cc:Work>
    <dc:type rdf:resource="http://purl.org/dc/dcmitype/StillImage"/>
    <dc:date>2026-05-16T12:30:11.753057</dc:date>
    <dc:format>image/svg+xml</dc:format>
    <dc:creator>
     <cc:Agent>
      <dc:title>Matplotlib v3.8.2, https://matplotlib.org/</dc:title>
     </cc:Agent>
    </dc:creator>
   </cc:Work>
  </rdf:RDF>
 </metadata>
 <defs>
  <style type="text/css">*{stroke-linejoin: round; stroke-linecap: butt}</style>
 </defs>
 <g id="figure_1">
  <g id="patch_1">
   <path d="M 0 332.182319 
L 583.111518 332.182319 
L 583.111518 0 
L 0 0 
z
" style="fill: #fbfcfe"/>
  </g>
  <g id="axes_1">
   <g id="patch_2">
    <path d="M 30.104375 222.277188 
L 575.911518 222.277188 
L 575.911518 22.318125 
L 30.104375 22.318125 
z
" style="fill: #fbfcfe"/>
   </g>
   <g id="matplotlib.axis_1">
    <g id="xtick_1">
     <g id="line2d_1"/>
     <g id="text_1">
      <!-- top-1 -->
      <g style="fill: #475569" transform="translate(31.982207 240.316776) rotate(-20) scale(0.09 -0.09)">
       <defs>
        <path id="DejaVuSans-74" d="M 1172 4494 
L 1172 3500 
L 2356 3500 
L 2356 3053 
L 1172 3053 
L 1172 1153 
Q 1172 725 1289 603 
Q 1406 481 1766 481 
L 2356 481 
L 2356 0 
L 1766 0 
Q 1100 0 847 248 
Q 594 497 594 1153 
L 594 3053 
L 172 3053 
L 172 3500 
L 594 3500 
L 594 4494 
L 1172 4494 
z
" transform="scale(0.015625)"/>
        <path id="DejaVuSans-6f" d="M 1959 3097 
Q 1497 3097 1228 2736 
Q 959 2375 959 1747 
Q 959 1119 1226 758 
Q 1494 397 1959 397 
Q 2419 397 2687 759 
Q 2956 1122 2956 1747 
Q 2956 2369 2687 2733 
Q 2419 3097 1959 3097 
z
M 1959 3584 
Q 2709 3584 3137 3096 
Q 3566 2609 3566 1747 
Q 3566 888 3137 398 
Q 2709 -91 1959 -91 
Q 1206 -91 779 398 
Q 353 888 353 1747 
Q 353 2609 779 3096 
Q 1206 3584 1959 3584 
z
" transform="scale(0.015625)"/>
        <path id="DejaVuSans-70" d="M 1159 525 
L 1159 -1331 
L 581 -1331 
L 581 3500 
L 1159 3500 
L 1159 2969 
Q 1341 3281 1617 3432 
Q 1894 3584 2278 3584 
Q 2916 3584 3314 3078 
Q 3713 2572 3713 1747 
Q 3713 922 3314 415 
Q 2916 -91 2278 -91 
Q 1894 -91 1617 61 
Q 1341 213 1159 525 
z
M 3116 1747 
Q 3116 2381 2855 2742 
Q 2594 3103 2138 3103 
Q 1681 3103 1420 2742 
Q 1159 2381 1159 1747 
Q 1159 1113 1420 752 
Q 1681 391 2138 391 
Q 2594 391 2855 752 
Q 3116 1113 3116 1747 
z
" transform="scale(0.015625)"/>
        <path id="DejaVuSans-2d" d="M 313 2009 
L 1997 2009 
L 1997 1497 
L 313 1497 
L 313 2009 
z
" transform="scale(0.015625)"/>
        <path id="DejaVuSans-31" d="M 794 531 
L 1825 531 
L 1825 4091 
L 703 3866 
L 703 4441 
L 1819 4666 
L 2450 4666 
L 2450 531 
L 3481 531 
L 3481 0 
L 794 0 
L 794 531 
z
" transform="scale(0.015625)"/>
       </defs>
       <use xlink:href="#DejaVuSans-74"/>
       <use xlink:href="#DejaVuSans-6f" x="39.208984"/>
       <use xlink:href="#DejaVuSans-70" x="100.390625"/>
       <use xlink:href="#DejaVuSans-2d" x="163.867188"/>
       <use xlink:href="#DejaVuSans-31" x="199.951172"/>
      </g>
     </g>
    </g>
    <g id="xtick_2">
     <g id="line2d_2"/>
     <g id="text_2">
      <!-- retrieval@1 -->
      <g style="fill: #475569" transform="translate(129.108854 250.115012) rotate(-20) scale(0.09 -0.09)">
       <defs>
        <path id="DejaVuSans-72" d="M 2631 2963 
Q 2534 3019 2420 3045 
Q 2306 3072 2169 3072 
Q 1681 3072 1420 2755 
Q 1159 2438 1159 1844 
L 1159 0 
L 581 0 
L 581 3500 
L 1159 3500 
L 1159 2956 
Q 1341 3275 1631 3429 
Q 1922 3584 2338 3584 
Q 2397 3584 2469 3576 
Q 2541 3569 2628 3553 
L 2631 2963 
z
" transform="scale(0.015625)"/>
        <path id="DejaVuSans-65" d="M 3597 1894 
L 3597 1613 
L 953 1613 
Q 991 1019 1311 708 
Q 1631 397 2203 397 
Q 2534 397 2845 478 
Q 3156 559 3463 722 
L 3463 178 
Q 3153 47 2828 -22 
Q 2503 -91 2169 -91 
Q 1331 -91 842 396 
Q 353 884 353 1716 
Q 353 2575 817 3079 
Q 1281 3584 2069 3584 
Q 2775 3584 3186 3129 
Q 3597 2675 3597 1894 
z
M 3022 2063 
Q 3016 2534 2758 2815 
Q 2500 3097 2075 3097 
Q 1594 3097 1305 2825 
Q 1016 2553 972 2059 
L 3022 2063 
z
" transform="scale(0.015625)"/>
        <path id="DejaVuSans-69" d="M 603 3500 
L 1178 3500 
L 1178 0 
L 603 0 
L 603 3500 
z
M 603 4863 
L 1178 4863 
L 1178 4134 
L 603 4134 
L 603 4863 
z
" transform="scale(0.015625)"/>
        <path id="DejaVuSans-76" d="M 191 3500 
L 800 3500 
L 1894 563 
L 2988 3500 
L 3597 3500 
L 2284 0 
L 1503 0 
L 191 3500 
z
" transform="scale(0.015625)"/>
        <path id="DejaVuSans-61" d="M 2194 1759 
Q 1497 1759 1228 1600 
Q 959 1441 959 1056 
Q 959 750 1161 570 
Q 1363 391 1709 391 
Q 2188 391 2477 730 
Q 2766 1069 2766 1631 
L 2766 1759 
L 2194 1759 
z
M 3341 1997 
L 3341 0 
L 2766 0 
L 2766 531 
Q 2569 213 2275 61 
Q 1981 -91 1556 -91 
Q 1019 -91 701 211 
Q 384 513 384 1019 
Q 384 1609 779 1909 
Q 1175 2209 1959 2209 
L 2766 2209 
L 2766 2266 
Q 2766 2663 2505 2880 
Q 2244 3097 1772 3097 
Q 1472 3097 1187 3025 
Q 903 2953 641 2809 
L 641 3341 
Q 956 3463 1253 3523 
Q 1550 3584 1831 3584 
Q 2591 3584 2966 3190 
Q 3341 2797 3341 1997 
z
" transform="scale(0.015625)"/>
        <path id="DejaVuSans-6c" d="M 603 4863 
L 1178 4863 
L 1178 0 
L 603 0 
L 603 4863 
z
" transform="scale(0.015625)"/>
        <path id="DejaVuSans-40" d="M 2381 1678 
Q 2381 1231 2603 976 
Q 2825 722 3213 722 
Q 3597 722 3817 978 
Q 4038 1234 4038 1678 
Q 4038 2116 3813 2373 
Q 3588 2631 3206 2631 
Q 2828 2631 2604 2375 
Q 2381 2119 2381 1678 
z
M 4084 744 
Q 3897 503 3655 389 
Q 3413 275 3091 275 
Q 2553 275 2217 664 
Q 1881 1053 1881 1678 
Q 1881 2303 2218 2693 
Q 2556 3084 3091 3084 
Q 3413 3084 3656 2967 
Q 3900 2850 4084 2613 
L 4084 3022 
L 4531 3022 
L 4531 722 
Q 4988 791 5245 1139 
Q 5503 1488 5503 2041 
Q 5503 2375 5404 2669 
Q 5306 2963 5106 3213 
Q 4781 3622 4314 3839 
Q 3847 4056 3297 4056 
Q 2913 4056 2559 3954 
Q 2206 3853 1906 3653 
Q 1416 3334 1139 2817 
Q 863 2300 863 1697 
Q 863 1200 1042 765 
Q 1222 331 1563 0 
Q 1891 -325 2322 -495 
Q 2753 -666 3244 -666 
Q 3647 -666 4036 -530 
Q 4425 -394 4750 -141 
L 5031 -488 
Q 4641 -791 4180 -952 
Q 3719 -1113 3244 -1113 
Q 2666 -1113 2153 -908 
Q 1641 -703 1241 -313 
Q 841 78 631 592 
Q 422 1106 422 1697 
Q 422 2266 634 2781 
Q 847 3297 1241 3688 
Q 1644 4084 2172 4295 
Q 2700 4506 3291 4506 
Q 3953 4506 4520 4234 
Q 5088 3963 5472 3463 
Q 5706 3156 5829 2797 
Q 5953 2438 5953 2053 
Q 5953 1231 5456 756 
Q 4959 281 4084 263 
L 4084 744 
z
" transform="scale(0.015625)"/>
       </defs>
       <use xlink:href="#DejaVuSans-72"/>
       <use xlink:href="#DejaVuSans-65" x="38.863281"/>
       <use xlink:href="#DejaVuSans-74" x="100.386719"/>
       <use xlink:href="#DejaVuSans-72" x="139.595703"/>
       <use xlink:href="#DejaVuSans-69" x="180.708984"/>
       <use xlink:href="#DejaVuSans-65" x="208.492188"/>
       <use xlink:href="#DejaVuSans-76" x="270.015625"/>
       <use xlink:href="#DejaVuSans-61" x="329.195312"/>
       <use xlink:href="#DejaVuSans-6c" x="390.474609"/>
       <use xlink:href="#DejaVuSans-40" x="418.257812"/>
       <use xlink:href="#DejaVuSans-31" x="518.257812"/>
      </g>
     </g>
    </g>
    <g id="xtick_3">
     <g id="line2d_3"/>
     <g id="text_3">
      <!-- human rho -->
      <g style="fill: #475569" transform="translate(256.316823 248.964542) rotate(-20) scale(0.09 -0.09)">
       <defs>
        <path id="DejaVuSans-68" d="M 3513 2113 
L 3513 0 
L 2938 0 
L 2938 2094 
Q 2938 2591 2744 2837 
Q 2550 3084 2163 3084 
Q 1697 3084 1428 2787 
Q 1159 2491 1159 1978 
L 1159 0 
L 581 0 
L 581 4863 
L 1159 4863 
L 1159 2956 
Q 1366 3272 1645 3428 
Q 1925 3584 2291 3584 
Q 2894 3584 3203 3211 
Q 3513 2838 3513 2113 
z
" transform="scale(0.015625)"/>
        <path id="DejaVuSans-75" d="M 544 1381 
L 544 3500 
L 1119 3500 
L 1119 1403 
Q 1119 906 1312 657 
Q 1506 409 1894 409 
Q 2359 409 2629 706 
Q 2900 1003 2900 1516 
L 2900 3500 
L 3475 3500 
L 3475 0 
L 2900 0 
L 2900 538 
Q 2691 219 2414 64 
Q 2138 -91 1772 -91 
Q 1169 -91 856 284 
Q 544 659 544 1381 
z
M 1991 3584 
L 1991 3584 
z
" transform="scale(0.015625)"/>
        <path id="DejaVuSans-6d" d="M 3328 2828 
Q 3544 3216 3844 3400 
Q 4144 3584 4550 3584 
Q 5097 3584 5394 3201 
Q 5691 2819 5691 2113 
L 5691 0 
L 5113 0 
L 5113 2094 
Q 5113 2597 4934 2840 
Q 4756 3084 4391 3084 
Q 3944 3084 3684 2787 
Q 3425 2491 3425 1978 
L 3425 0 
L 2847 0 
L 2847 2094 
Q 2847 2600 2669 2842 
Q 2491 3084 2119 3084 
Q 1678 3084 1418 2786 
Q 1159 2488 1159 1978 
L 1159 0 
L 581 0 
L 581 3500 
L 1159 3500 
L 1159 2956 
Q 1356 3278 1631 3431 
Q 1906 3584 2284 3584 
Q 2666 3584 2933 3390 
Q 3200 3197 3328 2828 
z
" transform="scale(0.015625)"/>
        <path id="DejaVuSans-6e" d="M 3513 2113 
L 3513 0 
L 2938 0 
L 2938 2094 
Q 2938 2591 2744 2837 
Q 2550 3084 2163 3084 
Q 1697 3084 1428 2787 
Q 1159 2491 1159 1978 
L 1159 0 
L 581 0 
L 581 3500 
L 1159 3500 
L 1159 2956 
Q 1366 3272 1645 3428 
Q 1925 3584 2291 3584 
Q 2894 3584 3203 3211 
Q 3513 2838 3513 2113 
z
" transform="scale(0.015625)"/>
        <path id="DejaVuSans-20" transform="scale(0.015625)"/>
       </defs>
       <use xlink:href="#DejaVuSans-68"/>
       <use xlink:href="#DejaVuSans-75" x="63.378906"/>
       <use xlink:href="#DejaVuSans-6d" x="126.757812"/>
       <use xlink:href="#DejaVuSans-61" x="224.169922"/>
       <use xlink:href="#DejaVuSans-6e" x="285.449219"/>
       <use xlink:href="#DejaVuSans-20" x="348.828125"/>
       <use xlink:href="#DejaVuSans-72" x="380.615234"/>
       <use xlink:href="#DejaVuSans-68" x="419.978516"/>
       <use xlink:href="#DejaVuSans-6f" x="483.357422"/>
      </g>
     </g>
    </g>
    <g id="xtick_4">
     <g id="line2d_4"/>
     <g id="text_4">
      <!-- category -->
      <g style="fill: #475569" transform="translate(389.036529 245.807963) rotate(-20) scale(0.09 -0.09)">
       <defs>
        <path id="DejaVuSans-63" d="M 3122 3366 
L 3122 2828 
Q 2878 2963 2633 3030 
Q 2388 3097 2138 3097 
Q 1578 3097 1268 2742 
Q 959 2388 959 1747 
Q 959 1106 1268 751 
Q 1578 397 2138 397 
Q 2388 397 2633 464 
Q 2878 531 3122 666 
L 3122 134 
Q 2881 22 2623 -34 
Q 2366 -91 2075 -91 
Q 1284 -91 818 406 
Q 353 903 353 1747 
Q 353 2603 823 3093 
Q 1294 3584 2113 3584 
Q 2378 3584 2631 3529 
Q 2884 3475 3122 3366 
z
" transform="scale(0.015625)"/>
        <path id="DejaVuSans-67" d="M 2906 1791 
Q 2906 2416 2648 2759 
Q 2391 3103 1925 3103 
Q 1463 3103 1205 2759 
Q 947 2416 947 1791 
Q 947 1169 1205 825 
Q 1463 481 1925 481 
Q 2391 481 2648 825 
Q 2906 1169 2906 1791 
z
M 3481 434 
Q 3481 -459 3084 -895 
Q 2688 -1331 1869 -1331 
Q 1566 -1331 1297 -1286 
Q 1028 -1241 775 -1147 
L 775 -588 
Q 1028 -725 1275 -790 
Q 1522 -856 1778 -856 
Q 2344 -856 2625 -561 
Q 2906 -266 2906 331 
L 2906 616 
Q 2728 306 2450 153 
Q 2172 0 1784 0 
Q 1141 0 747 490 
Q 353 981 353 1791 
Q 353 2603 747 3093 
Q 1141 3584 1784 3584 
Q 2172 3584 2450 3431 
Q 2728 3278 2906 2969 
L 2906 3500 
L 3481 3500 
L 3481 434 
z
" transform="scale(0.015625)"/>
        <path id="DejaVuSans-79" d="M 2059 -325 
Q 1816 -950 1584 -1140 
Q 1353 -1331 966 -1331 
L 506 -1331 
L 506 -850 
L 844 -850 
Q 1081 -850 1212 -737 
Q 1344 -625 1503 -206 
L 1606 56 
L 191 3500 
L 800 3500 
L 1894 763 
L 2988 3500 
L 3597 3500 
L 2059 -325 
z
" transform="scale(0.015625)"/>
       </defs>
       <use xlink:href="#DejaVuSans-63"/>
       <use xlink:href="#DejaVuSans-61" x="54.980469"/>
       <use xlink:href="#DejaVuSans-74" x="116.259766"/>
       <use xlink:href="#DejaVuSans-65" x="155.46875"/>
       <use xlink:href="#DejaVuSans-67" x="216.992188"/>
       <use xlink:href="#DejaVuSans-6f" x="280.46875"/>
       <use xlink:href="#DejaVuSans-72" x="341.650391"/>
       <use xlink:href="#DejaVuSans-79" x="382.763672"/>
      </g>
     </g>
    </g>
    <g id="xtick_5">
     <g id="line2d_5"/>
     <g id="text_5">
      <!-- properties -->
      <g style="fill: #475569" transform="translate(507.307581 247.910265) rotate(-20) scale(0.09 -0.09)">
       <defs>
        <path id="DejaVuSans-73" d="M 2834 3397 
L 2834 2853 
Q 2591 2978 2328 3040 
Q 2066 3103 1784 3103 
Q 1356 3103 1142 2972 
Q 928 2841 928 2578 
Q 928 2378 1081 2264 
Q 1234 2150 1697 2047 
L 1894 2003 
Q 2506 1872 2764 1633 
Q 3022 1394 3022 966 
Q 3022 478 2636 193 
Q 2250 -91 1575 -91 
Q 1294 -91 989 -36 
Q 684 19 347 128 
L 347 722 
Q 666 556 975 473 
Q 1284 391 1588 391 
Q 1994 391 2212 530 
Q 2431 669 2431 922 
Q 2431 1156 2273 1281 
Q 2116 1406 1581 1522 
L 1381 1569 
Q 847 1681 609 1914 
Q 372 2147 372 2553 
Q 372 3047 722 3315 
Q 1072 3584 1716 3584 
Q 2034 3584 2315 3537 
Q 2597 3491 2834 3397 
z
" transform="scale(0.015625)"/>
       </defs>
       <use xlink:href="#DejaVuSans-70"/>
       <use xlink:href="#DejaVuSans-72" x="63.476562"/>
       <use xlink:href="#DejaVuSans-6f" x="102.339844"/>
       <use xlink:href="#DejaVuSans-70" x="163.521484"/>
       <use xlink:href="#DejaVuSans-65" x="226.998047"/>
       <use xlink:href="#DejaVuSans-72" x="288.521484"/>
       <use xlink:href="#DejaVuSans-74" x="329.634766"/>
       <use xlink:href="#DejaVuSans-69" x="368.84375"/>
       <use xlink:href="#DejaVuSans-65" x="396.626953"/>
       <use xlink:href="#DejaVuSans-73" x="458.150391"/>
      </g>
     </g>
    </g>
   </g>
   <g id="matplotlib.axis_2">
    <g id="ytick_1">
     <g id="line2d_6">
      <path d="M 30.104375 34.080423 
L 575.911518 34.080423 
" clip-path="url(#p91a9ce492d)" style="fill: none; stroke: #cbd5e1; stroke-opacity: 0.35; stroke-width: 0.8; stroke-linecap: square"/>
     </g>
     <g id="line2d_7"/>
     <g id="text_6">
      <!-- 1 -->
      <g style="fill: #475569" transform="translate(20.878125 37.49972) scale(0.09 -0.09)">
       <use xlink:href="#DejaVuSans-31"/>
      </g>
     </g>
    </g>
    <g id="ytick_2">
     <g id="line2d_8">
      <path d="M 30.104375 63.486167 
L 575.911518 63.486167 
" clip-path="url(#p91a9ce492d)" style="fill: none; stroke: #cbd5e1; stroke-opacity: 0.35; stroke-width: 0.8; stroke-linecap: square"/>
     </g>
     <g id="line2d_9"/>
     <g id="text_7">
      <!-- 2 -->
      <g style="fill: #475569" transform="translate(20.878125 66.905464) scale(0.09 -0.09)">
       <defs>
        <path id="DejaVuSans-32" d="M 1228 531 
L 3431 531 
L 3431 0 
L 469 0 
L 469 531 
Q 828 903 1448 1529 
Q 2069 2156 2228 2338 
Q 2531 2678 2651 2914 
Q 2772 3150 2772 3378 
Q 2772 3750 2511 3984 
Q 2250 4219 1831 4219 
Q 1534 4219 1204 4116 
Q 875 4013 500 3803 
L 500 4441 
Q 881 4594 1212 4672 
Q 1544 4750 1819 4750 
Q 2544 4750 2975 4387 
Q 3406 4025 3406 3419 
Q 3406 3131 3298 2873 
Q 3191 2616 2906 2266 
Q 2828 2175 2409 1742 
Q 1991 1309 1228 531 
z
" transform="scale(0.015625)"/>
       </defs>
       <use xlink:href="#DejaVuSans-32"/>
      </g>
     </g>
    </g>
    <g id="ytick_3">
     <g id="line2d_10">
      <path d="M 30.104375 92.891912 
L 575.911518 92.891912 
" clip-path="url(#p91a9ce492d)" style="fill: none; stroke: #cbd5e1; stroke-opacity: 0.35; stroke-width: 0.8; stroke-linecap: square"/>
     </g>
     <g id="line2d_11"/>
     <g id="text_8">
      <!-- 3 -->
      <g style="fill: #475569" transform="translate(20.878125 96.311209) scale(0.09 -0.09)">
       <defs>
        <path id="DejaVuSans-33" d="M 2597 2516 
Q 3050 2419 3304 2112 
Q 3559 1806 3559 1356 
Q 3559 666 3084 287 
Q 2609 -91 1734 -91 
Q 1441 -91 1130 -33 
Q 819 25 488 141 
L 488 750 
Q 750 597 1062 519 
Q 1375 441 1716 441 
Q 2309 441 2620 675 
Q 2931 909 2931 1356 
Q 2931 1769 2642 2001 
Q 2353 2234 1838 2234 
L 1294 2234 
L 1294 2753 
L 1863 2753 
Q 2328 2753 2575 2939 
Q 2822 3125 2822 3475 
Q 2822 3834 2567 4026 
Q 2313 4219 1838 4219 
Q 1578 4219 1281 4162 
Q 984 4106 628 3988 
L 628 4550 
Q 988 4650 1302 4700 
Q 1616 4750 1894 4750 
Q 2613 4750 3031 4423 
Q 3450 4097 3450 3541 
Q 3450 3153 3228 2886 
Q 3006 2619 2597 2516 
z
" transform="scale(0.015625)"/>
       </defs>
       <use xlink:href="#DejaVuSans-33"/>
      </g>
     </g>
    </g>
    <g id="ytick_4">
     <g id="line2d_12">
      <path d="M 30.104375 122.297656 
L 575.911518 122.297656 
" clip-path="url(#p91a9ce492d)" style="fill: none; stroke: #cbd5e1; stroke-opacity: 0.35; stroke-width: 0.8; stroke-linecap: square"/>
     </g>
     <g id="line2d_13"/>
     <g id="text_9">
      <!-- 4 -->
      <g style="fill: #475569" transform="translate(20.878125 125.716953) scale(0.09 -0.09)">
       <defs>
        <path id="DejaVuSans-34" d="M 2419 4116 
L 825 1625 
L 2419 1625 
L 2419 4116 
z
M 2253 4666 
L 3047 4666 
L 3047 1625 
L 3713 1625 
L 3713 1100 
L 3047 1100 
L 3047 0 
L 2419 0 
L 2419 1100 
L 313 1100 
L 313 1709 
L 2253 4666 
z
" transform="scale(0.015625)"/>
       </defs>
       <use xlink:href="#DejaVuSans-34"/>
      </g>
     </g>
    </g>
    <g id="ytick_5">
     <g id="line2d_14">
      <path d="M 30.104375 151.703401 
L 575.911518 151.703401 
" clip-path="url(#p91a9ce492d)" style="fill: none; stroke: #cbd5e1; stroke-opacity: 0.35; stroke-width: 0.8; stroke-linecap: square"/>
     </g>
     <g id="line2d_15"/>
     <g id="text_10">
      <!-- 5 -->
      <g style="fill: #475569" transform="translate(20.878125 155.122698) scale(0.09 -0.09)">
       <defs>
        <path id="DejaVuSans-35" d="M 691 4666 
L 3169 4666 
L 3169 4134 
L 1269 4134 
L 1269 2991 
Q 1406 3038 1543 3061 
Q 1681 3084 1819 3084 
Q 2600 3084 3056 2656 
Q 3513 2228 3513 1497 
Q 3513 744 3044 326 
Q 2575 -91 1722 -91 
Q 1428 -91 1123 -41 
Q 819 9 494 109 
L 494 744 
Q 775 591 1075 516 
Q 1375 441 1709 441 
Q 2250 441 2565 725 
Q 2881 1009 2881 1497 
Q 2881 1984 2565 2268 
Q 2250 2553 1709 2553 
Q 1456 2553 1204 2497 
Q 953 2441 691 2322 
L 691 4666 
z
" transform="scale(0.015625)"/>
       </defs>
       <use xlink:href="#DejaVuSans-35"/>
      </g>
     </g>
    </g>
    <g id="ytick_6">
     <g id="line2d_16">
      <path d="M 30.104375 181.109146 
L 575.911518 181.109146 
" clip-path="url(#p91a9ce492d)" style="fill: none; stroke: #cbd5e1; stroke-opacity: 0.35; stroke-width: 0.8; stroke-linecap: square"/>
     </g>
     <g id="line2d_17"/>
     <g id="text_11">
      <!-- 6 -->
      <g style="fill: #475569" transform="translate(20.878125 184.528442) scale(0.09 -0.09)">
       <defs>
        <path id="DejaVuSans-36" d="M 2113 2584 
Q 1688 2584 1439 2293 
Q 1191 2003 1191 1497 
Q 1191 994 1439 701 
Q 1688 409 2113 409 
Q 2538 409 2786 701 
Q 3034 994 3034 1497 
Q 3034 2003 2786 2293 
Q 2538 2584 2113 2584 
z
M 3366 4563 
L 3366 3988 
Q 3128 4100 2886 4159 
Q 2644 4219 2406 4219 
Q 1781 4219 1451 3797 
Q 1122 3375 1075 2522 
Q 1259 2794 1537 2939 
Q 1816 3084 2150 3084 
Q 2853 3084 3261 2657 
Q 3669 2231 3669 1497 
Q 3669 778 3244 343 
Q 2819 -91 2113 -91 
Q 1303 -91 875 529 
Q 447 1150 447 2328 
Q 447 3434 972 4092 
Q 1497 4750 2381 4750 
Q 2619 4750 2861 4703 
Q 3103 4656 3366 4563 
z
" transform="scale(0.015625)"/>
       </defs>
       <use xlink:href="#DejaVuSans-36"/>
      </g>
     </g>
    </g>
    <g id="ytick_7">
     <g id="line2d_18">
      <path d="M 30.104375 210.51489 
L 575.911518 210.51489 
" clip-path="url(#p91a9ce492d)" style="fill: none; stroke: #cbd5e1; stroke-opacity: 0.35; stroke-width: 0.8; stroke-linecap: square"/>
     </g>
     <g id="line2d_19"/>
     <g id="text_12">
      <!-- 7 -->
      <g style="fill: #475569" transform="translate(20.878125 213.934187) scale(0.09 -0.09)">
       <defs>
        <path id="DejaVuSans-37" d="M 525 4666 
L 3525 4666 
L 3525 4397 
L 1831 0 
L 1172 0 
L 2766 4134 
L 525 4134 
L 525 4666 
z
" transform="scale(0.015625)"/>
       </defs>
       <use xlink:href="#DejaVuSans-37"/>
      </g>
     </g>
    </g>
    <g id="text_13">
     <!-- rank within metric -->
     <g style="fill: #475569" transform="translate(14.798438 167.925) rotate(-90) scale(0.1 -0.1)">
      <defs>
       <path id="DejaVuSans-6b" d="M 581 4863 
L 1159 4863 
L 1159 1991 
L 2875 3500 
L 3609 3500 
L 1753 1863 
L 3688 0 
L 2938 0 
L 1159 1709 
L 1159 0 
L 581 0 
L 581 4863 
z
" transform="scale(0.015625)"/>
       <path id="DejaVuSans-77" d="M 269 3500 
L 844 3500 
L 1563 769 
L 2278 3500 
L 2956 3500 
L 3675 769 
L 4391 3500 
L 4966 3500 
L 4050 0 
L 3372 0 
L 2619 2869 
L 1863 0 
L 1184 0 
L 269 3500 
z
" transform="scale(0.015625)"/>
      </defs>
      <use xlink:href="#DejaVuSans-72"/>
      <use xlink:href="#DejaVuSans-61" x="41.113281"/>
      <use xlink:href="#DejaVuSans-6e" x="102.392578"/>
      <use xlink:href="#DejaVuSans-6b" x="165.771484"/>
      <use xlink:href="#DejaVuSans-20" x="223.681641"/>
      <use xlink:href="#DejaVuSans-77" x="255.46875"/>
      <use xlink:href="#DejaVuSans-69" x="337.255859"/>
      <use xlink:href="#DejaVuSans-74" x="365.039062"/>
      <use xlink:href="#DejaVuSans-68" x="404.248047"/>
      <use xlink:href="#DejaVuSans-69" x="467.626953"/>
      <use xlink:href="#DejaVuSans-6e" x="495.410156"/>
      <use xlink:href="#DejaVuSans-20" x="558.789062"/>
      <use xlink:href="#DejaVuSans-6d" x="590.576172"/>
      <use xlink:href="#DejaVuSans-65" x="687.988281"/>
      <use xlink:href="#DejaVuSans-74" x="749.511719"/>
      <use xlink:href="#DejaVuSans-72" x="788.720703"/>
      <use xlink:href="#DejaVuSans-69" x="829.833984"/>
      <use xlink:href="#DejaVuSans-63" x="857.617188"/>
     </g>
    </g>
   </g>
   <g id="line2d_20">
    <path d="M 54.913791 210.51489 
L 178.960869 151.703401 
L 303.007946 92.891912 
L 427.055024 63.486167 
L 551.102102 34.080423 
" clip-path="url(#p91a9ce492d)" style="fill: none; stroke: #4b5563; stroke-opacity: 0.96; stroke-width: 2.3; stroke-linecap: square"/>
    <defs>
     <path id="md63c29ab23" d="M 0 3 
C 0.795609 3 1.55874 2.683901 2.12132 2.12132 
C 2.683901 1.55874 3 0.795609 3 0 
C 3 -0.795609 2.683901 -1.55874 2.12132 -2.12132 
C 1.55874 -2.683901 0.795609 -3 0 -3 
C -0.795609 -3 -1.55874 -2.683901 -2.12132 -2.12132 
C -2.683901 -1.55874 -3 -0.795609 -3 0 
C -3 0.795609 -2.683901 1.55874 -2.12132 2.12132 
C -1.55874 2.683901 -0.795609 3 0 3 
z
" style="stroke: #4b5563; stroke-opacity: 0.96"/>
    </defs>
    <g clip-path="url(#p91a9ce492d)">
     <use xlink:href="#md63c29ab23" x="54.913791" y="210.51489" style="fill: #4b5563; fill-opacity: 0.96; stroke: #4b5563; stroke-opacity: 0.96"/>
     <use xlink:href="#md63c29ab23" x="178.960869" y="151.703401" style="fill: #4b5563; fill-opacity: 0.96; stroke: #4b5563; stroke-opacity: 0.96"/>
     <use xlink:href="#md63c29ab23" x="303.007946" y="92.891912" style="fill: #4b5563; fill-opacity: 0.96; stroke: #4b5563; stroke-opacity: 0.96"/>
     <use xlink:href="#md63c29ab23" x="427.055024" y="63.486167" style="fill: #4b5563; fill-opacity: 0.96; stroke: #4b5563; stroke-opacity: 0.96"/>
     <use xlink:href="#md63c29ab23" x="551.102102" y="34.080423" style="fill: #4b5563; fill-opacity: 0.96; stroke: #4b5563; stroke-opacity: 0.96"/>
    </g>
   </g>
   <g id="line2d_21">
    <path d="M 54.913791 34.080423 
L 178.960869 63.486167 
L 303.007946 181.109146 
L 427.055024 151.703401 
L 551.102102 151.703401 
" clip-path="url(#p91a9ce492d)" style="fill: none; stroke: #2563eb; stroke-opacity: 0.96; stroke-width: 2.3; stroke-linecap: square"/>
    <defs>
     <path id="m9974cf81af" d="M 0 3 
C 0.795609 3 1.55874 2.683901 2.12132 2.12132 
C 2.683901 1.55874 3 0.795609 3 0 
C 3 -0.795609 2.683901 -1.55874 2.12132 -2.12132 
C 1.55874 -2.683901 0.795609 -3 0 -3 
C -0.795609 -3 -1.55874 -2.683901 -2.12132 -2.12132 
C -2.683901 -1.55874 -3 -0.795609 -3 0 
C -3 0.795609 -2.683901 1.55874 -2.12132 2.12132 
C -1.55874 2.683901 -0.795609 3 0 3 
z
" style="stroke: #2563eb; stroke-opacity: 0.96"/>
    </defs>
    <g clip-path="url(#p91a9ce492d)">
     <use xlink:href="#m9974cf81af" x="54.913791" y="34.080423" style="fill: #2563eb; fill-opacity: 0.96; stroke: #2563eb; stroke-opacity: 0.96"/>
     <use xlink:href="#m9974cf81af" x="178.960869" y="63.486167" style="fill: #2563eb; fill-opacity: 0.96; stroke: #2563eb; stroke-opacity: 0.96"/>
     <use xlink:href="#m9974cf81af" x="303.007946" y="181.109146" style="fill: #2563eb; fill-opacity: 0.96; stroke: #2563eb; stroke-opacity: 0.96"/>
     <use xlink:href="#m9974cf81af" x="427.055024" y="151.703401" style="fill: #2563eb; fill-opacity: 0.96; stroke: #2563eb; stroke-opacity: 0.96"/>
     <use xlink:href="#m9974cf81af" x="551.102102" y="151.703401" style="fill: #2563eb; fill-opacity: 0.96; stroke: #2563eb; stroke-opacity: 0.96"/>
    </g>
   </g>
   <g id="line2d_22">
    <path d="M 54.913791 34.080423 
L 178.960869 34.080423 
L 303.007946 210.51489 
L 427.055024 122.297656 
L 551.102102 181.109146 
" clip-path="url(#p91a9ce492d)" style="fill: none; stroke: #b8c0cc; stroke-opacity: 0.42; stroke-width: 1.5; stroke-linecap: square"/>
    <defs>
     <path id="me109e006ec" d="M 0 2.5 
C 0.663008 2.5 1.29895 2.236584 1.767767 1.767767 
C 2.236584 1.29895 2.5 0.663008 2.5 0 
C 2.5 -0.663008 2.236584 -1.29895 1.767767 -1.767767 
C 1.29895 -2.236584 0.663008 -2.5 0 -2.5 
C -0.663008 -2.5 -1.29895 -2.236584 -1.767767 -1.767767 
C -2.236584 -1.29895 -2.5 -0.663008 -2.5 0 
C -2.5 0.663008 -2.236584 1.29895 -1.767767 1.767767 
C -1.29895 2.236584 -0.663008 2.5 0 2.5 
z
" style="stroke: #b8c0cc; stroke-opacity: 0.42"/>
    </defs>
    <g clip-path="url(#p91a9ce492d)">
     <use xlink:href="#me109e006ec" x="54.913791" y="34.080423" style="fill: #b8c0cc; fill-opacity: 0.42; stroke: #b8c0cc; stroke-opacity: 0.42"/>
     <use xlink:href="#me109e006ec" x="178.960869" y="34.080423" style="fill: #b8c0cc; fill-opacity: 0.42; stroke: #b8c0cc; stroke-opacity: 0.42"/>
     <use xlink:href="#me109e006ec" x="303.007946" y="210.51489" style="fill: #b8c0cc; fill-opacity: 0.42; stroke: #b8c0cc; stroke-opacity: 0.42"/>
     <use xlink:href="#me109e006ec" x="427.055024" y="122.297656" style="fill: #b8c0cc; fill-opacity: 0.42; stroke: #b8c0cc; stroke-opacity: 0.42"/>
     <use xlink:href="#me109e006ec" x="551.102102" y="181.109146" style="fill: #b8c0cc; fill-opacity: 0.42; stroke: #b8c0cc; stroke-opacity: 0.42"/>
    </g>
   </g>
   <g id="line2d_23">
    <path d="M 54.913791 151.703401 
L 178.960869 92.891912 
L 303.007946 151.703401 
L 427.055024 181.109146 
L 551.102102 210.51489 
" clip-path="url(#p91a9ce492d)" style="fill: none; stroke: #059669; stroke-opacity: 0.96; stroke-width: 2.3; stroke-linecap: square"/>
    <defs>
     <path id="m6545df0cc6" d="M 0 3 
C 0.795609 3 1.55874 2.683901 2.12132 2.12132 
C 2.683901 1.55874 3 0.795609 3 0 
C 3 -0.795609 2.683901 -1.55874 2.12132 -2.12132 
C 1.55874 -2.683901 0.795609 -3 0 -3 
C -0.795609 -3 -1.55874 -2.683901 -2.12132 -2.12132 
C -2.683901 -1.55874 -3 -0.795609 -3 0 
C -3 0.795609 -2.683901 1.55874 -2.12132 2.12132 
C -1.55874 2.683901 -0.795609 3 0 3 
z
" style="stroke: #059669; stroke-opacity: 0.96"/>
    </defs>
    <g clip-path="url(#p91a9ce492d)">
     <use xlink:href="#m6545df0cc6" x="54.913791" y="151.703401" style="fill: #059669; fill-opacity: 0.96; stroke: #059669; stroke-opacity: 0.96"/>
     <use xlink:href="#m6545df0cc6" x="178.960869" y="92.891912" style="fill: #059669; fill-opacity: 0.96; stroke: #059669; stroke-opacity: 0.96"/>
     <use xlink:href="#m6545df0cc6" x="303.007946" y="151.703401" style="fill: #059669; fill-opacity: 0.96; stroke: #059669; stroke-opacity: 0.96"/>
     <use xlink:href="#m6545df0cc6" x="427.055024" y="181.109146" style="fill: #059669; fill-opacity: 0.96; stroke: #059669; stroke-opacity: 0.96"/>
     <use xlink:href="#m6545df0cc6" x="551.102102" y="210.51489" style="fill: #059669; fill-opacity: 0.96; stroke: #059669; stroke-opacity: 0.96"/>
    </g>
   </g>
   <g id="line2d_24">
    <path d="M 54.913791 122.297656 
L 178.960869 181.109146 
L 303.007946 63.486167 
L 427.055024 210.51489 
L 551.102102 92.891912 
" clip-path="url(#p91a9ce492d)" style="fill: none; stroke: #dc2626; stroke-opacity: 0.96; stroke-width: 2.3; stroke-linecap: square"/>
    <defs>
     <path id="mc0727d7bdb" d="M 0 3 
C 0.795609 3 1.55874 2.683901 2.12132 2.12132 
C 2.683901 1.55874 3 0.795609 3 0 
C 3 -0.795609 2.683901 -1.55874 2.12132 -2.12132 
C 1.55874 -2.683901 0.795609 -3 0 -3 
C -0.795609 -3 -1.55874 -2.683901 -2.12132 -2.12132 
C -2.683901 -1.55874 -3 -0.795609 -3 0 
C -3 0.795609 -2.683901 1.55874 -2.12132 2.12132 
C -1.55874 2.683901 -0.795609 3 0 3 
z
" style="stroke: #dc2626; stroke-opacity: 0.96"/>
    </defs>
    <g clip-path="url(#p91a9ce492d)">
     <use xlink:href="#mc0727d7bdb" x="54.913791" y="122.297656" style="fill: #dc2626; fill-opacity: 0.96; stroke: #dc2626; stroke-opacity: 0.96"/>
     <use xlink:href="#mc0727d7bdb" x="178.960869" y="181.109146" style="fill: #dc2626; fill-opacity: 0.96; stroke: #dc2626; stroke-opacity: 0.96"/>
     <use xlink:href="#mc0727d7bdb" x="303.007946" y="63.486167" style="fill: #dc2626; fill-opacity: 0.96; stroke: #dc2626; stroke-opacity: 0.96"/>
     <use xlink:href="#mc0727d7bdb" x="427.055024" y="210.51489" style="fill: #dc2626; fill-opacity: 0.96; stroke: #dc2626; stroke-opacity: 0.96"/>
     <use xlink:href="#mc0727d7bdb" x="551.102102" y="92.891912" style="fill: #dc2626; fill-opacity: 0.96; stroke: #dc2626; stroke-opacity: 0.96"/>
    </g>
   </g>
   <g id="line2d_25">
    <path d="M 54.913791 92.891912 
L 178.960869 122.297656 
L 303.007946 34.080423 
L 427.055024 34.080423 
L 551.102102 122.297656 
" clip-path="url(#p91a9ce492d)" style="fill: none; stroke: #0f766e; stroke-opacity: 0.96; stroke-width: 2.3; stroke-linecap: square"/>
    <defs>
     <path id="me41b072759" d="M 0 3 
C 0.795609 3 1.55874 2.683901 2.12132 2.12132 
C 2.683901 1.55874 3 0.795609 3 0 
C 3 -0.795609 2.683901 -1.55874 2.12132 -2.12132 
C 1.55874 -2.683901 0.795609 -3 0 -3 
C -0.795609 -3 -1.55874 -2.683901 -2.12132 -2.12132 
C -2.683901 -1.55874 -3 -0.795609 -3 0 
C -3 0.795609 -2.683901 1.55874 -2.12132 2.12132 
C -1.55874 2.683901 -0.795609 3 0 3 
z
" style="stroke: #0f766e; stroke-opacity: 0.96"/>
    </defs>
    <g clip-path="url(#p91a9ce492d)">
     <use xlink:href="#me41b072759" x="54.913791" y="92.891912" style="fill: #0f766e; fill-opacity: 0.96; stroke: #0f766e; stroke-opacity: 0.96"/>
     <use xlink:href="#me41b072759" x="178.960869" y="122.297656" style="fill: #0f766e; fill-opacity: 0.96; stroke: #0f766e; stroke-opacity: 0.96"/>
     <use xlink:href="#me41b072759" x="303.007946" y="34.080423" style="fill: #0f766e; fill-opacity: 0.96; stroke: #0f766e; stroke-opacity: 0.96"/>
     <use xlink:href="#me41b072759" x="427.055024" y="34.080423" style="fill: #0f766e; fill-opacity: 0.96; stroke: #0f766e; stroke-opacity: 0.96"/>
     <use xlink:href="#me41b072759" x="551.102102" y="122.297656" style="fill: #0f766e; fill-opacity: 0.96; stroke: #0f766e; stroke-opacity: 0.96"/>
    </g>
   </g>
   <g id="line2d_26">
    <path d="M 54.913791 181.109146 
L 178.960869 210.51489 
L 303.007946 122.297656 
L 427.055024 63.486167 
L 551.102102 63.486167 
" clip-path="url(#p91a9ce492d)" style="fill: none; stroke: #b8c0cc; stroke-opacity: 0.42; stroke-width: 1.5; stroke-linecap: square"/>
    <g clip-path="url(#p91a9ce492d)">
     <use xlink:href="#me109e006ec" x="54.913791" y="181.109146" style="fill: #b8c0cc; fill-opacity: 0.42; stroke: #b8c0cc; stroke-opacity: 0.42"/>
     <use xlink:href="#me109e006ec" x="178.960869" y="210.51489" style="fill: #b8c0cc; fill-opacity: 0.42; stroke: #b8c0cc; stroke-opacity: 0.42"/>
     <use xlink:href="#me109e006ec" x="303.007946" y="122.297656" style="fill: #b8c0cc; fill-opacity: 0.42; stroke: #b8c0cc; stroke-opacity: 0.42"/>
     <use xlink:href="#me109e006ec" x="427.055024" y="63.486167" style="fill: #b8c0cc; fill-opacity: 0.42; stroke: #b8c0cc; stroke-opacity: 0.42"/>
     <use xlink:href="#me109e006ec" x="551.102102" y="63.486167" style="fill: #b8c0cc; fill-opacity: 0.42; stroke: #b8c0cc; stroke-opacity: 0.42"/>
    </g>
   </g>
   <g id="text_14">
    <!-- Model Ranks Depend on Which Benchmark Is Valued -->
    <g style="fill: #111827" transform="translate(144.772009 16.318125) scale(0.12 -0.12)">
     <defs>
      <path id="DejaVuSans-4d" d="M 628 4666 
L 1569 4666 
L 2759 1491 
L 3956 4666 
L 4897 4666 
L 4897 0 
L 4281 0 
L 4281 4097 
L 3078 897 
L 2444 897 
L 1241 4097 
L 1241 0 
L 628 0 
L 628 4666 
z
" transform="scale(0.015625)"/>
      <path id="DejaVuSans-64" d="M 2906 2969 
L 2906 4863 
L 3481 4863 
L 3481 0 
L 2906 0 
L 2906 525 
Q 2725 213 2448 61 
Q 2172 -91 1784 -91 
Q 1150 -91 751 415 
Q 353 922 353 1747 
Q 353 2572 751 3078 
Q 1150 3584 1784 3584 
Q 2172 3584 2448 3432 
Q 2725 3281 2906 2969 
z
M 947 1747 
Q 947 1113 1208 752 
Q 1469 391 1925 391 
Q 2381 391 2643 752 
Q 2906 1113 2906 1747 
Q 2906 2381 2643 2742 
Q 2381 3103 1925 3103 
Q 1469 3103 1208 2742 
Q 947 2381 947 1747 
z
" transform="scale(0.015625)"/>
      <path id="DejaVuSans-52" d="M 2841 2188 
Q 3044 2119 3236 1894 
Q 3428 1669 3622 1275 
L 4263 0 
L 3584 0 
L 2988 1197 
Q 2756 1666 2539 1819 
Q 2322 1972 1947 1972 
L 1259 1972 
L 1259 0 
L 628 0 
L 628 4666 
L 2053 4666 
Q 2853 4666 3247 4331 
Q 3641 3997 3641 3322 
Q 3641 2881 3436 2590 
Q 3231 2300 2841 2188 
z
M 1259 4147 
L 1259 2491 
L 2053 2491 
Q 2509 2491 2742 2702 
Q 2975 2913 2975 3322 
Q 2975 3731 2742 3939 
Q 2509 4147 2053 4147 
L 1259 4147 
z
" transform="scale(0.015625)"/>
      <path id="DejaVuSans-44" d="M 1259 4147 
L 1259 519 
L 2022 519 
Q 2988 519 3436 956 
Q 3884 1394 3884 2338 
Q 3884 3275 3436 3711 
Q 2988 4147 2022 4147 
L 1259 4147 
z
M 628 4666 
L 1925 4666 
Q 3281 4666 3915 4102 
Q 4550 3538 4550 2338 
Q 4550 1131 3912 565 
Q 3275 0 1925 0 
L 628 0 
L 628 4666 
z
" transform="scale(0.015625)"/>
      <path id="DejaVuSans-57" d="M 213 4666 
L 850 4666 
L 1831 722 
L 2809 4666 
L 3519 4666 
L 4500 722 
L 5478 4666 
L 6119 4666 
L 4947 0 
L 4153 0 
L 3169 4050 
L 2175 0 
L 1381 0 
L 213 4666 
z
" transform="scale(0.015625)"/>
      <path id="DejaVuSans-42" d="M 1259 2228 
L 1259 519 
L 2272 519 
Q 2781 519 3026 730 
Q 3272 941 3272 1375 
Q 3272 1813 3026 2020 
Q 2781 2228 2272 2228 
L 1259 2228 
z
M 1259 4147 
L 1259 2741 
L 2194 2741 
Q 2656 2741 2882 2914 
Q 3109 3088 3109 3444 
Q 3109 3797 2882 3972 
Q 2656 4147 2194 4147 
L 1259 4147 
z
M 628 4666 
L 2241 4666 
Q 2963 4666 3353 4366 
Q 3744 4066 3744 3513 
Q 3744 3084 3544 2831 
Q 3344 2578 2956 2516 
Q 3422 2416 3680 2098 
Q 3938 1781 3938 1306 
Q 3938 681 3513 340 
Q 3088 0 2303 0 
L 628 0 
L 628 4666 
z
" transform="scale(0.015625)"/>
      <path id="DejaVuSans-49" d="M 628 4666 
L 1259 4666 
L 1259 0 
L 628 0 
L 628 4666 
z
" transform="scale(0.015625)"/>
      <path id="DejaVuSans-56" d="M 1831 0 
L 50 4666 
L 709 4666 
L 2188 738 
L 3669 4666 
L 4325 4666 
L 2547 0 
L 1831 0 
z
" transform="scale(0.015625)"/>
     </defs>
     <use xlink:href="#DejaVuSans-4d"/>
     <use xlink:href="#DejaVuSans-6f" x="86.279297"/>
     <use xlink:href="#DejaVuSans-64" x="147.460938"/>
     <use xlink:href="#DejaVuSans-65" x="210.9375"/>
     <use xlink:href="#DejaVuSans-6c" x="272.460938"/>
     <use xlink:href="#DejaVuSans-20" x="300.244141"/>
     <use xlink:href="#DejaVuSans-52" x="332.03125"/>
     <use xlink:href="#DejaVuSans-61" x="399.263672"/>
     <use xlink:href="#DejaVuSans-6e" x="460.542969"/>
     <use xlink:href="#DejaVuSans-6b" x="523.921875"/>
     <use xlink:href="#DejaVuSans-73" x="581.832031"/>
     <use xlink:href="#DejaVuSans-20" x="633.931641"/>
     <use xlink:href="#DejaVuSans-44" x="665.71875"/>
     <use xlink:href="#DejaVuSans-65" x="742.720703"/>
     <use xlink:href="#DejaVuSans-70" x="804.244141"/>
     <use xlink:href="#DejaVuSans-65" x="867.720703"/>
     <use xlink:href="#DejaVuSans-6e" x="929.244141"/>
     <use xlink:href="#DejaVuSans-64" x="992.623047"/>
     <use xlink:href="#DejaVuSans-20" x="1056.099609"/>
     <use xlink:href="#DejaVuSans-6f" x="1087.886719"/>
     <use xlink:href="#DejaVuSans-6e" x="1149.068359"/>
     <use xlink:href="#DejaVuSans-20" x="1212.447266"/>
     <use xlink:href="#DejaVuSans-57" x="1244.234375"/>
     <use xlink:href="#DejaVuSans-68" x="1343.111328"/>
     <use xlink:href="#DejaVuSans-69" x="1406.490234"/>
     <use xlink:href="#DejaVuSans-63" x="1434.273438"/>
     <use xlink:href="#DejaVuSans-68" x="1489.253906"/>
     <use xlink:href="#DejaVuSans-20" x="1552.632812"/>
     <use xlink:href="#DejaVuSans-42" x="1584.419922"/>
     <use xlink:href="#DejaVuSans-65" x="1653.023438"/>
     <use xlink:href="#DejaVuSans-6e" x="1714.546875"/>
     <use xlink:href="#DejaVuSans-63" x="1777.925781"/>
     <use xlink:href="#DejaVuSans-68" x="1832.90625"/>
     <use xlink:href="#DejaVuSans-6d" x="1896.285156"/>
     <use xlink:href="#DejaVuSans-61" x="1993.697266"/>
     <use xlink:href="#DejaVuSans-72" x="2054.976562"/>
     <use xlink:href="#DejaVuSans-6b" x="2096.089844"/>
     <use xlink:href="#DejaVuSans-20" x="2154"/>
     <use xlink:href="#DejaVuSans-49" x="2185.787109"/>
     <use xlink:href="#DejaVuSans-73" x="2215.279297"/>
     <use xlink:href="#DejaVuSans-20" x="2267.378906"/>
     <use xlink:href="#DejaVuSans-56" x="2299.166016"/>
     <use xlink:href="#DejaVuSans-61" x="2359.824219"/>
     <use xlink:href="#DejaVuSans-6c" x="2421.103516"/>
     <use xlink:href="#DejaVuSans-75" x="2448.886719"/>
     <use xlink:href="#DejaVuSans-65" x="2512.265625"/>
     <use xlink:href="#DejaVuSans-64" x="2573.789062"/>
    </g>
   </g>
   <g id="legend_1">
    <g id="line2d_27">
     <path d="M 149.476696 271.368257 
L 159.476696 271.368257 
L 169.476696 271.368257 
" style="fill: none; stroke: #4b5563; stroke-opacity: 0.96; stroke-width: 2.3; stroke-linecap: square"/>
     <g>
      <use xlink:href="#md63c29ab23" x="159.476696" y="271.368257" style="fill: #4b5563; fill-opacity: 0.96; stroke: #4b5563; stroke-opacity: 0.96"/>
     </g>
    </g>
    <g id="text_15">
     <!-- Image-only classifier -->
     <g style="fill: #111827" transform="translate(177.476696 274.868257) scale(0.1 -0.1)">
      <defs>
       <path id="DejaVuSans-66" d="M 2375 4863 
L 2375 4384 
L 1825 4384 
Q 1516 4384 1395 4259 
Q 1275 4134 1275 3809 
L 1275 3500 
L 2222 3500 
L 2222 3053 
L 1275 3053 
L 1275 0 
L 697 0 
L 697 3053 
L 147 3053 
L 147 3500 
L 697 3500 
L 697 3744 
Q 697 4328 969 4595 
Q 1241 4863 1831 4863 
L 2375 4863 
z
" transform="scale(0.015625)"/>
      </defs>
      <use xlink:href="#DejaVuSans-49"/>
      <use xlink:href="#DejaVuSans-6d" x="29.492188"/>
      <use xlink:href="#DejaVuSans-61" x="126.904297"/>
      <use xlink:href="#DejaVuSans-67" x="188.183594"/>
      <use xlink:href="#DejaVuSans-65" x="251.660156"/>
      <use xlink:href="#DejaVuSans-2d" x="313.183594"/>
      <use xlink:href="#DejaVuSans-6f" x="351.142578"/>
      <use xlink:href="#DejaVuSans-6e" x="412.324219"/>
      <use xlink:href="#DejaVuSans-6c" x="475.703125"/>
      <use xlink:href="#DejaVuSans-79" x="503.486328"/>
      <use xlink:href="#DejaVuSans-20" x="562.666016"/>
      <use xlink:href="#DejaVuSans-63" x="594.453125"/>
      <use xlink:href="#DejaVuSans-6c" x="649.433594"/>
      <use xlink:href="#DejaVuSans-61" x="677.216797"/>
      <use xlink:href="#DejaVuSans-73" x="738.496094"/>
      <use xlink:href="#DejaVuSans-73" x="790.595703"/>
      <use xlink:href="#DejaVuSans-69" x="842.695312"/>
      <use xlink:href="#DejaVuSans-66" x="870.478516"/>
      <use xlink:href="#DejaVuSans-69" x="905.683594"/>
      <use xlink:href="#DejaVuSans-65" x="933.466797"/>
      <use xlink:href="#DejaVuSans-72" x="994.990234"/>
     </g>
    </g>
    <g id="line2d_28">
     <path d="M 149.476696 286.046382 
L 159.476696 286.046382 
L 169.476696 286.046382 
" style="fill: none; stroke: #2563eb; stroke-opacity: 0.96; stroke-width: 2.3; stroke-linecap: square"/>
     <g>
      <use xlink:href="#m9974cf81af" x="159.476696" y="286.046382" style="fill: #2563eb; fill-opacity: 0.96; stroke: #2563eb; stroke-opacity: 0.96"/>
     </g>
    </g>
    <g id="text_16">
     <!-- Fixed-prototype triplets -->
     <g style="fill: #111827" transform="translate(177.476696 289.546382) scale(0.1 -0.1)">
      <defs>
       <path id="DejaVuSans-46" d="M 628 4666 
L 3309 4666 
L 3309 4134 
L 1259 4134 
L 1259 2759 
L 3109 2759 
L 3109 2228 
L 1259 2228 
L 1259 0 
L 628 0 
L 628 4666 
z
" transform="scale(0.015625)"/>
       <path id="DejaVuSans-78" d="M 3513 3500 
L 2247 1797 
L 3578 0 
L 2900 0 
L 1881 1375 
L 863 0 
L 184 0 
L 1544 1831 
L 300 3500 
L 978 3500 
L 1906 2253 
L 2834 3500 
L 3513 3500 
z
" transform="scale(0.015625)"/>
      </defs>
      <use xlink:href="#DejaVuSans-46"/>
      <use xlink:href="#DejaVuSans-69" x="50.269531"/>
      <use xlink:href="#DejaVuSans-78" x="78.052734"/>
      <use xlink:href="#DejaVuSans-65" x="134.107422"/>
      <use xlink:href="#DejaVuSans-64" x="195.630859"/>
      <use xlink:href="#DejaVuSans-2d" x="259.107422"/>
      <use xlink:href="#DejaVuSans-70" x="295.191406"/>
      <use xlink:href="#DejaVuSans-72" x="358.667969"/>
      <use xlink:href="#DejaVuSans-6f" x="397.53125"/>
      <use xlink:href="#DejaVuSans-74" x="458.712891"/>
      <use xlink:href="#DejaVuSans-6f" x="497.921875"/>
      <use xlink:href="#DejaVuSans-74" x="559.103516"/>
      <use xlink:href="#DejaVuSans-79" x="598.3125"/>
      <use xlink:href="#DejaVuSans-70" x="657.492188"/>
      <use xlink:href="#DejaVuSans-65" x="720.96875"/>
      <use xlink:href="#DejaVuSans-20" x="782.492188"/>
      <use xlink:href="#DejaVuSans-74" x="814.279297"/>
      <use xlink:href="#DejaVuSans-72" x="853.488281"/>
      <use xlink:href="#DejaVuSans-69" x="894.601562"/>
      <use xlink:href="#DejaVuSans-70" x="922.384766"/>
      <use xlink:href="#DejaVuSans-6c" x="985.861328"/>
      <use xlink:href="#DejaVuSans-65" x="1013.644531"/>
      <use xlink:href="#DejaVuSans-74" x="1075.167969"/>
      <use xlink:href="#DejaVuSans-73" x="1114.376953"/>
     </g>
    </g>
    <g id="line2d_29">
     <path d="M 149.476696 300.724507 
L 159.476696 300.724507 
L 169.476696 300.724507 
" style="fill: none; stroke: #b8c0cc; stroke-opacity: 0.42; stroke-width: 1.5; stroke-linecap: square"/>
     <g>
      <use xlink:href="#me109e006ec" x="159.476696" y="300.724507" style="fill: #b8c0cc; fill-opacity: 0.42; stroke: #b8c0cc; stroke-opacity: 0.42"/>
     </g>
    </g>
    <g id="text_17">
     <!-- Fixed-prototype control -->
     <g style="fill: #111827" transform="translate(177.476696 304.224507) scale(0.1 -0.1)">
      <use xlink:href="#DejaVuSans-46"/>
      <use xlink:href="#DejaVuSans-69" x="50.269531"/>
      <use xlink:href="#DejaVuSans-78" x="78.052734"/>
      <use xlink:href="#DejaVuSans-65" x="134.107422"/>
      <use xlink:href="#DejaVuSans-64" x="195.630859"/>
      <use xlink:href="#DejaVuSans-2d" x="259.107422"/>
      <use xlink:href="#DejaVuSans-70" x="295.191406"/>
      <use xlink:href="#DejaVuSans-72" x="358.667969"/>
      <use xlink:href="#DejaVuSans-6f" x="397.53125"/>
      <use xlink:href="#DejaVuSans-74" x="458.712891"/>
      <use xlink:href="#DejaVuSans-6f" x="497.921875"/>
      <use xlink:href="#DejaVuSans-74" x="559.103516"/>
      <use xlink:href="#DejaVuSans-79" x="598.3125"/>
      <use xlink:href="#DejaVuSans-70" x="657.492188"/>
      <use xlink:href="#DejaVuSans-65" x="720.96875"/>
      <use xlink:href="#DejaVuSans-20" x="782.492188"/>
      <use xlink:href="#DejaVuSans-63" x="814.279297"/>
      <use xlink:href="#DejaVuSans-6f" x="869.259766"/>
      <use xlink:href="#DejaVuSans-6e" x="930.441406"/>
      <use xlink:href="#DejaVuSans-74" x="993.820312"/>
      <use xlink:href="#DejaVuSans-72" x="1033.029297"/>
      <use xlink:href="#DejaVuSans-6f" x="1071.892578"/>
      <use xlink:href="#DejaVuSans-6c" x="1133.074219"/>
     </g>
    </g>
    <g id="line2d_30">
     <path d="M 149.476696 315.402632 
L 159.476696 315.402632 
L 169.476696 315.402632 
" style="fill: none; stroke: #059669; stroke-opacity: 0.96; stroke-width: 2.3; stroke-linecap: square"/>
     <g>
      <use xlink:href="#m6545df0cc6" x="159.476696" y="315.402632" style="fill: #059669; fill-opacity: 0.96; stroke: #059669; stroke-opacity: 0.96"/>
     </g>
    </g>
    <g id="text_18">
     <!-- Batch-prototype triplets -->
     <g style="fill: #111827" transform="translate(177.476696 318.902632) scale(0.1 -0.1)">
      <use xlink:href="#DejaVuSans-42"/>
      <use xlink:href="#DejaVuSans-61" x="68.603516"/>
      <use xlink:href="#DejaVuSans-74" x="129.882812"/>
      <use xlink:href="#DejaVuSans-63" x="169.091797"/>
      <use xlink:href="#DejaVuSans-68" x="224.072266"/>
      <use xlink:href="#DejaVuSans-2d" x="287.451172"/>
      <use xlink:href="#DejaVuSans-70" x="323.535156"/>
      <use xlink:href="#DejaVuSans-72" x="387.011719"/>
      <use xlink:href="#DejaVuSans-6f" x="425.875"/>
      <use xlink:href="#DejaVuSans-74" x="487.056641"/>
      <use xlink:href="#DejaVuSans-6f" x="526.265625"/>
      <use xlink:href="#DejaVuSans-74" x="587.447266"/>
      <use xlink:href="#DejaVuSans-79" x="626.65625"/>
      <use xlink:href="#DejaVuSans-70" x="685.835938"/>
      <use xlink:href="#DejaVuSans-65" x="749.3125"/>
      <use xlink:href="#DejaVuSans-20" x="810.835938"/>
      <use xlink:href="#DejaVuSans-74" x="842.623047"/>
      <use xlink:href="#DejaVuSans-72" x="881.832031"/>
      <use xlink:href="#DejaVuSans-69" x="922.945312"/>
      <use xlink:href="#DejaVuSans-70" x="950.728516"/>
      <use xlink:href="#DejaVuSans-6c" x="1014.205078"/>
      <use xlink:href="#DejaVuSans-65" x="1041.988281"/>
      <use xlink:href="#DejaVuSans-74" x="1103.511719"/>
      <use xlink:href="#DejaVuSans-73" x="1142.720703"/>
     </g>
    </g>
    <g id="line2d_31">
     <path d="M 316.959509 271.368257 
L 326.959509 271.368257 
L 336.959509 271.368257 
" style="fill: none; stroke: #dc2626; stroke-opacity: 0.96; stroke-width: 2.3; stroke-linecap: square"/>
     <g>
      <use xlink:href="#mc0727d7bdb" x="326.959509" y="271.368257" style="fill: #dc2626; fill-opacity: 0.96; stroke: #dc2626; stroke-opacity: 0.96"/>
     </g>
    </g>
    <g id="text_19">
     <!-- High-pressure triplets -->
     <g style="fill: #111827" transform="translate(344.959509 274.868257) scale(0.1 -0.1)">
      <defs>
       <path id="DejaVuSans-48" d="M 628 4666 
L 1259 4666 
L 1259 2753 
L 3553 2753 
L 3553 4666 
L 4184 4666 
L 4184 0 
L 3553 0 
L 3553 2222 
L 1259 2222 
L 1259 0 
L 628 0 
L 628 4666 
z
" transform="scale(0.015625)"/>
      </defs>
      <use xlink:href="#DejaVuSans-48"/>
      <use xlink:href="#DejaVuSans-69" x="75.195312"/>
      <use xlink:href="#DejaVuSans-67" x="102.978516"/>
      <use xlink:href="#DejaVuSans-68" x="166.455078"/>
      <use xlink:href="#DejaVuSans-2d" x="229.833984"/>
      <use xlink:href="#DejaVuSans-70" x="265.917969"/>
      <use xlink:href="#DejaVuSans-72" x="329.394531"/>
      <use xlink:href="#DejaVuSans-65" x="368.257812"/>
      <use xlink:href="#DejaVuSans-73" x="429.78125"/>
      <use xlink:href="#DejaVuSans-73" x="481.880859"/>
      <use xlink:href="#DejaVuSans-75" x="533.980469"/>
      <use xlink:href="#DejaVuSans-72" x="597.359375"/>
      <use xlink:href="#DejaVuSans-65" x="636.222656"/>
      <use xlink:href="#DejaVuSans-20" x="697.746094"/>
      <use xlink:href="#DejaVuSans-74" x="729.533203"/>
      <use xlink:href="#DejaVuSans-72" x="768.742188"/>
      <use xlink:href="#DejaVuSans-69" x="809.855469"/>
      <use xlink:href="#DejaVuSans-70" x="837.638672"/>
      <use xlink:href="#DejaVuSans-6c" x="901.115234"/>
      <use xlink:href="#DejaVuSans-65" x="928.898438"/>
      <use xlink:href="#DejaVuSans-74" x="990.421875"/>
      <use xlink:href="#DejaVuSans-73" x="1029.630859"/>
     </g>
    </g>
    <g id="line2d_32">
     <path d="M 316.959509 286.046382 
L 326.959509 286.046382 
L 336.959509 286.046382 
" style="fill: none; stroke: #0f766e; stroke-opacity: 0.96; stroke-width: 2.3; stroke-linecap: square"/>
     <g>
      <use xlink:href="#me41b072759" x="326.959509" y="286.046382" style="fill: #0f766e; fill-opacity: 0.96; stroke: #0f766e; stroke-opacity: 0.96"/>
     </g>
    </g>
    <g id="text_20">
     <!-- Joint matrix alignment -->
     <g style="fill: #111827" transform="translate(344.959509 289.546382) scale(0.1 -0.1)">
      <defs>
       <path id="DejaVuSans-4a" d="M 628 4666 
L 1259 4666 
L 1259 325 
Q 1259 -519 939 -900 
Q 619 -1281 -91 -1281 
L -331 -1281 
L -331 -750 
L -134 -750 
Q 284 -750 456 -515 
Q 628 -281 628 325 
L 628 4666 
z
" transform="scale(0.015625)"/>
      </defs>
      <use xlink:href="#DejaVuSans-4a"/>
      <use xlink:href="#DejaVuSans-6f" x="29.492188"/>
      <use xlink:href="#DejaVuSans-69" x="90.673828"/>
      <use xlink:href="#DejaVuSans-6e" x="118.457031"/>
      <use xlink:href="#DejaVuSans-74" x="181.835938"/>
      <use xlink:href="#DejaVuSans-20" x="221.044922"/>
      <use xlink:href="#DejaVuSans-6d" x="252.832031"/>
      <use xlink:href="#DejaVuSans-61" x="350.244141"/>
      <use xlink:href="#DejaVuSans-74" x="411.523438"/>
      <use xlink:href="#DejaVuSans-72" x="450.732422"/>
      <use xlink:href="#DejaVuSans-69" x="491.845703"/>
      <use xlink:href="#DejaVuSans-78" x="519.628906"/>
      <use xlink:href="#DejaVuSans-20" x="578.808594"/>
      <use xlink:href="#DejaVuSans-61" x="610.595703"/>
      <use xlink:href="#DejaVuSans-6c" x="671.875"/>
      <use xlink:href="#DejaVuSans-69" x="699.658203"/>
      <use xlink:href="#DejaVuSans-67" x="727.441406"/>
      <use xlink:href="#DejaVuSans-6e" x="790.917969"/>
      <use xlink:href="#DejaVuSans-6d" x="854.296875"/>
      <use xlink:href="#DejaVuSans-65" x="951.708984"/>
      <use xlink:href="#DejaVuSans-6e" x="1013.232422"/>
      <use xlink:href="#DejaVuSans-74" x="1076.611328"/>
     </g>
    </g>
    <g id="line2d_33">
     <path d="M 316.959509 300.724507 
L 326.959509 300.724507 
L 336.959509 300.724507 
" style="fill: none; stroke: #b8c0cc; stroke-opacity: 0.42; stroke-width: 1.5; stroke-linecap: square"/>
     <g>
      <use xlink:href="#me109e006ec" x="326.959509" y="300.724507" style="fill: #b8c0cc; fill-opacity: 0.42; stroke: #b8c0cc; stroke-opacity: 0.42"/>
     </g>
    </g>
    <g id="text_21">
     <!-- Matrix control -->
     <g style="fill: #111827" transform="translate(344.959509 304.224507) scale(0.1 -0.1)">
      <use xlink:href="#DejaVuSans-4d"/>
      <use xlink:href="#DejaVuSans-61" x="86.279297"/>
      <use xlink:href="#DejaVuSans-74" x="147.558594"/>
      <use xlink:href="#DejaVuSans-72" x="186.767578"/>
      <use xlink:href="#DejaVuSans-69" x="227.880859"/>
      <use xlink:href="#DejaVuSans-78" x="255.664062"/>
      <use xlink:href="#DejaVuSans-20" x="314.84375"/>
      <use xlink:href="#DejaVuSans-63" x="346.630859"/>
      <use xlink:href="#DejaVuSans-6f" x="401.611328"/>
      <use xlink:href="#DejaVuSans-6e" x="462.792969"/>
      <use xlink:href="#DejaVuSans-74" x="526.171875"/>
      <use xlink:href="#DejaVuSans-72" x="565.380859"/>
      <use xlink:href="#DejaVuSans-6f" x="604.244141"/>
      <use xlink:href="#DejaVuSans-6c" x="665.425781"/>
     </g>
    </g>
   </g>
  </g>
 </g>
 <defs>
  <clipPath id="p91a9ce492d">
   <rect x="30.104375" y="22.318125" width="545.807143" height="199.959063"/>
  </clipPath>
 </defs>
</svg>
