<?xml version="1.0" encoding="utf-8" standalone="no"?>
<!DOCTYPE svg PUBLIC "-//W3C//DTD SVG 1.1//EN"
  "http://www.w3.org/Graphics/SVG/1.1/DTD/svg11.dtd">
<svg xmlns:xlink="http://www.w3.org/1999/xlink" width="583.173192pt" height="327.616025pt" viewBox="0 0 583.173192 327.616025" xmlns="http://www.w3.org/2000/svg" version="1.1">
 <metadata>
  <rdf:RDF xmlns:dc="http://purl.org/dc/elements/1.1/" xmlns:cc="http://creativecommons.org/ns#" xmlns:rdf="http://www.w3.org/1999/02/22-rdf-syntax-ns#">
   <cc:Work>
    <dc:type rdf:resource="http://purl.org/dc/dcmitype/StillImage"/>
    <dc:date>2026-05-16T11:09:30.968073</dc:date>
    <dc:format>image/svg+xml</dc:format>
    <dc:creator>
     <cc:Agent>
      <dc:title>Matplotlib v3.10.9, https://matplotlib.org/</dc:title>
     </cc:Agent>
    </dc:creator>
   </cc:Work>
  </rdf:RDF>
 </metadata>
 <defs>
  <style type="text/css">*{stroke-linejoin: round; stroke-linecap: butt}</style>
 </defs>
 <g id="figure_1">
  <g id="patch_1">
   <path d="M 0 327.616025 
L 583.173192 327.616025 
L 583.173192 0 
L 0 0 
z
" style="fill: #fbfcfe"/>
  </g>
  <g id="axes_1">
   <g id="patch_2">
    <path d="M 51.958906 230.846536 
L 575.973192 230.846536 
L 575.973192 22.318125 
L 51.958906 22.318125 
z
" style="fill: #fbfcfe"/>
   </g>
   <g id="matplotlib.axis_1">
    <g id="xtick_1">
     <g id="line2d_1"/>
     <g id="text_1">
      <!-- top-1 -->
      <g style="fill: #475569" transform="translate(52.846154 248.886125) rotate(-20) scale(0.09 -0.09)">
       <defs>
        <path id="DejaVuSans-74" d="M 1172 4494 
L 1172 3500 
L 2356 3500 
L 2356 3053 
L 1172 3053 
L 1172 1153 
Q 1172 725 1289 603 
Q 1406 481 1766 481 
L 2356 481 
L 2356 0 
L 1766 0 
Q 1100 0 847 248 
Q 594 497 594 1153 
L 594 3053 
L 172 3053 
L 172 3500 
L 594 3500 
L 594 4494 
L 1172 4494 
z
" transform="scale(0.015625)"/>
        <path id="DejaVuSans-6f" d="M 1959 3097 
Q 1497 3097 1228 2736 
Q 959 2375 959 1747 
Q 959 1119 1226 758 
Q 1494 397 1959 397 
Q 2419 397 2687 759 
Q 2956 1122 2956 1747 
Q 2956 2369 2687 2733 
Q 2419 3097 1959 3097 
z
M 1959 3584 
Q 2709 3584 3137 3096 
Q 3566 2609 3566 1747 
Q 3566 888 3137 398 
Q 2709 -91 1959 -91 
Q 1206 -91 779 398 
Q 353 888 353 1747 
Q 353 2609 779 3096 
Q 1206 3584 1959 3584 
z
" transform="scale(0.015625)"/>
        <path id="DejaVuSans-70" d="M 1159 525 
L 1159 -1331 
L 581 -1331 
L 581 3500 
L 1159 3500 
L 1159 2969 
Q 1341 3281 1617 3432 
Q 1894 3584 2278 3584 
Q 2916 3584 3314 3078 
Q 3713 2572 3713 1747 
Q 3713 922 3314 415 
Q 2916 -91 2278 -91 
Q 1894 -91 1617 61 
Q 1341 213 1159 525 
z
M 3116 1747 
Q 3116 2381 2855 2742 
Q 2594 3103 2138 3103 
Q 1681 3103 1420 2742 
Q 1159 2381 1159 1747 
Q 1159 1113 1420 752 
Q 1681 391 2138 391 
Q 2594 391 2855 752 
Q 3116 1113 3116 1747 
z
" transform="scale(0.015625)"/>
        <path id="DejaVuSans-2d" d="M 313 2009 
L 1997 2009 
L 1997 1497 
L 313 1497 
L 313 2009 
z
" transform="scale(0.015625)"/>
        <path id="DejaVuSans-31" d="M 794 531 
L 1825 531 
L 1825 4091 
L 703 3866 
L 703 4441 
L 1819 4666 
L 2450 4666 
L 2450 531 
L 3481 531 
L 3481 0 
L 794 0 
L 794 531 
z
" transform="scale(0.015625)"/>
       </defs>
       <use xlink:href="#DejaVuSans-74"/>
       <use xlink:href="#DejaVuSans-6f" transform="translate(39.208984 0)"/>
       <use xlink:href="#DejaVuSans-70" transform="translate(100.390625 0)"/>
       <use xlink:href="#DejaVuSans-2d" transform="translate(163.867188 0)"/>
       <use xlink:href="#DejaVuSans-31" transform="translate(199.951172 0)"/>
      </g>
     </g>
    </g>
    <g id="xtick_2">
     <g id="line2d_2"/>
     <g id="text_2">
      <!-- retrieval@1 -->
      <g style="fill: #475569" transform="translate(145.019878 258.684361) rotate(-20) scale(0.09 -0.09)">
       <defs>
        <path id="DejaVuSans-72" d="M 2631 2963 
Q 2534 3019 2420 3045 
Q 2306 3072 2169 3072 
Q 1681 3072 1420 2755 
Q 1159 2438 1159 1844 
L 1159 0 
L 581 0 
L 581 3500 
L 1159 3500 
L 1159 2956 
Q 1341 3275 1631 3429 
Q 1922 3584 2338 3584 
Q 2397 3584 2469 3576 
Q 2541 3569 2628 3553 
L 2631 2963 
z
" transform="scale(0.015625)"/>
        <path id="DejaVuSans-65" d="M 3597 1894 
L 3597 1613 
L 953 1613 
Q 991 1019 1311 708 
Q 1631 397 2203 397 
Q 2534 397 2845 478 
Q 3156 559 3463 722 
L 3463 178 
Q 3153 47 2828 -22 
Q 2503 -91 2169 -91 
Q 1331 -91 842 396 
Q 353 884 353 1716 
Q 353 2575 817 3079 
Q 1281 3584 2069 3584 
Q 2775 3584 3186 3129 
Q 3597 2675 3597 1894 
z
M 3022 2063 
Q 3016 2534 2758 2815 
Q 2500 3097 2075 3097 
Q 1594 3097 1305 2825 
Q 1016 2553 972 2059 
L 3022 2063 
z
" transform="scale(0.015625)"/>
        <path id="DejaVuSans-69" d="M 603 3500 
L 1178 3500 
L 1178 0 
L 603 0 
L 603 3500 
z
M 603 4863 
L 1178 4863 
L 1178 4134 
L 603 4134 
L 603 4863 
z
" transform="scale(0.015625)"/>
        <path id="DejaVuSans-76" d="M 191 3500 
L 800 3500 
L 1894 563 
L 2988 3500 
L 3597 3500 
L 2284 0 
L 1503 0 
L 191 3500 
z
" transform="scale(0.015625)"/>
        <path id="DejaVuSans-61" d="M 2194 1759 
Q 1497 1759 1228 1600 
Q 959 1441 959 1056 
Q 959 750 1161 570 
Q 1363 391 1709 391 
Q 2188 391 2477 730 
Q 2766 1069 2766 1631 
L 2766 1759 
L 2194 1759 
z
M 3341 1997 
L 3341 0 
L 2766 0 
L 2766 531 
Q 2569 213 2275 61 
Q 1981 -91 1556 -91 
Q 1019 -91 701 211 
Q 384 513 384 1019 
Q 384 1609 779 1909 
Q 1175 2209 1959 2209 
L 2766 2209 
L 2766 2266 
Q 2766 2663 2505 2880 
Q 2244 3097 1772 3097 
Q 1472 3097 1187 3025 
Q 903 2953 641 2809 
L 641 3341 
Q 956 3463 1253 3523 
Q 1550 3584 1831 3584 
Q 2591 3584 2966 3190 
Q 3341 2797 3341 1997 
z
" transform="scale(0.015625)"/>
        <path id="DejaVuSans-6c" d="M 603 4863 
L 1178 4863 
L 1178 0 
L 603 0 
L 603 4863 
z
" transform="scale(0.015625)"/>
        <path id="DejaVuSans-40" d="M 2381 1678 
Q 2381 1231 2603 976 
Q 2825 722 3213 722 
Q 3597 722 3817 978 
Q 4038 1234 4038 1678 
Q 4038 2116 3813 2373 
Q 3588 2631 3206 2631 
Q 2828 2631 2604 2375 
Q 2381 2119 2381 1678 
z
M 4084 744 
Q 3897 503 3655 389 
Q 3413 275 3091 275 
Q 2553 275 2217 664 
Q 1881 1053 1881 1678 
Q 1881 2303 2218 2693 
Q 2556 3084 3091 3084 
Q 3413 3084 3656 2967 
Q 3900 2850 4084 2613 
L 4084 3022 
L 4531 3022 
L 4531 722 
Q 4988 791 5245 1139 
Q 5503 1488 5503 2041 
Q 5503 2375 5404 2669 
Q 5306 2963 5106 3213 
Q 4781 3622 4314 3839 
Q 3847 4056 3297 4056 
Q 2913 4056 2559 3954 
Q 2206 3853 1906 3653 
Q 1416 3334 1139 2817 
Q 863 2300 863 1697 
Q 863 1200 1042 765 
Q 1222 331 1563 0 
Q 1891 -325 2322 -495 
Q 2753 -666 3244 -666 
Q 3647 -666 4036 -530 
Q 4425 -394 4750 -141 
L 5031 -488 
Q 4641 -791 4180 -952 
Q 3719 -1113 3244 -1113 
Q 2666 -1113 2153 -908 
Q 1641 -703 1241 -313 
Q 841 78 631 592 
Q 422 1106 422 1697 
Q 422 2266 634 2781 
Q 847 3297 1241 3688 
Q 1644 4084 2172 4295 
Q 2700 4506 3291 4506 
Q 3953 4506 4520 4234 
Q 5088 3963 5472 3463 
Q 5706 3156 5829 2797 
Q 5953 2438 5953 2053 
Q 5953 1231 5456 756 
Q 4959 281 4084 263 
L 4084 744 
z
" transform="scale(0.015625)"/>
       </defs>
       <use xlink:href="#DejaVuSans-72"/>
       <use xlink:href="#DejaVuSans-65" transform="translate(38.863281 0)"/>
       <use xlink:href="#DejaVuSans-74" transform="translate(100.386719 0)"/>
       <use xlink:href="#DejaVuSans-72" transform="translate(139.595703 0)"/>
       <use xlink:href="#DejaVuSans-69" transform="translate(180.708984 0)"/>
       <use xlink:href="#DejaVuSans-65" transform="translate(208.492188 0)"/>
       <use xlink:href="#DejaVuSans-76" transform="translate(270.015625 0)"/>
       <use xlink:href="#DejaVuSans-61" transform="translate(329.195312 0)"/>
       <use xlink:href="#DejaVuSans-6c" transform="translate(390.474609 0)"/>
       <use xlink:href="#DejaVuSans-40" transform="translate(418.257812 0)"/>
       <use xlink:href="#DejaVuSans-31" transform="translate(518.257812 0)"/>
      </g>
     </g>
    </g>
    <g id="xtick_3">
     <g id="line2d_3"/>
     <g id="text_3">
      <!-- human rho -->
      <g style="fill: #475569" transform="translate(267.274925 257.533891) rotate(-20) scale(0.09 -0.09)">
       <defs>
        <path id="DejaVuSans-68" d="M 3513 2113 
L 3513 0 
L 2938 0 
L 2938 2094 
Q 2938 2591 2744 2837 
Q 2550 3084 2163 3084 
Q 1697 3084 1428 2787 
Q 1159 2491 1159 1978 
L 1159 0 
L 581 0 
L 581 4863 
L 1159 4863 
L 1159 2956 
Q 1366 3272 1645 3428 
Q 1925 3584 2291 3584 
Q 2894 3584 3203 3211 
Q 3513 2838 3513 2113 
z
" transform="scale(0.015625)"/>
        <path id="DejaVuSans-75" d="M 544 1381 
L 544 3500 
L 1119 3500 
L 1119 1403 
Q 1119 906 1312 657 
Q 1506 409 1894 409 
Q 2359 409 2629 706 
Q 2900 1003 2900 1516 
L 2900 3500 
L 3475 3500 
L 3475 0 
L 2900 0 
L 2900 538 
Q 2691 219 2414 64 
Q 2138 -91 1772 -91 
Q 1169 -91 856 284 
Q 544 659 544 1381 
z
M 1991 3584 
L 1991 3584 
z
" transform="scale(0.015625)"/>
        <path id="DejaVuSans-6d" d="M 3328 2828 
Q 3544 3216 3844 3400 
Q 4144 3584 4550 3584 
Q 5097 3584 5394 3201 
Q 5691 2819 5691 2113 
L 5691 0 
L 5113 0 
L 5113 2094 
Q 5113 2597 4934 2840 
Q 4756 3084 4391 3084 
Q 3944 3084 3684 2787 
Q 3425 2491 3425 1978 
L 3425 0 
L 2847 0 
L 2847 2094 
Q 2847 2600 2669 2842 
Q 2491 3084 2119 3084 
Q 1678 3084 1418 2786 
Q 1159 2488 1159 1978 
L 1159 0 
L 581 0 
L 581 3500 
L 1159 3500 
L 1159 2956 
Q 1356 3278 1631 3431 
Q 1906 3584 2284 3584 
Q 2666 3584 2933 3390 
Q 3200 3197 3328 2828 
z
" transform="scale(0.015625)"/>
        <path id="DejaVuSans-6e" d="M 3513 2113 
L 3513 0 
L 2938 0 
L 2938 2094 
Q 2938 2591 2744 2837 
Q 2550 3084 2163 3084 
Q 1697 3084 1428 2787 
Q 1159 2491 1159 1978 
L 1159 0 
L 581 0 
L 581 3500 
L 1159 3500 
L 1159 2956 
Q 1366 3272 1645 3428 
Q 1925 3584 2291 3584 
Q 2894 3584 3203 3211 
Q 3513 2838 3513 2113 
z
" transform="scale(0.015625)"/>
        <path id="DejaVuSans-20" transform="scale(0.015625)"/>
       </defs>
       <use xlink:href="#DejaVuSans-68"/>
       <use xlink:href="#DejaVuSans-75" transform="translate(63.378906 0)"/>
       <use xlink:href="#DejaVuSans-6d" transform="translate(126.757812 0)"/>
       <use xlink:href="#DejaVuSans-61" transform="translate(224.169922 0)"/>
       <use xlink:href="#DejaVuSans-6e" transform="translate(285.449219 0)"/>
       <use xlink:href="#DejaVuSans-20" transform="translate(348.828125 0)"/>
       <use xlink:href="#DejaVuSans-72" transform="translate(380.615234 0)"/>
       <use xlink:href="#DejaVuSans-68" transform="translate(419.978516 0)"/>
       <use xlink:href="#DejaVuSans-6f" transform="translate(483.357422 0)"/>
      </g>
     </g>
    </g>
    <g id="xtick_4">
     <g id="line2d_4"/>
     <g id="text_4">
      <!-- category probe -->
      <g style="fill: #475569" transform="translate(367.950812 264.237592) rotate(-20) scale(0.09 -0.09)">
       <defs>
        <path id="DejaVuSans-63" d="M 3122 3366 
L 3122 2828 
Q 2878 2963 2633 3030 
Q 2388 3097 2138 3097 
Q 1578 3097 1268 2742 
Q 959 2388 959 1747 
Q 959 1106 1268 751 
Q 1578 397 2138 397 
Q 2388 397 2633 464 
Q 2878 531 3122 666 
L 3122 134 
Q 2881 22 2623 -34 
Q 2366 -91 2075 -91 
Q 1284 -91 818 406 
Q 353 903 353 1747 
Q 353 2603 823 3093 
Q 1294 3584 2113 3584 
Q 2378 3584 2631 3529 
Q 2884 3475 3122 3366 
z
" transform="scale(0.015625)"/>
        <path id="DejaVuSans-67" d="M 2906 1791 
Q 2906 2416 2648 2759 
Q 2391 3103 1925 3103 
Q 1463 3103 1205 2759 
Q 947 2416 947 1791 
Q 947 1169 1205 825 
Q 1463 481 1925 481 
Q 2391 481 2648 825 
Q 2906 1169 2906 1791 
z
M 3481 434 
Q 3481 -459 3084 -895 
Q 2688 -1331 1869 -1331 
Q 1566 -1331 1297 -1286 
Q 1028 -1241 775 -1147 
L 775 -588 
Q 1028 -725 1275 -790 
Q 1522 -856 1778 -856 
Q 2344 -856 2625 -561 
Q 2906 -266 2906 331 
L 2906 616 
Q 2728 306 2450 153 
Q 2172 0 1784 0 
Q 1141 0 747 490 
Q 353 981 353 1791 
Q 353 2603 747 3093 
Q 1141 3584 1784 3584 
Q 2172 3584 2450 3431 
Q 2728 3278 2906 2969 
L 2906 3500 
L 3481 3500 
L 3481 434 
z
" transform="scale(0.015625)"/>
        <path id="DejaVuSans-79" d="M 2059 -325 
Q 1816 -950 1584 -1140 
Q 1353 -1331 966 -1331 
L 506 -1331 
L 506 -850 
L 844 -850 
Q 1081 -850 1212 -737 
Q 1344 -625 1503 -206 
L 1606 56 
L 191 3500 
L 800 3500 
L 1894 763 
L 2988 3500 
L 3597 3500 
L 2059 -325 
z
" transform="scale(0.015625)"/>
        <path id="DejaVuSans-62" d="M 3116 1747 
Q 3116 2381 2855 2742 
Q 2594 3103 2138 3103 
Q 1681 3103 1420 2742 
Q 1159 2381 1159 1747 
Q 1159 1113 1420 752 
Q 1681 391 2138 391 
Q 2594 391 2855 752 
Q 3116 1113 3116 1747 
z
M 1159 2969 
Q 1341 3281 1617 3432 
Q 1894 3584 2278 3584 
Q 2916 3584 3314 3078 
Q 3713 2572 3713 1747 
Q 3713 922 3314 415 
Q 2916 -91 2278 -91 
Q 1894 -91 1617 61 
Q 1341 213 1159 525 
L 1159 0 
L 581 0 
L 581 4863 
L 1159 4863 
L 1159 2969 
z
" transform="scale(0.015625)"/>
       </defs>
       <use xlink:href="#DejaVuSans-63"/>
       <use xlink:href="#DejaVuSans-61" transform="translate(54.980469 0)"/>
       <use xlink:href="#DejaVuSans-74" transform="translate(116.259766 0)"/>
       <use xlink:href="#DejaVuSans-65" transform="translate(155.46875 0)"/>
       <use xlink:href="#DejaVuSans-67" transform="translate(216.992188 0)"/>
       <use xlink:href="#DejaVuSans-6f" transform="translate(280.46875 0)"/>
       <use xlink:href="#DejaVuSans-72" transform="translate(341.650391 0)"/>
       <use xlink:href="#DejaVuSans-79" transform="translate(382.763672 0)"/>
       <use xlink:href="#DejaVuSans-20" transform="translate(441.943359 0)"/>
       <use xlink:href="#DejaVuSans-70" transform="translate(473.730469 0)"/>
       <use xlink:href="#DejaVuSans-72" transform="translate(537.207031 0)"/>
       <use xlink:href="#DejaVuSans-6f" transform="translate(576.070312 0)"/>
       <use xlink:href="#DejaVuSans-62" transform="translate(637.251953 0)"/>
       <use xlink:href="#DejaVuSans-65" transform="translate(700.728516 0)"/>
      </g>
     </g>
    </g>
    <g id="xtick_5">
     <g id="line2d_5"/>
     <g id="text_5">
      <!-- properties -->
      <g style="fill: #475569" transform="translate(508.359839 256.479614) rotate(-20) scale(0.09 -0.09)">
       <defs>
        <path id="DejaVuSans-73" d="M 2834 3397 
L 2834 2853 
Q 2591 2978 2328 3040 
Q 2066 3103 1784 3103 
Q 1356 3103 1142 2972 
Q 928 2841 928 2578 
Q 928 2378 1081 2264 
Q 1234 2150 1697 2047 
L 1894 2003 
Q 2506 1872 2764 1633 
Q 3022 1394 3022 966 
Q 3022 478 2636 193 
Q 2250 -91 1575 -91 
Q 1294 -91 989 -36 
Q 684 19 347 128 
L 347 722 
Q 666 556 975 473 
Q 1284 391 1588 391 
Q 1994 391 2212 530 
Q 2431 669 2431 922 
Q 2431 1156 2273 1281 
Q 2116 1406 1581 1522 
L 1381 1569 
Q 847 1681 609 1914 
Q 372 2147 372 2553 
Q 372 3047 722 3315 
Q 1072 3584 1716 3584 
Q 2034 3584 2315 3537 
Q 2597 3491 2834 3397 
z
" transform="scale(0.015625)"/>
       </defs>
       <use xlink:href="#DejaVuSans-70"/>
       <use xlink:href="#DejaVuSans-72" transform="translate(63.476562 0)"/>
       <use xlink:href="#DejaVuSans-6f" transform="translate(102.339844 0)"/>
       <use xlink:href="#DejaVuSans-70" transform="translate(163.521484 0)"/>
       <use xlink:href="#DejaVuSans-65" transform="translate(226.998047 0)"/>
       <use xlink:href="#DejaVuSans-72" transform="translate(288.521484 0)"/>
       <use xlink:href="#DejaVuSans-74" transform="translate(329.634766 0)"/>
       <use xlink:href="#DejaVuSans-69" transform="translate(368.84375 0)"/>
       <use xlink:href="#DejaVuSans-65" transform="translate(396.626953 0)"/>
       <use xlink:href="#DejaVuSans-73" transform="translate(458.150391 0)"/>
      </g>
     </g>
    </g>
   </g>
   <g id="matplotlib.axis_2">
    <g id="ytick_1">
     <g id="line2d_6">
      <path d="M 51.958906 223.395599 
L 575.973192 223.395599 
" clip-path="url(#pdfd6fae3ce)" style="fill: none; stroke: #cbd5e1; stroke-opacity: 0.35; stroke-width: 0.8; stroke-linecap: square"/>
     </g>
     <g id="line2d_7"/>
     <g id="text_6">
      <!-- −0.03 -->
      <g style="fill: #475569" transform="translate(20.878125 226.814896) scale(0.09 -0.09)">
       <defs>
        <path id="DejaVuSans-2212" d="M 678 2272 
L 4684 2272 
L 4684 1741 
L 678 1741 
L 678 2272 
z
" transform="scale(0.015625)"/>
        <path id="DejaVuSans-30" d="M 2034 4250 
Q 1547 4250 1301 3770 
Q 1056 3291 1056 2328 
Q 1056 1369 1301 889 
Q 1547 409 2034 409 
Q 2525 409 2770 889 
Q 3016 1369 3016 2328 
Q 3016 3291 2770 3770 
Q 2525 4250 2034 4250 
z
M 2034 4750 
Q 2819 4750 3233 4129 
Q 3647 3509 3647 2328 
Q 3647 1150 3233 529 
Q 2819 -91 2034 -91 
Q 1250 -91 836 529 
Q 422 1150 422 2328 
Q 422 3509 836 4129 
Q 1250 4750 2034 4750 
z
" transform="scale(0.015625)"/>
        <path id="DejaVuSans-2e" d="M 684 794 
L 1344 794 
L 1344 0 
L 684 0 
L 684 794 
z
" transform="scale(0.015625)"/>
        <path id="DejaVuSans-33" d="M 2597 2516 
Q 3050 2419 3304 2112 
Q 3559 1806 3559 1356 
Q 3559 666 3084 287 
Q 2609 -91 1734 -91 
Q 1441 -91 1130 -33 
Q 819 25 488 141 
L 488 750 
Q 750 597 1062 519 
Q 1375 441 1716 441 
Q 2309 441 2620 675 
Q 2931 909 2931 1356 
Q 2931 1769 2642 2001 
Q 2353 2234 1838 2234 
L 1294 2234 
L 1294 2753 
L 1863 2753 
Q 2328 2753 2575 2939 
Q 2822 3125 2822 3475 
Q 2822 3834 2567 4026 
Q 2313 4219 1838 4219 
Q 1578 4219 1281 4162 
Q 984 4106 628 3988 
L 628 4550 
Q 988 4650 1302 4700 
Q 1616 4750 1894 4750 
Q 2613 4750 3031 4423 
Q 3450 4097 3450 3541 
Q 3450 3153 3228 2886 
Q 3006 2619 2597 2516 
z
" transform="scale(0.015625)"/>
       </defs>
       <use xlink:href="#DejaVuSans-2212"/>
       <use xlink:href="#DejaVuSans-30" transform="translate(83.789062 0)"/>
       <use xlink:href="#DejaVuSans-2e" transform="translate(147.412109 0)"/>
       <use xlink:href="#DejaVuSans-30" transform="translate(179.199219 0)"/>
       <use xlink:href="#DejaVuSans-33" transform="translate(242.822266 0)"/>
      </g>
     </g>
    </g>
    <g id="ytick_2">
     <g id="line2d_8">
      <path d="M 51.958906 192.140941 
L 575.973192 192.140941 
" clip-path="url(#pdfd6fae3ce)" style="fill: none; stroke: #cbd5e1; stroke-opacity: 0.35; stroke-width: 0.8; stroke-linecap: square"/>
     </g>
     <g id="line2d_9"/>
     <g id="text_7">
      <!-- −0.02 -->
      <g style="fill: #475569" transform="translate(20.878125 195.560238) scale(0.09 -0.09)">
       <defs>
        <path id="DejaVuSans-32" d="M 1228 531 
L 3431 531 
L 3431 0 
L 469 0 
L 469 531 
Q 828 903 1448 1529 
Q 2069 2156 2228 2338 
Q 2531 2678 2651 2914 
Q 2772 3150 2772 3378 
Q 2772 3750 2511 3984 
Q 2250 4219 1831 4219 
Q 1534 4219 1204 4116 
Q 875 4013 500 3803 
L 500 4441 
Q 881 4594 1212 4672 
Q 1544 4750 1819 4750 
Q 2544 4750 2975 4387 
Q 3406 4025 3406 3419 
Q 3406 3131 3298 2873 
Q 3191 2616 2906 2266 
Q 2828 2175 2409 1742 
Q 1991 1309 1228 531 
z
" transform="scale(0.015625)"/>
       </defs>
       <use xlink:href="#DejaVuSans-2212"/>
       <use xlink:href="#DejaVuSans-30" transform="translate(83.789062 0)"/>
       <use xlink:href="#DejaVuSans-2e" transform="translate(147.412109 0)"/>
       <use xlink:href="#DejaVuSans-30" transform="translate(179.199219 0)"/>
       <use xlink:href="#DejaVuSans-32" transform="translate(242.822266 0)"/>
      </g>
     </g>
    </g>
    <g id="ytick_3">
     <g id="line2d_10">
      <path d="M 51.958906 160.886284 
L 575.973192 160.886284 
" clip-path="url(#pdfd6fae3ce)" style="fill: none; stroke: #cbd5e1; stroke-opacity: 0.35; stroke-width: 0.8; stroke-linecap: square"/>
     </g>
     <g id="line2d_11"/>
     <g id="text_8">
      <!-- −0.01 -->
      <g style="fill: #475569" transform="translate(20.878125 164.305581) scale(0.09 -0.09)">
       <use xlink:href="#DejaVuSans-2212"/>
       <use xlink:href="#DejaVuSans-30" transform="translate(83.789062 0)"/>
       <use xlink:href="#DejaVuSans-2e" transform="translate(147.412109 0)"/>
       <use xlink:href="#DejaVuSans-30" transform="translate(179.199219 0)"/>
       <use xlink:href="#DejaVuSans-31" transform="translate(242.822266 0)"/>
      </g>
     </g>
    </g>
    <g id="ytick_4">
     <g id="line2d_12">
      <path d="M 51.958906 129.631626 
L 575.973192 129.631626 
" clip-path="url(#pdfd6fae3ce)" style="fill: none; stroke: #cbd5e1; stroke-opacity: 0.35; stroke-width: 0.8; stroke-linecap: square"/>
     </g>
     <g id="line2d_13"/>
     <g id="text_9">
      <!-- 0.00 -->
      <g style="fill: #475569" transform="translate(28.419844 133.050923) scale(0.09 -0.09)">
       <use xlink:href="#DejaVuSans-30"/>
       <use xlink:href="#DejaVuSans-2e" transform="translate(63.623047 0)"/>
       <use xlink:href="#DejaVuSans-30" transform="translate(95.410156 0)"/>
       <use xlink:href="#DejaVuSans-30" transform="translate(159.033203 0)"/>
      </g>
     </g>
    </g>
    <g id="ytick_5">
     <g id="line2d_14">
      <path d="M 51.958906 98.376968 
L 575.973192 98.376968 
" clip-path="url(#pdfd6fae3ce)" style="fill: none; stroke: #cbd5e1; stroke-opacity: 0.35; stroke-width: 0.8; stroke-linecap: square"/>
     </g>
     <g id="line2d_15"/>
     <g id="text_10">
      <!-- 0.01 -->
      <g style="fill: #475569" transform="translate(28.419844 101.796265) scale(0.09 -0.09)">
       <use xlink:href="#DejaVuSans-30"/>
       <use xlink:href="#DejaVuSans-2e" transform="translate(63.623047 0)"/>
       <use xlink:href="#DejaVuSans-30" transform="translate(95.410156 0)"/>
       <use xlink:href="#DejaVuSans-31" transform="translate(159.033203 0)"/>
      </g>
     </g>
    </g>
    <g id="ytick_6">
     <g id="line2d_16">
      <path d="M 51.958906 67.12231 
L 575.973192 67.12231 
" clip-path="url(#pdfd6fae3ce)" style="fill: none; stroke: #cbd5e1; stroke-opacity: 0.35; stroke-width: 0.8; stroke-linecap: square"/>
     </g>
     <g id="line2d_17"/>
     <g id="text_11">
      <!-- 0.02 -->
      <g style="fill: #475569" transform="translate(28.419844 70.541607) scale(0.09 -0.09)">
       <use xlink:href="#DejaVuSans-30"/>
       <use xlink:href="#DejaVuSans-2e" transform="translate(63.623047 0)"/>
       <use xlink:href="#DejaVuSans-30" transform="translate(95.410156 0)"/>
       <use xlink:href="#DejaVuSans-32" transform="translate(159.033203 0)"/>
      </g>
     </g>
    </g>
    <g id="ytick_7">
     <g id="line2d_18">
      <path d="M 51.958906 35.867653 
L 575.973192 35.867653 
" clip-path="url(#pdfd6fae3ce)" style="fill: none; stroke: #cbd5e1; stroke-opacity: 0.35; stroke-width: 0.8; stroke-linecap: square"/>
     </g>
     <g id="line2d_19"/>
     <g id="text_12">
      <!-- 0.03 -->
      <g style="fill: #475569" transform="translate(28.419844 39.286949) scale(0.09 -0.09)">
       <use xlink:href="#DejaVuSans-30"/>
       <use xlink:href="#DejaVuSans-2e" transform="translate(63.623047 0)"/>
       <use xlink:href="#DejaVuSans-30" transform="translate(95.410156 0)"/>
       <use xlink:href="#DejaVuSans-33" transform="translate(159.033203 0)"/>
      </g>
     </g>
    </g>
    <g id="text_13">
     <!-- delta vs image-only baseline -->
     <g style="fill: #475569" transform="translate(14.798438 198.569049) rotate(-90) scale(0.1 -0.1)">
      <defs>
       <path id="DejaVuSans-64" d="M 2906 2969 
L 2906 4863 
L 3481 4863 
L 3481 0 
L 2906 0 
L 2906 525 
Q 2725 213 2448 61 
Q 2172 -91 1784 -91 
Q 1150 -91 751 415 
Q 353 922 353 1747 
Q 353 2572 751 3078 
Q 1150 3584 1784 3584 
Q 2172 3584 2448 3432 
Q 2725 3281 2906 2969 
z
M 947 1747 
Q 947 1113 1208 752 
Q 1469 391 1925 391 
Q 2381 391 2643 752 
Q 2906 1113 2906 1747 
Q 2906 2381 2643 2742 
Q 2381 3103 1925 3103 
Q 1469 3103 1208 2742 
Q 947 2381 947 1747 
z
" transform="scale(0.015625)"/>
      </defs>
      <use xlink:href="#DejaVuSans-64"/>
      <use xlink:href="#DejaVuSans-65" transform="translate(63.476562 0)"/>
      <use xlink:href="#DejaVuSans-6c" transform="translate(125 0)"/>
      <use xlink:href="#DejaVuSans-74" transform="translate(152.783203 0)"/>
      <use xlink:href="#DejaVuSans-61" transform="translate(191.992188 0)"/>
      <use xlink:href="#DejaVuSans-20" transform="translate(253.271484 0)"/>
      <use xlink:href="#DejaVuSans-76" transform="translate(285.058594 0)"/>
      <use xlink:href="#DejaVuSans-73" transform="translate(344.238281 0)"/>
      <use xlink:href="#DejaVuSans-20" transform="translate(396.337891 0)"/>
      <use xlink:href="#DejaVuSans-69" transform="translate(428.125 0)"/>
      <use xlink:href="#DejaVuSans-6d" transform="translate(455.908203 0)"/>
      <use xlink:href="#DejaVuSans-61" transform="translate(553.320312 0)"/>
      <use xlink:href="#DejaVuSans-67" transform="translate(614.599609 0)"/>
      <use xlink:href="#DejaVuSans-65" transform="translate(678.076172 0)"/>
      <use xlink:href="#DejaVuSans-2d" transform="translate(739.599609 0)"/>
      <use xlink:href="#DejaVuSans-6f" transform="translate(777.558594 0)"/>
      <use xlink:href="#DejaVuSans-6e" transform="translate(838.740234 0)"/>
      <use xlink:href="#DejaVuSans-6c" transform="translate(902.119141 0)"/>
      <use xlink:href="#DejaVuSans-79" transform="translate(929.902344 0)"/>
      <use xlink:href="#DejaVuSans-20" transform="translate(989.082031 0)"/>
      <use xlink:href="#DejaVuSans-62" transform="translate(1020.869141 0)"/>
      <use xlink:href="#DejaVuSans-61" transform="translate(1084.345703 0)"/>
      <use xlink:href="#DejaVuSans-73" transform="translate(1145.625 0)"/>
      <use xlink:href="#DejaVuSans-65" transform="translate(1197.724609 0)"/>
      <use xlink:href="#DejaVuSans-6c" transform="translate(1259.248047 0)"/>
      <use xlink:href="#DejaVuSans-69" transform="translate(1287.03125 0)"/>
      <use xlink:href="#DejaVuSans-6e" transform="translate(1314.814453 0)"/>
      <use xlink:href="#DejaVuSans-65" transform="translate(1378.193359 0)"/>
     </g>
    </g>
   </g>
   <g id="line2d_20">
    <path d="M 51.958906 129.631626 
L 575.973192 129.631626 
" clip-path="url(#pdfd6fae3ce)" style="fill: none; stroke: #111827; stroke-opacity: 0.72; stroke-linecap: square"/>
   </g>
   <g id="line2d_21">
    <path d="M 75.777737 81.127792 
L 194.871893 80.895777 
L 313.966049 215.751624 
L 433.060205 133.942613 
L 552.154361 142.639222 
" clip-path="url(#pdfd6fae3ce)" style="fill: none; stroke: #2563eb; stroke-width: 2; stroke-linecap: square"/>
    <defs>
     <path id="m1b088c1d73" d="M 0 2.75 
C 0.729309 2.75 1.428845 2.460243 1.944544 1.944544 
C 2.460243 1.428845 2.75 0.729309 2.75 0 
C 2.75 -0.729309 2.460243 -1.428845 1.944544 -1.944544 
C 1.428845 -2.460243 0.729309 -2.75 0 -2.75 
C -0.729309 -2.75 -1.428845 -2.460243 -1.944544 -1.944544 
C -2.460243 -1.428845 -2.75 -0.729309 -2.75 0 
C -2.75 0.729309 -2.460243 1.428845 -1.944544 1.944544 
C -1.428845 2.460243 -0.729309 2.75 0 2.75 
z
" style="stroke: #2563eb"/>
    </defs>
    <g clip-path="url(#pdfd6fae3ce)">
     <use xlink:href="#m1b088c1d73" x="75.777737" y="81.127792" style="fill: #2563eb; stroke: #2563eb"/>
     <use xlink:href="#m1b088c1d73" x="194.871893" y="80.895777" style="fill: #2563eb; stroke: #2563eb"/>
     <use xlink:href="#m1b088c1d73" x="313.966049" y="215.751624" style="fill: #2563eb; stroke: #2563eb"/>
     <use xlink:href="#m1b088c1d73" x="433.060205" y="133.942613" style="fill: #2563eb; stroke: #2563eb"/>
     <use xlink:href="#m1b088c1d73" x="552.154361" y="142.639222" style="fill: #2563eb; stroke: #2563eb"/>
    </g>
   </g>
   <g id="line2d_22">
    <path d="M 75.777737 81.127792 
L 194.871893 80.560438 
L 313.966049 221.367972 
L 433.060205 131.779661 
L 552.154361 142.743413 
" clip-path="url(#pdfd6fae3ce)" style="fill: none; stroke: #93c5fd; stroke-width: 2; stroke-linecap: square"/>
    <defs>
     <path id="mc967cc1b1f" d="M 0 2.75 
C 0.729309 2.75 1.428845 2.460243 1.944544 1.944544 
C 2.460243 1.428845 2.75 0.729309 2.75 0 
C 2.75 -0.729309 2.460243 -1.428845 1.944544 -1.944544 
C 1.428845 -2.460243 0.729309 -2.75 0 -2.75 
C -0.729309 -2.75 -1.428845 -2.460243 -1.944544 -1.944544 
C -2.460243 -1.428845 -2.75 -0.729309 -2.75 0 
C -2.75 0.729309 -2.460243 1.428845 -1.944544 1.944544 
C -1.428845 2.460243 -0.729309 2.75 0 2.75 
z
" style="stroke: #93c5fd"/>
    </defs>
    <g clip-path="url(#pdfd6fae3ce)">
     <use xlink:href="#mc967cc1b1f" x="75.777737" y="81.127792" style="fill: #93c5fd; stroke: #93c5fd"/>
     <use xlink:href="#mc967cc1b1f" x="194.871893" y="80.560438" style="fill: #93c5fd; stroke: #93c5fd"/>
     <use xlink:href="#mc967cc1b1f" x="313.966049" y="221.367972" style="fill: #93c5fd; stroke: #93c5fd"/>
     <use xlink:href="#mc967cc1b1f" x="433.060205" y="131.779661" style="fill: #93c5fd; stroke: #93c5fd"/>
     <use xlink:href="#mc967cc1b1f" x="552.154361" y="142.743413" style="fill: #93c5fd; stroke: #93c5fd"/>
    </g>
   </g>
   <g id="line2d_23">
    <path d="M 75.777737 112.958433 
L 194.871893 108.505306 
L 313.966049 183.543613 
L 433.060205 133.95753 
L 552.154361 144.121238 
" clip-path="url(#pdfd6fae3ce)" style="fill: none; stroke: #059669; stroke-width: 2; stroke-linecap: square"/>
    <defs>
     <path id="m239210b55c" d="M 0 2.75 
C 0.729309 2.75 1.428845 2.460243 1.944544 1.944544 
C 2.460243 1.428845 2.75 0.729309 2.75 0 
C 2.75 -0.729309 2.460243 -1.428845 1.944544 -1.944544 
C 1.428845 -2.460243 0.729309 -2.75 0 -2.75 
C -0.729309 -2.75 -1.428845 -2.460243 -1.944544 -1.944544 
C -2.460243 -1.428845 -2.75 -0.729309 -2.75 0 
C -2.75 0.729309 -2.460243 1.428845 -1.944544 1.944544 
C -1.428845 2.460243 -0.729309 2.75 0 2.75 
z
" style="stroke: #059669"/>
    </defs>
    <g clip-path="url(#pdfd6fae3ce)">
     <use xlink:href="#m239210b55c" x="75.777737" y="112.958433" style="fill: #059669; stroke: #059669"/>
     <use xlink:href="#m239210b55c" x="194.871893" y="108.505306" style="fill: #059669; stroke: #059669"/>
     <use xlink:href="#m239210b55c" x="313.966049" y="183.543613" style="fill: #059669; stroke: #059669"/>
     <use xlink:href="#m239210b55c" x="433.060205" y="133.95753" style="fill: #059669; stroke: #059669"/>
     <use xlink:href="#m239210b55c" x="552.154361" y="144.121238" style="fill: #059669; stroke: #059669"/>
    </g>
   </g>
   <g id="line2d_24">
    <path d="M 75.777737 112.200561 
L 194.871893 129.966964 
L 313.966049 34.164225 
L 433.060205 148.803379 
L 552.154361 131.71759 
" clip-path="url(#pdfd6fae3ce)" style="fill: none; stroke: #dc2626; stroke-width: 2; stroke-linecap: square"/>
    <defs>
     <path id="m06297f3953" d="M 0 2.75 
C 0.729309 2.75 1.428845 2.460243 1.944544 1.944544 
C 2.460243 1.428845 2.75 0.729309 2.75 0 
C 2.75 -0.729309 2.460243 -1.428845 1.944544 -1.944544 
C 1.428845 -2.460243 0.729309 -2.75 0 -2.75 
C -0.729309 -2.75 -1.428845 -2.460243 -1.944544 -1.944544 
C -2.460243 -1.428845 -2.75 -0.729309 -2.75 0 
C -2.75 0.729309 -2.460243 1.428845 -1.944544 1.944544 
C -1.428845 2.460243 -0.729309 2.75 0 2.75 
z
" style="stroke: #dc2626"/>
    </defs>
    <g clip-path="url(#pdfd6fae3ce)">
     <use xlink:href="#m06297f3953" x="75.777737" y="112.200561" style="fill: #dc2626; stroke: #dc2626"/>
     <use xlink:href="#m06297f3953" x="194.871893" y="129.966964" style="fill: #dc2626; stroke: #dc2626"/>
     <use xlink:href="#m06297f3953" x="313.966049" y="34.164225" style="fill: #dc2626; stroke: #dc2626"/>
     <use xlink:href="#m06297f3953" x="433.060205" y="148.803379" style="fill: #dc2626; stroke: #dc2626"/>
     <use xlink:href="#m06297f3953" x="552.154361" y="131.71759" style="fill: #dc2626; stroke: #dc2626"/>
    </g>
   </g>
   <g id="line2d_25">
    <path d="M 75.777737 101.590347 
L 194.871893 110.181998 
L 313.966049 31.796689 
L 433.060205 125.328097 
L 552.154361 132.640164 
" clip-path="url(#pdfd6fae3ce)" style="fill: none; stroke: #0f766e; stroke-width: 2; stroke-linecap: square"/>
    <defs>
     <path id="md64ae3ab12" d="M 0 2.75 
C 0.729309 2.75 1.428845 2.460243 1.944544 1.944544 
C 2.460243 1.428845 2.75 0.729309 2.75 0 
C 2.75 -0.729309 2.460243 -1.428845 1.944544 -1.944544 
C 1.428845 -2.460243 0.729309 -2.75 0 -2.75 
C -0.729309 -2.75 -1.428845 -2.460243 -1.944544 -1.944544 
C -2.460243 -1.428845 -2.75 -0.729309 -2.75 0 
C -2.75 0.729309 -2.460243 1.428845 -1.944544 1.944544 
C -1.428845 2.460243 -0.729309 2.75 0 2.75 
z
" style="stroke: #0f766e"/>
    </defs>
    <g clip-path="url(#pdfd6fae3ce)">
     <use xlink:href="#md64ae3ab12" x="75.777737" y="101.590347" style="fill: #0f766e; stroke: #0f766e"/>
     <use xlink:href="#md64ae3ab12" x="194.871893" y="110.181998" style="fill: #0f766e; stroke: #0f766e"/>
     <use xlink:href="#md64ae3ab12" x="313.966049" y="31.796689" style="fill: #0f766e; stroke: #0f766e"/>
     <use xlink:href="#md64ae3ab12" x="433.060205" y="125.328097" style="fill: #0f766e; stroke: #0f766e"/>
     <use xlink:href="#md64ae3ab12" x="552.154361" y="132.640164" style="fill: #0f766e; stroke: #0f766e"/>
    </g>
   </g>
   <g id="line2d_26">
    <path d="M 75.777737 128.873754 
L 194.871893 130.749421 
L 313.966049 130.62756 
L 433.060205 129.631626 
L 552.154361 129.817369 
" clip-path="url(#pdfd6fae3ce)" style="fill: none; stroke: #99f6e4; stroke-width: 2; stroke-linecap: square"/>
    <defs>
     <path id="med497ec7db" d="M 0 2.75 
C 0.729309 2.75 1.428845 2.460243 1.944544 1.944544 
C 2.460243 1.428845 2.75 0.729309 2.75 0 
C 2.75 -0.729309 2.460243 -1.428845 1.944544 -1.944544 
C 1.428845 -2.460243 0.729309 -2.75 0 -2.75 
C -0.729309 -2.75 -1.428845 -2.460243 -1.944544 -1.944544 
C -2.460243 -1.428845 -2.75 -0.729309 -2.75 0 
C -2.75 0.729309 -2.460243 1.428845 -1.944544 1.944544 
C -1.428845 2.460243 -0.729309 2.75 0 2.75 
z
" style="stroke: #99f6e4"/>
    </defs>
    <g clip-path="url(#pdfd6fae3ce)">
     <use xlink:href="#med497ec7db" x="75.777737" y="128.873754" style="fill: #99f6e4; stroke: #99f6e4"/>
     <use xlink:href="#med497ec7db" x="194.871893" y="130.749421" style="fill: #99f6e4; stroke: #99f6e4"/>
     <use xlink:href="#med497ec7db" x="313.966049" y="130.62756" style="fill: #99f6e4; stroke: #99f6e4"/>
     <use xlink:href="#med497ec7db" x="433.060205" y="129.631626" style="fill: #99f6e4; stroke: #99f6e4"/>
     <use xlink:href="#med497ec7db" x="552.154361" y="129.817369" style="fill: #99f6e4; stroke: #99f6e4"/>
    </g>
   </g>
   <g id="text_14">
    <!-- How Each Human-Informed Variant Moves the Embedding -->
    <g style="fill: #111827" transform="translate(139.621049 16.318125) scale(0.12 -0.12)">
     <defs>
      <path id="DejaVuSans-48" d="M 628 4666 
L 1259 4666 
L 1259 2753 
L 3553 2753 
L 3553 4666 
L 4184 4666 
L 4184 0 
L 3553 0 
L 3553 2222 
L 1259 2222 
L 1259 0 
L 628 0 
L 628 4666 
z
" transform="scale(0.015625)"/>
      <path id="DejaVuSans-77" d="M 269 3500 
L 844 3500 
L 1563 769 
L 2278 3500 
L 2956 3500 
L 3675 769 
L 4391 3500 
L 4966 3500 
L 4050 0 
L 3372 0 
L 2619 2869 
L 1863 0 
L 1184 0 
L 269 3500 
z
" transform="scale(0.015625)"/>
      <path id="DejaVuSans-45" d="M 628 4666 
L 3578 4666 
L 3578 4134 
L 1259 4134 
L 1259 2753 
L 3481 2753 
L 3481 2222 
L 1259 2222 
L 1259 531 
L 3634 531 
L 3634 0 
L 628 0 
L 628 4666 
z
" transform="scale(0.015625)"/>
      <path id="DejaVuSans-49" d="M 628 4666 
L 1259 4666 
L 1259 0 
L 628 0 
L 628 4666 
z
" transform="scale(0.015625)"/>
      <path id="DejaVuSans-66" d="M 2375 4863 
L 2375 4384 
L 1825 4384 
Q 1516 4384 1395 4259 
Q 1275 4134 1275 3809 
L 1275 3500 
L 2222 3500 
L 2222 3053 
L 1275 3053 
L 1275 0 
L 697 0 
L 697 3053 
L 147 3053 
L 147 3500 
L 697 3500 
L 697 3744 
Q 697 4328 969 4595 
Q 1241 4863 1831 4863 
L 2375 4863 
z
" transform="scale(0.015625)"/>
      <path id="DejaVuSans-56" d="M 1831 0 
L 50 4666 
L 709 4666 
L 2188 738 
L 3669 4666 
L 4325 4666 
L 2547 0 
L 1831 0 
z
" transform="scale(0.015625)"/>
      <path id="DejaVuSans-4d" d="M 628 4666 
L 1569 4666 
L 2759 1491 
L 3956 4666 
L 4897 4666 
L 4897 0 
L 4281 0 
L 4281 4097 
L 3078 897 
L 2444 897 
L 1241 4097 
L 1241 0 
L 628 0 
L 628 4666 
z
" transform="scale(0.015625)"/>
     </defs>
     <use xlink:href="#DejaVuSans-48"/>
     <use xlink:href="#DejaVuSans-6f" transform="translate(75.195312 0)"/>
     <use xlink:href="#DejaVuSans-77" transform="translate(136.376953 0)"/>
     <use xlink:href="#DejaVuSans-20" transform="translate(218.164062 0)"/>
     <use xlink:href="#DejaVuSans-45" transform="translate(249.951172 0)"/>
     <use xlink:href="#DejaVuSans-61" transform="translate(313.134766 0)"/>
     <use xlink:href="#DejaVuSans-63" transform="translate(374.414062 0)"/>
     <use xlink:href="#DejaVuSans-68" transform="translate(429.394531 0)"/>
     <use xlink:href="#DejaVuSans-20" transform="translate(492.773438 0)"/>
     <use xlink:href="#DejaVuSans-48" transform="translate(524.560547 0)"/>
     <use xlink:href="#DejaVuSans-75" transform="translate(599.755859 0)"/>
     <use xlink:href="#DejaVuSans-6d" transform="translate(663.134766 0)"/>
     <use xlink:href="#DejaVuSans-61" transform="translate(760.546875 0)"/>
     <use xlink:href="#DejaVuSans-6e" transform="translate(821.826172 0)"/>
     <use xlink:href="#DejaVuSans-2d" transform="translate(885.205078 0)"/>
     <use xlink:href="#DejaVuSans-49" transform="translate(921.289062 0)"/>
     <use xlink:href="#DejaVuSans-6e" transform="translate(950.78125 0)"/>
     <use xlink:href="#DejaVuSans-66" transform="translate(1014.160156 0)"/>
     <use xlink:href="#DejaVuSans-6f" transform="translate(1049.365234 0)"/>
     <use xlink:href="#DejaVuSans-72" transform="translate(1110.546875 0)"/>
     <use xlink:href="#DejaVuSans-6d" transform="translate(1149.910156 0)"/>
     <use xlink:href="#DejaVuSans-65" transform="translate(1247.322266 0)"/>
     <use xlink:href="#DejaVuSans-64" transform="translate(1308.845703 0)"/>
     <use xlink:href="#DejaVuSans-20" transform="translate(1372.322266 0)"/>
     <use xlink:href="#DejaVuSans-56" transform="translate(1404.109375 0)"/>
     <use xlink:href="#DejaVuSans-61" transform="translate(1464.767578 0)"/>
     <use xlink:href="#DejaVuSans-72" transform="translate(1526.046875 0)"/>
     <use xlink:href="#DejaVuSans-69" transform="translate(1567.160156 0)"/>
     <use xlink:href="#DejaVuSans-61" transform="translate(1594.943359 0)"/>
     <use xlink:href="#DejaVuSans-6e" transform="translate(1656.222656 0)"/>
     <use xlink:href="#DejaVuSans-74" transform="translate(1719.601562 0)"/>
     <use xlink:href="#DejaVuSans-20" transform="translate(1758.810547 0)"/>
     <use xlink:href="#DejaVuSans-4d" transform="translate(1790.597656 0)"/>
     <use xlink:href="#DejaVuSans-6f" transform="translate(1876.876953 0)"/>
     <use xlink:href="#DejaVuSans-76" transform="translate(1938.058594 0)"/>
     <use xlink:href="#DejaVuSans-65" transform="translate(1997.238281 0)"/>
     <use xlink:href="#DejaVuSans-73" transform="translate(2058.761719 0)"/>
     <use xlink:href="#DejaVuSans-20" transform="translate(2110.861328 0)"/>
     <use xlink:href="#DejaVuSans-74" transform="translate(2142.648438 0)"/>
     <use xlink:href="#DejaVuSans-68" transform="translate(2181.857422 0)"/>
     <use xlink:href="#DejaVuSans-65" transform="translate(2245.236328 0)"/>
     <use xlink:href="#DejaVuSans-20" transform="translate(2306.759766 0)"/>
     <use xlink:href="#DejaVuSans-45" transform="translate(2338.546875 0)"/>
     <use xlink:href="#DejaVuSans-6d" transform="translate(2401.730469 0)"/>
     <use xlink:href="#DejaVuSans-62" transform="translate(2499.142578 0)"/>
     <use xlink:href="#DejaVuSans-65" transform="translate(2562.619141 0)"/>
     <use xlink:href="#DejaVuSans-64" transform="translate(2624.142578 0)"/>
     <use xlink:href="#DejaVuSans-64" transform="translate(2687.619141 0)"/>
     <use xlink:href="#DejaVuSans-69" transform="translate(2751.095703 0)"/>
     <use xlink:href="#DejaVuSans-6e" transform="translate(2778.878906 0)"/>
     <use xlink:href="#DejaVuSans-67" transform="translate(2842.257812 0)"/>
    </g>
   </g>
   <g id="legend_1">
    <g id="line2d_27">
     <path d="M 183.951205 281.480088 
L 193.951205 281.480088 
L 203.951205 281.480088 
" style="fill: none; stroke: #2563eb; stroke-width: 2; stroke-linecap: square"/>
     <g>
      <use xlink:href="#m1b088c1d73" x="193.951205" y="281.480088" style="fill: #2563eb; stroke: #2563eb"/>
     </g>
    </g>
    <g id="text_15">
     <!-- v1 human -->
     <g style="fill: #111827" transform="translate(211.951205 284.980088) scale(0.1 -0.1)">
      <use xlink:href="#DejaVuSans-76"/>
      <use xlink:href="#DejaVuSans-31" transform="translate(59.179688 0)"/>
      <use xlink:href="#DejaVuSans-20" transform="translate(122.802734 0)"/>
      <use xlink:href="#DejaVuSans-68" transform="translate(154.589844 0)"/>
      <use xlink:href="#DejaVuSans-75" transform="translate(217.96875 0)"/>
      <use xlink:href="#DejaVuSans-6d" transform="translate(281.347656 0)"/>
      <use xlink:href="#DejaVuSans-61" transform="translate(378.759766 0)"/>
      <use xlink:href="#DejaVuSans-6e" transform="translate(440.039062 0)"/>
     </g>
    </g>
    <g id="line2d_28">
     <path d="M 183.951205 296.158213 
L 193.951205 296.158213 
L 203.951205 296.158213 
" style="fill: none; stroke: #93c5fd; stroke-width: 2; stroke-linecap: square"/>
     <g>
      <use xlink:href="#mc967cc1b1f" x="193.951205" y="296.158213" style="fill: #93c5fd; stroke: #93c5fd"/>
     </g>
    </g>
    <g id="text_16">
     <!-- v1 shuffled -->
     <g style="fill: #111827" transform="translate(211.951205 299.658213) scale(0.1 -0.1)">
      <use xlink:href="#DejaVuSans-76"/>
      <use xlink:href="#DejaVuSans-31" transform="translate(59.179688 0)"/>
      <use xlink:href="#DejaVuSans-20" transform="translate(122.802734 0)"/>
      <use xlink:href="#DejaVuSans-73" transform="translate(154.589844 0)"/>
      <use xlink:href="#DejaVuSans-68" transform="translate(206.689453 0)"/>
      <use xlink:href="#DejaVuSans-75" transform="translate(270.068359 0)"/>
      <use xlink:href="#DejaVuSans-66" transform="translate(333.447266 0)"/>
      <use xlink:href="#DejaVuSans-66" transform="translate(368.652344 0)"/>
      <use xlink:href="#DejaVuSans-6c" transform="translate(403.857422 0)"/>
      <use xlink:href="#DejaVuSans-65" transform="translate(431.640625 0)"/>
      <use xlink:href="#DejaVuSans-64" transform="translate(493.164062 0)"/>
     </g>
    </g>
    <g id="line2d_29">
     <path d="M 183.951205 310.836338 
L 193.951205 310.836338 
L 203.951205 310.836338 
" style="fill: none; stroke: #059669; stroke-width: 2; stroke-linecap: square"/>
     <g>
      <use xlink:href="#m239210b55c" x="193.951205" y="310.836338" style="fill: #059669; stroke: #059669"/>
     </g>
    </g>
    <g id="text_17">
     <!-- v2 current batch -->
     <g style="fill: #111827" transform="translate(211.951205 314.336338) scale(0.1 -0.1)">
      <use xlink:href="#DejaVuSans-76"/>
      <use xlink:href="#DejaVuSans-32" transform="translate(59.179688 0)"/>
      <use xlink:href="#DejaVuSans-20" transform="translate(122.802734 0)"/>
      <use xlink:href="#DejaVuSans-63" transform="translate(154.589844 0)"/>
      <use xlink:href="#DejaVuSans-75" transform="translate(209.570312 0)"/>
      <use xlink:href="#DejaVuSans-72" transform="translate(272.949219 0)"/>
      <use xlink:href="#DejaVuSans-72" transform="translate(312.3125 0)"/>
      <use xlink:href="#DejaVuSans-65" transform="translate(351.175781 0)"/>
      <use xlink:href="#DejaVuSans-6e" transform="translate(412.699219 0)"/>
      <use xlink:href="#DejaVuSans-74" transform="translate(476.078125 0)"/>
      <use xlink:href="#DejaVuSans-20" transform="translate(515.287109 0)"/>
      <use xlink:href="#DejaVuSans-62" transform="translate(547.074219 0)"/>
      <use xlink:href="#DejaVuSans-61" transform="translate(610.550781 0)"/>
      <use xlink:href="#DejaVuSans-74" transform="translate(671.830078 0)"/>
      <use xlink:href="#DejaVuSans-63" transform="translate(711.039062 0)"/>
      <use xlink:href="#DejaVuSans-68" transform="translate(766.019531 0)"/>
     </g>
    </g>
    <g id="line2d_30">
     <path d="M 314.890268 281.480088 
L 324.890268 281.480088 
L 334.890268 281.480088 
" style="fill: none; stroke: #dc2626; stroke-width: 2; stroke-linecap: square"/>
     <g>
      <use xlink:href="#m06297f3953" x="324.890268" y="281.480088" style="fill: #dc2626; stroke: #dc2626"/>
     </g>
    </g>
    <g id="text_18">
     <!-- v3 strong human -->
     <g style="fill: #111827" transform="translate(342.890268 284.980088) scale(0.1 -0.1)">
      <use xlink:href="#DejaVuSans-76"/>
      <use xlink:href="#DejaVuSans-33" transform="translate(59.179688 0)"/>
      <use xlink:href="#DejaVuSans-20" transform="translate(122.802734 0)"/>
      <use xlink:href="#DejaVuSans-73" transform="translate(154.589844 0)"/>
      <use xlink:href="#DejaVuSans-74" transform="translate(206.689453 0)"/>
      <use xlink:href="#DejaVuSans-72" transform="translate(245.898438 0)"/>
      <use xlink:href="#DejaVuSans-6f" transform="translate(284.761719 0)"/>
      <use xlink:href="#DejaVuSans-6e" transform="translate(345.943359 0)"/>
      <use xlink:href="#DejaVuSans-67" transform="translate(409.322266 0)"/>
      <use xlink:href="#DejaVuSans-20" transform="translate(472.798828 0)"/>
      <use xlink:href="#DejaVuSans-68" transform="translate(504.585938 0)"/>
      <use xlink:href="#DejaVuSans-75" transform="translate(567.964844 0)"/>
      <use xlink:href="#DejaVuSans-6d" transform="translate(631.34375 0)"/>
      <use xlink:href="#DejaVuSans-61" transform="translate(728.755859 0)"/>
      <use xlink:href="#DejaVuSans-6e" transform="translate(790.035156 0)"/>
     </g>
    </g>
    <g id="line2d_31">
     <path d="M 314.890268 296.158213 
L 324.890268 296.158213 
L 334.890268 296.158213 
" style="fill: none; stroke: #0f766e; stroke-width: 2; stroke-linecap: square"/>
     <g>
      <use xlink:href="#md64ae3ab12" x="324.890268" y="296.158213" style="fill: #0f766e; stroke: #0f766e"/>
     </g>
    </g>
    <g id="text_19">
     <!-- joint matrix -->
     <g style="fill: #111827" transform="translate(342.890268 299.658213) scale(0.1 -0.1)">
      <defs>
       <path id="DejaVuSans-6a" d="M 603 3500 
L 1178 3500 
L 1178 -63 
Q 1178 -731 923 -1031 
Q 669 -1331 103 -1331 
L -116 -1331 
L -116 -844 
L 38 -844 
Q 366 -844 484 -692 
Q 603 -541 603 -63 
L 603 3500 
z
M 603 4863 
L 1178 4863 
L 1178 4134 
L 603 4134 
L 603 4863 
z
" transform="scale(0.015625)"/>
       <path id="DejaVuSans-78" d="M 3513 3500 
L 2247 1797 
L 3578 0 
L 2900 0 
L 1881 1375 
L 863 0 
L 184 0 
L 1544 1831 
L 300 3500 
L 978 3500 
L 1906 2253 
L 2834 3500 
L 3513 3500 
z
" transform="scale(0.015625)"/>
      </defs>
      <use xlink:href="#DejaVuSans-6a"/>
      <use xlink:href="#DejaVuSans-6f" transform="translate(27.783203 0)"/>
      <use xlink:href="#DejaVuSans-69" transform="translate(88.964844 0)"/>
      <use xlink:href="#DejaVuSans-6e" transform="translate(116.748047 0)"/>
      <use xlink:href="#DejaVuSans-74" transform="translate(180.126953 0)"/>
      <use xlink:href="#DejaVuSans-20" transform="translate(219.335938 0)"/>
      <use xlink:href="#DejaVuSans-6d" transform="translate(251.123047 0)"/>
      <use xlink:href="#DejaVuSans-61" transform="translate(348.535156 0)"/>
      <use xlink:href="#DejaVuSans-74" transform="translate(409.814453 0)"/>
      <use xlink:href="#DejaVuSans-72" transform="translate(449.023438 0)"/>
      <use xlink:href="#DejaVuSans-69" transform="translate(490.136719 0)"/>
      <use xlink:href="#DejaVuSans-78" transform="translate(517.919922 0)"/>
     </g>
    </g>
    <g id="line2d_32">
     <path d="M 314.890268 310.836338 
L 324.890268 310.836338 
L 334.890268 310.836338 
" style="fill: none; stroke: #99f6e4; stroke-width: 2; stroke-linecap: square"/>
     <g>
      <use xlink:href="#med497ec7db" x="324.890268" y="310.836338" style="fill: #99f6e4; stroke: #99f6e4"/>
     </g>
    </g>
    <g id="text_20">
     <!-- joint matrix shuffled -->
     <g style="fill: #111827" transform="translate(342.890268 314.336338) scale(0.1 -0.1)">
      <use xlink:href="#DejaVuSans-6a"/>
      <use xlink:href="#DejaVuSans-6f" transform="translate(27.783203 0)"/>
      <use xlink:href="#DejaVuSans-69" transform="translate(88.964844 0)"/>
      <use xlink:href="#DejaVuSans-6e" transform="translate(116.748047 0)"/>
      <use xlink:href="#DejaVuSans-74" transform="translate(180.126953 0)"/>
      <use xlink:href="#DejaVuSans-20" transform="translate(219.335938 0)"/>
      <use xlink:href="#DejaVuSans-6d" transform="translate(251.123047 0)"/>
      <use xlink:href="#DejaVuSans-61" transform="translate(348.535156 0)"/>
      <use xlink:href="#DejaVuSans-74" transform="translate(409.814453 0)"/>
      <use xlink:href="#DejaVuSans-72" transform="translate(449.023438 0)"/>
      <use xlink:href="#DejaVuSans-69" transform="translate(490.136719 0)"/>
      <use xlink:href="#DejaVuSans-78" transform="translate(517.919922 0)"/>
      <use xlink:href="#DejaVuSans-20" transform="translate(577.099609 0)"/>
      <use xlink:href="#DejaVuSans-73" transform="translate(608.886719 0)"/>
      <use xlink:href="#DejaVuSans-68" transform="translate(660.986328 0)"/>
      <use xlink:href="#DejaVuSans-75" transform="translate(724.365234 0)"/>
      <use xlink:href="#DejaVuSans-66" transform="translate(787.744141 0)"/>
      <use xlink:href="#DejaVuSans-66" transform="translate(822.949219 0)"/>
      <use xlink:href="#DejaVuSans-6c" transform="translate(858.154297 0)"/>
      <use xlink:href="#DejaVuSans-65" transform="translate(885.9375 0)"/>
      <use xlink:href="#DejaVuSans-64" transform="translate(947.460938 0)"/>
     </g>
    </g>
   </g>
  </g>
 </g>
 <defs>
  <clipPath id="pdfd6fae3ce">
   <rect x="51.958906" y="22.318125" width="524.014286" height="208.528411"/>
  </clipPath>
 </defs>
</svg>
