<?xml version="1.0" encoding="utf-8" standalone="no"?>
<!DOCTYPE svg PUBLIC "-//W3C//DTD SVG 1.1//EN"
  "http://www.w3.org/Graphics/SVG/1.1/DTD/svg11.dtd">
<svg xmlns:xlink="http://www.w3.org/1999/xlink" width="583.173192pt" height="327.616025pt" viewBox="0 0 583.173192 327.616025" xmlns="http://www.w3.org/2000/svg" version="1.1">
 <metadata>
  <rdf:RDF xmlns:dc="http://purl.org/dc/elements/1.1/" xmlns:cc="http://creativecommons.org/ns#" xmlns:rdf="http://www.w3.org/1999/02/22-rdf-syntax-ns#">
   <cc:Work>
    <dc:type rdf:resource="http://purl.org/dc/dcmitype/StillImage"/>
    <dc:date>2026-05-16T12:30:14.305944</dc:date>
    <dc:format>image/svg+xml</dc:format>
    <dc:creator>
     <cc:Agent>
      <dc:title>Matplotlib v3.8.2, https://matplotlib.org/</dc:title>
     </cc:Agent>
    </dc:creator>
   </cc:Work>
  </rdf:RDF>
 </metadata>
 <defs>
  <style type="text/css">*{stroke-linejoin: round; stroke-linecap: butt}</style>
 </defs>
 <g id="figure_1">
  <g id="patch_1">
   <path d="M 0 327.616025 
L 583.173192 327.616025 
L 583.173192 0 
L 0 0 
z
" style="fill: #fbfcfe"/>
  </g>
  <g id="axes_1">
   <g id="patch_2">
    <path d="M 51.958906 230.846536 
L 575.973192 230.846536 
L 575.973192 22.318125 
L 51.958906 22.318125 
z
" style="fill: #fbfcfe"/>
   </g>
   <g id="matplotlib.axis_1">
    <g id="xtick_1">
     <g id="line2d_1"/>
     <g id="text_1">
      <!-- top-1 -->
      <g style="fill: #475569" transform="translate(52.846154 248.886125) rotate(-20) scale(0.09 -0.09)">
       <defs>
        <path id="DejaVuSans-74" d="M 1172 4494 
L 1172 3500 
L 2356 3500 
L 2356 3053 
L 1172 3053 
L 1172 1153 
Q 1172 725 1289 603 
Q 1406 481 1766 481 
L 2356 481 
L 2356 0 
L 1766 0 
Q 1100 0 847 248 
Q 594 497 594 1153 
L 594 3053 
L 172 3053 
L 172 3500 
L 594 3500 
L 594 4494 
L 1172 4494 
z
" transform="scale(0.015625)"/>
        <path id="DejaVuSans-6f" d="M 1959 3097 
Q 1497 3097 1228 2736 
Q 959 2375 959 1747 
Q 959 1119 1226 758 
Q 1494 397 1959 397 
Q 2419 397 2687 759 
Q 2956 1122 2956 1747 
Q 2956 2369 2687 2733 
Q 2419 3097 1959 3097 
z
M 1959 3584 
Q 2709 3584 3137 3096 
Q 3566 2609 3566 1747 
Q 3566 888 3137 398 
Q 2709 -91 1959 -91 
Q 1206 -91 779 398 
Q 353 888 353 1747 
Q 353 2609 779 3096 
Q 1206 3584 1959 3584 
z
" transform="scale(0.015625)"/>
        <path id="DejaVuSans-70" d="M 1159 525 
L 1159 -1331 
L 581 -1331 
L 581 3500 
L 1159 3500 
L 1159 2969 
Q 1341 3281 1617 3432 
Q 1894 3584 2278 3584 
Q 2916 3584 3314 3078 
Q 3713 2572 3713 1747 
Q 3713 922 3314 415 
Q 2916 -91 2278 -91 
Q 1894 -91 1617 61 
Q 1341 213 1159 525 
z
M 3116 1747 
Q 3116 2381 2855 2742 
Q 2594 3103 2138 3103 
Q 1681 3103 1420 2742 
Q 1159 2381 1159 1747 
Q 1159 1113 1420 752 
Q 1681 391 2138 391 
Q 2594 391 2855 752 
Q 3116 1113 3116 1747 
z
" transform="scale(0.015625)"/>
        <path id="DejaVuSans-2d" d="M 313 2009 
L 1997 2009 
L 1997 1497 
L 313 1497 
L 313 2009 
z
" transform="scale(0.015625)"/>
        <path id="DejaVuSans-31" d="M 794 531 
L 1825 531 
L 1825 4091 
L 703 3866 
L 703 4441 
L 1819 4666 
L 2450 4666 
L 2450 531 
L 3481 531 
L 3481 0 
L 794 0 
L 794 531 
z
" transform="scale(0.015625)"/>
       </defs>
       <use xlink:href="#DejaVuSans-74"/>
       <use xlink:href="#DejaVuSans-6f" x="39.208984"/>
       <use xlink:href="#DejaVuSans-70" x="100.390625"/>
       <use xlink:href="#DejaVuSans-2d" x="163.867188"/>
       <use xlink:href="#DejaVuSans-31" x="199.951172"/>
      </g>
     </g>
    </g>
    <g id="xtick_2">
     <g id="line2d_2"/>
     <g id="text_2">
      <!-- retrieval@1 -->
      <g style="fill: #475569" transform="translate(145.019878 258.684361) rotate(-20) scale(0.09 -0.09)">
       <defs>
        <path id="DejaVuSans-72" d="M 2631 2963 
Q 2534 3019 2420 3045 
Q 2306 3072 2169 3072 
Q 1681 3072 1420 2755 
Q 1159 2438 1159 1844 
L 1159 0 
L 581 0 
L 581 3500 
L 1159 3500 
L 1159 2956 
Q 1341 3275 1631 3429 
Q 1922 3584 2338 3584 
Q 2397 3584 2469 3576 
Q 2541 3569 2628 3553 
L 2631 2963 
z
" transform="scale(0.015625)"/>
        <path id="DejaVuSans-65" d="M 3597 1894 
L 3597 1613 
L 953 1613 
Q 991 1019 1311 708 
Q 1631 397 2203 397 
Q 2534 397 2845 478 
Q 3156 559 3463 722 
L 3463 178 
Q 3153 47 2828 -22 
Q 2503 -91 2169 -91 
Q 1331 -91 842 396 
Q 353 884 353 1716 
Q 353 2575 817 3079 
Q 1281 3584 2069 3584 
Q 2775 3584 3186 3129 
Q 3597 2675 3597 1894 
z
M 3022 2063 
Q 3016 2534 2758 2815 
Q 2500 3097 2075 3097 
Q 1594 3097 1305 2825 
Q 1016 2553 972 2059 
L 3022 2063 
z
" transform="scale(0.015625)"/>
        <path id="DejaVuSans-69" d="M 603 3500 
L 1178 3500 
L 1178 0 
L 603 0 
L 603 3500 
z
M 603 4863 
L 1178 4863 
L 1178 4134 
L 603 4134 
L 603 4863 
z
" transform="scale(0.015625)"/>
        <path id="DejaVuSans-76" d="M 191 3500 
L 800 3500 
L 1894 563 
L 2988 3500 
L 3597 3500 
L 2284 0 
L 1503 0 
L 191 3500 
z
" transform="scale(0.015625)"/>
        <path id="DejaVuSans-61" d="M 2194 1759 
Q 1497 1759 1228 1600 
Q 959 1441 959 1056 
Q 959 750 1161 570 
Q 1363 391 1709 391 
Q 2188 391 2477 730 
Q 2766 1069 2766 1631 
L 2766 1759 
L 2194 1759 
z
M 3341 1997 
L 3341 0 
L 2766 0 
L 2766 531 
Q 2569 213 2275 61 
Q 1981 -91 1556 -91 
Q 1019 -91 701 211 
Q 384 513 384 1019 
Q 384 1609 779 1909 
Q 1175 2209 1959 2209 
L 2766 2209 
L 2766 2266 
Q 2766 2663 2505 2880 
Q 2244 3097 1772 3097 
Q 1472 3097 1187 3025 
Q 903 2953 641 2809 
L 641 3341 
Q 956 3463 1253 3523 
Q 1550 3584 1831 3584 
Q 2591 3584 2966 3190 
Q 3341 2797 3341 1997 
z
" transform="scale(0.015625)"/>
        <path id="DejaVuSans-6c" d="M 603 4863 
L 1178 4863 
L 1178 0 
L 603 0 
L 603 4863 
z
" transform="scale(0.015625)"/>
        <path id="DejaVuSans-40" d="M 2381 1678 
Q 2381 1231 2603 976 
Q 2825 722 3213 722 
Q 3597 722 3817 978 
Q 4038 1234 4038 1678 
Q 4038 2116 3813 2373 
Q 3588 2631 3206 2631 
Q 2828 2631 2604 2375 
Q 2381 2119 2381 1678 
z
M 4084 744 
Q 3897 503 3655 389 
Q 3413 275 3091 275 
Q 2553 275 2217 664 
Q 1881 1053 1881 1678 
Q 1881 2303 2218 2693 
Q 2556 3084 3091 3084 
Q 3413 3084 3656 2967 
Q 3900 2850 4084 2613 
L 4084 3022 
L 4531 3022 
L 4531 722 
Q 4988 791 5245 1139 
Q 5503 1488 5503 2041 
Q 5503 2375 5404 2669 
Q 5306 2963 5106 3213 
Q 4781 3622 4314 3839 
Q 3847 4056 3297 4056 
Q 2913 4056 2559 3954 
Q 2206 3853 1906 3653 
Q 1416 3334 1139 2817 
Q 863 2300 863 1697 
Q 863 1200 1042 765 
Q 1222 331 1563 0 
Q 1891 -325 2322 -495 
Q 2753 -666 3244 -666 
Q 3647 -666 4036 -530 
Q 4425 -394 4750 -141 
L 5031 -488 
Q 4641 -791 4180 -952 
Q 3719 -1113 3244 -1113 
Q 2666 -1113 2153 -908 
Q 1641 -703 1241 -313 
Q 841 78 631 592 
Q 422 1106 422 1697 
Q 422 2266 634 2781 
Q 847 3297 1241 3688 
Q 1644 4084 2172 4295 
Q 2700 4506 3291 4506 
Q 3953 4506 4520 4234 
Q 5088 3963 5472 3463 
Q 5706 3156 5829 2797 
Q 5953 2438 5953 2053 
Q 5953 1231 5456 756 
Q 4959 281 4084 263 
L 4084 744 
z
" transform="scale(0.015625)"/>
       </defs>
       <use xlink:href="#DejaVuSans-72"/>
       <use xlink:href="#DejaVuSans-65" x="38.863281"/>
       <use xlink:href="#DejaVuSans-74" x="100.386719"/>
       <use xlink:href="#DejaVuSans-72" x="139.595703"/>
       <use xlink:href="#DejaVuSans-69" x="180.708984"/>
       <use xlink:href="#DejaVuSans-65" x="208.492188"/>
       <use xlink:href="#DejaVuSans-76" x="270.015625"/>
       <use xlink:href="#DejaVuSans-61" x="329.195312"/>
       <use xlink:href="#DejaVuSans-6c" x="390.474609"/>
       <use xlink:href="#DejaVuSans-40" x="418.257812"/>
       <use xlink:href="#DejaVuSans-31" x="518.257812"/>
      </g>
     </g>
    </g>
    <g id="xtick_3">
     <g id="line2d_3"/>
     <g id="text_3">
      <!-- human rho -->
      <g style="fill: #475569" transform="translate(267.274925 257.533891) rotate(-20) scale(0.09 -0.09)">
       <defs>
        <path id="DejaVuSans-68" d="M 3513 2113 
L 3513 0 
L 2938 0 
L 2938 2094 
Q 2938 2591 2744 2837 
Q 2550 3084 2163 3084 
Q 1697 3084 1428 2787 
Q 1159 2491 1159 1978 
L 1159 0 
L 581 0 
L 581 4863 
L 1159 4863 
L 1159 2956 
Q 1366 3272 1645 3428 
Q 1925 3584 2291 3584 
Q 2894 3584 3203 3211 
Q 3513 2838 3513 2113 
z
" transform="scale(0.015625)"/>
        <path id="DejaVuSans-75" d="M 544 1381 
L 544 3500 
L 1119 3500 
L 1119 1403 
Q 1119 906 1312 657 
Q 1506 409 1894 409 
Q 2359 409 2629 706 
Q 2900 1003 2900 1516 
L 2900 3500 
L 3475 3500 
L 3475 0 
L 2900 0 
L 2900 538 
Q 2691 219 2414 64 
Q 2138 -91 1772 -91 
Q 1169 -91 856 284 
Q 544 659 544 1381 
z
M 1991 3584 
L 1991 3584 
z
" transform="scale(0.015625)"/>
        <path id="DejaVuSans-6d" d="M 3328 2828 
Q 3544 3216 3844 3400 
Q 4144 3584 4550 3584 
Q 5097 3584 5394 3201 
Q 5691 2819 5691 2113 
L 5691 0 
L 5113 0 
L 5113 2094 
Q 5113 2597 4934 2840 
Q 4756 3084 4391 3084 
Q 3944 3084 3684 2787 
Q 3425 2491 3425 1978 
L 3425 0 
L 2847 0 
L 2847 2094 
Q 2847 2600 2669 2842 
Q 2491 3084 2119 3084 
Q 1678 3084 1418 2786 
Q 1159 2488 1159 1978 
L 1159 0 
L 581 0 
L 581 3500 
L 1159 3500 
L 1159 2956 
Q 1356 3278 1631 3431 
Q 1906 3584 2284 3584 
Q 2666 3584 2933 3390 
Q 3200 3197 3328 2828 
z
" transform="scale(0.015625)"/>
        <path id="DejaVuSans-6e" d="M 3513 2113 
L 3513 0 
L 2938 0 
L 2938 2094 
Q 2938 2591 2744 2837 
Q 2550 3084 2163 3084 
Q 1697 3084 1428 2787 
Q 1159 2491 1159 1978 
L 1159 0 
L 581 0 
L 581 3500 
L 1159 3500 
L 1159 2956 
Q 1366 3272 1645 3428 
Q 1925 3584 2291 3584 
Q 2894 3584 3203 3211 
Q 3513 2838 3513 2113 
z
" transform="scale(0.015625)"/>
        <path id="DejaVuSans-20" transform="scale(0.015625)"/>
       </defs>
       <use xlink:href="#DejaVuSans-68"/>
       <use xlink:href="#DejaVuSans-75" x="63.378906"/>
       <use xlink:href="#DejaVuSans-6d" x="126.757812"/>
       <use xlink:href="#DejaVuSans-61" x="224.169922"/>
       <use xlink:href="#DejaVuSans-6e" x="285.449219"/>
       <use xlink:href="#DejaVuSans-20" x="348.828125"/>
       <use xlink:href="#DejaVuSans-72" x="380.615234"/>
       <use xlink:href="#DejaVuSans-68" x="419.978516"/>
       <use xlink:href="#DejaVuSans-6f" x="483.357422"/>
      </g>
     </g>
    </g>
    <g id="xtick_4">
     <g id="line2d_4"/>
     <g id="text_4">
      <!-- category probe -->
      <g style="fill: #475569" transform="translate(367.950812 264.237592) rotate(-20) scale(0.09 -0.09)">
       <defs>
        <path id="DejaVuSans-63" d="M 3122 3366 
L 3122 2828 
Q 2878 2963 2633 3030 
Q 2388 3097 2138 3097 
Q 1578 3097 1268 2742 
Q 959 2388 959 1747 
Q 959 1106 1268 751 
Q 1578 397 2138 397 
Q 2388 397 2633 464 
Q 2878 531 3122 666 
L 3122 134 
Q 2881 22 2623 -34 
Q 2366 -91 2075 -91 
Q 1284 -91 818 406 
Q 353 903 353 1747 
Q 353 2603 823 3093 
Q 1294 3584 2113 3584 
Q 2378 3584 2631 3529 
Q 2884 3475 3122 3366 
z
" transform="scale(0.015625)"/>
        <path id="DejaVuSans-67" d="M 2906 1791 
Q 2906 2416 2648 2759 
Q 2391 3103 1925 3103 
Q 1463 3103 1205 2759 
Q 947 2416 947 1791 
Q 947 1169 1205 825 
Q 1463 481 1925 481 
Q 2391 481 2648 825 
Q 2906 1169 2906 1791 
z
M 3481 434 
Q 3481 -459 3084 -895 
Q 2688 -1331 1869 -1331 
Q 1566 -1331 1297 -1286 
Q 1028 -1241 775 -1147 
L 775 -588 
Q 1028 -725 1275 -790 
Q 1522 -856 1778 -856 
Q 2344 -856 2625 -561 
Q 2906 -266 2906 331 
L 2906 616 
Q 2728 306 2450 153 
Q 2172 0 1784 0 
Q 1141 0 747 490 
Q 353 981 353 1791 
Q 353 2603 747 3093 
Q 1141 3584 1784 3584 
Q 2172 3584 2450 3431 
Q 2728 3278 2906 2969 
L 2906 3500 
L 3481 3500 
L 3481 434 
z
" transform="scale(0.015625)"/>
        <path id="DejaVuSans-79" d="M 2059 -325 
Q 1816 -950 1584 -1140 
Q 1353 -1331 966 -1331 
L 506 -1331 
L 506 -850 
L 844 -850 
Q 1081 -850 1212 -737 
Q 1344 -625 1503 -206 
L 1606 56 
L 191 3500 
L 800 3500 
L 1894 763 
L 2988 3500 
L 3597 3500 
L 2059 -325 
z
" transform="scale(0.015625)"/>
        <path id="DejaVuSans-62" d="M 3116 1747 
Q 3116 2381 2855 2742 
Q 2594 3103 2138 3103 
Q 1681 3103 1420 2742 
Q 1159 2381 1159 1747 
Q 1159 1113 1420 752 
Q 1681 391 2138 391 
Q 2594 391 2855 752 
Q 3116 1113 3116 1747 
z
M 1159 2969 
Q 1341 3281 1617 3432 
Q 1894 3584 2278 3584 
Q 2916 3584 3314 3078 
Q 3713 2572 3713 1747 
Q 3713 922 3314 415 
Q 2916 -91 2278 -91 
Q 1894 -91 1617 61 
Q 1341 213 1159 525 
L 1159 0 
L 581 0 
L 581 4863 
L 1159 4863 
L 1159 2969 
z
" transform="scale(0.015625)"/>
       </defs>
       <use xlink:href="#DejaVuSans-63"/>
       <use xlink:href="#DejaVuSans-61" x="54.980469"/>
       <use xlink:href="#DejaVuSans-74" x="116.259766"/>
       <use xlink:href="#DejaVuSans-65" x="155.46875"/>
       <use xlink:href="#DejaVuSans-67" x="216.992188"/>
       <use xlink:href="#DejaVuSans-6f" x="280.46875"/>
       <use xlink:href="#DejaVuSans-72" x="341.650391"/>
       <use xlink:href="#DejaVuSans-79" x="382.763672"/>
       <use xlink:href="#DejaVuSans-20" x="441.943359"/>
       <use xlink:href="#DejaVuSans-70" x="473.730469"/>
       <use xlink:href="#DejaVuSans-72" x="537.207031"/>
       <use xlink:href="#DejaVuSans-6f" x="576.070312"/>
       <use xlink:href="#DejaVuSans-62" x="637.251953"/>
       <use xlink:href="#DejaVuSans-65" x="700.728516"/>
      </g>
     </g>
    </g>
    <g id="xtick_5">
     <g id="line2d_5"/>
     <g id="text_5">
      <!-- properties -->
      <g style="fill: #475569" transform="translate(508.359839 256.479614) rotate(-20) scale(0.09 -0.09)">
       <defs>
        <path id="DejaVuSans-73" d="M 2834 3397 
L 2834 2853 
Q 2591 2978 2328 3040 
Q 2066 3103 1784 3103 
Q 1356 3103 1142 2972 
Q 928 2841 928 2578 
Q 928 2378 1081 2264 
Q 1234 2150 1697 2047 
L 1894 2003 
Q 2506 1872 2764 1633 
Q 3022 1394 3022 966 
Q 3022 478 2636 193 
Q 2250 -91 1575 -91 
Q 1294 -91 989 -36 
Q 684 19 347 128 
L 347 722 
Q 666 556 975 473 
Q 1284 391 1588 391 
Q 1994 391 2212 530 
Q 2431 669 2431 922 
Q 2431 1156 2273 1281 
Q 2116 1406 1581 1522 
L 1381 1569 
Q 847 1681 609 1914 
Q 372 2147 372 2553 
Q 372 3047 722 3315 
Q 1072 3584 1716 3584 
Q 2034 3584 2315 3537 
Q 2597 3491 2834 3397 
z
" transform="scale(0.015625)"/>
       </defs>
       <use xlink:href="#DejaVuSans-70"/>
       <use xlink:href="#DejaVuSans-72" x="63.476562"/>
       <use xlink:href="#DejaVuSans-6f" x="102.339844"/>
       <use xlink:href="#DejaVuSans-70" x="163.521484"/>
       <use xlink:href="#DejaVuSans-65" x="226.998047"/>
       <use xlink:href="#DejaVuSans-72" x="288.521484"/>
       <use xlink:href="#DejaVuSans-74" x="329.634766"/>
       <use xlink:href="#DejaVuSans-69" x="368.84375"/>
       <use xlink:href="#DejaVuSans-65" x="396.626953"/>
       <use xlink:href="#DejaVuSans-73" x="458.150391"/>
      </g>
     </g>
    </g>
   </g>
   <g id="matplotlib.axis_2">
    <g id="ytick_1">
     <g id="line2d_6">
      <path d="M 51.958906 223.395599 
L 575.973192 223.395599 
" clip-path="url(#p04059e7d8d)" style="fill: none; stroke: #cbd5e1; stroke-opacity: 0.35; stroke-width: 0.8; stroke-linecap: square"/>
     </g>
     <g id="line2d_7"/>
     <g id="text_6">
      <!-- −0.03 -->
      <g style="fill: #475569" transform="translate(20.878125 226.814896) scale(0.09 -0.09)">
       <defs>
        <path id="DejaVuSans-2212" d="M 678 2272 
L 4684 2272 
L 4684 1741 
L 678 1741 
L 678 2272 
z
" transform="scale(0.015625)"/>
        <path id="DejaVuSans-30" d="M 2034 4250 
Q 1547 4250 1301 3770 
Q 1056 3291 1056 2328 
Q 1056 1369 1301 889 
Q 1547 409 2034 409 
Q 2525 409 2770 889 
Q 3016 1369 3016 2328 
Q 3016 3291 2770 3770 
Q 2525 4250 2034 4250 
z
M 2034 4750 
Q 2819 4750 3233 4129 
Q 3647 3509 3647 2328 
Q 3647 1150 3233 529 
Q 2819 -91 2034 -91 
Q 1250 -91 836 529 
Q 422 1150 422 2328 
Q 422 3509 836 4129 
Q 1250 4750 2034 4750 
z
" transform="scale(0.015625)"/>
        <path id="DejaVuSans-2e" d="M 684 794 
L 1344 794 
L 1344 0 
L 684 0 
L 684 794 
z
" transform="scale(0.015625)"/>
        <path id="DejaVuSans-33" d="M 2597 2516 
Q 3050 2419 3304 2112 
Q 3559 1806 3559 1356 
Q 3559 666 3084 287 
Q 2609 -91 1734 -91 
Q 1441 -91 1130 -33 
Q 819 25 488 141 
L 488 750 
Q 750 597 1062 519 
Q 1375 441 1716 441 
Q 2309 441 2620 675 
Q 2931 909 2931 1356 
Q 2931 1769 2642 2001 
Q 2353 2234 1838 2234 
L 1294 2234 
L 1294 2753 
L 1863 2753 
Q 2328 2753 2575 2939 
Q 2822 3125 2822 3475 
Q 2822 3834 2567 4026 
Q 2313 4219 1838 4219 
Q 1578 4219 1281 4162 
Q 984 4106 628 3988 
L 628 4550 
Q 988 4650 1302 4700 
Q 1616 4750 1894 4750 
Q 2613 4750 3031 4423 
Q 3450 4097 3450 3541 
Q 3450 3153 3228 2886 
Q 3006 2619 2597 2516 
z
" transform="scale(0.015625)"/>
       </defs>
       <use xlink:href="#DejaVuSans-2212"/>
       <use xlink:href="#DejaVuSans-30" x="83.789062"/>
       <use xlink:href="#DejaVuSans-2e" x="147.412109"/>
       <use xlink:href="#DejaVuSans-30" x="179.199219"/>
       <use xlink:href="#DejaVuSans-33" x="242.822266"/>
      </g>
     </g>
    </g>
    <g id="ytick_2">
     <g id="line2d_8">
      <path d="M 51.958906 192.140941 
L 575.973192 192.140941 
" clip-path="url(#p04059e7d8d)" style="fill: none; stroke: #cbd5e1; stroke-opacity: 0.35; stroke-width: 0.8; stroke-linecap: square"/>
     </g>
     <g id="line2d_9"/>
     <g id="text_7">
      <!-- −0.02 -->
      <g style="fill: #475569" transform="translate(20.878125 195.560238) scale(0.09 -0.09)">
       <defs>
        <path id="DejaVuSans-32" d="M 1228 531 
L 3431 531 
L 3431 0 
L 469 0 
L 469 531 
Q 828 903 1448 1529 
Q 2069 2156 2228 2338 
Q 2531 2678 2651 2914 
Q 2772 3150 2772 3378 
Q 2772 3750 2511 3984 
Q 2250 4219 1831 4219 
Q 1534 4219 1204 4116 
Q 875 4013 500 3803 
L 500 4441 
Q 881 4594 1212 4672 
Q 1544 4750 1819 4750 
Q 2544 4750 2975 4387 
Q 3406 4025 3406 3419 
Q 3406 3131 3298 2873 
Q 3191 2616 2906 2266 
Q 2828 2175 2409 1742 
Q 1991 1309 1228 531 
z
" transform="scale(0.015625)"/>
       </defs>
       <use xlink:href="#DejaVuSans-2212"/>
       <use xlink:href="#DejaVuSans-30" x="83.789062"/>
       <use xlink:href="#DejaVuSans-2e" x="147.412109"/>
       <use xlink:href="#DejaVuSans-30" x="179.199219"/>
       <use xlink:href="#DejaVuSans-32" x="242.822266"/>
      </g>
     </g>
    </g>
    <g id="ytick_3">
     <g id="line2d_10">
      <path d="M 51.958906 160.886284 
L 575.973192 160.886284 
" clip-path="url(#p04059e7d8d)" style="fill: none; stroke: #cbd5e1; stroke-opacity: 0.35; stroke-width: 0.8; stroke-linecap: square"/>
     </g>
     <g id="line2d_11"/>
     <g id="text_8">
      <!-- −0.01 -->
      <g style="fill: #475569" transform="translate(20.878125 164.305581) scale(0.09 -0.09)">
       <use xlink:href="#DejaVuSans-2212"/>
       <use xlink:href="#DejaVuSans-30" x="83.789062"/>
       <use xlink:href="#DejaVuSans-2e" x="147.412109"/>
       <use xlink:href="#DejaVuSans-30" x="179.199219"/>
       <use xlink:href="#DejaVuSans-31" x="242.822266"/>
      </g>
     </g>
    </g>
    <g id="ytick_4">
     <g id="line2d_12">
      <path d="M 51.958906 129.631626 
L 575.973192 129.631626 
" clip-path="url(#p04059e7d8d)" style="fill: none; stroke: #cbd5e1; stroke-opacity: 0.35; stroke-width: 0.8; stroke-linecap: square"/>
     </g>
     <g id="line2d_13"/>
     <g id="text_9">
      <!-- 0.00 -->
      <g style="fill: #475569" transform="translate(28.419844 133.050923) scale(0.09 -0.09)">
       <use xlink:href="#DejaVuSans-30"/>
       <use xlink:href="#DejaVuSans-2e" x="63.623047"/>
       <use xlink:href="#DejaVuSans-30" x="95.410156"/>
       <use xlink:href="#DejaVuSans-30" x="159.033203"/>
      </g>
     </g>
    </g>
    <g id="ytick_5">
     <g id="line2d_14">
      <path d="M 51.958906 98.376968 
L 575.973192 98.376968 
" clip-path="url(#p04059e7d8d)" style="fill: none; stroke: #cbd5e1; stroke-opacity: 0.35; stroke-width: 0.8; stroke-linecap: square"/>
     </g>
     <g id="line2d_15"/>
     <g id="text_10">
      <!-- 0.01 -->
      <g style="fill: #475569" transform="translate(28.419844 101.796265) scale(0.09 -0.09)">
       <use xlink:href="#DejaVuSans-30"/>
       <use xlink:href="#DejaVuSans-2e" x="63.623047"/>
       <use xlink:href="#DejaVuSans-30" x="95.410156"/>
       <use xlink:href="#DejaVuSans-31" x="159.033203"/>
      </g>
     </g>
    </g>
    <g id="ytick_6">
     <g id="line2d_16">
      <path d="M 51.958906 67.12231 
L 575.973192 67.12231 
" clip-path="url(#p04059e7d8d)" style="fill: none; stroke: #cbd5e1; stroke-opacity: 0.35; stroke-width: 0.8; stroke-linecap: square"/>
     </g>
     <g id="line2d_17"/>
     <g id="text_11">
      <!-- 0.02 -->
      <g style="fill: #475569" transform="translate(28.419844 70.541607) scale(0.09 -0.09)">
       <use xlink:href="#DejaVuSans-30"/>
       <use xlink:href="#DejaVuSans-2e" x="63.623047"/>
       <use xlink:href="#DejaVuSans-30" x="95.410156"/>
       <use xlink:href="#DejaVuSans-32" x="159.033203"/>
      </g>
     </g>
    </g>
    <g id="ytick_7">
     <g id="line2d_18">
      <path d="M 51.958906 35.867653 
L 575.973192 35.867653 
" clip-path="url(#p04059e7d8d)" style="fill: none; stroke: #cbd5e1; stroke-opacity: 0.35; stroke-width: 0.8; stroke-linecap: square"/>
     </g>
     <g id="line2d_19"/>
     <g id="text_12">
      <!-- 0.03 -->
      <g style="fill: #475569" transform="translate(28.419844 39.286949) scale(0.09 -0.09)">
       <use xlink:href="#DejaVuSans-30"/>
       <use xlink:href="#DejaVuSans-2e" x="63.623047"/>
       <use xlink:href="#DejaVuSans-30" x="95.410156"/>
       <use xlink:href="#DejaVuSans-33" x="159.033203"/>
      </g>
     </g>
    </g>
    <g id="text_13">
     <!-- delta vs image-only baseline -->
     <g style="fill: #475569" transform="translate(14.798438 198.569049) rotate(-90) scale(0.1 -0.1)">
      <defs>
       <path id="DejaVuSans-64" d="M 2906 2969 
L 2906 4863 
L 3481 4863 
L 3481 0 
L 2906 0 
L 2906 525 
Q 2725 213 2448 61 
Q 2172 -91 1784 -91 
Q 1150 -91 751 415 
Q 353 922 353 1747 
Q 353 2572 751 3078 
Q 1150 3584 1784 3584 
Q 2172 3584 2448 3432 
Q 2725 3281 2906 2969 
z
M 947 1747 
Q 947 1113 1208 752 
Q 1469 391 1925 391 
Q 2381 391 2643 752 
Q 2906 1113 2906 1747 
Q 2906 2381 2643 2742 
Q 2381 3103 1925 3103 
Q 1469 3103 1208 2742 
Q 947 2381 947 1747 
z
" transform="scale(0.015625)"/>
      </defs>
      <use xlink:href="#DejaVuSans-64"/>
      <use xlink:href="#DejaVuSans-65" x="63.476562"/>
      <use xlink:href="#DejaVuSans-6c" x="125"/>
      <use xlink:href="#DejaVuSans-74" x="152.783203"/>
      <use xlink:href="#DejaVuSans-61" x="191.992188"/>
      <use xlink:href="#DejaVuSans-20" x="253.271484"/>
      <use xlink:href="#DejaVuSans-76" x="285.058594"/>
      <use xlink:href="#DejaVuSans-73" x="344.238281"/>
      <use xlink:href="#DejaVuSans-20" x="396.337891"/>
      <use xlink:href="#DejaVuSans-69" x="428.125"/>
      <use xlink:href="#DejaVuSans-6d" x="455.908203"/>
      <use xlink:href="#DejaVuSans-61" x="553.320312"/>
      <use xlink:href="#DejaVuSans-67" x="614.599609"/>
      <use xlink:href="#DejaVuSans-65" x="678.076172"/>
      <use xlink:href="#DejaVuSans-2d" x="739.599609"/>
      <use xlink:href="#DejaVuSans-6f" x="777.558594"/>
      <use xlink:href="#DejaVuSans-6e" x="838.740234"/>
      <use xlink:href="#DejaVuSans-6c" x="902.119141"/>
      <use xlink:href="#DejaVuSans-79" x="929.902344"/>
      <use xlink:href="#DejaVuSans-20" x="989.082031"/>
      <use xlink:href="#DejaVuSans-62" x="1020.869141"/>
      <use xlink:href="#DejaVuSans-61" x="1084.345703"/>
      <use xlink:href="#DejaVuSans-73" x="1145.625"/>
      <use xlink:href="#DejaVuSans-65" x="1197.724609"/>
      <use xlink:href="#DejaVuSans-6c" x="1259.248047"/>
      <use xlink:href="#DejaVuSans-69" x="1287.03125"/>
      <use xlink:href="#DejaVuSans-6e" x="1314.814453"/>
      <use xlink:href="#DejaVuSans-65" x="1378.193359"/>
     </g>
    </g>
   </g>
   <g id="line2d_20">
    <path d="M 51.958906 129.631626 
L 575.973192 129.631626 
" clip-path="url(#p04059e7d8d)" style="fill: none; stroke: #111827; stroke-opacity: 0.72; stroke-linecap: square"/>
   </g>
   <g id="line2d_21">
    <path d="M 75.777737 81.127792 
L 194.871893 80.895777 
L 313.966049 215.751624 
L 433.060205 133.942613 
L 552.154361 142.639222 
" clip-path="url(#p04059e7d8d)" style="fill: none; stroke: #2563eb; stroke-opacity: 0.96; stroke-width: 2.3; stroke-linecap: square"/>
    <defs>
     <path id="ma2beaf23b9" d="M 0 2.9 
C 0.769089 2.9 1.506782 2.594438 2.05061 2.05061 
C 2.594438 1.506782 2.9 0.769089 2.9 0 
C 2.9 -0.769089 2.594438 -1.506782 2.05061 -2.05061 
C 1.506782 -2.594438 0.769089 -2.9 0 -2.9 
C -0.769089 -2.9 -1.506782 -2.594438 -2.05061 -2.05061 
C -2.594438 -1.506782 -2.9 -0.769089 -2.9 0 
C -2.9 0.769089 -2.594438 1.506782 -2.05061 2.05061 
C -1.506782 2.594438 -0.769089 2.9 0 2.9 
z
" style="stroke: #2563eb; stroke-opacity: 0.96"/>
    </defs>
    <g clip-path="url(#p04059e7d8d)">
     <use xlink:href="#ma2beaf23b9" x="75.777737" y="81.127792" style="fill: #2563eb; fill-opacity: 0.96; stroke: #2563eb; stroke-opacity: 0.96"/>
     <use xlink:href="#ma2beaf23b9" x="194.871893" y="80.895777" style="fill: #2563eb; fill-opacity: 0.96; stroke: #2563eb; stroke-opacity: 0.96"/>
     <use xlink:href="#ma2beaf23b9" x="313.966049" y="215.751624" style="fill: #2563eb; fill-opacity: 0.96; stroke: #2563eb; stroke-opacity: 0.96"/>
     <use xlink:href="#ma2beaf23b9" x="433.060205" y="133.942613" style="fill: #2563eb; fill-opacity: 0.96; stroke: #2563eb; stroke-opacity: 0.96"/>
     <use xlink:href="#ma2beaf23b9" x="552.154361" y="142.639222" style="fill: #2563eb; fill-opacity: 0.96; stroke: #2563eb; stroke-opacity: 0.96"/>
    </g>
   </g>
   <g id="line2d_22">
    <path d="M 75.777737 81.127792 
L 194.871893 80.560438 
L 313.966049 221.367972 
L 433.060205 131.779661 
L 552.154361 142.743413 
" clip-path="url(#p04059e7d8d)" style="fill: none; stroke: #b8c0cc; stroke-opacity: 0.42; stroke-width: 1.5; stroke-linecap: square"/>
    <defs>
     <path id="m3ddb70dda7" d="M 0 2.4 
C 0.636487 2.4 1.246992 2.147121 1.697056 1.697056 
C 2.147121 1.246992 2.4 0.636487 2.4 0 
C 2.4 -0.636487 2.147121 -1.246992 1.697056 -1.697056 
C 1.246992 -2.147121 0.636487 -2.4 0 -2.4 
C -0.636487 -2.4 -1.246992 -2.147121 -1.697056 -1.697056 
C -2.147121 -1.246992 -2.4 -0.636487 -2.4 0 
C -2.4 0.636487 -2.147121 1.246992 -1.697056 1.697056 
C -1.246992 2.147121 -0.636487 2.4 0 2.4 
z
" style="stroke: #b8c0cc; stroke-opacity: 0.42"/>
    </defs>
    <g clip-path="url(#p04059e7d8d)">
     <use xlink:href="#m3ddb70dda7" x="75.777737" y="81.127792" style="fill: #b8c0cc; fill-opacity: 0.42; stroke: #b8c0cc; stroke-opacity: 0.42"/>
     <use xlink:href="#m3ddb70dda7" x="194.871893" y="80.560438" style="fill: #b8c0cc; fill-opacity: 0.42; stroke: #b8c0cc; stroke-opacity: 0.42"/>
     <use xlink:href="#m3ddb70dda7" x="313.966049" y="221.367972" style="fill: #b8c0cc; fill-opacity: 0.42; stroke: #b8c0cc; stroke-opacity: 0.42"/>
     <use xlink:href="#m3ddb70dda7" x="433.060205" y="131.779661" style="fill: #b8c0cc; fill-opacity: 0.42; stroke: #b8c0cc; stroke-opacity: 0.42"/>
     <use xlink:href="#m3ddb70dda7" x="552.154361" y="142.743413" style="fill: #b8c0cc; fill-opacity: 0.42; stroke: #b8c0cc; stroke-opacity: 0.42"/>
    </g>
   </g>
   <g id="line2d_23">
    <path d="M 75.777737 112.958433 
L 194.871893 108.505306 
L 313.966049 183.543613 
L 433.060205 133.95753 
L 552.154361 144.121238 
" clip-path="url(#p04059e7d8d)" style="fill: none; stroke: #059669; stroke-opacity: 0.96; stroke-width: 2.3; stroke-linecap: square"/>
    <defs>
     <path id="m41f80d47e3" d="M 0 2.9 
C 0.769089 2.9 1.506782 2.594438 2.05061 2.05061 
C 2.594438 1.506782 2.9 0.769089 2.9 0 
C 2.9 -0.769089 2.594438 -1.506782 2.05061 -2.05061 
C 1.506782 -2.594438 0.769089 -2.9 0 -2.9 
C -0.769089 -2.9 -1.506782 -2.594438 -2.05061 -2.05061 
C -2.594438 -1.506782 -2.9 -0.769089 -2.9 0 
C -2.9 0.769089 -2.594438 1.506782 -2.05061 2.05061 
C -1.506782 2.594438 -0.769089 2.9 0 2.9 
z
" style="stroke: #059669; stroke-opacity: 0.96"/>
    </defs>
    <g clip-path="url(#p04059e7d8d)">
     <use xlink:href="#m41f80d47e3" x="75.777737" y="112.958433" style="fill: #059669; fill-opacity: 0.96; stroke: #059669; stroke-opacity: 0.96"/>
     <use xlink:href="#m41f80d47e3" x="194.871893" y="108.505306" style="fill: #059669; fill-opacity: 0.96; stroke: #059669; stroke-opacity: 0.96"/>
     <use xlink:href="#m41f80d47e3" x="313.966049" y="183.543613" style="fill: #059669; fill-opacity: 0.96; stroke: #059669; stroke-opacity: 0.96"/>
     <use xlink:href="#m41f80d47e3" x="433.060205" y="133.95753" style="fill: #059669; fill-opacity: 0.96; stroke: #059669; stroke-opacity: 0.96"/>
     <use xlink:href="#m41f80d47e3" x="552.154361" y="144.121238" style="fill: #059669; fill-opacity: 0.96; stroke: #059669; stroke-opacity: 0.96"/>
    </g>
   </g>
   <g id="line2d_24">
    <path d="M 75.777737 112.200561 
L 194.871893 129.966964 
L 313.966049 34.164225 
L 433.060205 148.803379 
L 552.154361 131.71759 
" clip-path="url(#p04059e7d8d)" style="fill: none; stroke: #dc2626; stroke-opacity: 0.96; stroke-width: 2.3; stroke-linecap: square"/>
    <defs>
     <path id="m7afd36f8bb" d="M 0 2.9 
C 0.769089 2.9 1.506782 2.594438 2.05061 2.05061 
C 2.594438 1.506782 2.9 0.769089 2.9 0 
C 2.9 -0.769089 2.594438 -1.506782 2.05061 -2.05061 
C 1.506782 -2.594438 0.769089 -2.9 0 -2.9 
C -0.769089 -2.9 -1.506782 -2.594438 -2.05061 -2.05061 
C -2.594438 -1.506782 -2.9 -0.769089 -2.9 0 
C -2.9 0.769089 -2.594438 1.506782 -2.05061 2.05061 
C -1.506782 2.594438 -0.769089 2.9 0 2.9 
z
" style="stroke: #dc2626; stroke-opacity: 0.96"/>
    </defs>
    <g clip-path="url(#p04059e7d8d)">
     <use xlink:href="#m7afd36f8bb" x="75.777737" y="112.200561" style="fill: #dc2626; fill-opacity: 0.96; stroke: #dc2626; stroke-opacity: 0.96"/>
     <use xlink:href="#m7afd36f8bb" x="194.871893" y="129.966964" style="fill: #dc2626; fill-opacity: 0.96; stroke: #dc2626; stroke-opacity: 0.96"/>
     <use xlink:href="#m7afd36f8bb" x="313.966049" y="34.164225" style="fill: #dc2626; fill-opacity: 0.96; stroke: #dc2626; stroke-opacity: 0.96"/>
     <use xlink:href="#m7afd36f8bb" x="433.060205" y="148.803379" style="fill: #dc2626; fill-opacity: 0.96; stroke: #dc2626; stroke-opacity: 0.96"/>
     <use xlink:href="#m7afd36f8bb" x="552.154361" y="131.71759" style="fill: #dc2626; fill-opacity: 0.96; stroke: #dc2626; stroke-opacity: 0.96"/>
    </g>
   </g>
   <g id="line2d_25">
    <path d="M 75.777737 101.590347 
L 194.871893 110.181998 
L 313.966049 31.796689 
L 433.060205 125.328097 
L 552.154361 132.640164 
" clip-path="url(#p04059e7d8d)" style="fill: none; stroke: #0f766e; stroke-opacity: 0.96; stroke-width: 2.3; stroke-linecap: square"/>
    <defs>
     <path id="mcfa87d9a7c" d="M 0 2.9 
C 0.769089 2.9 1.506782 2.594438 2.05061 2.05061 
C 2.594438 1.506782 2.9 0.769089 2.9 0 
C 2.9 -0.769089 2.594438 -1.506782 2.05061 -2.05061 
C 1.506782 -2.594438 0.769089 -2.9 0 -2.9 
C -0.769089 -2.9 -1.506782 -2.594438 -2.05061 -2.05061 
C -2.594438 -1.506782 -2.9 -0.769089 -2.9 0 
C -2.9 0.769089 -2.594438 1.506782 -2.05061 2.05061 
C -1.506782 2.594438 -0.769089 2.9 0 2.9 
z
" style="stroke: #0f766e; stroke-opacity: 0.96"/>
    </defs>
    <g clip-path="url(#p04059e7d8d)">
     <use xlink:href="#mcfa87d9a7c" x="75.777737" y="101.590347" style="fill: #0f766e; fill-opacity: 0.96; stroke: #0f766e; stroke-opacity: 0.96"/>
     <use xlink:href="#mcfa87d9a7c" x="194.871893" y="110.181998" style="fill: #0f766e; fill-opacity: 0.96; stroke: #0f766e; stroke-opacity: 0.96"/>
     <use xlink:href="#mcfa87d9a7c" x="313.966049" y="31.796689" style="fill: #0f766e; fill-opacity: 0.96; stroke: #0f766e; stroke-opacity: 0.96"/>
     <use xlink:href="#mcfa87d9a7c" x="433.060205" y="125.328097" style="fill: #0f766e; fill-opacity: 0.96; stroke: #0f766e; stroke-opacity: 0.96"/>
     <use xlink:href="#mcfa87d9a7c" x="552.154361" y="132.640164" style="fill: #0f766e; fill-opacity: 0.96; stroke: #0f766e; stroke-opacity: 0.96"/>
    </g>
   </g>
   <g id="line2d_26">
    <path d="M 75.777737 128.873754 
L 194.871893 130.749421 
L 313.966049 130.62756 
L 433.060205 129.631626 
L 552.154361 129.817369 
" clip-path="url(#p04059e7d8d)" style="fill: none; stroke: #b8c0cc; stroke-opacity: 0.42; stroke-width: 1.5; stroke-linecap: square"/>
    <g clip-path="url(#p04059e7d8d)">
     <use xlink:href="#m3ddb70dda7" x="75.777737" y="128.873754" style="fill: #b8c0cc; fill-opacity: 0.42; stroke: #b8c0cc; stroke-opacity: 0.42"/>
     <use xlink:href="#m3ddb70dda7" x="194.871893" y="130.749421" style="fill: #b8c0cc; fill-opacity: 0.42; stroke: #b8c0cc; stroke-opacity: 0.42"/>
     <use xlink:href="#m3ddb70dda7" x="313.966049" y="130.62756" style="fill: #b8c0cc; fill-opacity: 0.42; stroke: #b8c0cc; stroke-opacity: 0.42"/>
     <use xlink:href="#m3ddb70dda7" x="433.060205" y="129.631626" style="fill: #b8c0cc; fill-opacity: 0.42; stroke: #b8c0cc; stroke-opacity: 0.42"/>
     <use xlink:href="#m3ddb70dda7" x="552.154361" y="129.817369" style="fill: #b8c0cc; fill-opacity: 0.42; stroke: #b8c0cc; stroke-opacity: 0.42"/>
    </g>
   </g>
   <g id="text_14">
    <!-- How Each Human-Informed Variant Moves the Embedding -->
    <g style="fill: #111827" transform="translate(139.621049 16.318125) scale(0.12 -0.12)">
     <defs>
      <path id="DejaVuSans-48" d="M 628 4666 
L 1259 4666 
L 1259 2753 
L 3553 2753 
L 3553 4666 
L 4184 4666 
L 4184 0 
L 3553 0 
L 3553 2222 
L 1259 2222 
L 1259 0 
L 628 0 
L 628 4666 
z
" transform="scale(0.015625)"/>
      <path id="DejaVuSans-77" d="M 269 3500 
L 844 3500 
L 1563 769 
L 2278 3500 
L 2956 3500 
L 3675 769 
L 4391 3500 
L 4966 3500 
L 4050 0 
L 3372 0 
L 2619 2869 
L 1863 0 
L 1184 0 
L 269 3500 
z
" transform="scale(0.015625)"/>
      <path id="DejaVuSans-45" d="M 628 4666 
L 3578 4666 
L 3578 4134 
L 1259 4134 
L 1259 2753 
L 3481 2753 
L 3481 2222 
L 1259 2222 
L 1259 531 
L 3634 531 
L 3634 0 
L 628 0 
L 628 4666 
z
" transform="scale(0.015625)"/>
      <path id="DejaVuSans-49" d="M 628 4666 
L 1259 4666 
L 1259 0 
L 628 0 
L 628 4666 
z
" transform="scale(0.015625)"/>
      <path id="DejaVuSans-66" d="M 2375 4863 
L 2375 4384 
L 1825 4384 
Q 1516 4384 1395 4259 
Q 1275 4134 1275 3809 
L 1275 3500 
L 2222 3500 
L 2222 3053 
L 1275 3053 
L 1275 0 
L 697 0 
L 697 3053 
L 147 3053 
L 147 3500 
L 697 3500 
L 697 3744 
Q 697 4328 969 4595 
Q 1241 4863 1831 4863 
L 2375 4863 
z
" transform="scale(0.015625)"/>
      <path id="DejaVuSans-56" d="M 1831 0 
L 50 4666 
L 709 4666 
L 2188 738 
L 3669 4666 
L 4325 4666 
L 2547 0 
L 1831 0 
z
" transform="scale(0.015625)"/>
      <path id="DejaVuSans-4d" d="M 628 4666 
L 1569 4666 
L 2759 1491 
L 3956 4666 
L 4897 4666 
L 4897 0 
L 4281 0 
L 4281 4097 
L 3078 897 
L 2444 897 
L 1241 4097 
L 1241 0 
L 628 0 
L 628 4666 
z
" transform="scale(0.015625)"/>
     </defs>
     <use xlink:href="#DejaVuSans-48"/>
     <use xlink:href="#DejaVuSans-6f" x="75.195312"/>
     <use xlink:href="#DejaVuSans-77" x="136.376953"/>
     <use xlink:href="#DejaVuSans-20" x="218.164062"/>
     <use xlink:href="#DejaVuSans-45" x="249.951172"/>
     <use xlink:href="#DejaVuSans-61" x="313.134766"/>
     <use xlink:href="#DejaVuSans-63" x="374.414062"/>
     <use xlink:href="#DejaVuSans-68" x="429.394531"/>
     <use xlink:href="#DejaVuSans-20" x="492.773438"/>
     <use xlink:href="#DejaVuSans-48" x="524.560547"/>
     <use xlink:href="#DejaVuSans-75" x="599.755859"/>
     <use xlink:href="#DejaVuSans-6d" x="663.134766"/>
     <use xlink:href="#DejaVuSans-61" x="760.546875"/>
     <use xlink:href="#DejaVuSans-6e" x="821.826172"/>
     <use xlink:href="#DejaVuSans-2d" x="885.205078"/>
     <use xlink:href="#DejaVuSans-49" x="921.289062"/>
     <use xlink:href="#DejaVuSans-6e" x="950.78125"/>
     <use xlink:href="#DejaVuSans-66" x="1014.160156"/>
     <use xlink:href="#DejaVuSans-6f" x="1049.365234"/>
     <use xlink:href="#DejaVuSans-72" x="1110.546875"/>
     <use xlink:href="#DejaVuSans-6d" x="1149.910156"/>
     <use xlink:href="#DejaVuSans-65" x="1247.322266"/>
     <use xlink:href="#DejaVuSans-64" x="1308.845703"/>
     <use xlink:href="#DejaVuSans-20" x="1372.322266"/>
     <use xlink:href="#DejaVuSans-56" x="1404.109375"/>
     <use xlink:href="#DejaVuSans-61" x="1464.767578"/>
     <use xlink:href="#DejaVuSans-72" x="1526.046875"/>
     <use xlink:href="#DejaVuSans-69" x="1567.160156"/>
     <use xlink:href="#DejaVuSans-61" x="1594.943359"/>
     <use xlink:href="#DejaVuSans-6e" x="1656.222656"/>
     <use xlink:href="#DejaVuSans-74" x="1719.601562"/>
     <use xlink:href="#DejaVuSans-20" x="1758.810547"/>
     <use xlink:href="#DejaVuSans-4d" x="1790.597656"/>
     <use xlink:href="#DejaVuSans-6f" x="1876.876953"/>
     <use xlink:href="#DejaVuSans-76" x="1938.058594"/>
     <use xlink:href="#DejaVuSans-65" x="1997.238281"/>
     <use xlink:href="#DejaVuSans-73" x="2058.761719"/>
     <use xlink:href="#DejaVuSans-20" x="2110.861328"/>
     <use xlink:href="#DejaVuSans-74" x="2142.648438"/>
     <use xlink:href="#DejaVuSans-68" x="2181.857422"/>
     <use xlink:href="#DejaVuSans-65" x="2245.236328"/>
     <use xlink:href="#DejaVuSans-20" x="2306.759766"/>
     <use xlink:href="#DejaVuSans-45" x="2338.546875"/>
     <use xlink:href="#DejaVuSans-6d" x="2401.730469"/>
     <use xlink:href="#DejaVuSans-62" x="2499.142578"/>
     <use xlink:href="#DejaVuSans-65" x="2562.619141"/>
     <use xlink:href="#DejaVuSans-64" x="2624.142578"/>
     <use xlink:href="#DejaVuSans-64" x="2687.619141"/>
     <use xlink:href="#DejaVuSans-69" x="2751.095703"/>
     <use xlink:href="#DejaVuSans-6e" x="2778.878906"/>
     <use xlink:href="#DejaVuSans-67" x="2842.257812"/>
    </g>
   </g>
   <g id="legend_1">
    <g id="line2d_27">
     <path d="M 160.434799 281.480088 
L 170.434799 281.480088 
L 180.434799 281.480088 
" style="fill: none; stroke: #2563eb; stroke-opacity: 0.96; stroke-width: 2.3; stroke-linecap: square"/>
     <g>
      <use xlink:href="#ma2beaf23b9" x="170.434799" y="281.480088" style="fill: #2563eb; fill-opacity: 0.96; stroke: #2563eb; stroke-opacity: 0.96"/>
     </g>
    </g>
    <g id="text_15">
     <!-- Fixed-prototype triplets -->
     <g style="fill: #111827" transform="translate(188.434799 284.980088) scale(0.1 -0.1)">
      <defs>
       <path id="DejaVuSans-46" d="M 628 4666 
L 3309 4666 
L 3309 4134 
L 1259 4134 
L 1259 2759 
L 3109 2759 
L 3109 2228 
L 1259 2228 
L 1259 0 
L 628 0 
L 628 4666 
z
" transform="scale(0.015625)"/>
       <path id="DejaVuSans-78" d="M 3513 3500 
L 2247 1797 
L 3578 0 
L 2900 0 
L 1881 1375 
L 863 0 
L 184 0 
L 1544 1831 
L 300 3500 
L 978 3500 
L 1906 2253 
L 2834 3500 
L 3513 3500 
z
" transform="scale(0.015625)"/>
      </defs>
      <use xlink:href="#DejaVuSans-46"/>
      <use xlink:href="#DejaVuSans-69" x="50.269531"/>
      <use xlink:href="#DejaVuSans-78" x="78.052734"/>
      <use xlink:href="#DejaVuSans-65" x="134.107422"/>
      <use xlink:href="#DejaVuSans-64" x="195.630859"/>
      <use xlink:href="#DejaVuSans-2d" x="259.107422"/>
      <use xlink:href="#DejaVuSans-70" x="295.191406"/>
      <use xlink:href="#DejaVuSans-72" x="358.667969"/>
      <use xlink:href="#DejaVuSans-6f" x="397.53125"/>
      <use xlink:href="#DejaVuSans-74" x="458.712891"/>
      <use xlink:href="#DejaVuSans-6f" x="497.921875"/>
      <use xlink:href="#DejaVuSans-74" x="559.103516"/>
      <use xlink:href="#DejaVuSans-79" x="598.3125"/>
      <use xlink:href="#DejaVuSans-70" x="657.492188"/>
      <use xlink:href="#DejaVuSans-65" x="720.96875"/>
      <use xlink:href="#DejaVuSans-20" x="782.492188"/>
      <use xlink:href="#DejaVuSans-74" x="814.279297"/>
      <use xlink:href="#DejaVuSans-72" x="853.488281"/>
      <use xlink:href="#DejaVuSans-69" x="894.601562"/>
      <use xlink:href="#DejaVuSans-70" x="922.384766"/>
      <use xlink:href="#DejaVuSans-6c" x="985.861328"/>
      <use xlink:href="#DejaVuSans-65" x="1013.644531"/>
      <use xlink:href="#DejaVuSans-74" x="1075.167969"/>
      <use xlink:href="#DejaVuSans-73" x="1114.376953"/>
     </g>
    </g>
    <g id="line2d_28">
     <path d="M 160.434799 296.158213 
L 170.434799 296.158213 
L 180.434799 296.158213 
" style="fill: none; stroke: #b8c0cc; stroke-opacity: 0.42; stroke-width: 1.5; stroke-linecap: square"/>
     <g>
      <use xlink:href="#m3ddb70dda7" x="170.434799" y="296.158213" style="fill: #b8c0cc; fill-opacity: 0.42; stroke: #b8c0cc; stroke-opacity: 0.42"/>
     </g>
    </g>
    <g id="text_16">
     <!-- Fixed-prototype control -->
     <g style="fill: #111827" transform="translate(188.434799 299.658213) scale(0.1 -0.1)">
      <use xlink:href="#DejaVuSans-46"/>
      <use xlink:href="#DejaVuSans-69" x="50.269531"/>
      <use xlink:href="#DejaVuSans-78" x="78.052734"/>
      <use xlink:href="#DejaVuSans-65" x="134.107422"/>
      <use xlink:href="#DejaVuSans-64" x="195.630859"/>
      <use xlink:href="#DejaVuSans-2d" x="259.107422"/>
      <use xlink:href="#DejaVuSans-70" x="295.191406"/>
      <use xlink:href="#DejaVuSans-72" x="358.667969"/>
      <use xlink:href="#DejaVuSans-6f" x="397.53125"/>
      <use xlink:href="#DejaVuSans-74" x="458.712891"/>
      <use xlink:href="#DejaVuSans-6f" x="497.921875"/>
      <use xlink:href="#DejaVuSans-74" x="559.103516"/>
      <use xlink:href="#DejaVuSans-79" x="598.3125"/>
      <use xlink:href="#DejaVuSans-70" x="657.492188"/>
      <use xlink:href="#DejaVuSans-65" x="720.96875"/>
      <use xlink:href="#DejaVuSans-20" x="782.492188"/>
      <use xlink:href="#DejaVuSans-63" x="814.279297"/>
      <use xlink:href="#DejaVuSans-6f" x="869.259766"/>
      <use xlink:href="#DejaVuSans-6e" x="930.441406"/>
      <use xlink:href="#DejaVuSans-74" x="993.820312"/>
      <use xlink:href="#DejaVuSans-72" x="1033.029297"/>
      <use xlink:href="#DejaVuSans-6f" x="1071.892578"/>
      <use xlink:href="#DejaVuSans-6c" x="1133.074219"/>
     </g>
    </g>
    <g id="line2d_29">
     <path d="M 160.434799 310.836338 
L 170.434799 310.836338 
L 180.434799 310.836338 
" style="fill: none; stroke: #059669; stroke-opacity: 0.96; stroke-width: 2.3; stroke-linecap: square"/>
     <g>
      <use xlink:href="#m41f80d47e3" x="170.434799" y="310.836338" style="fill: #059669; fill-opacity: 0.96; stroke: #059669; stroke-opacity: 0.96"/>
     </g>
    </g>
    <g id="text_17">
     <!-- Batch-prototype triplets -->
     <g style="fill: #111827" transform="translate(188.434799 314.336338) scale(0.1 -0.1)">
      <defs>
       <path id="DejaVuSans-42" d="M 1259 2228 
L 1259 519 
L 2272 519 
Q 2781 519 3026 730 
Q 3272 941 3272 1375 
Q 3272 1813 3026 2020 
Q 2781 2228 2272 2228 
L 1259 2228 
z
M 1259 4147 
L 1259 2741 
L 2194 2741 
Q 2656 2741 2882 2914 
Q 3109 3088 3109 3444 
Q 3109 3797 2882 3972 
Q 2656 4147 2194 4147 
L 1259 4147 
z
M 628 4666 
L 2241 4666 
Q 2963 4666 3353 4366 
Q 3744 4066 3744 3513 
Q 3744 3084 3544 2831 
Q 3344 2578 2956 2516 
Q 3422 2416 3680 2098 
Q 3938 1781 3938 1306 
Q 3938 681 3513 340 
Q 3088 0 2303 0 
L 628 0 
L 628 4666 
z
" transform="scale(0.015625)"/>
      </defs>
      <use xlink:href="#DejaVuSans-42"/>
      <use xlink:href="#DejaVuSans-61" x="68.603516"/>
      <use xlink:href="#DejaVuSans-74" x="129.882812"/>
      <use xlink:href="#DejaVuSans-63" x="169.091797"/>
      <use xlink:href="#DejaVuSans-68" x="224.072266"/>
      <use xlink:href="#DejaVuSans-2d" x="287.451172"/>
      <use xlink:href="#DejaVuSans-70" x="323.535156"/>
      <use xlink:href="#DejaVuSans-72" x="387.011719"/>
      <use xlink:href="#DejaVuSans-6f" x="425.875"/>
      <use xlink:href="#DejaVuSans-74" x="487.056641"/>
      <use xlink:href="#DejaVuSans-6f" x="526.265625"/>
      <use xlink:href="#DejaVuSans-74" x="587.447266"/>
      <use xlink:href="#DejaVuSans-79" x="626.65625"/>
      <use xlink:href="#DejaVuSans-70" x="685.835938"/>
      <use xlink:href="#DejaVuSans-65" x="749.3125"/>
      <use xlink:href="#DejaVuSans-20" x="810.835938"/>
      <use xlink:href="#DejaVuSans-74" x="842.623047"/>
      <use xlink:href="#DejaVuSans-72" x="881.832031"/>
      <use xlink:href="#DejaVuSans-69" x="922.945312"/>
      <use xlink:href="#DejaVuSans-70" x="950.728516"/>
      <use xlink:href="#DejaVuSans-6c" x="1014.205078"/>
      <use xlink:href="#DejaVuSans-65" x="1041.988281"/>
      <use xlink:href="#DejaVuSans-74" x="1103.511719"/>
      <use xlink:href="#DejaVuSans-73" x="1142.720703"/>
     </g>
    </g>
    <g id="line2d_30">
     <path d="M 327.917612 281.480088 
L 337.917612 281.480088 
L 347.917612 281.480088 
" style="fill: none; stroke: #dc2626; stroke-opacity: 0.96; stroke-width: 2.3; stroke-linecap: square"/>
     <g>
      <use xlink:href="#m7afd36f8bb" x="337.917612" y="281.480088" style="fill: #dc2626; fill-opacity: 0.96; stroke: #dc2626; stroke-opacity: 0.96"/>
     </g>
    </g>
    <g id="text_18">
     <!-- High-pressure triplets -->
     <g style="fill: #111827" transform="translate(355.917612 284.980088) scale(0.1 -0.1)">
      <use xlink:href="#DejaVuSans-48"/>
      <use xlink:href="#DejaVuSans-69" x="75.195312"/>
      <use xlink:href="#DejaVuSans-67" x="102.978516"/>
      <use xlink:href="#DejaVuSans-68" x="166.455078"/>
      <use xlink:href="#DejaVuSans-2d" x="229.833984"/>
      <use xlink:href="#DejaVuSans-70" x="265.917969"/>
      <use xlink:href="#DejaVuSans-72" x="329.394531"/>
      <use xlink:href="#DejaVuSans-65" x="368.257812"/>
      <use xlink:href="#DejaVuSans-73" x="429.78125"/>
      <use xlink:href="#DejaVuSans-73" x="481.880859"/>
      <use xlink:href="#DejaVuSans-75" x="533.980469"/>
      <use xlink:href="#DejaVuSans-72" x="597.359375"/>
      <use xlink:href="#DejaVuSans-65" x="636.222656"/>
      <use xlink:href="#DejaVuSans-20" x="697.746094"/>
      <use xlink:href="#DejaVuSans-74" x="729.533203"/>
      <use xlink:href="#DejaVuSans-72" x="768.742188"/>
      <use xlink:href="#DejaVuSans-69" x="809.855469"/>
      <use xlink:href="#DejaVuSans-70" x="837.638672"/>
      <use xlink:href="#DejaVuSans-6c" x="901.115234"/>
      <use xlink:href="#DejaVuSans-65" x="928.898438"/>
      <use xlink:href="#DejaVuSans-74" x="990.421875"/>
      <use xlink:href="#DejaVuSans-73" x="1029.630859"/>
     </g>
    </g>
    <g id="line2d_31">
     <path d="M 327.917612 296.158213 
L 337.917612 296.158213 
L 347.917612 296.158213 
" style="fill: none; stroke: #0f766e; stroke-opacity: 0.96; stroke-width: 2.3; stroke-linecap: square"/>
     <g>
      <use xlink:href="#mcfa87d9a7c" x="337.917612" y="296.158213" style="fill: #0f766e; fill-opacity: 0.96; stroke: #0f766e; stroke-opacity: 0.96"/>
     </g>
    </g>
    <g id="text_19">
     <!-- Joint matrix alignment -->
     <g style="fill: #111827" transform="translate(355.917612 299.658213) scale(0.1 -0.1)">
      <defs>
       <path id="DejaVuSans-4a" d="M 628 4666 
L 1259 4666 
L 1259 325 
Q 1259 -519 939 -900 
Q 619 -1281 -91 -1281 
L -331 -1281 
L -331 -750 
L -134 -750 
Q 284 -750 456 -515 
Q 628 -281 628 325 
L 628 4666 
z
" transform="scale(0.015625)"/>
      </defs>
      <use xlink:href="#DejaVuSans-4a"/>
      <use xlink:href="#DejaVuSans-6f" x="29.492188"/>
      <use xlink:href="#DejaVuSans-69" x="90.673828"/>
      <use xlink:href="#DejaVuSans-6e" x="118.457031"/>
      <use xlink:href="#DejaVuSans-74" x="181.835938"/>
      <use xlink:href="#DejaVuSans-20" x="221.044922"/>
      <use xlink:href="#DejaVuSans-6d" x="252.832031"/>
      <use xlink:href="#DejaVuSans-61" x="350.244141"/>
      <use xlink:href="#DejaVuSans-74" x="411.523438"/>
      <use xlink:href="#DejaVuSans-72" x="450.732422"/>
      <use xlink:href="#DejaVuSans-69" x="491.845703"/>
      <use xlink:href="#DejaVuSans-78" x="519.628906"/>
      <use xlink:href="#DejaVuSans-20" x="578.808594"/>
      <use xlink:href="#DejaVuSans-61" x="610.595703"/>
      <use xlink:href="#DejaVuSans-6c" x="671.875"/>
      <use xlink:href="#DejaVuSans-69" x="699.658203"/>
      <use xlink:href="#DejaVuSans-67" x="727.441406"/>
      <use xlink:href="#DejaVuSans-6e" x="790.917969"/>
      <use xlink:href="#DejaVuSans-6d" x="854.296875"/>
      <use xlink:href="#DejaVuSans-65" x="951.708984"/>
      <use xlink:href="#DejaVuSans-6e" x="1013.232422"/>
      <use xlink:href="#DejaVuSans-74" x="1076.611328"/>
     </g>
    </g>
    <g id="line2d_32">
     <path d="M 327.917612 310.836338 
L 337.917612 310.836338 
L 347.917612 310.836338 
" style="fill: none; stroke: #b8c0cc; stroke-opacity: 0.42; stroke-width: 1.5; stroke-linecap: square"/>
     <g>
      <use xlink:href="#m3ddb70dda7" x="337.917612" y="310.836338" style="fill: #b8c0cc; fill-opacity: 0.42; stroke: #b8c0cc; stroke-opacity: 0.42"/>
     </g>
    </g>
    <g id="text_20">
     <!-- Matrix control -->
     <g style="fill: #111827" transform="translate(355.917612 314.336338) scale(0.1 -0.1)">
      <use xlink:href="#DejaVuSans-4d"/>
      <use xlink:href="#DejaVuSans-61" x="86.279297"/>
      <use xlink:href="#DejaVuSans-74" x="147.558594"/>
      <use xlink:href="#DejaVuSans-72" x="186.767578"/>
      <use xlink:href="#DejaVuSans-69" x="227.880859"/>
      <use xlink:href="#DejaVuSans-78" x="255.664062"/>
      <use xlink:href="#DejaVuSans-20" x="314.84375"/>
      <use xlink:href="#DejaVuSans-63" x="346.630859"/>
      <use xlink:href="#DejaVuSans-6f" x="401.611328"/>
      <use xlink:href="#DejaVuSans-6e" x="462.792969"/>
      <use xlink:href="#DejaVuSans-74" x="526.171875"/>
      <use xlink:href="#DejaVuSans-72" x="565.380859"/>
      <use xlink:href="#DejaVuSans-6f" x="604.244141"/>
      <use xlink:href="#DejaVuSans-6c" x="665.425781"/>
     </g>
    </g>
   </g>
  </g>
 </g>
 <defs>
  <clipPath id="p04059e7d8d">
   <rect x="51.958906" y="22.318125" width="524.014286" height="208.528411"/>
  </clipPath>
 </defs>
</svg>
